<svg width="116" height="118" viewBox="0 0 116 118" fill="none" xmlns="http://www.w3.org/2000/svg">
<g clip-path="url(#clip0_1057_69404)">
<path d="M15.1779 78.7474C12.5518 81.1131 10.4785 84 8.72571 87.1817C4.50384 94.8549 2.72587 103.255 2.66933 112.142C2.66933 112.766 2.82011 113.486 2.59394 114C2.29866 114.665 1.75208 115.55 1.2055 115.653C0.237985 115.831 -0.0635777 114.857 0.00553038 113.911C0.313375 109.893 0.432744 105.833 1.0233 101.863C2.27981 93.4766 5.40852 85.968 10.6356 79.5977C13.1612 76.5188 16.0951 73.9886 19.3998 71.9451C20.4992 71.2663 21.429 70.2583 22.585 69.264C17.9548 64.7177 15.8313 59.3485 16.7046 52.8685C17.2763 48.6034 19.249 45.0857 22.2269 42.24C27.8812 36.8434 37.2988 36.9805 42.7897 42.5485C46.3393 46.1485 48.243 50.5303 48.1801 55.872C48.1236 60.3086 47.4576 61.8788 42.3939 69.2091C51.4785 79.3097 54.7705 92.4 57.7987 105.696C60.8269 92.4206 64.0938 79.3714 73.3041 69.12C68.8749 64.752 66.7011 59.4103 67.5681 52.9371C68.1649 48.4868 70.2005 44.7908 73.4297 41.9725C79.6432 36.5623 88.7214 37.1383 94.3003 43.2411C97.6113 46.8617 99.2321 51.216 99.05 56.3383C98.8678 61.4743 96.7066 65.5748 93.1067 69.168C93.9736 70.0457 94.6396 71.0537 95.5443 71.5954C105.954 77.7668 111.741 87.6137 114.185 99.9291C115.058 104.345 115.171 108.946 115.592 113.465C115.686 114.494 115.692 115.728 114.335 115.707C113.066 115.694 112.96 114.507 112.96 113.458C112.978 106.615 112.105 99.9566 109.768 93.5589C107.871 88.3543 105.194 83.7188 101.506 79.7966C101.243 79.5223 100.966 79.2548 100.677 79.0148C100.564 78.9188 100.407 78.8983 100.093 78.7748C100.181 79.1657 100.193 79.44 100.306 79.6526C104.572 88.2651 107.004 97.5429 108.637 107.102C109.077 109.673 109.473 112.258 109.843 114.843C110.183 117.182 109.73 117.765 107.594 117.765C74.3784 117.765 41.1562 117.758 7.94039 117.744C5.86087 117.744 5.42109 117.202 5.72893 114.953C7.20533 104.167 9.27229 93.552 13.469 83.5611C14.1099 82.0251 14.8261 80.5303 15.5109 79.0148C15.3915 78.9257 15.2784 78.8434 15.159 78.7543L15.1779 78.7474ZM34.3397 72.9874C34.5281 73.632 34.7041 74.2766 34.9114 74.9074C35.8601 77.7394 36.7899 80.5851 37.7825 83.3966C38.1657 84.4869 38.0338 85.3303 37.3176 86.2011C36.0674 87.7303 34.88 89.3211 33.6674 90.8914C32.7942 92.0229 31.9335 92.016 31.0665 90.8914C29.8539 89.3211 28.6665 87.7303 27.4163 86.208C26.7064 85.344 26.5682 84.5006 26.9514 83.4034C27.9817 80.4823 28.9492 77.5337 29.9168 74.592C30.0989 74.0366 30.1932 73.4468 30.3188 72.912C28.7985 72.3566 27.4163 71.9931 26.1598 71.3554C25.1106 70.8206 24.3379 70.9714 23.697 71.904C21.6175 74.9554 19.249 77.8354 17.5841 81.1406C12.6146 90.9874 10.2272 101.774 8.6943 112.807C8.60634 113.451 8.68173 114.123 8.68173 114.946H10.6733C25.0792 114.946 39.4851 114.946 53.8973 114.946C54.2616 114.946 54.6323 114.919 54.9904 114.946C56.0019 115.022 56.2469 114.466 56.115 113.472C54.8271 103.625 52.6533 94.032 48.9215 84.9257C46.9739 80.1737 44.5991 75.6891 41.106 72.048C40.6411 71.5611 39.8181 71.0057 39.3029 71.136C37.6506 71.5748 36.0674 72.3223 34.3271 73.0011L34.3397 72.9874ZM81.3394 72.9257C79.8253 72.4046 78.4872 72.1783 77.3752 71.5131C75.9364 70.656 75.1323 71.2457 74.1585 72.3497C70.1314 76.9166 67.5178 82.3954 65.4132 88.2103C62.5483 96.1371 60.6761 104.359 59.6018 112.8C59.3379 114.891 59.3317 114.946 61.2416 114.946C75.9239 114.946 90.5999 114.946 105.282 114.946C105.835 114.946 106.382 114.871 107.041 114.823C106.985 113.945 106.985 113.266 106.891 112.594C105.722 103.941 103.818 95.4926 100.79 87.3806C98.6918 81.7577 96.1034 76.4228 92.0575 72.1166C91.5674 71.5954 90.6879 71.0331 90.1287 71.1703C88.5204 71.5611 86.9875 72.3086 85.266 72.9737C85.4105 73.5291 85.5362 74.1188 85.7247 74.688C86.6985 77.6366 87.7476 80.5508 88.6335 83.5337C88.8408 84.2263 88.7591 85.296 88.3822 85.8583C87.1885 87.6549 85.8063 89.3006 84.4807 90.9874C83.6514 92.0434 82.797 91.9954 81.9803 90.9463C80.9311 89.6023 79.951 88.1828 78.8201 86.928C77.6516 85.632 77.4191 84.3771 78.0662 82.6491C79.2536 79.5017 80.2337 76.2651 81.3457 72.9326L81.3394 72.9257ZM45.5415 55.5908C45.554 47.4994 39.7489 41.1291 32.3732 41.1428C25.0415 41.1497 19.0856 47.6297 19.0982 55.5703C19.1171 63.4217 25.0352 69.9086 32.2727 70.0046C39.5291 70.1006 45.5289 63.5863 45.5415 55.5908ZM83.3499 41.1565C75.905 41.1428 70.0874 47.4171 70.0685 55.4811C70.0497 63.5108 75.9176 69.9908 83.2242 70.0183C90.468 70.0388 96.5369 63.4217 96.5055 55.5291C96.4741 47.616 90.5748 41.1703 83.3436 41.1565H83.3499ZM32.2225 87.9429C32.6057 87.6754 32.7439 87.5931 32.857 87.4903C34.9114 85.6251 35.7093 83.5474 34.1763 80.7566C33.435 79.3988 33.0894 77.7874 32.5617 76.2926C32.4172 76.2926 32.2727 76.2994 32.1282 76.3063C31.2675 78.8228 30.3942 81.3394 29.5712 83.8766C29.4895 84.1303 29.6089 84.576 29.7785 84.8091C30.5513 85.8583 31.368 86.8663 32.2225 87.9497V87.9429ZM83.0546 87.9017C85.976 85.7143 86.3403 84.5486 85.2409 81.4011C84.9268 80.5028 84.6252 79.5977 84.3111 78.6994C84.0284 77.8971 83.7205 77.1017 83.4252 76.2994C83.287 76.3063 83.1488 76.32 83.0106 76.3268C82.1499 78.8571 81.2829 81.3806 80.4473 83.9177C80.3719 84.1371 80.4599 84.5143 80.5981 84.7063C81.4023 85.7966 82.2441 86.8594 83.0546 87.9086V87.9017Z" fill="#3B84F5"/>
<path d="M57.9178 0.0128805C62.2025 0.0128805 66.4809 -0.00769095 70.7656 0.0128805C75.3393 0.0403091 77.6764 2.62545 77.6827 7.64489C77.689 13.9672 77.6953 20.2963 77.6827 26.6186C77.6701 31.0483 75.5592 33.5375 71.5384 33.8255C69.9238 33.942 68.2966 33.9695 66.6882 33.8735C65.4632 33.8049 64.816 34.2232 64.37 35.5329C62.8119 40.1203 61.1722 44.6803 59.457 49.2061C59.1429 50.0426 58.3513 50.6598 57.7796 51.3798C57.2204 50.6392 56.4603 49.9878 56.1398 49.1443C54.431 44.6186 52.7975 40.0518 51.2206 35.4712C50.7997 34.2506 50.184 33.846 49.0217 33.8803C47.093 33.9352 45.1517 33.9283 43.2355 33.7363C40.245 33.4346 38.0021 30.8495 37.9707 27.5786C37.9016 20.5158 37.889 13.446 37.9707 6.38317C38.0147 2.61174 40.6408 0.0883091 44.448 0.0334519C48.94 -0.0282624 53.4258 0.0197376 57.9178 0.0197376V0.0128805ZM57.8047 45.7912C58.2068 44.8175 58.4518 44.2826 58.6529 43.7272C59.9471 40.1272 61.2601 36.5272 62.5103 32.9066C62.9564 31.6106 63.6663 31.014 64.9731 31.0689C67.0087 31.1512 69.0442 31.11 71.0798 31.0826C73.6933 31.0483 75.1697 29.5055 75.1885 26.646C75.2262 20.2072 75.2262 13.7683 75.1885 7.33631C75.1697 4.4426 73.7435 2.8586 71.1237 2.85174C62.2528 2.82431 53.3755 2.82431 44.5046 2.85174C41.9413 2.8586 40.4586 4.40831 40.4397 7.15803C40.3958 13.7066 40.3958 20.262 40.4397 26.8106C40.4586 29.4712 41.9664 31.0346 44.3852 31.0758C46.471 31.1169 48.5631 31.1512 50.6489 31.0689C51.9557 31.0209 52.6656 31.6038 53.1117 32.9066C54.3619 36.5272 55.6749 40.1203 56.9691 43.7272C57.1702 44.2826 57.4152 44.8175 57.811 45.798L57.8047 45.7912Z" fill="#3B84F5"/>
<path d="M28.3337 51.7423C29.0248 51.2486 29.6719 50.46 30.4195 50.3366C31.5064 50.1515 32.1786 51.0566 32.1284 52.2429C32.0844 53.3812 31.4562 54.3412 30.3504 54.0943C29.6091 53.9297 28.9871 53.0932 28.3086 52.5583C28.3086 52.284 28.3212 52.0097 28.3274 51.7423H28.3337Z" fill="#3B84F5"/>
<path d="M39.4609 49.9805C40.8996 50.4056 41.6221 50.9473 41.5906 52.209C41.5592 53.4022 40.9624 54.129 39.8504 54.1565C38.6944 54.1839 38.0222 53.2993 38.1478 52.2228C38.242 51.4273 38.996 50.7279 39.4546 49.9805H39.4609Z" fill="#3B84F5"/>
<path d="M85.7946 54.2123C84.1423 54.1369 83.5266 53.4032 83.4826 52.258C83.4386 51.0717 84.0732 50.2969 85.1977 50.2969C86.2783 50.2969 87.1265 50.9757 86.9569 52.162C86.8375 52.9849 86.1087 53.698 85.7946 54.2123Z" fill="#3B84F5"/>
<path d="M75.46 54.4732C74.9825 53.7464 74.2474 53.0812 74.0841 52.2721C73.8391 51.0858 74.6244 50.3589 75.7113 50.2972C76.8358 50.2286 77.6086 50.9966 77.4767 52.1349C77.3887 52.9509 76.6662 53.6778 76.2264 54.4527C75.9688 54.4595 75.7175 54.4664 75.46 54.4732Z" fill="#3B84F5"/>
</g>
<defs>
<clipPath id="clip0_1057_69404">
<rect width="115.637" height="117.751" fill="white"/>
</clipPath>
</defs>
</svg>
