<svg width="30" height="30" viewBox="0 0 30 30" fill="none" xmlns="http://www.w3.org/2000/svg">
<path d="M14.6296 27.0572C21.4117 27.0572 26.9096 21.5286 26.9096 14.7088C26.9096 7.88893 21.4117 2.36035 14.6296 2.36035C7.84755 2.36035 2.34961 7.88893 2.34961 14.7088C2.34961 21.5286 7.84755 27.0572 14.6296 27.0572Z" fill="#FFCA3F"/>
<path d="M21.6278 18.5596C21.4578 16.4479 19.0978 17.4032 17.9578 17.9462C16.3678 18.7004 14.6178 18.7305 12.9378 18.278C12.4778 18.1574 12.0278 17.9965 11.5878 17.8155C11.3378 17.7048 11.0978 17.5942 10.8578 17.4635C10.2378 17.1417 9.56782 16.4278 8.84782 16.3373C7.62782 16.1764 7.01782 17.2624 6.94782 18.1674C6.83782 19.5249 8.78782 20.6109 9.83782 21.0333C9.94782 21.0836 10.0678 21.1137 10.1778 21.154C11.2278 20.7819 12.5578 20.44 13.8678 20.4501C15.3178 20.4601 16.7878 21.1841 17.8478 21.8679C19.1978 21.6769 20.4878 21.1741 21.2378 19.9473C21.4978 19.5249 21.6578 19.0322 21.6178 18.5395L21.6278 18.5596Z" fill="#213E7A" stroke="#213E7A" stroke-width="2" stroke-linecap="round" stroke-linejoin="round"/>
<path d="M10.1875 21.1638C12.0375 21.8375 14.1575 21.9984 16.0975 21.9984C16.6675 21.9984 17.2675 21.9682 17.8575 21.8878C16.7975 21.204 15.3375 20.48 13.8775 20.4699C12.5675 20.4599 11.2275 20.8018 10.1875 21.1738V21.1638Z" fill="#E13E6B" stroke="#213E7A" stroke-width="2" stroke-linecap="round" stroke-linejoin="round"/>
<path d="M12.0792 15.2423C13.6698 15.2423 14.9592 13.9457 14.9592 12.3462C14.9592 10.7468 13.6698 9.4502 12.0792 9.4502C10.4886 9.4502 9.19922 10.7468 9.19922 12.3462C9.19922 13.9457 10.4886 15.2423 12.0792 15.2423Z" fill="white"/>
<path d="M12.6098 13.593C13.3553 13.593 13.9598 12.9852 13.9598 12.2355C13.9598 11.4857 13.3553 10.8779 12.6098 10.8779C11.8642 10.8779 11.2598 11.4857 11.2598 12.2355C11.2598 12.9852 11.8642 13.593 12.6098 13.593Z" fill="#17386C"/>
<path d="M17.5284 15.6749C19.119 15.6749 20.4084 14.3783 20.4084 12.7789C20.4084 11.1794 19.119 9.88281 17.5284 9.88281C15.9379 9.88281 14.6484 11.1794 14.6484 12.7789C14.6484 14.3783 15.9379 15.6749 17.5284 15.6749Z" fill="white"/>
<path d="M17.059 13.8547C17.8046 13.8547 18.409 13.2469 18.409 12.4972C18.409 11.7474 17.8046 11.1396 17.059 11.1396C16.3134 11.1396 15.709 11.7474 15.709 12.4972C15.709 13.2469 16.3134 13.8547 17.059 13.8547Z" fill="#17386C"/>
<path d="M7.17867 13.0603C7.75305 13.0603 8.21867 12.5921 8.21867 12.0145C8.21867 11.437 7.75305 10.9688 7.17867 10.9688C6.6043 10.9688 6.13867 11.437 6.13867 12.0145C6.13867 12.5921 6.6043 13.0603 7.17867 13.0603Z" fill="#E13E6B"/>
<path d="M22.3291 14.7088C22.9034 14.7088 23.3691 14.2406 23.3691 13.663C23.3691 13.0854 22.9034 12.6172 22.3291 12.6172C21.7547 12.6172 21.2891 13.0854 21.2891 13.663C21.2891 14.2406 21.7547 14.7088 22.3291 14.7088Z" fill="#E13E6B"/>
<mask id="mask0_1311_52583" style="mask-type:luminance" maskUnits="userSpaceOnUse" x="0" y="0" width="30" height="30">
<path d="M14.63 29.4231C10.13 29.4231 5.94 27.3817 3.14 23.822C1.09 21.2075 0 18.0601 0 14.7216C0 6.60661 6.56 0 14.63 0C22.7 0 29.25 6.59656 29.25 14.7015C29.25 18.04 28.17 21.1874 26.11 23.8019C23.31 27.3616 19.13 29.4029 14.62 29.4029L14.63 29.4231ZM14.63 1.09607C7.16 1.09607 1.09 7.1999 1.09 14.7115C1.09 17.8087 2.09 20.7148 3.99 23.1382C6.58 26.4365 10.46 28.327 14.63 28.327C18.8 28.327 22.68 26.4365 25.27 23.1382C27.17 20.7148 28.17 17.8087 28.17 14.7115C28.17 7.1999 22.1 1.09607 14.63 1.09607Z" fill="white"/>
</mask>
<g mask="url(#mask0_1311_52583)">
<path d="M32.3202 -1.62891H-1.25977V32.1382H32.3202V-1.62891Z" fill="url(#paint0_radial_1311_52583)"/>
</g>
<defs>
<radialGradient id="paint0_radial_1311_52583" cx="0" cy="0" r="1" gradientUnits="userSpaceOnUse" gradientTransform="translate(8.50024 32.0578) scale(51.98 52.2697)">
<stop stop-color="#F9ED41"/>
<stop offset="0.24" stop-color="#FF833D"/>
<stop offset="0.4" stop-color="#EE5468"/>
<stop offset="0.49" stop-color="#E7407B"/>
<stop offset="1" stop-color="#0028FF"/>
</radialGradient>
</defs>
</svg>
