<svg width="83" height="80" viewBox="0 0 83 80" fill="none" xmlns="http://www.w3.org/2000/svg">
<g clip-path="url(#clip0_1046_67815)">
<path d="M24.8185 41.3394C20.5847 41.0614 18.5749 39.2915 15.5306 36.4098C14.2006 35.1518 13.0775 33.6305 12.4421 31.919C11.8066 30.2075 12.1169 28.006 12.5529 26.2141C12.6859 25.6729 12.7672 24.5465 12.0135 24.371C10.6096 24.0492 10.2993 26.9089 8.93231 26.9675C6.96685 27.0552 5.23045 21.8257 2.55565 23.3544C1.60987 23.8956 1.39559 24.9561 1.49164 25.9728C1.7872 29.0739 3.65661 32.2116 5.32651 34.7788C8.8732 40.2276 15.5085 45.1353 21.4492 47.8488" fill="#FC5230"/>
<path d="M21.4569 49.3109C21.25 49.3109 21.0357 49.2671 20.8362 49.172C15.4128 46.6925 8.16421 41.8141 4.0929 35.568C2.16438 32.6059 0.339315 29.417 0.0289798 26.1038C-0.140966 24.2753 0.494483 22.8491 1.82449 22.0884C4.43279 20.589 6.43519 22.8637 7.6322 24.2241C7.95732 24.5898 8.45976 25.1603 8.78488 25.4089C8.9031 25.248 9.05088 25.014 9.14694 24.8604C9.64938 24.0485 10.5878 22.5419 12.3611 22.9441C12.9301 23.0758 13.4177 23.4195 13.7281 23.9169C14.3192 24.8677 14.1197 26.0745 14.0015 26.5499C13.669 27.9249 13.2921 29.9216 13.8389 31.4064C14.3635 32.8033 15.2798 34.1272 16.5654 35.3486C19.5284 38.1572 21.2426 39.6346 24.9297 39.8759C25.7425 39.9271 26.3632 40.6293 26.3041 41.4338C26.2523 42.2383 25.5578 42.8527 24.7302 42.7942C19.8018 42.4724 17.3561 40.1466 14.5187 37.4623C12.9079 35.9337 11.7405 34.2369 11.0607 32.423C10.4769 30.8505 10.5361 29.1025 10.7651 27.6031C10.3292 28.042 9.76761 28.393 9.00655 28.4296C7.44009 28.5027 6.37608 27.2521 5.40074 26.1476C4.16679 24.7434 3.6939 24.3996 3.30228 24.6263C2.955 24.8238 2.93283 25.3943 2.96978 25.8405C3.221 28.5247 4.85396 31.3479 6.57558 33.9882C9.642 38.6984 15.7305 43.6207 22.0702 46.5243C22.8091 46.8608 23.1342 47.7311 22.7943 48.4625C22.5431 48.9964 22.0111 49.3109 21.4495 49.3109H21.4569Z" fill="#213E7A"/>
<path d="M56.2832 51.1461C60.5171 50.8828 62.7411 52.3822 66.1327 54.8543C67.6105 55.9367 68.9257 57.2971 69.7828 58.9208C70.6399 60.5445 70.6104 62.7607 70.4183 64.5891C70.3591 65.145 70.4183 66.2714 71.1867 66.3445C72.6202 66.4835 72.561 63.6091 73.9058 63.375C75.8417 63.0386 78.2505 68.0048 80.6963 66.147C81.5682 65.4888 81.6347 64.4063 81.413 63.4189C80.7184 60.3836 78.4574 57.5092 76.4624 55.1761C72.2359 50.2245 65.0243 46.2019 58.7807 44.2637" fill="#FC5230"/>
<path d="M79.5724 68.0493C77.9616 68.0493 76.5281 66.7913 75.5602 65.9429C75.1907 65.621 74.6218 65.1164 74.2671 64.9116C74.1711 65.0871 74.0602 65.3358 73.9789 65.504C73.5873 66.3744 72.8706 67.9834 71.0455 67.8079C70.4618 67.7494 69.9372 67.4715 69.5677 67.018C68.8584 66.1476 68.9027 64.9262 68.9545 64.4435C69.1096 63.0392 69.2279 61.0059 68.4816 59.609C67.7796 58.2925 66.7008 57.093 65.2674 56.0471C61.9645 53.6408 60.0803 52.3901 56.3859 52.6168C55.5805 52.6607 54.8711 52.0537 54.8194 51.2491C54.7677 50.4446 55.3884 49.7498 56.2011 49.6986C61.137 49.3914 63.8561 51.3881 67.0186 53.692C68.8215 55.0085 70.1884 56.5371 71.0973 58.2559C71.8805 59.7406 72.0504 61.4813 72.0135 63.0026C72.3903 62.5126 72.9002 62.0884 73.6538 61.9568C75.1686 61.6935 76.4173 62.7905 77.5256 63.7633C78.9295 64.9994 79.4468 65.2773 79.8014 65.0067C80.1192 64.7653 80.0748 64.1948 79.9714 63.7633C79.3729 61.1303 77.3852 58.5411 75.3385 56.1422C71.681 51.8562 65.0088 47.7531 58.3439 45.6832C57.5681 45.4419 57.1322 44.6227 57.376 43.8474C57.6198 43.0794 58.4474 42.6479 59.2306 42.8893C64.9349 44.6593 72.7524 48.5722 77.5995 54.2552C79.8975 56.9467 82.1216 59.8796 82.8605 63.1197C83.2668 64.9116 82.8235 66.4109 81.6043 67.3325C80.9098 67.8591 80.23 68.0639 79.5798 68.0639L79.5724 68.0493Z" fill="#213E7A"/>
<path d="M10.7431 54.1382C10.5288 53.2751 10.5362 52.4487 11.1791 51.7319C12.6938 51.0078 13.6396 51.9586 14.6962 52.807C15.2799 53.2825 15.9006 54.087 16.8686 53.4361C17.77 52.829 17.4892 51.9879 17.2528 51.2053C14.0903 40.7463 17.7774 31.5235 22.5137 22.4761C22.8979 21.7447 23.3782 21.2693 24.2353 21.3351C25.1516 21.4083 25.3954 22.1323 25.6614 22.8345C25.9348 23.5732 25.957 24.5679 27.0579 24.6264C28.181 24.6849 28.6096 23.7707 29.0234 22.9808C32.1267 16.9979 33.6858 10.7299 32.6513 3.9718C32.2967 1.66791 33.1612 0.856058 35.2301 1.91658C43.7865 6.28301 51.6926 11.4247 55.8452 20.5818C56.6728 22.403 57.0496 24.3119 57.227 26.294C57.5151 29.5779 58.2614 29.9071 60.9731 27.9031C62.2884 26.9303 63.382 25.6284 65.2661 25.8771C66.0198 28.7442 67.0247 36.1166 67.1281 36.9431C67.8818 43.1014 67.8153 49.2378 66.4927 55.3157C63.3228 69.8778 53.3404 78.4498 38.8802 78.5302C28.1145 78.5887 19.6985 74.098 14.2455 64.6191C12.3539 61.3278 11.9401 57.6123 10.7579 54.1236L10.7431 54.1382Z" fill="#FC5230"/>
<path d="M38.6507 80.0009C27.183 80.0009 18.5306 75.0713 12.9445 65.3511C11.6071 63.0179 10.9643 60.5385 10.351 58.1469C10.0333 56.9108 9.73035 55.7479 9.34612 54.5996C9.33134 54.563 9.32395 54.5191 9.30918 54.4753C9.17618 53.9194 8.75501 52.2299 10.0702 50.7524C10.2032 50.6062 10.3584 50.4892 10.5357 50.4014C12.782 49.3335 14.3484 50.6135 15.3829 51.4692L15.6267 51.6667C15.7228 51.7471 15.8262 51.8349 15.9223 51.9227C15.9001 51.8349 15.8706 51.7471 15.8484 51.6667C12.3756 40.1692 16.7868 30.2222 21.198 21.8038C21.9221 20.4215 22.9861 19.7706 24.3457 19.8803C26.1855 20.0192 26.7471 21.5478 27.0205 22.2792C27.1091 22.5133 27.1609 22.7034 27.22 22.8936C27.2348 22.9375 27.2495 22.996 27.2643 23.0472C27.4121 22.879 27.5599 22.5864 27.6485 22.4109L27.7003 22.3158C30.9514 16.0478 32.0893 10.1235 31.1805 4.19184C30.9071 2.39261 31.2543 1.13461 32.2149 0.45441C33.1459 -0.211159 34.3873 -0.152648 35.8946 0.615317C44.3475 4.93055 52.7709 10.2624 57.1821 19.9827C57.9949 21.7819 58.4752 23.7493 58.6821 26.1703C58.7412 26.8431 58.8151 27.26 58.8742 27.5233C59.118 27.3917 59.5023 27.1576 60.0786 26.7334C60.3077 26.5652 60.5293 26.3824 60.751 26.1995C61.8815 25.2853 63.2854 24.137 65.443 24.4222C66.0415 24.5027 66.5292 24.9269 66.6769 25.5047C67.4602 28.4668 68.4651 35.8247 68.5759 36.7682C69.4108 43.5775 69.1966 49.7504 67.9183 55.6235C64.5637 71.0267 53.9753 79.9132 38.8649 79.9936C38.7911 79.9936 38.7172 79.9936 38.6507 79.9936V80.0009ZM12.1613 53.7292C12.5751 54.958 12.9002 56.2087 13.2105 57.4228C13.809 59.734 14.3706 61.9209 15.5159 63.9029C20.5404 72.6431 28.3283 77.0754 38.6581 77.0754C38.7246 77.0754 38.7911 77.0754 38.8502 77.0754C52.4458 77.0022 61.9923 68.9642 65.0292 55.0165C66.241 49.4652 66.4405 43.614 65.6425 37.1266C65.5464 36.3586 64.778 30.7049 64.0982 27.4575C63.6622 27.6404 63.2189 27.9841 62.6204 28.4668C62.3618 28.6716 62.1032 28.8837 61.8446 29.0812C60.5219 30.0613 58.985 31.0487 57.5664 30.4197C56.1477 29.7907 55.8817 28.028 55.7413 26.4263C55.5566 24.3418 55.1576 22.6742 54.4852 21.1895C50.4508 12.2811 42.5151 7.29295 34.5424 3.2264C34.3355 3.11669 34.173 3.05086 34.0474 3.00698C34.0474 3.1752 34.0474 3.42387 34.1065 3.76032C35.1114 10.3209 33.8774 16.8303 30.3307 23.6616L30.2864 23.7493C29.8431 24.6124 29.0303 26.2068 26.9761 26.0971C25.0402 25.9947 24.5747 24.3857 24.3826 23.6981C24.3457 23.5811 24.3161 23.4641 24.2792 23.3544C24.2053 23.1569 24.124 22.9302 24.0575 22.8058C24.0501 22.8205 23.9615 22.9082 23.8285 23.1569C18.6857 32.9796 15.8484 41.4345 18.671 50.789C18.9222 51.6155 19.4764 53.4513 17.6956 54.6435C15.9223 55.8356 14.5036 54.5923 13.9716 54.1242C13.8977 54.0584 13.8312 53.9998 13.7573 53.9413L13.4913 53.7292C12.7155 53.0929 12.4125 52.9101 12.1318 52.9466C12.08 53.1002 12.0653 53.3343 12.1613 53.7365V53.7292Z" fill="#213E7A"/>
<path d="M46.0488 49.5906C49.5868 49.5906 52.455 46.7515 52.455 43.2494C52.455 39.7473 49.5868 36.9082 46.0488 36.9082C42.5107 36.9082 39.6426 39.7473 39.6426 43.2494C39.6426 46.7515 42.5107 49.5906 46.0488 49.5906Z" fill="white"/>
<path d="M44.8964 45.8452C46.5532 45.8452 47.8963 44.5157 47.8963 42.8757C47.8963 41.2357 46.5532 39.9062 44.8964 39.9062C43.2396 39.9062 41.8965 41.2357 41.8965 42.8757C41.8965 44.5157 43.2396 45.8452 44.8964 45.8452Z" fill="#213E7A"/>
<path d="M33.9082 49.2898C37.4462 49.2898 40.3144 46.4508 40.3144 42.9486C40.3144 39.4465 37.4462 36.6074 33.9082 36.6074C30.3701 36.6074 27.502 39.4465 27.502 42.9486C27.502 46.4508 30.3701 49.2898 33.9082 49.2898Z" fill="white"/>
<path d="M35.0019 45.3979C36.6587 45.3979 38.0018 44.0684 38.0018 42.4284C38.0018 40.7885 36.6587 39.459 35.0019 39.459C33.3451 39.459 32.002 40.7885 32.002 42.4284C32.002 44.0684 33.3451 45.3979 35.0019 45.3979Z" fill="#213E7A"/>
<path d="M56.9534 45.9106C58.2307 45.9106 59.2661 44.8856 59.2661 43.6213C59.2661 42.357 58.2307 41.332 56.9534 41.332C55.6761 41.332 54.6406 42.357 54.6406 43.6213C54.6406 44.8856 55.6761 45.9106 56.9534 45.9106Z" fill="#FFCA3F"/>
<path d="M23.0901 46.0785C24.3674 46.0785 25.4028 45.0536 25.4028 43.7893C25.4028 42.5249 24.3674 41.5 23.0901 41.5C21.8128 41.5 20.7773 42.5249 20.7773 43.7893C20.7773 45.0536 21.8128 46.0785 23.0901 46.0785Z" fill="#FFCA3F"/>
<path d="M25.5501 53.9504C27.7668 51.0833 31.6016 52.8314 34.0104 54.5209C39.1679 57.9072 41.6063 54.6452 46.217 52.7217C48.3302 52.0488 50.1331 52.4072 51.4557 54.1698C52.7857 55.9471 51.7217 57.9731 50.4582 59.4797C49.1208 61.0742 47.3992 62.3761 45.4855 63.3049C44.089 61.9738 41.4659 61.0742 38.4512 61.0742C35.3996 61.0742 32.7395 61.9957 31.3578 63.3561C29.4441 62.5004 27.7298 61.2424 26.3481 59.4724C25.1068 57.8707 24.0797 55.735 25.5575 53.9504H25.5501Z" fill="#213E7A"/>
<path d="M31.3511 64.0866C31.2476 64.0866 31.1442 64.0646 31.0481 64.0207C28.9201 63.0626 27.1394 61.6876 25.7576 59.9176C23.3193 56.7872 23.9769 54.6954 24.967 53.496C26.9547 50.9361 30.4053 51.0897 34.4323 53.9275C37.9716 56.2533 39.9222 55.1855 42.8778 53.5691C43.8236 53.0498 44.7989 52.5159 45.9295 52.0478C48.523 51.2286 50.614 51.8138 52.0475 53.7373C52.949 54.9441 53.5031 56.9993 51.0204 59.9469C49.6461 61.5852 47.8432 62.9748 45.8038 63.9622C45.5231 64.1012 45.1906 64.0427 44.9689 63.8306C43.6611 62.5799 41.1562 61.8046 38.4445 61.8046C35.7327 61.8046 33.1688 62.5945 31.8683 63.8745C31.7279 64.0134 31.5358 64.0866 31.3437 64.0866H31.3511ZM28.6911 53.1668C27.7379 53.1668 26.829 53.496 26.1345 54.3956C26.1345 54.3956 26.1271 54.4102 26.1197 54.4175C25.1665 55.5658 25.4399 57.1164 26.9251 59.0253C28.0556 60.4808 29.5038 61.6437 31.2181 62.4848C32.851 61.1537 35.5554 60.3418 38.4371 60.3418C41.3188 60.3418 43.9418 61.1098 45.5822 62.4263C47.2521 61.5486 48.7299 60.3711 49.8752 59.0107C51.3751 57.2334 51.7002 55.7487 50.8431 54.6077C49.7791 53.1815 48.3752 52.8011 46.4245 53.4228C45.427 53.8397 44.4886 54.359 43.5798 54.8564C40.6537 56.4581 37.8977 57.9648 33.5825 55.1416C32.5407 54.4102 30.5161 53.1741 28.6689 53.1741L28.6911 53.1668Z" fill="#213E7A"/>
<path d="M45.4851 63.3039C43.1723 64.4303 40.5714 65.0081 38.0222 64.8618C35.6726 64.7301 33.4042 64.2693 31.3574 63.3478C32.7392 61.9874 35.414 60.6562 38.4656 60.6562C41.4803 60.6562 44.096 61.9654 45.4851 63.2966V63.3039Z" fill="#E13E6B"/>
<path d="M38.7989 65.6224C38.5255 65.6224 38.2448 65.6151 37.9714 65.6005C35.3778 65.4542 33.0429 64.9203 31.0405 64.028C30.8189 63.9256 30.6637 63.7281 30.6194 63.494C30.575 63.26 30.6563 63.0113 30.8263 62.8431C32.1858 61.5046 35.001 59.9395 38.459 59.9395C41.9171 59.9395 44.5549 61.4096 45.9958 62.7846C46.1657 62.9528 46.247 63.1868 46.21 63.4209C46.1731 63.6549 46.0253 63.8597 45.8036 63.9621C43.5648 65.0519 41.156 65.6224 38.7989 65.6224ZM32.7769 63.1357C34.3508 63.6915 36.1241 64.028 38.06 64.1377C40.0624 64.2547 42.124 63.9036 44.082 63.121C42.7668 62.2214 40.7718 61.3949 38.459 61.3949C36.1463 61.3949 34.1587 62.1848 32.7769 63.1357Z" fill="#213E7A"/>
</g>
<defs>
<clipPath id="clip0_1046_67815">
<rect width="83" height="80" fill="white"/>
</clipPath>
</defs>
</svg>
