<svg width="67" height="58" viewBox="0 0 67 58" fill="none" xmlns="http://www.w3.org/2000/svg">
<g clip-path="url(#clip0_1231_64217)">
<path d="M37.0093 13.1951C32.3052 13.0804 27.9852 15.4349 25.4445 19.4827C25.2861 19.7323 25.1311 19.9819 24.9525 20.272L24.9356 20.245C24.7537 19.9381 24.5953 19.6682 24.4335 19.3984C21.0065 13.7281 13.4045 11.5389 7.4805 14.5208C2.14625 17.2126 -0.485501 22.2689 0.0738718 28.769C0.420952 32.81 2.06537 36.7027 5.24975 41.027C10.7491 48.4885 18.2568 53.5583 24.1842 57.1372C24.3864 57.2587 24.6593 57.3126 24.9323 57.3126C25.2726 57.3126 25.6197 57.2283 25.8454 57.0934C32.4366 53.113 37.3395 49.3048 41.2787 45.1052C45.2651 40.855 47.7452 36.8814 49.0796 32.5941C50.5488 27.8717 50.2422 23.6182 48.1698 19.9448C45.8447 15.8262 41.673 13.3031 37.0093 13.1918V13.1951ZM47.2499 27.1634C47.3476 29.6561 46.704 32.1354 45.1607 35.2083C43.1388 39.2393 40.1263 42.9329 35.6884 46.8322C32.9218 49.2643 29.7745 51.5614 25.4883 54.2768C25.0873 54.5298 24.8446 54.5264 24.4066 54.2532C18.9476 50.8294 14.8231 47.6249 11.4197 44.1674C7.63551 40.3221 5.17225 36.6655 3.66936 32.6582C2.64159 29.9192 2.3855 27.0892 2.90106 24.2422C3.4975 20.9534 5.76532 18.1402 8.95981 16.7167C10.3717 16.0893 11.8611 15.779 13.3303 15.779C15.187 15.779 17.0134 16.2782 18.5972 17.2598C21.3165 18.9497 22.9441 21.2536 23.5675 24.3063C23.581 24.3637 23.5877 24.4244 23.5978 24.4885C23.6315 24.7212 23.6686 24.9843 23.8472 25.1833C24.2381 25.6185 24.6054 25.8411 24.9424 25.8445C25.4209 25.8512 25.8623 25.4296 26.0577 25.18C26.233 24.954 26.2734 24.674 26.3105 24.4244C26.3239 24.3367 26.3341 24.249 26.3543 24.168C27.5943 18.8418 32.3423 15.4754 37.8955 15.9814C42.9029 16.4367 47.014 20.8691 47.2499 26.0738C47.26 26.3167 47.2566 26.5562 47.2532 26.7991C47.2532 26.9171 47.2532 27.0352 47.2532 27.1499V27.1634H47.2499Z" fill="#005BAD"/>
<path d="M66.9124 9.54506C66.4474 5.35561 64.2975 2.43108 60.5234 0.852444C56.8673 -0.675595 53.2617 -0.142636 50.0908 2.39735C49.3798 2.96741 48.7935 3.64879 48.1734 4.37064C47.9881 4.58653 47.796 4.80915 47.6039 5.02841L47.5871 5.00142C47.4051 4.73157 47.2232 4.46509 47.0311 4.20199C44.5948 0.81534 39.8031 -0.797028 35.8773 0.451039C30.597 2.13087 27.8136 6.68463 28.4303 12.6349C28.4707 13.0397 28.6325 13.3668 28.8953 13.576C29.1548 13.7851 29.5052 13.8694 29.9028 13.8222C30.3274 13.7716 31.0418 13.522 31.0249 12.4156V12.1424C31.0115 11.4644 31.0014 10.7628 31.0216 10.078C31.1058 7.05905 33.1984 4.21548 36.1098 3.16306C39.0348 2.10726 42.3876 2.93368 44.4499 5.22068C45.6293 6.52946 46.1415 8.10473 46.4582 9.32918C46.5829 9.80817 47.2232 10.3378 47.6814 10.3411H47.6882C48.0892 10.3411 48.4127 9.98357 48.6957 9.66987C48.753 9.60915 48.8069 9.54844 48.8608 9.49109C49.0125 9.33593 49.026 9.12679 49.0361 8.975C49.0361 8.92778 49.0428 8.88393 49.0496 8.84345C49.5988 6.32707 51.2702 4.3133 53.6357 3.32159C55.9979 2.33326 58.596 2.54914 60.766 3.91864C63.691 5.76713 64.9647 9.16052 64.1762 12.9992C63.4921 16.3251 61.7837 19.3576 58.6364 22.8285C56.6449 25.0245 54.276 27.0754 51.3949 29.0959C50.5861 29.6626 50.3974 30.3136 50.8355 31.0321C51.0208 31.3356 51.3073 31.5414 51.6409 31.6089C51.7251 31.6257 51.8093 31.6359 51.897 31.6359C52.2204 31.6359 52.5541 31.5178 52.8674 31.2952C56.0619 29.0048 60.1191 25.8205 63.1855 21.4523C66.2014 17.1583 67.3505 13.4849 66.9124 9.54506Z" fill="#005BAD"/>
<path d="M20.6427 36.1289C21.448 36.0918 21.9164 35.5251 21.8928 34.6144C21.8221 31.619 19.288 29.1836 16.2384 29.1836C13.2225 29.1836 10.6953 31.5819 10.6009 34.53C10.5504 35.8793 11.3524 36.1121 11.8342 36.1323C11.8578 36.1323 11.878 36.1323 11.8983 36.1323C12.9294 36.1323 13.1349 35.1575 13.2158 34.7864C13.3304 34.2467 13.5258 33.4641 13.9268 32.9211C14.6648 31.9192 15.7599 31.5549 17.0101 31.899C18.3647 32.27 19.1364 33.2482 19.3049 34.81C19.3992 35.6837 19.8878 36.1627 20.6393 36.1289H20.6427Z" fill="#005BAD"/>
<path d="M33.734 29.1885C32.2985 29.1278 30.9911 29.6337 29.8386 30.6895C28.6794 31.7521 28.0762 33.0845 28.0426 34.6462C28.019 35.8235 28.7468 36.0832 29.1849 36.1338C29.9667 36.2249 30.4822 35.7729 30.5968 34.8959C30.6136 34.7609 30.6339 34.6226 30.6541 34.4877C30.9102 32.8483 32.2143 31.7487 33.8014 31.8027C35.3346 31.86 36.5241 33.0339 36.6892 34.6631C36.7465 35.2365 36.9521 35.6717 37.2789 35.9247C37.4777 36.0765 37.7136 36.154 37.9664 36.154C38.0371 36.154 38.1113 36.1473 38.1854 36.1372C39.3917 35.9415 39.3345 34.8385 39.3176 34.4776C39.1727 31.5767 36.6656 29.2087 33.7306 29.1918L33.734 29.1885Z" fill="#005BAD"/>
<path d="M29.4881 39.3184C28.6962 39.2239 28.1503 39.6658 28.0256 40.5024C28.0155 40.5732 27.9987 40.644 27.9818 40.7149C27.9683 40.7756 27.9549 40.8363 27.9414 40.897C27.6482 42.4318 26.4284 43.4943 24.9457 43.4876C23.463 43.4775 22.1724 42.3171 21.9399 40.7891C21.8422 40.1482 21.6164 39.7029 21.2694 39.4702C21.0133 39.2948 20.6965 39.2475 20.3562 39.3251C19.1431 39.6085 19.2981 40.7385 19.3554 41.1601C19.7361 43.9396 22.068 46.0107 25.0266 46.1962H25.094L25.158 46.1794C25.4377 46.0816 25.7241 45.9972 26.0072 45.9129C26.6609 45.7206 27.3382 45.5216 27.9346 45.1708C29.5555 44.223 30.4687 42.7253 30.5698 40.8397C30.6338 39.6894 30.0138 39.3757 29.4813 39.3116L29.4881 39.3184Z" fill="#005BAD"/>
</g>
<defs>
<clipPath id="clip0_1231_64217">
<rect width="67" height="57.3133" fill="white"/>
</clipPath>
</defs>
</svg>
