<svg width="30" height="30" viewBox="0 0 30 30" fill="none" xmlns="http://www.w3.org/2000/svg">
<mask id="mask0_1311_52561" style="mask-type:luminance" maskUnits="userSpaceOnUse" x="2" y="2" width="25" height="26">
<path d="M14.6296 27.4322C21.4117 27.4322 26.9096 21.9036 26.9096 15.0838C26.9096 8.26393 21.4117 2.73535 14.6296 2.73535C7.84755 2.73535 2.34961 8.26393 2.34961 15.0838C2.34961 21.9036 7.84755 27.4322 14.6296 27.4322Z" fill="white"/>
</mask>
<g mask="url(#mask0_1311_52561)">
<path d="M14.6298 36.1615C6.18984 36.1615 -0.660156 32.1795 -0.660156 23.6824V13.2043C-0.660156 4.71727 6.18984 -2.1709 14.6298 -2.1709C23.0698 -2.1709 29.9198 4.71727 29.9198 13.2043V23.6824C29.9198 32.1694 23.0698 36.1615 14.6298 36.1615Z" fill="#FFF7E1"/>
<path d="M14.6298 36.7447C4.83977 36.7447 -1.24023 31.7369 -1.24023 23.6924V13.2143C-1.24023 4.41554 5.87977 -2.74414 14.6298 -2.74414C23.3798 -2.74414 30.4998 4.41554 30.4998 13.2143V23.6924C30.4998 31.747 24.4198 36.7447 14.6298 36.7447ZM14.6298 -1.58773C6.51977 -1.58773 -0.0902344 5.04905 -0.0902344 13.2143V23.6924C-0.0902344 32.461 7.50977 35.5883 14.6198 35.5883C21.7298 35.5883 29.3298 32.461 29.3298 23.6924V13.2143C29.3298 5.0591 22.7298 -1.57768 14.6198 -1.57768L14.6298 -1.58773Z" fill="#213E7A"/>
<path d="M21.0097 11.2543C20.6097 9.95706 19.7297 9.04199 18.7097 9.04199C17.3097 9.04199 16.1797 10.7213 16.1797 12.7928C16.1797 14.8643 17.3097 16.5436 18.7097 16.5436C19.2397 16.5436 19.7297 16.3022 20.1297 15.8899C20.7997 15.2162 21.2297 14.0799 21.2297 12.7928C21.2297 12.2397 21.1497 11.7168 20.9997 11.2543H21.0097Z" fill="white"/>
<path d="M18.71 16.9865C17.05 16.9865 15.75 15.1463 15.75 12.8033C15.75 10.4603 17.05 8.62012 18.71 8.62012C19.89 8.62012 20.96 9.60558 21.43 11.134C21.59 11.667 21.67 12.2301 21.67 12.8033C21.67 14.1508 21.21 15.4278 20.44 16.2021C19.94 16.715 19.34 16.9865 18.71 16.9865ZM18.71 9.48491C17.57 9.48491 16.61 11.0033 16.61 12.8033C16.61 14.6033 17.57 16.1217 18.71 16.1217C19.21 16.1217 19.59 15.8401 19.83 15.5988C20.44 14.9753 20.81 13.9295 20.81 12.8033C20.81 12.3106 20.74 11.8379 20.6 11.3854C20.25 10.229 19.51 9.48491 18.71 9.48491Z" fill="#213E7A"/>
<path d="M8.37094 15.9294C8.14094 15.9294 7.92094 15.7886 7.83094 15.5573C7.72094 15.2556 7.87094 14.9238 8.17094 14.8132L11.7709 13.4456C12.0409 13.3451 12.2309 13.0735 12.2309 12.7819C12.2309 12.4903 12.0409 12.2188 11.7709 12.1183L8.24094 10.801C7.94094 10.6903 7.79094 10.3585 7.90094 10.0568C8.01094 9.75516 8.34094 9.60432 8.64094 9.71493L12.1709 11.0322C12.9009 11.3037 13.3809 12.0076 13.3809 12.7819C13.3809 13.5562 12.9009 14.2601 12.1809 14.5316L8.58094 15.8992C8.51094 15.9294 8.44094 15.9394 8.38094 15.9394L8.37094 15.9294Z" fill="#213E7A"/>
<path d="M12.8009 13.2349H8.06086C7.82086 13.2349 7.63086 13.0439 7.63086 12.8025C7.63086 12.5612 7.82086 12.3701 8.06086 12.3701H12.8009C13.0409 12.3701 13.2309 12.5612 13.2309 12.8025C13.2309 13.0439 13.0409 13.2349 12.8009 13.2349Z" fill="#213E7A"/>
<path d="M17.7597 15.7699C18.6323 15.7699 19.3397 14.5318 19.3397 13.0046C19.3397 11.4773 18.6323 10.2393 17.7597 10.2393C16.8871 10.2393 16.1797 11.4773 16.1797 13.0046C16.1797 14.5318 16.8871 15.7699 17.7597 15.7699Z" fill="#213E7A"/>
<path d="M17.76 16.2021C16.63 16.2021 15.75 14.7943 15.75 13.0044C15.75 11.2144 16.63 9.80664 17.76 9.80664C18.89 9.80664 19.77 11.2144 19.77 13.0044C19.77 14.7943 18.89 16.2021 17.76 16.2021ZM17.76 10.6815C17.22 10.6815 16.61 11.6368 16.61 13.0044C16.61 14.3719 17.22 15.3272 17.76 15.3272C18.3 15.3272 18.91 14.3719 18.91 13.0044C18.91 11.6368 18.3 10.6815 17.76 10.6815Z" fill="#213E7A"/>
<path d="M5.65055 18.2834C6.66675 18.2834 7.49055 17.7971 7.49055 17.1973C7.49055 16.5976 6.66675 16.1113 5.65055 16.1113C4.63434 16.1113 3.81055 16.5976 3.81055 17.1973C3.81055 17.7971 4.63434 18.2834 5.65055 18.2834Z" fill="#FF93CE"/>
<path d="M23.6115 18.2834C24.6277 18.2834 25.4515 17.7971 25.4515 17.1973C25.4515 16.5976 24.6277 16.1113 23.6115 16.1113C22.5953 16.1113 21.7715 16.5976 21.7715 17.1973C21.7715 17.7971 22.5953 18.2834 23.6115 18.2834Z" fill="#FF93CE"/>
<path d="M15.4488 17.659C15.2288 17.659 15.0388 17.488 15.0188 17.2567C15.0188 17.2567 14.9488 16.7037 14.7188 16.7037C14.4888 16.7037 14.3888 17.2567 14.3888 17.2668C14.3588 17.5081 14.1488 17.6791 13.9088 17.6489C13.6688 17.6187 13.4988 17.4076 13.5288 17.1763C13.5788 16.7137 13.8888 15.8389 14.7188 15.8389C15.4488 15.8389 15.8388 16.5428 15.8888 17.1863C15.9088 17.4277 15.7288 17.6388 15.4888 17.6489C15.4788 17.6489 15.4688 17.6489 15.4588 17.6489L15.4488 17.659Z" fill="#213E7A"/>
<path d="M19.9591 17.9105C18.2091 17.5183 17.4591 19.3686 15.8991 19.992H15.8791C15.0791 20.3138 14.1791 20.3138 13.3791 19.992H13.3591C11.7891 19.3686 11.0491 17.5183 9.29912 17.9105C8.01912 18.192 7.75912 19.3384 7.90912 19.992C8.34912 21.8523 12.4091 22.0836 14.1091 22.1339H15.1491C16.8591 22.0836 20.9191 21.8523 21.3491 19.992C21.4991 19.3283 21.2391 18.192 19.9591 17.9105Z" fill="#17386C"/>
<path d="M14.11 22.4259C10.09 22.2952 7.97004 21.5209 7.63004 20.0528C7.54004 19.6606 7.56004 19.0572 7.89004 18.5243C8.18004 18.0617 8.64004 17.75 9.23004 17.6193C10.45 17.3478 11.24 18.0416 12 18.7053C12.45 19.0975 12.91 19.4997 13.46 19.7209C14.22 20.0226 15.03 20.0226 15.77 19.7209C16.35 19.4896 16.81 19.0874 17.25 18.6952C18.01 18.0316 18.8 17.3377 20.02 17.6092C20.61 17.7399 21.07 18.0517 21.36 18.5142C21.69 19.0472 21.72 19.6505 21.62 20.0427C21.28 21.5108 19.16 22.2851 15.15 22.4159H14.1L14.11 22.4259ZM9.76004 18.1422C9.63004 18.1422 9.50004 18.1522 9.36004 18.1925C8.92004 18.293 8.59004 18.5042 8.38004 18.8461C8.14004 19.2282 8.13004 19.6706 8.19004 19.9321C8.38004 20.7265 9.56004 21.7019 14.12 21.8527H15.15C19.71 21.7019 20.89 20.7265 21.07 19.9321C21.13 19.6706 21.12 19.2282 20.88 18.8461C20.67 18.5142 20.34 18.293 19.9 18.2025C18.96 17.9913 18.35 18.5343 17.63 19.1578C17.15 19.5801 16.65 20.0125 16 20.274C15.1 20.6259 14.14 20.6259 13.27 20.274C12.6 20.0025 12.1 19.5701 11.62 19.1477C11.01 18.6148 10.48 18.1422 9.75004 18.1422H9.76004Z" fill="#17386C"/>
<path d="M11.839 19.0765L12.669 19.6496C12.889 19.8005 12.939 20.0619 12.759 20.2027C12.569 20.3636 12.239 20.5547 11.699 20.7457C11.399 20.8463 10.959 20.6049 10.959 20.3133C10.959 20.0016 11.019 19.6195 11.129 19.2072C11.199 18.9659 11.559 18.8955 11.829 19.0765H11.839Z" fill="white"/>
<path d="M11.5595 21.0571C11.3795 21.0571 11.1795 20.9968 11.0195 20.8761C10.8095 20.7353 10.6895 20.5242 10.6895 20.313C10.6895 20.0013 10.7395 19.6091 10.8695 19.1264C10.9195 18.9454 11.0595 18.7946 11.2495 18.7242C11.4895 18.6337 11.7795 18.6739 12.0095 18.8348L12.8395 19.408C13.0395 19.5487 13.1595 19.7499 13.1695 19.961C13.1695 20.142 13.0995 20.313 12.9595 20.4236C12.6795 20.6448 12.2995 20.8459 11.8195 21.0169C11.7395 21.047 11.6595 21.0571 11.5695 21.0571H11.5595ZM11.5095 19.2571C11.5095 19.2571 11.4295 19.2672 11.4195 19.2772C11.3095 19.7096 11.2495 20.0415 11.2595 20.3029C11.2595 20.313 11.2895 20.3633 11.3595 20.4135C11.4495 20.4739 11.5595 20.494 11.6195 20.4739C12.1395 20.2929 12.4395 20.1018 12.5895 19.9811C12.5895 19.9811 12.5695 19.9409 12.5095 19.9007L11.6795 19.3275C11.6195 19.2873 11.5595 19.2672 11.5095 19.2672V19.2571Z" fill="#17386C"/>
<path d="M17.4104 19.0765L16.5804 19.6496C16.3604 19.8005 16.3104 20.0619 16.4904 20.2027C16.6804 20.3636 17.0104 20.5547 17.5504 20.7457C17.8504 20.8463 18.2904 20.6049 18.2904 20.3133C18.2904 20.0016 18.2304 19.6195 18.1204 19.2072C18.0504 18.9659 17.6904 18.8955 17.4204 19.0765H17.4104Z" fill="white"/>
<path d="M17.6907 21.0571C17.6007 21.0571 17.5207 21.047 17.4407 21.0169C16.9607 20.8459 16.5707 20.6549 16.3007 20.4236C16.1607 20.313 16.0807 20.142 16.0907 19.961C16.0907 19.7499 16.2207 19.5487 16.4207 19.408L17.2507 18.8348C17.4807 18.6739 17.7707 18.6337 18.0107 18.7242C18.2007 18.7946 18.3407 18.9454 18.3907 19.1264C18.5207 19.6091 18.5807 20.0013 18.5707 20.313C18.5707 20.5242 18.4407 20.7353 18.2407 20.8761C18.0707 20.9968 17.8807 21.0571 17.7007 21.0571H17.6907ZM17.7507 19.2571C17.7507 19.2571 17.6407 19.2672 17.5807 19.3175L16.7507 19.8906C16.6907 19.9309 16.6707 19.9811 16.6707 19.9811C16.8207 20.0918 17.1207 20.2828 17.6407 20.4638C17.7007 20.4839 17.8107 20.4638 17.9007 20.4035C17.9707 20.3532 18.0007 20.313 18.0007 20.2929C18.0007 20.0314 17.9507 19.6996 17.8407 19.2672C17.8407 19.2672 17.8007 19.2471 17.7607 19.2471L17.7507 19.2571Z" fill="#17386C"/>
</g>
<mask id="mask1_1311_52561" style="mask-type:luminance" maskUnits="userSpaceOnUse" x="0" y="0" width="30" height="30">
<path d="M14.63 29.788C10.13 29.788 5.94 27.7467 3.14 24.187C1.09 21.5725 0 18.425 0 15.0865C0 6.98161 6.56 0.375 14.63 0.375C22.7 0.375 29.25 6.97156 29.25 15.0765C29.25 18.415 28.17 21.5624 26.11 24.1769C23.31 27.7366 19.13 29.7779 14.62 29.7779L14.63 29.788ZM14.63 1.46102C7.16 1.46102 1.09 7.56484 1.09 15.0765C1.09 18.1736 2.09 21.0797 3.99 23.5032C6.58 26.8015 10.46 28.6919 14.63 28.6919C18.8 28.6919 22.68 26.8015 25.27 23.5032C27.17 21.0797 28.17 18.1736 28.17 15.0765C28.17 7.56484 22.1 1.46102 14.63 1.46102Z" fill="white"/>
</mask>
<g mask="url(#mask1_1311_52561)">
<path d="M32.3202 -1.25391H-1.25977V32.5132H32.3202V-1.25391Z" fill="url(#paint0_radial_1311_52561)"/>
</g>
<defs>
<radialGradient id="paint0_radial_1311_52561" cx="0" cy="0" r="1" gradientUnits="userSpaceOnUse" gradientTransform="translate(8.50024 32.4328) scale(51.98 52.2697)">
<stop stop-color="#F9ED41"/>
<stop offset="0.24" stop-color="#FF833D"/>
<stop offset="0.4" stop-color="#EE5468"/>
<stop offset="0.49" stop-color="#E7407B"/>
<stop offset="1" stop-color="#0028FF"/>
</radialGradient>
</defs>
</svg>
