<svg width="86" height="18" viewBox="0 0 86 18" fill="none" xmlns="http://www.w3.org/2000/svg">
<path d="M11.7198 2.34029C10.9111 2.63592 10.262 3.30111 9.86266 3.79998C9.46327 3.30111 8.81425 2.63592 8.00549 2.34029C5.92865 1.59198 3.75197 1.96152 2.17437 3.32881C0.476957 4.80697 -0.16207 7.0981 0.54685 9.15828C0.876348 10.1283 1.53534 10.9967 2.43398 11.6711L9.54314 16.9925C9.63301 17.0572 9.74284 17.0941 9.85267 17.0941C9.96251 17.0941 10.0723 17.0572 10.1622 16.9925L17.2714 11.6711C18.18 10.9967 18.829 10.1283 19.1585 9.15828C19.8674 7.08887 19.2284 4.80697 17.531 3.32881C15.9534 1.96152 13.7767 1.59198 11.6999 2.34029H11.7198ZM18.2299 8.88114C17.9603 9.67565 17.4112 10.3962 16.6623 10.9598L9.86266 16.0409L3.073 10.9598C2.32414 10.3962 1.77498 9.67565 1.50539 8.88114C0.906302 7.15355 1.44548 5.24119 2.86332 4.00323C3.72201 3.26416 4.76043 2.87614 5.86874 2.87614C6.44786 2.87614 7.04695 2.98701 7.64603 3.19949C8.64451 3.55979 9.42333 4.84393 9.42333 4.8624C9.51319 5.01022 9.68293 5.10261 9.86266 5.10261C10.0424 5.10261 10.2121 5.01022 10.302 4.8624C10.302 4.85316 11.0808 3.55979 12.0793 3.19949C13.8066 2.57128 15.554 2.8669 16.862 4.00323C18.2798 5.24119 18.819 7.15355 18.2199 8.88114H18.2299Z" fill="#3C3C3B"/>
<path d="M50.621 6.92285C49.8721 3.94807 47.1962 1.58301 43.9511 1.01946C41.1055 0.529824 38.3097 1.31511 36.2828 3.17204C34.2559 5.02897 33.3872 7.60647 33.8965 10.2487C34.4956 13.362 37.1615 15.8842 40.5264 16.5308C42.2238 16.8542 43.9611 16.7064 45.5387 16.1059C45.7185 16.0412 45.988 15.9765 46.2876 16.0597L48.6839 16.7341C48.8038 16.771 48.9336 16.7895 49.0634 16.7895C49.3729 16.7895 49.6724 16.6879 49.9021 16.4939C50.2316 16.2167 50.3814 15.8102 50.3015 15.4038L49.8122 13.0017C49.7623 12.7431 49.8422 12.5121 49.932 12.3551C50.8506 10.6737 51.0903 8.79824 50.621 6.93207V6.92285ZM49.0434 11.9301C48.8237 12.3273 48.7538 12.7523 48.8337 13.1588L49.323 15.5608C49.3529 15.6901 49.273 15.764 49.2331 15.7918C49.2031 15.8195 49.1133 15.8842 48.9735 15.8472L46.5771 15.1728C46.3874 15.1174 46.1977 15.0896 45.998 15.0896C45.7185 15.0896 45.4389 15.1451 45.1593 15.2467C43.7614 15.7825 42.2338 15.9119 40.7261 15.6255C37.7606 15.0527 35.4042 12.8262 34.875 10.0824C34.4257 7.7543 35.1945 5.47241 36.9818 3.82796C38.769 2.18352 41.2453 1.49063 43.7614 1.92484C46.6171 2.41448 48.9835 4.5116 49.6425 7.13532C50.0618 8.789 49.8522 10.4519 49.0334 11.9301H49.0434Z" fill="#3C3C3B"/>
<path d="M85.108 1.95301C85.0281 1.79596 84.8484 1.69434 84.6587 1.69434H65.6876C65.4779 1.69434 65.2882 1.81442 65.2183 1.99919C65.1484 2.18396 65.1984 2.38722 65.3581 2.50732L72.018 7.78248V17.1318C72.028 17.335 72.1677 17.5106 72.3774 17.566C72.4273 17.5845 72.4773 17.5937 72.5372 17.5937C72.687 17.5937 72.8367 17.529 72.9366 17.4089L85.0581 2.4334C85.1679 2.29482 85.1879 2.11007 85.108 1.95301ZM67.0356 2.61818H82.472L72.5971 7.02492L67.0356 2.61818ZM73.0264 7.86562L83.0412 3.39421L73.0364 15.746V7.85637L73.0264 7.86562Z" fill="#3C3C3B"/>
</svg>
