<svg width="18" height="21" viewBox="0 0 18 21" fill="none" xmlns="http://www.w3.org/2000/svg">
<g clip-path="url(#clip0_1665_49734)">
<path d="M9.42028 6.16256C6.98318 6.16256 5.0174 8.09762 5.0174 10.4966C5.0174 12.8957 6.98318 14.8307 9.42028 14.8307C11.8574 14.8307 13.8231 12.8957 13.8231 10.4966C13.8231 8.09762 11.8574 6.16256 9.42028 6.16256ZM9.42028 13.3144C7.84536 13.3144 6.55783 12.0507 6.55783 10.4966C6.55783 8.94256 7.84153 7.67893 9.42028 7.67893C10.999 7.67893 12.2827 8.94256 12.2827 10.4966C12.2827 12.0507 10.9952 13.3144 9.42028 13.3144ZM15.0302 5.98528C15.0302 6.54731 14.5704 6.99619 14.0032 6.99619C13.4323 6.99619 12.9763 6.54354 12.9763 5.98528C12.9763 5.42701 13.4361 4.97437 14.0032 4.97437C14.5704 4.97437 15.0302 5.42701 15.0302 5.98528ZM17.9463 7.01127C17.8811 5.65711 17.5669 4.4576 16.5591 3.46932C15.5552 2.48105 14.3366 2.17174 12.961 2.10384C11.5432 2.02463 7.29356 2.02463 5.87575 2.10384C4.50393 2.16797 3.28538 2.47728 2.27758 3.46555C1.26979 4.45383 0.959405 5.65334 0.890431 7.0075C0.809961 8.40316 0.809961 12.5864 0.890431 13.982C0.955573 15.3362 1.26979 16.5357 2.27758 17.524C3.28538 18.5122 4.5001 18.8215 5.87575 18.8894C7.29356 18.9687 11.5432 18.9687 12.961 18.8894C14.3366 18.8253 15.5552 18.516 16.5591 17.524C17.5631 16.5357 17.8773 15.3362 17.9463 13.982C18.0268 12.5864 18.0268 8.40693 17.9463 7.01127ZM16.1146 15.4795C15.8157 16.2188 15.2371 16.7884 14.4822 17.0864C13.3518 17.5277 10.6695 17.4259 9.42028 17.4259C8.17107 17.4259 5.4849 17.524 4.35831 17.0864C3.60726 16.7922 3.02864 16.2226 2.72592 15.4795C2.27758 14.3668 2.38105 11.7263 2.38105 10.4966C2.38105 9.26696 2.28142 6.62275 2.72592 5.51377C3.02481 4.77445 3.60343 4.20487 4.35831 3.90688C5.48873 3.46555 8.17107 3.5674 9.42028 3.5674C10.6695 3.5674 13.3557 3.46932 14.4822 3.90688C15.2333 4.2011 15.8119 4.77068 16.1146 5.51377C16.563 6.62652 16.4595 9.26696 16.4595 10.4966C16.4595 11.7263 16.563 14.3705 16.1146 15.4795Z" fill="#3B84F5"/>
</g>
<defs>
<clipPath id="clip0_1665_49734">
<rect width="17.167" height="19.3129" fill="white" transform="translate(0.832031 0.84375)"/>
</clipPath>
</defs>
</svg>
