<svg width="30" height="30" viewBox="0 0 30 30" fill="none" xmlns="http://www.w3.org/2000/svg">
<circle cx="15" cy="15" r="14.5" stroke="#3B84F5"/>
<path d="M24.625 14.9396C24.625 14.8924 24.625 14.8387 24.6229 14.7764C24.6207 14.6023 24.6164 14.4068 24.6121 14.1984C24.5949 13.599 24.5648 13.0018 24.5176 12.4389C24.4531 11.6633 24.3586 11.0166 24.2297 10.5311C24.0937 10.0243 23.827 9.56221 23.4564 9.19085C23.0858 8.81949 22.6242 8.55191 22.1178 8.41484C21.5098 8.25156 20.3195 8.15059 18.6438 8.08828C17.8467 8.0582 16.9938 8.03887 16.1408 8.02812C15.8422 8.02383 15.565 8.02168 15.3158 8.01953H14.6842C14.435 8.02168 14.1578 8.02383 13.8592 8.02812C13.0063 8.03887 12.1533 8.0582 11.3563 8.08828C9.68047 8.15273 8.48809 8.25371 7.88223 8.41484C7.37563 8.55157 6.91386 8.81904 6.5432 9.19045C6.17254 9.56187 5.90601 10.0242 5.77031 10.5311C5.63926 11.0166 5.54688 11.6633 5.48242 12.4389C5.43516 13.0018 5.40508 13.599 5.38789 14.1984C5.38145 14.4068 5.3793 14.6023 5.37715 14.7764C5.37715 14.8387 5.375 14.8924 5.375 14.9396V15.06C5.375 15.1072 5.375 15.1609 5.37715 15.2232C5.3793 15.3973 5.38359 15.5928 5.38789 15.8012C5.40508 16.4006 5.43516 16.9979 5.48242 17.5607C5.54688 18.3363 5.64141 18.983 5.77031 19.4686C6.04531 20.4977 6.85313 21.3098 7.88223 21.5848C8.48809 21.748 9.68047 21.849 11.3563 21.9113C12.1533 21.9414 13.0063 21.9607 13.8592 21.9715C14.1578 21.9758 14.435 21.9779 14.6842 21.9801H15.3158C15.565 21.9779 15.8422 21.9758 16.1408 21.9715C16.9938 21.9607 17.8467 21.9414 18.6438 21.9113C20.3195 21.8469 21.5119 21.7459 22.1178 21.5848C23.1469 21.3098 23.9547 20.4998 24.2297 19.4686C24.3607 18.983 24.4531 18.3363 24.5176 17.5607C24.5648 16.9979 24.5949 16.4006 24.6121 15.8012C24.6186 15.5928 24.6207 15.3973 24.6229 15.2232C24.6229 15.1609 24.625 15.1072 24.625 15.06V14.9396ZM23.0781 15.0514C23.0781 15.0965 23.0781 15.1459 23.076 15.2039C23.0738 15.3715 23.0695 15.5563 23.0652 15.7561C23.0502 16.3275 23.0201 16.899 22.975 17.4297C22.917 18.1215 22.8354 18.6887 22.7344 19.0689C22.6012 19.5652 22.2102 19.9584 21.716 20.0895C21.2648 20.2098 20.1283 20.3064 18.5836 20.3645C17.8016 20.3945 16.9594 20.4139 16.1193 20.4246C15.825 20.4289 15.5521 20.4311 15.3072 20.4311H14.6928L13.8807 20.4246C13.0406 20.4139 12.2006 20.3945 11.4164 20.3645C9.87168 20.3043 8.73301 20.2098 8.28398 20.0895C7.78984 19.9563 7.39883 19.5652 7.26563 19.0689C7.16465 18.6887 7.08301 18.1215 7.025 17.4297C6.97988 16.899 6.95195 16.3275 6.93477 15.7561C6.92832 15.5563 6.92617 15.3693 6.92402 15.2039C6.92402 15.1459 6.92188 15.0943 6.92188 15.0514V14.9482C6.92188 14.9031 6.92188 14.8537 6.92402 14.7957C6.92617 14.6281 6.93047 14.4434 6.93477 14.2436C6.9498 13.6721 6.97988 13.1006 7.025 12.5699C7.08301 11.8781 7.16465 11.3109 7.26563 10.9307C7.39883 10.4344 7.78984 10.0412 8.28398 9.91016C8.73516 9.78984 9.87168 9.69316 11.4164 9.63516C12.1984 9.60508 13.0406 9.58574 13.8807 9.575C14.175 9.5707 14.4479 9.56855 14.6928 9.56855H15.3072L16.1193 9.575C16.9594 9.58574 17.7994 9.60508 18.5836 9.63516C20.1283 9.69531 21.267 9.78984 21.716 9.91016C22.2102 10.0434 22.6012 10.4344 22.7344 10.9307C22.8354 11.3109 22.917 11.8781 22.975 12.5699C23.0201 13.1006 23.048 13.6721 23.0652 14.2436C23.0717 14.4434 23.0738 14.6303 23.076 14.7957C23.076 14.8537 23.0781 14.9053 23.0781 14.9482V15.0514ZM13.0879 17.8787L18.0723 14.9783L13.0879 12.1209V17.8787Z" fill="#3B84F5"/>
</svg>
