<svg width="644" height="430" viewBox="0 0 644 430" fill="none" xmlns="http://www.w3.org/2000/svg">
<g clip-path="url(#clip0_401_69289)">
<path d="M44.0645 279.239V298.086H81.9194V285.411H62.9123C59.5077 285.411 56.7399 282.643 56.7399 279.239C56.7399 275.834 59.5077 273.066 62.9123 273.066H81.9194V260.391H62.9123C52.5148 260.391 44.0645 268.841 44.0645 279.239Z" fill="#005BAD"/>
<path d="M89.2188 260.317V298.172H101.894V279.165C101.894 275.76 104.662 272.993 108.067 272.993H112.329V260.317H89.2188Z" fill="#005BAD"/>
<path d="M0 266.918V285.766H37.855V273.091H18.8479C15.4433 273.091 12.6755 270.323 12.6755 266.918C12.6755 263.514 15.4433 260.746 18.8479 260.746H37.855V248.07H18.8479C8.45032 248.07 0 256.521 0 266.918Z" fill="#005BAD"/>
<path d="M37.855 290.849H0V303.524H19.0071C22.4117 303.524 25.1795 306.292 25.1795 309.697V313.958H37.855V290.849Z" fill="#005BAD"/>
<path d="M119.504 248.132V260.807H138.511C141.916 260.807 144.683 263.575 144.683 266.979V269.466H119.504V282.141H138.511C141.916 282.141 144.683 284.909 144.683 288.313V292.575H157.359V248.144H119.504V248.132Z" fill="#005BAD"/>
<path d="M119.504 315.673H157.359V302.997H138.352C134.947 302.997 132.179 300.23 132.179 296.825V292.563H119.504V315.673Z" fill="#005BAD"/>
<path d="M248.036 287.371C237.308 287.371 228.588 278.651 228.588 267.923C228.588 257.194 237.32 248.475 248.036 248.475C258.752 248.475 267.484 257.207 267.484 267.923C267.484 278.639 258.764 287.371 248.036 287.371ZM248.036 261.138C244.301 261.138 241.251 264.175 241.251 267.923C241.251 271.67 244.288 274.695 248.036 274.695C251.783 274.695 254.808 271.658 254.808 267.923C254.808 264.187 251.771 261.138 248.036 261.138Z" fill="#005BAD"/>
<path d="M271.83 253.998V291.853H284.506V272.846C284.506 269.441 287.273 266.673 290.678 266.673H294.94V253.998H271.83Z" fill="#005BAD"/>
<path d="M248.182 315.869H286.037V303.193H267.03C263.625 303.193 260.857 300.426 260.857 297.021V292.759H248.182V315.869Z" fill="#005BAD"/>
<path d="M223.345 257.415H208.6V305.324H223.345V257.415Z" fill="#005BAD"/>
<path d="M164.549 248.132V260.807H183.556C186.961 260.807 189.728 263.575 189.728 266.979V269.466H164.549V305.337H202.404V292.661H183.397C180.323 292.661 177.788 290.395 177.322 287.456C177.739 284.456 180.286 282.141 183.397 282.141H202.404V248.144H164.549V248.132Z" fill="#005BAD"/>
<path d="M440.74 340.632C428.003 340.632 417.643 330.271 417.643 317.547C417.643 304.822 428.003 294.449 440.74 294.449C453.477 294.449 463.825 304.81 463.825 317.547C463.825 330.283 453.465 340.632 440.74 340.632ZM440.74 309.501C436.307 309.501 432.694 313.113 432.694 317.547C432.694 321.98 436.307 325.593 440.74 325.593C445.173 325.593 448.786 321.98 448.786 317.547C448.786 313.113 445.173 309.501 440.74 309.501Z" fill="#005BAD"/>
<path d="M621.625 295.086H599.25V340.02H614.289V317.461C614.289 313.419 617.571 310.137 621.613 310.137C625.654 310.137 628.936 313.419 628.936 317.461V340.02H643.975V317.461C643.975 305.128 633.933 295.086 621.6 295.086H621.625Z" fill="#005BAD"/>
<path d="M517.404 324.968V320.706H541.653V304.614C541.653 293.775 532.835 284.97 522.009 284.97C511.183 284.97 502.365 293.788 502.365 304.614V340.007H541.972V324.968H517.404ZM522.009 300.021C524.544 300.021 526.614 302.091 526.614 304.626C526.614 307.161 524.544 309.231 522.009 309.231C519.474 309.231 517.404 307.161 517.404 304.626C517.404 302.091 519.474 300.021 522.009 300.021Z" fill="#005BAD"/>
<path d="M569.172 295.123C556.913 295.27 546.969 305.275 546.969 317.571C546.969 329.867 556.913 339.873 569.172 340.007L591.866 340.02V295.135H569.172V295.123ZM562.02 317.571C562.02 313.493 565.339 310.174 569.417 310.174C573.495 310.174 576.814 313.493 576.814 317.571C576.814 321.649 573.495 324.968 569.417 324.968C565.339 324.968 562.02 321.649 562.02 317.571Z" fill="#005BAD"/>
<path d="M400.373 312.011L417.286 294.461H396.393L384.428 306.867V275.687H369.389V340.02H384.428V332.659C384.428 328.618 387.71 325.336 391.751 325.336C395.793 325.336 399.075 328.618 399.075 332.659V340.02H414.114V332.659C414.114 323.376 408.419 315.391 400.349 312.011H400.373Z" fill="#005BAD"/>
<path d="M469.776 295.086V340.02H484.815V317.461C484.815 313.419 488.097 310.137 492.139 310.137H497.197V295.098H469.764L469.776 295.086Z" fill="#005BAD"/>
<path d="M482.416 272.307C470.083 272.307 460.041 262.264 460.041 249.932V228.316H475.08V249.932C475.08 253.973 478.362 257.255 482.404 257.255C486.445 257.255 489.727 253.973 489.727 249.932V228.316H504.766V249.932C504.766 262.264 494.724 272.307 482.391 272.307H482.416Z" fill="#00A0A0"/>
<path d="M583.672 226.724C571.413 226.871 561.469 236.877 561.469 249.173C561.469 261.468 571.413 271.474 583.672 271.609L606.366 271.621V226.736H583.672V226.724ZM576.52 249.173C576.52 245.094 579.839 241.775 583.917 241.775C587.995 241.775 591.314 245.094 591.314 249.173C591.314 253.251 587.995 256.57 583.917 256.57C579.839 256.57 576.52 253.251 576.52 249.173Z" fill="#00A0A0"/>
<path d="M541.849 209.97V228.39L540.685 227.949C537.44 226.81 533.888 226.332 530.153 226.822C518.8 228.292 509.994 238.163 509.909 249.613C509.823 262.448 520.233 272.931 533.055 272.931C545.841 272.931 556.202 262.571 556.202 249.785V209.983H541.849V209.97ZM533.055 258.137C528.45 258.137 524.703 254.39 524.703 249.785C524.703 245.18 528.45 241.433 533.055 241.433C537.66 241.433 541.408 245.18 541.408 249.785C541.408 254.39 537.66 258.137 533.055 258.137Z" fill="#00A0A0"/>
<path d="M438.964 209.97V228.39L437.8 227.949C434.555 226.81 431.003 226.332 427.268 226.822C415.915 228.292 407.11 238.163 407.024 249.613C406.938 262.448 417.348 272.931 430.17 272.931C442.956 272.931 453.317 262.571 453.317 249.785V209.983H438.964V209.97ZM430.17 258.137C425.566 258.137 421.818 254.39 421.818 249.785C421.818 245.18 425.566 241.433 430.17 241.433C434.775 241.433 438.523 245.18 438.523 249.785C438.523 254.39 434.775 258.137 430.17 258.137Z" fill="#00A0A0"/>
<path d="M344.223 142.148C330.984 142.148 320.219 131.383 320.219 118.144C320.219 104.905 330.984 94.1399 344.223 94.1399C357.461 94.1399 368.226 104.905 368.226 118.144C368.226 131.383 357.461 142.148 344.223 142.148ZM344.223 109.779C339.606 109.779 335.858 113.539 335.858 118.144C335.858 122.749 339.618 126.508 344.223 126.508C348.827 126.508 352.587 122.761 352.587 118.144C352.587 113.527 348.84 109.779 344.223 109.779Z" fill="#005BAD"/>
<path d="M120.938 142.221C108.116 142.221 97.6816 131.787 97.6816 118.964V96.4912H113.321V118.964C113.321 123.165 116.738 126.582 120.938 126.582C125.139 126.582 128.556 123.165 128.556 118.964V96.4912H144.195V118.964C144.195 131.787 133.761 142.221 120.938 142.221Z" fill="#00A0A0"/>
<path d="M532.284 94.7888H509.027V141.498H524.667V118.046C524.667 113.845 528.083 110.428 532.284 110.428C536.485 110.428 539.902 113.845 539.902 118.046V141.498H555.541V118.046C555.541 105.223 545.107 94.7888 532.284 94.7888Z" fill="#005BAD"/>
<path d="M423.924 125.871V121.438H449.141V104.709C449.141 93.4416 439.98 84.281 428.713 84.281C417.446 84.281 408.285 93.4416 408.285 104.709V141.51H449.459V125.871H423.924ZM428.713 99.9202C431.346 99.9202 433.501 102.063 433.501 104.709C433.501 107.354 431.358 109.497 428.713 109.497C426.068 109.497 423.924 107.354 423.924 104.709C423.924 102.063 426.068 99.9202 428.713 99.9202Z" fill="#005BAD"/>
<path d="M226.224 94.8379C213.475 94.9849 203.139 105.395 203.139 118.168C203.139 130.942 213.475 141.351 226.224 141.486L249.811 141.498V94.8379H226.224ZM218.778 118.168C218.778 113.931 222.231 110.477 226.469 110.477C230.706 110.477 234.16 113.931 234.16 118.168C234.16 122.406 230.706 125.859 226.469 125.859C222.231 125.859 218.778 122.406 218.778 118.168Z" fill="#00A0A0"/>
<path d="M477.738 94.8379C464.989 94.9849 454.652 105.395 454.652 118.168C454.652 130.942 464.989 141.351 477.738 141.486L501.325 141.498V94.8379H477.738ZM470.304 118.168C470.304 113.931 473.757 110.477 477.995 110.477C482.232 110.477 485.686 113.931 485.686 118.168C485.686 122.406 482.232 125.859 477.995 125.859C473.757 125.859 470.304 122.406 470.304 118.168Z" fill="#005BAD"/>
<path d="M302.252 112.4L319.838 94.1643H298.124L285.694 107.06V74.6306H270.055V141.511H285.694V133.869C285.694 129.668 289.111 126.251 293.311 126.251C297.512 126.251 300.929 129.668 300.929 133.869V141.511H316.568V133.869C316.568 124.218 310.653 115.915 302.264 112.4H302.252Z" fill="#005BAD"/>
<path d="M374.41 94.7888V141.498H390.049V118.046C390.049 113.845 393.466 110.428 397.667 110.428H402.921V94.7888H374.41Z" fill="#005BAD"/>
<path d="M182.735 77.4229V96.5647L181.534 96.1115C178.154 94.9236 174.468 94.4337 170.586 94.9358C158.792 96.4667 149.631 106.73 149.546 118.633C149.448 131.983 160.286 142.87 173.611 142.87C186.898 142.87 197.676 132.093 197.676 118.805V77.4229H182.747H182.735ZM173.598 127.488C168.81 127.488 164.915 123.593 164.915 118.805C164.915 114.016 168.81 110.122 173.598 110.122C178.387 110.122 182.281 114.016 182.281 118.805C182.281 123.593 178.387 127.488 173.598 127.488Z" fill="#00A0A0"/>
<path d="M75.7716 77.4229V96.5647L74.5714 96.1115C71.1913 94.9236 67.505 94.4337 63.6228 94.9358C51.8291 96.4667 42.6684 106.73 42.5827 118.633C42.4847 131.983 53.3232 142.87 66.6477 142.87C79.9356 142.87 90.7128 132.093 90.7128 118.805V77.4229H75.7839H75.7716ZM66.6232 127.488C61.8347 127.488 57.9402 123.593 57.9402 118.805C57.9402 114.016 61.8347 110.122 66.6232 110.122C71.4118 110.122 75.3062 114.016 75.3062 118.805C75.3062 123.593 71.4118 127.488 66.6232 127.488Z" fill="#00A0A0"/>
</g>
<defs>
<clipPath id="clip0_401_69289">
<rect width="644" height="266.001" fill="white" transform="translate(0 74.6306)"/>
</clipPath>
</defs>
</svg>
