<svg width="536" height="536" viewBox="0 0 536 536" fill="none" xmlns="http://www.w3.org/2000/svg">
<path d="M188.68 423.163C188.68 423.163 203.668 424.489 203.098 405.312H225.672L229.273 429.052L218.656 441.4L191.342 444.822L188.68 423.163Z" fill="#FFF7E1"/>
<path d="M191.324 447.906C190.647 447.906 189.969 447.674 189.431 447.258C188.785 446.749 188.369 446.009 188.261 445.208L185.599 423.549C185.492 422.624 185.799 421.699 186.446 421.036C187.092 420.373 187.984 420.034 188.908 420.111C189.015 420.111 193.309 420.373 196.402 417.398C198.941 414.962 200.156 410.923 199.987 405.405C199.956 404.572 200.279 403.771 200.849 403.169C201.434 402.568 202.218 402.229 203.065 402.229H225.639C227.162 402.229 228.455 403.339 228.686 404.85L232.286 428.605C232.425 429.499 232.163 430.393 231.579 431.087L220.961 443.435C220.468 444.021 219.776 444.391 219.007 444.483L191.693 447.906C191.57 447.921 191.431 447.936 191.308 447.936L191.324 447.906ZM192.124 426.015L194.001 441.385L217.068 438.502L225.993 428.127L223.007 408.395H206.127C205.788 414.238 203.926 418.77 200.603 421.93C197.817 424.566 194.57 425.615 192.124 426.031V426.015Z" fill="#213E7A"/>
<path d="M273.048 374.835C227.992 374.835 191.461 353.67 191.461 308.517V252.821C191.461 207.684 227.992 171.087 273.048 171.087C318.104 171.087 354.635 207.684 354.635 252.821V308.517C354.635 353.654 318.104 374.835 273.048 374.835Z" fill="#FFF7E1"/>
<path d="M273.048 377.918C220.821 377.918 188.383 351.326 188.383 308.517V252.836C188.383 206.065 226.36 168.019 273.048 168.019C319.735 168.019 357.712 206.065 357.712 252.836V308.517C357.712 351.326 325.275 377.918 273.048 377.918ZM273.048 174.17C229.761 174.17 194.538 209.456 194.538 252.82V308.502C194.538 355.119 235.101 371.737 273.048 371.737C310.994 371.737 351.557 355.119 351.557 308.502V252.82C351.557 209.456 316.334 174.17 273.048 174.17Z" fill="#213E7A"/>
<path d="M229.365 425.244C229.365 425.244 234.258 429.946 232.273 439.997C231.242 445.177 227.195 448.676 221.917 448.676C209.129 449.647 195.927 449.601 182.37 448.676C160.903 448.676 165.951 408.734 197.942 421.113C197.942 421.113 203.051 424.057 205.005 431.534C205.005 431.534 228.18 430.948 229.349 425.244" fill="#FF3EA8"/>
<path d="M202.711 452.468C196.063 452.468 189.231 452.237 182.26 451.759C175.505 451.728 170.196 448.306 167.688 442.386C164.795 435.557 166.472 426.986 171.735 421.544C177.936 415.132 187.892 413.929 199.048 418.261C199.202 418.323 199.341 418.384 199.479 418.461C199.71 418.6 204.603 421.498 207.219 428.389C216.329 427.927 225.069 426.185 226.377 424.489C226.639 423.456 227.424 422.639 228.439 422.315C229.501 421.976 230.671 422.254 231.486 423.04C231.733 423.286 237.58 429.036 235.287 440.614C233.979 447.242 228.655 451.713 222.038 451.775C215.806 452.252 209.343 452.484 202.711 452.484V452.468ZM186.507 421.807C182.275 421.807 178.752 423.148 176.166 425.815C172.627 429.484 171.442 435.434 173.366 439.966C174.905 443.589 178.09 445.577 182.368 445.577C182.445 445.577 182.506 445.577 182.583 445.577C196.309 446.518 209.466 446.518 221.684 445.577C221.761 445.577 221.838 445.577 221.915 445.577C225.623 445.577 228.501 443.142 229.255 439.38C230.086 435.172 229.547 432.15 228.809 430.193C223.161 433.569 212.251 434.432 205.096 434.602C203.696 434.679 202.403 433.692 202.049 432.305C200.633 426.909 197.31 424.381 196.571 423.872C192.924 422.485 189.539 421.807 186.507 421.807Z" fill="#213E7A"/>
<path d="M358.562 423.163C358.562 423.163 343.574 424.489 344.144 405.312H321.57L317.969 429.052L328.586 441.4L355.9 444.822L358.562 423.163Z" fill="#FFF7E1"/>
<path d="M355.901 447.906C355.778 447.906 355.64 447.906 355.517 447.875L328.203 444.453C327.449 444.36 326.756 443.99 326.249 443.404L315.631 431.056C315.046 430.378 314.785 429.469 314.923 428.574L318.524 404.819C318.755 403.308 320.047 402.198 321.571 402.198H344.145C344.976 402.198 345.776 402.537 346.361 403.139C346.946 403.74 347.253 404.541 347.223 405.374C347.053 410.923 348.284 414.978 350.854 417.413C353.978 420.373 358.24 420.08 358.286 420.08C359.194 420.003 360.118 420.342 360.764 421.005C361.41 421.668 361.718 422.593 361.61 423.518L358.948 445.177C358.856 445.994 358.425 446.734 357.779 447.227C357.24 447.659 356.563 447.875 355.886 447.875L355.901 447.906ZM330.157 438.487L353.224 441.369L355.101 426C352.654 425.584 349.408 424.535 346.622 421.899C343.283 418.755 341.437 414.207 341.098 408.364H324.217L321.232 428.097L330.157 438.471V438.487Z" fill="#213E7A"/>
<path d="M361.236 366.803C360.189 360.606 353.019 331.764 353.019 331.764C348.264 322.268 339.631 327.308 326.767 333.598L273.047 344.728C257.474 336.388 199.862 320.464 194.199 331.764C194.199 331.764 187.028 360.606 185.982 366.803C183.504 381.494 182.35 396.386 189.936 409.073C192.429 412.557 226.544 428.343 238.993 400.61C241.455 395.122 252.166 386.212 266.307 386.212H280.926C295.067 386.212 305.777 395.122 308.239 400.61C320.688 428.358 354.788 412.572 357.296 409.073C364.883 396.386 363.729 381.494 361.251 366.803H361.236Z" fill="#FF93CE"/>
<path d="M333.138 419.787C331.907 419.787 330.676 419.725 329.445 419.602C318.443 418.507 310.149 412.372 305.424 401.874C303.516 397.619 294.083 389.295 280.927 389.295H266.308C253.136 389.295 243.703 397.619 241.81 401.874C237.102 412.372 228.792 418.508 217.79 419.617C204.017 421.005 189.784 414.145 187.445 410.877C187.398 410.815 187.352 410.738 187.306 410.661C179.197 397.111 180.428 381.325 182.967 366.295C184.013 360.067 190.938 332.211 191.23 331.024C191.292 330.808 191.368 330.592 191.461 330.392C192.492 328.326 194.477 326.815 197.354 325.89C213.373 320.788 258.86 334.169 273.51 341.491L325.783 330.669L327.737 329.713C339.17 324.071 349.957 318.738 355.789 330.392C355.897 330.592 355.974 330.808 356.02 331.024C356.313 332.211 363.237 360.051 364.284 366.295C366.823 381.325 368.038 397.111 359.944 410.661C359.898 410.738 359.852 410.8 359.806 410.877C357.682 413.852 345.679 419.787 333.154 419.787H333.138ZM192.476 407.316C194.185 409.011 207.08 415.255 219.036 413.22C226.884 411.879 232.655 407.223 236.178 399.346C239.117 392.81 250.72 383.129 266.293 383.129H280.911C296.499 383.129 308.102 392.81 311.026 399.346C314.565 407.223 320.32 411.894 328.168 413.22C340.017 415.224 352.82 409.104 354.758 407.254C361.298 396.124 360.852 383.237 358.175 367.312C357.22 361.67 350.911 336.142 350.096 332.858C347.372 327.725 343.541 328.742 330.415 335.232L328.106 336.373C327.876 336.481 327.629 336.573 327.383 336.62L273.664 347.75C272.956 347.888 272.232 347.781 271.586 347.441C257.691 340.011 212.358 327.555 199.186 331.764C198.155 332.087 197.401 332.519 197.062 332.951C196.154 336.604 189.937 361.716 188.999 367.312C186.306 383.252 185.875 396.17 192.446 407.3L192.476 407.316Z" fill="#213E7A"/>
<path d="M358.557 407.393C358.557 407.393 358.249 414.546 356.372 417.028C356.372 417.028 328.043 422.238 315.809 417.722C315.809 417.722 314.286 415.825 314.501 408.303C314.501 408.303 320.287 411.355 332.213 411.555C332.213 411.555 351.248 412.511 358.542 407.393H358.557Z" fill="#3B84F5"/>
<path d="M330.181 421.884C324.487 421.884 318.994 421.375 315.008 419.91C314.608 419.772 314.27 419.51 314.008 419.186C313.531 418.585 311.977 416.026 312.192 408.256C312.208 407.455 312.654 406.73 313.331 406.329C314.023 405.928 314.87 405.913 315.578 406.283C315.624 406.298 321.148 409.089 332.258 409.274C337.413 409.536 351.786 409.351 357.233 405.528C357.956 405.019 358.895 404.973 359.664 405.389C360.434 405.805 360.895 406.638 360.865 407.516C360.803 408.827 360.403 415.532 358.218 418.446C357.864 418.908 357.356 419.217 356.787 419.325C355.971 419.479 342.599 421.899 330.181 421.899V421.884ZM317.486 415.856C328.088 419.14 349.893 415.779 354.909 414.947C355.294 414.052 355.602 412.711 355.817 411.324C346.846 414.577 332.781 413.914 332.104 413.883C324.949 413.76 319.886 412.634 316.839 411.678C316.963 413.914 317.27 415.209 317.486 415.856Z" fill="#213E7A"/>
<path d="M317.87 425.244C317.87 425.244 312.977 429.946 314.962 439.997C315.993 445.177 320.04 448.676 325.318 448.676C338.106 449.647 351.309 449.601 364.865 448.676C386.332 448.676 381.284 408.734 349.293 421.113C349.293 421.113 344.184 424.057 342.23 431.534C342.23 431.534 319.055 430.948 317.886 425.244" fill="#FF3EA8"/>
<path d="M344.523 452.468C337.876 452.468 331.413 452.237 325.196 451.759C318.579 451.697 313.27 447.227 311.947 440.598C309.654 429.021 315.486 423.256 315.748 423.024C316.548 422.254 317.717 421.976 318.795 422.3C319.81 422.624 320.595 423.441 320.857 424.473C322.165 426.169 330.905 427.911 340.015 428.374C342.631 421.483 347.524 418.585 347.755 418.446C347.893 418.369 348.032 418.292 348.186 418.245C359.342 413.929 369.298 415.116 375.499 421.529C380.762 426.971 382.439 435.557 379.546 442.371C377.038 448.306 371.729 451.713 364.974 451.744C358.003 452.222 351.171 452.453 344.523 452.453V452.468ZM318.441 430.208C317.702 432.166 317.148 435.187 317.994 439.396C318.733 443.157 321.611 445.593 325.335 445.593C325.411 445.593 325.488 445.593 325.565 445.593C337.783 446.533 350.94 446.518 364.666 445.593C364.743 445.593 364.805 445.593 364.882 445.593C369.16 445.593 372.36 443.604 373.884 439.982C375.807 435.449 374.622 429.483 371.083 425.83C366.667 421.267 359.434 420.573 350.679 423.903C349.925 424.412 346.632 426.924 345.2 432.335C344.831 433.723 343.6 434.709 342.154 434.632C334.998 434.447 324.103 433.584 318.441 430.223V430.208Z" fill="#213E7A"/>
<path d="M307.103 242.415C304.979 235.494 300.286 230.684 294.823 230.684C287.376 230.684 281.328 239.61 281.328 250.616C281.328 261.623 287.36 270.549 294.823 270.549C297.639 270.549 300.255 269.269 302.425 267.08C305.98 263.489 308.319 257.461 308.319 250.616C308.319 247.688 307.888 244.928 307.118 242.415H307.103Z" fill="white"/>
<path d="M294.823 272.861C285.96 272.861 279.02 263.088 279.02 250.616C279.02 238.145 285.96 228.372 294.823 228.372C301.147 228.372 306.826 233.628 309.319 241.737C310.18 244.558 310.627 247.549 310.627 250.616C310.627 257.8 308.18 264.568 304.071 268.714C301.378 271.427 298.193 272.877 294.838 272.877L294.823 272.861ZM294.823 232.996C288.76 232.996 283.636 241.074 283.636 250.616C283.636 260.159 288.76 268.236 294.823 268.236C297.47 268.236 299.532 266.726 300.778 265.446C304.04 262.147 305.995 256.598 305.995 250.616C305.995 248.011 305.625 245.483 304.887 243.094C303.009 236.958 299.055 232.996 294.808 232.996H294.823Z" fill="#213E7A"/>
<path d="M239.643 267.249C238.397 267.249 237.227 266.494 236.766 265.261C236.166 263.673 236.966 261.885 238.566 261.284L257.77 254.023C259.232 253.468 260.202 252.05 260.202 250.493C260.202 248.936 259.217 247.502 257.74 246.947L238.905 239.948C237.304 239.363 236.504 237.59 237.089 235.987C237.674 234.383 239.443 233.582 241.044 234.167L259.878 241.166C263.756 242.6 266.357 246.346 266.357 250.493C266.357 254.639 263.772 258.339 259.94 259.788L240.736 267.049C240.382 267.188 240.013 267.249 239.643 267.249Z" fill="#213E7A"/>
<path d="M263.278 252.928H237.98C236.703 252.928 235.672 251.896 235.672 250.616C235.672 249.337 236.703 248.304 237.98 248.304H263.278C264.555 248.304 265.586 249.337 265.586 250.616C265.586 251.896 264.555 252.928 263.278 252.928Z" fill="#213E7A"/>
<path d="M289.772 266.403C294.43 266.403 298.205 259.825 298.205 251.712C298.205 243.598 294.43 237.021 289.772 237.021C285.115 237.021 281.34 243.598 281.34 251.712C281.34 259.825 285.115 266.403 289.772 266.403Z" fill="#213E7A"/>
<path d="M289.772 268.699C283.74 268.699 279.031 261.238 279.031 251.696C279.031 242.154 283.755 234.692 289.772 234.692C295.789 234.692 300.513 242.154 300.513 251.696C300.513 261.238 295.789 268.699 289.772 268.699ZM289.772 239.332C286.879 239.332 283.648 244.42 283.648 251.711C283.648 259.003 286.879 264.09 289.772 264.09C292.665 264.09 295.897 259.003 295.897 251.711C295.897 244.42 292.665 239.332 289.772 239.332Z" fill="#213E7A"/>
<path d="M225.145 279.829C230.576 279.829 234.978 277.234 234.978 274.033C234.978 270.831 230.576 268.236 225.145 268.236C219.715 268.236 215.312 270.831 215.312 274.033C215.312 277.234 219.715 279.829 225.145 279.829Z" fill="#FF93CE"/>
<path d="M320.966 279.829C326.396 279.829 330.799 277.234 330.799 274.033C330.799 270.831 326.396 268.236 320.966 268.236C315.535 268.236 311.133 270.831 311.133 274.033C311.133 277.234 315.535 279.829 320.966 279.829Z" fill="#FF93CE"/>
<path d="M192.309 319.616C192.278 321.327 206.866 326.738 207.958 327.062C222.915 331.579 238.519 333.876 253.938 334.631C271.418 335.479 288.961 334.801 306.349 332.581C315.043 331.471 323.691 329.991 332.293 328.126C339.187 326.63 348.543 323.254 354.929 319.616C355.206 322.16 356.714 330.608 355.514 333.614C353.529 338.639 299.763 346.717 272.757 346.717C244.151 346.717 193.694 339.071 191.493 333.614C190.031 330.006 191.201 323.331 192.309 319.616Z" fill="#3B84F5" stroke="#213E7A" stroke-width="3" stroke-linecap="round" stroke-linejoin="round"/>
<path d="M235.361 331.394C235.361 331.394 218.804 317.597 211.956 316.734C205.109 315.87 201.477 329.852 202.831 332.026C204.17 334.2 234.377 345.376 234.377 345.376L235.377 331.409L235.361 331.394Z" fill="#3B84F5"/>
<path d="M234.378 348.444C234.025 348.444 233.655 348.382 233.317 348.259C202.11 336.728 200.833 334.647 200.217 333.645C198.263 330.469 200.633 322.807 203.141 318.923C205.603 315.084 208.881 313.234 212.358 313.666C219.729 314.606 234.471 326.631 237.348 329.02C238.118 329.652 238.518 330.623 238.456 331.61L237.456 345.576C237.395 346.548 236.871 347.426 236.056 347.95C235.548 348.274 234.979 348.444 234.394 348.444H234.378ZM205.618 330.284C208.65 332.057 220.191 336.743 231.593 341.029L232.178 332.751C225.854 327.617 215.636 320.295 211.558 319.771C211.296 319.74 210.512 319.632 209.311 320.911C207.003 323.378 205.664 328.28 205.603 330.284H205.618Z" fill="#213E7A"/>
<path d="M248.875 331.857C248.875 331.857 261.709 325.351 259.662 361.177L259.431 372.986C259.431 372.986 244.444 375.283 243.766 372.986C242.659 369.209 244.074 346.579 244.074 346.579L243.059 336.543L248.875 331.857Z" fill="#3B84F5"/>
<path d="M248.398 377.132C241.766 377.132 241.212 375.252 240.797 373.864C239.643 369.933 240.612 352.375 240.966 346.656L239.981 336.867C239.873 335.834 240.304 334.816 241.12 334.153L246.937 329.467C247.106 329.328 247.29 329.22 247.475 329.113C249.014 328.342 252.476 327.586 255.738 329.729C261.447 333.475 263.725 343.819 262.725 361.347L262.494 373.047C262.463 374.542 261.355 375.806 259.878 376.038C254.784 376.824 251.076 377.132 248.383 377.132H248.398ZM246.536 370.889C248.445 371.043 252.338 370.812 256.4 370.303L256.585 361.115C257.77 340.32 253.723 335.818 252.461 334.94C251.63 334.354 250.845 334.462 250.445 334.57L246.29 337.915L247.137 346.286C247.152 346.455 247.152 346.625 247.137 346.794C246.552 356.074 246.213 366.958 246.536 370.904V370.889Z" fill="#213E7A"/>
<path d="M232.703 344.744C232.703 344.744 211.668 330.223 202.835 332.026C202.835 332.026 201.666 335.063 211.099 338.115C220.531 341.152 232.703 344.744 232.703 344.744Z" fill="#213E7A"/>
<path d="M232.703 347.827C232.411 347.827 232.119 347.781 231.842 347.704C231.719 347.673 219.531 344.066 210.16 341.044C204.713 339.287 201.466 337.175 200.235 334.6C199.388 332.828 199.758 331.425 199.958 330.916C200.342 329.929 201.189 329.22 202.22 329.004C203.912 328.65 213.407 327.679 234.458 342.216C235.704 343.079 236.135 344.713 235.489 346.085C234.965 347.18 233.873 347.842 232.703 347.842V347.827Z" fill="#213E7A"/>
<path d="M248.878 331.856C248.878 331.856 244.046 340.766 244.061 346.578C244.061 346.578 231.505 347.919 227.981 341.676C224.472 335.417 232.505 326.831 232.505 326.831C232.505 326.831 243.199 326.322 248.878 331.856Z" fill="#86B6FF"/>
<path d="M241.121 349.816C236.52 349.816 228.518 348.937 225.302 343.202C220.809 335.217 229.272 325.783 230.257 324.734C230.811 324.148 231.565 323.794 232.365 323.763C232.858 323.748 244.476 323.27 251.031 329.652C252.016 330.608 252.247 332.118 251.585 333.336C250.338 335.633 247.138 342.462 247.153 346.578C247.153 348.151 245.968 349.492 244.399 349.661C243.999 349.708 242.783 349.816 241.136 349.816H241.121ZM233.919 329.929C231.981 332.365 228.98 337.19 230.673 340.181C232.196 342.894 237.459 343.649 241.26 343.649C241.937 339.641 243.768 335.325 244.999 332.735C241.321 330.423 236.258 330.006 233.919 329.945V329.929Z" fill="#213E7A"/>
<path d="M188.676 407.393C188.676 407.393 188.984 414.546 190.861 417.028C190.861 417.028 219.19 422.238 231.424 417.722C231.424 417.722 232.947 415.825 232.732 408.303C232.732 408.303 226.946 411.355 215.02 411.555C215.02 411.555 195.985 412.511 188.691 407.393H188.676Z" fill="#3B84F5"/>
<path d="M217.052 421.884C204.634 421.884 191.262 419.464 190.446 419.309C189.877 419.202 189.369 418.893 189.015 418.431C186.815 415.517 186.415 408.811 186.369 407.501C186.338 406.622 186.799 405.79 187.569 405.374C188.338 404.958 189.292 405.004 190 405.512C195.448 409.336 209.82 409.521 214.898 409.258C226.085 409.073 231.609 406.283 231.671 406.252C232.379 405.882 233.225 405.913 233.902 406.314C234.579 406.715 235.026 407.439 235.041 408.241C235.256 416.011 233.718 418.585 233.225 419.171C232.964 419.494 232.61 419.741 232.225 419.895C228.239 421.36 222.746 421.868 217.052 421.868V421.884ZM192.324 414.947C197.34 415.795 219.16 419.14 229.747 415.856C229.963 415.193 230.271 413.899 230.394 411.679C227.347 412.634 222.253 413.76 215.052 413.883C214.421 413.914 200.387 414.577 191.416 411.324C191.647 412.727 191.954 414.053 192.324 414.947Z" fill="#213E7A"/>
<path d="M277.419 276.468C276.219 276.468 275.219 275.543 275.126 274.341C275.126 274.325 274.773 271.427 273.511 271.427C272.249 271.427 271.741 274.387 271.741 274.418C271.587 275.682 270.464 276.607 269.187 276.453C267.925 276.314 267.017 275.173 267.14 273.909C267.402 271.443 269.064 266.787 273.495 266.787C277.389 266.787 279.45 270.518 279.712 273.971C279.804 275.25 278.866 276.36 277.589 276.453C277.527 276.453 277.465 276.453 277.404 276.453L277.419 276.468Z" fill="#213E7A"/>
<path d="M329.978 373.479C328.716 373.479 327.47 372.97 326.562 371.968L290.739 332.504C289.031 330.608 289.169 327.694 291.047 325.968C292.939 324.256 295.848 324.395 297.571 326.276L333.394 365.74C335.102 367.636 334.964 370.55 333.087 372.276C332.21 373.078 331.086 373.479 329.978 373.479Z" fill="#1D3C75"/>
<path d="M312.361 312.833C307.037 306.96 299.512 304.262 292.188 304.864L294.173 329.405L312.361 312.833Z" fill="white"/>
<path d="M280.937 308.64C279.783 309.38 278.675 310.228 277.629 311.168L294.171 329.39L280.937 308.64Z" fill="white"/>
<path d="M288.432 305.45C287.016 305.789 285.631 306.251 284.277 306.853L294.172 329.406L288.448 305.45H288.432Z" fill="white"/>
<path d="M270.229 323.779C268.444 331.41 270.321 339.749 275.969 345.977L294.157 329.406L270.229 323.779Z" fill="#FFCA3F"/>
<path d="M312.362 312.833L294.173 329.405L275.984 345.977C285.125 356.044 300.667 356.783 310.715 347.627C320.763 338.47 321.502 322.9 312.362 312.833Z" fill="#FF3EA8"/>
<path d="M277.632 311.184C273.801 314.668 271.339 319.092 270.246 323.778L294.174 329.405L277.632 311.184Z" fill="#00A0A0"/>
<path d="M284.281 306.852C283.127 307.361 282.019 307.946 280.941 308.64L294.175 329.39L284.281 306.836V306.852Z" fill="#FF3EA8"/>
<path d="M292.173 304.863C290.911 304.971 289.665 305.156 288.434 305.449L294.158 329.405L292.173 304.863Z" fill="#FF3EA8"/>
<path d="M294.172 356.336C279.338 356.336 267.289 344.251 267.289 329.405C267.289 314.56 279.353 302.474 294.172 302.474C308.991 302.474 321.055 314.56 321.055 329.405C321.055 344.251 308.991 356.336 294.172 356.336ZM294.172 307.099C281.892 307.099 271.905 317.104 271.905 329.405C271.905 341.707 281.892 351.712 294.172 351.712C306.452 351.712 316.438 341.707 316.438 329.405C316.438 317.104 306.452 307.099 294.172 307.099Z" fill="#1D3C75"/>
<path d="M339.554 311.955C342.309 316.934 344.709 322.083 344.817 327.185C345.063 339.04 337.646 349.661 337.477 349.769C337.477 349.769 334.322 347.626 328.152 348.305C321.658 349.014 317.011 350.185 317.842 354.718C318.673 359.25 325.828 356.367 326.274 357.477C326.982 359.203 321.781 359.712 318.596 363.119C315.411 366.526 315.472 371.998 321.058 377.116C323.366 379.244 329.952 384.316 335.984 381.972C343.494 379.043 344.94 372.23 346.387 362.934C347.279 362.379 364.252 345.946 364.252 324.842C364.252 315.022 358.774 295.814 354.665 287.505" fill="#FFF7E1"/>
<path d="M332.691 385.641C326.413 385.641 320.812 381.047 318.98 379.367C314.549 375.313 313.502 371.382 313.41 368.807C313.302 365.894 314.333 363.119 316.349 360.976C316.826 360.468 317.319 360.021 317.842 359.604C316.411 358.864 315.241 357.539 314.81 355.242C314.318 352.559 315.164 350.709 315.964 349.646C318.073 346.809 322.058 345.838 327.813 345.206C331.552 344.805 334.399 345.283 336.323 345.884C338.416 342.293 341.909 334.801 341.739 327.216C341.647 322.699 339.339 317.905 336.861 313.419C336.046 311.924 336.584 310.058 338.062 309.226C339.554 308.409 341.416 308.949 342.247 310.428C345.109 315.624 347.771 321.219 347.895 327.077C348.156 339.487 340.57 351.403 339.123 352.328C338.092 352.991 336.754 352.976 335.738 352.282C335.692 352.251 333.276 350.802 328.475 351.326C322.981 351.927 321.319 352.744 320.889 353.315C320.781 353.453 320.781 353.716 320.842 354.116C320.858 354.24 320.889 354.286 320.889 354.286C321.258 354.471 323.043 354.286 323.797 354.209C325.397 354.055 328.09 353.777 329.106 356.259C330.568 359.851 326.875 361.608 325.09 362.456C323.628 363.15 321.981 363.936 320.827 365.169C319.95 366.11 319.504 367.281 319.55 368.545C319.627 370.534 320.889 372.754 323.12 374.789C323.812 375.421 330.014 380.924 334.846 379.043C340.508 376.824 341.832 372.045 343.309 362.41C343.432 361.593 343.878 360.868 344.54 360.391C345.186 359.805 361.144 344.559 361.144 324.796C361.144 315.67 355.958 297.079 351.865 288.831C351.111 287.305 351.726 285.455 353.25 284.7C354.773 283.944 356.62 284.561 357.374 286.087C361.836 295.105 367.283 314.729 367.283 324.796C367.283 344.173 353.68 360.159 349.218 364.429C347.971 372.446 346.248 381.217 337.061 384.793C335.584 385.379 334.091 385.61 332.645 385.61L332.691 385.641Z" fill="#213E7A"/>
<path d="M194.565 294.566C191.503 294.736 188.641 294.443 185.64 293.549C174.299 290.158 165.882 278.442 165.836 278.241C165.836 278.241 168.836 275.898 170.098 269.793C171.422 263.381 171.729 258.586 167.174 257.985C162.62 257.384 163.158 265.092 161.973 265.184C160.111 265.323 159.142 253.992 156.418 250.216C153.202 245.714 145.662 246.439 140.492 251.202C138.183 253.33 134.66 258.509 135.152 263.843C135.891 271.89 142.231 278.472 150.632 282.696C150.894 283.714 161.312 304.91 181.347 311.416C185.348 312.711 189.903 313.435 194.888 313.512" fill="#FFF7E1"/>
<path d="M194.874 316.595H194.828C189.596 316.518 184.733 315.763 180.378 314.344C161.944 308.363 150.926 290.481 148.248 284.947C138.692 279.86 132.814 272.321 132.06 264.12C131.429 257.291 135.922 251.202 138.385 248.936C142.093 245.514 146.94 243.756 151.31 244.188C154.48 244.512 157.173 246.022 158.897 248.412C160.374 250.462 161.282 253.653 162.097 256.89C163.252 255.534 164.96 254.593 167.545 254.933C170.238 255.287 171.73 256.659 172.515 257.754C174.562 260.636 174.254 264.737 173.1 270.41C172.33 274.14 170.976 276.715 169.807 278.349C172.469 281.555 178.809 288.277 186.503 290.589C189.057 291.36 191.55 291.637 194.381 291.483C196.059 291.391 197.536 292.701 197.613 294.397C197.705 296.092 196.397 297.557 194.705 297.649C191.15 297.834 187.98 297.48 184.733 296.509C172.423 292.824 163.159 280.276 162.836 279.012C162.528 277.825 162.959 276.561 163.929 275.805C163.975 275.775 166.083 273.925 167.068 269.177C168.176 263.75 167.914 261.916 167.499 261.33C167.406 261.191 167.145 261.099 166.745 261.053C166.622 261.053 166.575 261.053 166.575 261.053C166.283 261.361 165.914 263.103 165.76 263.843C165.421 265.415 164.867 268.067 162.174 268.267C158.604 268.529 157.712 264.86 156.45 259.758C155.788 257.075 154.88 253.406 153.88 252.019C153.188 251.048 152.095 250.477 150.664 250.323C148.033 250.046 144.924 251.264 142.524 253.468C140.631 255.21 137.784 259.48 138.154 263.55C138.738 269.839 143.755 275.821 151.941 279.937C152.68 280.307 153.234 280.954 153.48 281.725C153.849 282.527 163.436 302.382 182.225 308.487C185.995 309.704 190.242 310.367 194.859 310.429C196.551 310.46 197.921 311.847 197.89 313.558C197.859 315.239 196.49 316.595 194.812 316.595H194.874Z" fill="#213E7A"/>
<path d="M348.662 282.11L352.924 292.994L350.2 302.474L340.645 292.547L348.662 282.11Z" fill="#FFF7E1"/>
<path d="M301.524 277.794C292.183 275.729 288.198 285.564 279.842 288.878C279.796 288.893 279.765 288.909 279.719 288.924C275.441 290.605 270.671 290.605 266.393 288.924C266.347 288.909 266.316 288.893 266.27 288.878C257.914 285.564 253.928 275.713 244.588 277.794C237.771 279.305 236.355 285.363 237.186 288.878C239.51 298.759 261.176 299.993 270.286 300.286H275.856C284.951 299.993 306.632 298.775 308.956 288.878C309.787 285.363 308.356 279.305 301.554 277.794H301.524Z" fill="#17386C"/>
<path d="M270.271 301.812C248.805 301.118 237.51 297.002 235.679 289.217C235.187 287.151 235.31 283.929 237.095 281.093C238.634 278.642 241.111 276.977 244.266 276.268C250.775 274.834 254.976 278.488 259.053 282.033C261.423 284.099 263.885 286.257 266.855 287.429C270.918 289.032 275.242 289.032 279.181 287.475C282.259 286.257 284.721 284.114 287.106 282.033C291.168 278.488 295.385 274.819 301.894 276.268C305.033 276.962 307.51 278.626 309.049 281.093C310.834 283.929 310.942 287.151 310.465 289.217C308.634 297.002 297.339 301.118 275.919 301.812H270.302H270.271ZM247.035 279.058C246.358 279.058 245.651 279.135 244.912 279.305C242.558 279.829 240.803 280.985 239.695 282.758C238.418 284.793 238.341 287.136 238.68 288.523C239.68 292.747 245.974 297.958 270.333 298.744H275.842C300.155 297.958 306.449 292.747 307.449 288.523C307.772 287.136 307.71 284.793 306.433 282.758C305.325 280.985 303.571 279.829 301.217 279.305C296.216 278.195 292.922 281.062 289.122 284.392C286.552 286.643 283.89 288.955 280.443 290.327C275.657 292.223 270.518 292.208 265.855 290.373C262.27 288.955 259.607 286.627 257.038 284.392C253.791 281.571 250.929 279.058 247.066 279.058H247.035Z" fill="#17386C"/>
<path d="M258.188 284.006L262.635 287.074C263.836 287.907 264.067 289.248 263.143 289.988C262.112 290.82 260.373 291.868 257.511 292.87C255.911 293.425 253.587 292.1 253.557 290.573C253.526 288.924 253.88 286.905 254.48 284.669C254.834 283.359 256.757 283.004 258.204 283.991L258.188 284.006Z" fill="white"/>
<path d="M256.684 294.551C255.699 294.551 254.668 294.227 253.775 293.61C252.667 292.84 252.021 291.745 251.99 290.62C251.96 288.939 252.283 286.874 252.96 284.284C253.221 283.297 253.96 282.511 254.976 282.141C256.253 281.663 257.822 281.895 259.038 282.742L263.485 285.81C264.547 286.55 265.178 287.614 265.224 288.739C265.255 289.695 264.839 290.604 264.085 291.206C262.608 292.393 260.561 293.441 257.992 294.335C257.576 294.474 257.13 294.551 256.668 294.551H256.684ZM256.407 284.978C256.176 284.978 255.991 285.039 255.945 285.101C255.345 287.383 255.053 289.171 255.083 290.558C255.083 290.62 255.222 290.882 255.606 291.129C256.068 291.421 256.653 291.56 256.991 291.421C259.777 290.45 261.346 289.464 262.177 288.801C262.177 288.801 262.085 288.585 261.762 288.354L257.315 285.286C256.991 285.07 256.668 284.993 256.407 284.993V284.978Z" fill="#17386C"/>
<path d="M287.904 284.006L283.457 287.074C282.257 287.907 282.026 289.248 282.949 289.988C283.98 290.82 285.719 291.868 288.581 292.87C290.182 293.425 292.505 292.1 292.536 290.573C292.567 288.924 292.213 286.905 291.613 284.669C291.259 283.359 289.335 283.004 287.889 283.991L287.904 284.006Z" fill="white"/>
<path d="M289.415 294.551C288.953 294.551 288.507 294.474 288.091 294.335C285.521 293.441 283.475 292.393 281.998 291.206C281.244 290.604 280.813 289.695 280.859 288.739C280.905 287.614 281.536 286.55 282.598 285.81L287.045 282.742C288.26 281.895 289.815 281.679 291.107 282.141C292.123 282.511 292.861 283.297 293.123 284.284C293.816 286.858 294.123 288.939 294.093 290.62C294.077 291.745 293.415 292.84 292.308 293.61C291.415 294.227 290.384 294.551 289.399 294.551H289.415ZM289.707 284.978C289.445 284.978 289.122 285.055 288.784 285.271L284.337 288.338C283.998 288.57 283.936 288.785 283.936 288.832C284.752 289.448 286.322 290.435 289.107 291.406C289.445 291.529 290.03 291.406 290.492 291.098C290.876 290.851 291.015 290.589 291.015 290.527C291.046 289.14 290.753 287.352 290.138 285.055C290.092 285.008 289.922 284.947 289.707 284.947V284.978Z" fill="#17386C"/>
<path d="M244.99 185.809C244.944 184.992 244.713 184.283 243.975 183.82C242.467 183.589 241.897 184.668 241.22 185.686C240.836 186.256 240.513 187.119 239.512 186.811C238.574 186.518 238.589 185.701 238.589 184.961C238.558 174.972 232.926 167.865 226.433 161.175C225.909 160.635 225.371 160.342 224.632 160.635C223.863 160.944 223.832 161.637 223.801 162.331C223.755 163.056 224.001 163.919 223.063 164.273C222.109 164.628 221.493 163.934 220.924 163.348C216.661 158.924 213.645 153.837 212.753 147.655C212.445 145.543 211.491 145.066 209.983 146.53C203.735 152.604 198.257 159.171 197.088 168.281C196.857 170.101 197.026 171.873 197.411 173.646C198.026 176.59 197.472 177.084 194.595 176.036C193.194 175.527 191.902 174.679 190.348 175.388C190.455 178.101 191.533 184.822 191.656 185.578C192.625 191.174 194.318 196.523 197.072 201.502C203.674 213.418 214.584 218.321 227.11 214.59C236.435 211.815 242.544 205.68 244.744 195.953C245.514 192.577 244.883 189.216 244.99 185.84V185.809Z" fill="#3B84F5"/>
<path d="M219.167 218.86C208.996 218.86 200.071 213.28 194.377 202.982C191.623 198.003 189.745 192.484 188.622 186.102C188.622 186.025 187.391 178.641 187.268 175.511C187.222 174.263 187.929 173.107 189.068 172.582C191.038 171.688 192.807 172.074 194.085 172.521C193.854 170.871 193.838 169.361 194.038 167.881C195.346 157.676 201.455 150.523 207.842 144.295C209.842 142.352 211.627 142.399 212.766 142.784C213.92 143.185 215.397 144.264 215.813 147.193C216.443 151.556 218.305 155.548 221.506 159.371C221.922 158.739 222.537 158.138 223.522 157.768C224.568 157.352 226.63 156.982 228.631 159.032C234.217 164.767 240.126 171.627 241.403 181.2C242.203 180.799 243.203 180.583 244.45 180.784C244.85 180.845 245.234 180.984 245.588 181.2C246.635 181.847 247.927 183.142 248.066 185.639C248.066 185.732 248.066 185.809 248.066 185.902C248.035 186.95 248.081 188.013 248.127 189.139C248.235 191.513 248.343 193.979 247.743 196.6C245.342 207.144 238.51 214.39 227.984 217.519C224.984 218.413 222.029 218.845 219.167 218.845V218.86ZM193.792 179.011C194.115 181.539 194.562 184.283 194.685 185.023C195.685 190.711 197.347 195.613 199.763 199.976C205.733 210.767 215.135 214.898 226.23 211.599C234.74 209.071 239.818 203.722 241.741 195.228C242.157 193.409 242.064 191.467 241.972 189.401C241.972 189.401 241.972 189.37 241.972 189.355C240.695 190.156 239.387 189.987 238.587 189.74C237.186 189.293 235.509 188.121 235.494 184.992C235.463 177.423 231.985 171.704 226.23 165.445C225.676 166.37 224.861 166.863 224.107 167.141C221.306 168.158 219.398 166.17 218.767 165.522C214.274 160.867 211.458 155.98 210.196 150.631C204.764 156.196 201.04 161.591 200.132 168.651C199.963 169.931 200.055 171.318 200.409 172.983C200.686 174.278 201.24 176.96 199.332 178.641C197.532 180.213 195.131 179.489 193.792 179.011Z" fill="#213E7A"/>
<path d="M301.111 185.809C301.157 184.992 301.388 184.283 302.126 183.82C303.634 183.589 304.204 184.668 304.881 185.686C305.265 186.256 305.589 187.119 306.589 186.811C307.527 186.518 307.512 185.701 307.512 184.961C307.543 174.972 313.175 167.865 319.669 161.175C320.192 160.635 320.73 160.342 321.469 160.635C322.238 160.944 322.269 161.637 322.3 162.331C322.346 163.056 322.1 163.919 323.039 164.273C323.993 164.628 324.608 163.934 325.178 163.348C329.44 158.924 332.456 153.837 333.349 147.655C333.656 145.543 334.61 145.066 336.118 146.53C342.366 152.604 347.844 159.171 349.014 168.281C349.244 170.101 349.075 171.873 348.69 173.646C348.075 176.59 348.629 177.084 351.506 176.036C352.907 175.527 354.199 174.679 355.753 175.388C355.646 178.101 354.569 184.822 354.446 185.578C353.476 191.174 351.783 196.523 349.029 201.502C342.427 213.418 331.517 218.321 318.992 214.59C309.666 211.815 303.557 205.68 301.357 195.953C300.587 192.577 301.218 189.216 301.111 185.84V185.809Z" fill="#3B84F5"/>
<path d="M326.931 218.86C324.084 218.86 321.13 218.429 318.114 217.535C307.573 214.405 300.741 207.175 298.355 196.616C297.755 193.995 297.863 191.544 297.971 189.154C298.017 188.029 298.063 186.95 298.032 185.917C298.032 185.825 298.032 185.732 298.032 185.655C298.171 183.158 299.448 181.863 300.51 181.215C300.864 181 301.248 180.861 301.648 180.799C302.895 180.614 303.895 180.815 304.695 181.215C305.988 171.627 311.882 164.782 317.467 159.048C319.468 156.982 321.53 157.367 322.576 157.784C323.546 158.169 324.177 158.755 324.592 159.387C327.808 155.548 329.67 151.556 330.286 147.224C330.701 144.295 332.178 143.216 333.332 142.815C334.471 142.43 336.241 142.368 338.257 144.326C344.658 150.538 350.752 157.707 352.075 167.912C352.26 169.392 352.244 170.902 352.029 172.552C353.321 172.089 355.076 171.704 357.045 172.614C358.184 173.138 358.892 174.294 358.846 175.542C358.723 178.656 357.492 186.071 357.492 186.133C356.384 192.515 354.491 198.034 351.736 203.013C346.028 213.311 337.118 218.891 326.946 218.891L326.931 218.86ZM304.126 189.37V189.417C304.034 191.482 303.941 193.425 304.357 195.228C306.28 203.722 311.358 209.071 319.868 211.6C330.963 214.899 340.365 210.767 346.335 199.976C348.751 195.598 350.413 190.711 351.413 185.023C351.536 184.299 351.983 181.539 352.306 179.011C350.982 179.489 348.567 180.213 346.766 178.641C344.843 176.976 345.412 174.278 345.689 172.983C346.043 171.303 346.135 169.931 345.966 168.652C345.058 161.591 341.334 156.211 335.902 150.631C334.625 155.995 331.824 160.867 327.393 165.461C326.7 166.17 324.792 168.158 321.991 167.141C321.253 166.863 320.422 166.37 319.868 165.445C314.097 171.735 310.62 177.423 310.604 184.946C310.604 188.106 308.927 189.293 307.527 189.725C306.711 189.972 305.419 190.156 304.141 189.339L304.126 189.37ZM304.203 185.856C304.203 185.856 304.203 185.871 304.203 185.886C304.203 185.886 304.203 185.871 304.203 185.856Z" fill="#213E7A"/>
<path d="M275.737 151.895C273.168 151.895 270.505 151.432 267.951 150.446C261.257 147.856 256.487 142.198 255.764 136.032C255.225 131.361 256.318 124.486 264.566 118.196C266.151 116.994 268.29 115.76 270.552 114.466C278.738 109.779 284.832 105.771 282.739 100.684C282.139 99.204 281.369 98.9111 278.615 98.4178C275.753 97.8937 271.413 97.1075 269.428 91.712C267.366 86.1162 272.444 81.8306 275.414 80.3353C276.938 79.5645 278.784 80.1966 279.538 81.7073C280.292 83.2334 279.677 85.0833 278.169 85.8387C278.153 85.8387 274.568 87.8119 275.214 89.5538C275.953 91.5733 277.061 91.8508 279.723 92.3287C282.416 92.822 286.494 93.5619 288.448 98.3099C292.757 108.823 281.246 115.421 273.629 119.799C271.552 120.986 269.582 122.127 268.32 123.083C263.55 126.721 261.396 130.822 261.904 135.292C262.427 139.763 266.443 143.216 270.182 144.665C276.184 146.993 282.585 145.127 284.078 141.982C286.063 137.789 285.832 133.581 283.539 132.178C281.262 130.806 278.661 130.929 277.215 131.639C276.445 132.009 276.014 132.502 275.953 133.088C275.861 133.874 276.461 134.598 276.753 134.691C278.476 134.645 279.815 135.939 279.892 137.635C279.969 139.331 278.584 140.765 276.876 140.842C275.091 140.934 273.275 140.102 271.906 138.622C270.336 136.926 269.567 134.567 269.844 132.332C270.167 129.665 271.875 127.384 274.522 126.104C278.184 124.316 282.97 124.64 286.709 126.906C291.895 130.051 293.095 137.327 289.633 144.634C287.463 149.212 281.877 151.864 275.753 151.864L275.737 151.895Z" fill="#17386C"/>
</svg>
