<svg width="30" height="30" viewBox="0 0 30 30" fill="none" xmlns="http://www.w3.org/2000/svg">
<mask id="mask0_1311_52623" style="mask-type:luminance" maskUnits="userSpaceOnUse" x="2" y="2" width="25" height="26">
<path d="M14.6296 27.0406C21.4117 27.0406 26.9096 21.512 26.9096 14.6922C26.9096 7.87233 21.4117 2.34375 14.6296 2.34375C7.84755 2.34375 2.34961 7.87233 2.34961 14.6922C2.34961 21.512 7.84755 27.0406 14.6296 27.0406Z" fill="white"/>
</mask>
<g mask="url(#mask0_1311_52623)">
<path d="M42.0798 17.8597C41.7098 17.3569 41.0698 17.196 40.4998 17.4575C40.4098 17.4977 40.3198 17.5379 40.2298 17.5882C40.0898 17.6586 39.8898 17.7591 39.6998 17.8295C39.8798 17.2262 40.1998 16.9647 40.5398 16.6932C40.8098 16.472 41.1298 16.2206 41.2998 15.8083C41.6098 15.0743 41.4298 14.6218 41.2298 14.3704C40.8398 13.9078 40.0898 13.7871 38.9998 14.0385C36.3598 14.6318 35.7098 17.7591 35.5598 18.9357C34.4998 19.1468 32.8298 19.2574 30.6498 19.2675V14.662C30.6398 5.73249 23.4098 -1.54785 14.5098 -1.54785C5.6098 -1.54785 -1.6202 5.73249 -1.6202 14.672V18.8552C-3.4002 18.5737 -5.2202 18.1614 -6.2902 17.8496C-6.4202 16.7133 -7.0002 13.6564 -9.6002 12.8821C-10.6902 12.5603 -11.4502 12.6207 -11.8702 13.0631C-12.0902 13.2944 -12.3002 13.7369 -12.0402 14.481C-11.8902 14.9033 -11.6002 15.1748 -11.3402 15.4162C-11.0202 15.7178 -10.7102 15.9994 -10.5702 16.6128C-10.7502 16.5223 -10.9502 16.4117 -11.0902 16.3312C-11.1802 16.281 -11.2702 16.2307 -11.3502 16.1804C-11.9102 15.8787 -12.5602 15.9994 -12.9602 16.4821C-13.3702 16.9748 -13.5002 17.8396 -12.8502 18.6742C-12.1402 19.5893 -10.5202 21.2083 -7.7202 21.7613C-7.2302 21.8619 -6.6302 22.0127 -5.9302 22.1837C-4.7402 22.4753 -3.3102 22.8272 -1.6202 23.139V23.8529C-1.6202 32.0383 4.5598 37.1265 14.5098 37.1265C24.4598 37.1265 30.6398 32.0383 30.6398 23.8529V23.5915C32.2398 23.4004 33.7498 23.1792 34.9498 23.0082C35.5798 22.9177 36.1198 22.8373 36.5098 22.787C39.3198 22.425 41.0398 20.9166 41.8098 20.0518C42.5198 19.2574 42.4498 18.3826 42.0698 17.8597H42.0798ZM40.9498 19.2675C40.2898 20.0116 38.8098 21.3088 36.3798 21.6205C35.9798 21.6708 35.4398 21.7513 34.7998 21.8418C33.6398 22.0127 32.1898 22.2138 30.6498 22.4049C30.4598 22.425 30.2598 22.4552 30.0598 22.4753C29.8698 22.4954 29.6698 22.5155 29.4698 22.5356V23.8529C29.4698 32.7723 21.7398 35.95 14.5098 35.95C7.2798 35.95 -0.450199 32.7723 -0.450199 23.8529V22.1535C-0.650199 22.1233 -0.840199 22.0932 -1.0402 22.0529C-1.2402 22.0127 -1.4302 21.9825 -1.6302 21.9423C-3.2002 21.6407 -4.5402 21.3189 -5.6602 21.0373C-6.3802 20.8563 -6.9902 20.7055 -7.5102 20.6049C-9.9402 20.1222 -11.3302 18.7345 -11.9402 17.9401C-12.1802 17.6284 -12.1902 17.3569 -12.0802 17.2362C-12.0202 17.1659 -11.9702 17.186 -11.9202 17.2061C-11.8402 17.2463 -11.7602 17.2966 -11.6802 17.3469C-11.0302 17.7189 -10.3002 18.1413 -9.7402 17.729C-9.2302 17.3569 -9.3702 16.653 -9.4202 16.4217C-9.6302 15.396 -10.1602 14.9033 -10.5502 14.5413C-10.7402 14.3704 -10.8902 14.2296 -10.9402 14.0888C-10.9802 13.9782 -10.9902 13.9078 -10.9902 13.8676C-10.8502 13.8374 -10.5002 13.8374 -9.9402 14.0084C-7.6102 14.7022 -7.4402 18.272 -7.4402 18.3122C-7.4402 18.5636 -7.2702 18.7748 -7.0402 18.8552C-5.9702 19.2072 -3.7602 19.72 -1.6302 20.0518C-1.4302 20.082 -1.2402 20.1122 -1.0402 20.1424C-0.840199 20.1725 -0.650199 20.1926 -0.450199 20.2228V14.6821C-0.450199 6.38612 6.2598 -0.361276 14.5098 -0.361276C22.7598 -0.361276 29.4698 6.38612 29.4698 14.6821V20.4641C29.6698 20.4641 29.8598 20.4641 30.0598 20.4641C30.2598 20.4641 30.4498 20.4641 30.6498 20.4641C33.2498 20.4541 35.1298 20.3032 36.2498 20.0116C36.4998 19.9513 36.6698 19.7301 36.6898 19.4686C36.6898 19.4284 36.9198 15.7279 39.2598 15.205C39.8198 15.0743 40.1698 15.0944 40.2998 15.1346C40.2998 15.1748 40.2798 15.2452 40.2298 15.3558C40.1698 15.4966 40.0098 15.6173 39.8098 15.7782C39.3998 16.11 38.8298 16.5726 38.5498 17.5781C38.4898 17.8094 38.2998 18.5033 38.7798 18.9055C39.3098 19.3479 40.0698 18.9759 40.7298 18.6541C40.8198 18.6139 40.8998 18.5737 40.9798 18.5334C41.0398 18.5133 41.0798 18.5033 41.1198 18.5636C41.2098 18.6943 41.1898 18.9658 40.9298 19.2675H40.9498Z" fill="#17386C"/>
<path d="M-0.4493 19.3574C-0.4493 19.8099 -0.849299 20.1518 -1.2893 20.0915C-1.4293 20.0714 -1.5593 20.0513 -1.6193 20.0412C-3.7493 19.7094 -5.9593 19.2066 -7.0293 18.8446C-7.2593 18.7641 -7.4193 18.553 -7.4293 18.3016C-7.4293 18.2714 -7.5993 14.6916 -9.9293 13.9977C-10.4893 13.8268 -10.8393 13.8268 -10.9793 13.8569C-10.9793 13.8972 -10.9593 13.9675 -10.9293 14.0782C-10.8793 14.2189 -10.7293 14.3497 -10.5393 14.5307C-10.1493 14.8927 -9.6093 15.3854 -9.4093 16.4111C-9.3593 16.6424 -9.2193 17.3463 -9.7293 17.7183C-10.2893 18.1206 -11.0193 17.7083 -11.6693 17.3362C-11.7593 17.2859 -11.8393 17.2357 -11.9093 17.1954C-11.9593 17.1653 -12.0093 17.1552 -12.0693 17.2256C-12.1793 17.3463 -12.1693 17.6178 -11.9293 17.9295C-11.3193 18.7139 -9.9293 20.1116 -7.4993 20.5943C-6.9893 20.6948 -6.3693 20.8457 -5.6493 21.0267C-4.5293 21.3082 -3.1893 21.63 -1.6193 21.9317C-1.5293 21.9518 -1.2893 21.992 -1.0593 22.0322C-0.709299 22.0926 -0.4493 22.4043 -0.4493 22.7663V23.8423C-0.4493 32.7617 7.2807 35.9393 14.5107 35.9393C21.7407 35.9393 29.4707 32.7617 29.4707 23.8423V23.1987C29.4707 22.8166 29.7607 22.4948 30.1407 22.4445C30.3607 22.4244 30.5607 22.3942 30.6507 22.3842C32.1807 22.2032 33.6307 21.992 34.8007 21.8211C35.4407 21.7306 35.9807 21.6501 36.3807 21.5998C38.8207 21.2881 40.2907 19.9909 40.9507 19.2468C41.2207 18.9451 41.2407 18.6736 41.1407 18.5429C41.0907 18.4826 41.0507 18.4826 41.0007 18.5127C40.9207 18.553 40.8407 18.5932 40.7507 18.6334C40.0807 18.9652 39.3207 19.3273 38.8007 18.8848C38.3207 18.4826 38.5107 17.7887 38.5707 17.5574C38.8507 16.5418 39.4107 16.0893 39.8307 15.7575C40.0307 15.5966 40.1907 15.4659 40.2507 15.3351C40.2907 15.2346 40.3107 15.1642 40.3207 15.1139C40.1907 15.0737 39.8407 15.0536 39.2807 15.1843C36.9407 15.7172 36.7107 19.4077 36.7107 19.4479C36.7007 19.6993 36.5207 19.9205 36.2707 19.9909C35.1507 20.2825 33.2707 20.4334 30.6707 20.4434C30.6007 20.4434 30.4407 20.4434 30.2707 20.4434C29.8407 20.4434 29.5007 20.0915 29.5007 19.6691V14.9128C29.5007 6.67715 23.0207 -0.22108 14.8307 -0.381971C6.4507 -0.542863 -0.419299 6.26486 -0.419299 14.6614V19.3474L-0.4493 19.3574Z" fill="#FD9F28"/>
<path d="M9.79953 13.283C9.79953 11.4428 10.6295 9.95456 11.6595 9.95456C12.1495 9.95456 12.5995 10.2965 12.9295 10.8495C12.5295 9.25066 11.6295 8.14453 10.5895 8.14453C9.16953 8.14453 8.01953 10.206 8.01953 12.74C8.01953 15.274 9.16953 17.3355 10.5895 17.3355C11.1295 17.3355 11.6295 17.0438 12.0395 16.531C11.9195 16.5712 11.7895 16.6014 11.6595 16.6014C10.6295 16.6014 9.79953 15.1132 9.79953 13.273V13.283Z" fill="white"/>
<path d="M10.5898 17.8582C8.85977 17.8582 7.50977 15.6158 7.50977 12.7499C7.50977 9.88403 8.85977 7.6416 10.5898 7.6416C11.8598 7.6416 12.9498 8.82818 13.4298 10.7388C13.4898 10.9902 13.3698 11.2416 13.1298 11.3421C12.8898 11.4427 12.6198 11.3421 12.4898 11.1309C12.2398 10.7187 11.9398 10.4773 11.6598 10.4773C11.0198 10.4773 10.3098 11.6337 10.3098 13.2929C10.3098 14.9521 11.0198 16.1085 11.6598 16.1085C11.7298 16.1085 11.7898 16.0985 11.8598 16.0683C12.0798 15.9879 12.3198 16.0683 12.4498 16.2594C12.5798 16.4504 12.5698 16.7018 12.4298 16.8828C11.8998 17.5264 11.2598 17.8683 10.5898 17.8683V17.8582ZM10.5898 8.66729C9.37977 8.66729 8.52977 10.8192 8.52977 12.7499C8.52977 14.6806 9.36977 16.8325 10.5898 16.8325C10.6298 16.8325 10.6698 16.8325 10.7098 16.8325C9.85977 16.2493 9.27977 14.9018 9.27977 13.303C9.27977 11.1511 10.3198 9.46169 11.6598 9.46169C11.6998 9.46169 11.7298 9.46169 11.7698 9.46169C11.4198 8.96896 11.0098 8.6874 10.5898 8.6874V8.66729Z" fill="#213E7A"/>
<path d="M12.9288 10.8491C12.5988 10.296 12.1488 9.9541 11.6588 9.9541C10.6288 9.9541 9.79883 11.4423 9.79883 13.2825C9.79883 15.1227 10.6288 16.611 11.6588 16.611C11.7888 16.611 11.9188 16.5909 12.0388 16.5406C12.7188 15.716 13.1588 14.3183 13.1588 12.7395C13.1588 12.0658 13.0788 11.4222 12.9288 10.8491Z" fill="#213E7A"/>
<path d="M11.6593 17.125C10.3293 17.125 9.2793 15.4356 9.2793 13.2837C9.2793 11.1317 10.3193 9.44238 11.6593 9.44238C12.3193 9.44238 12.9293 9.85467 13.3693 10.5887C13.3993 10.629 13.4193 10.6792 13.4293 10.7295C13.5893 11.3731 13.6793 12.0468 13.6793 12.7507C13.6793 14.3898 13.2193 15.9283 12.4393 16.8736C12.3793 16.944 12.3093 16.9942 12.2193 17.0345C12.0393 17.1048 11.8493 17.135 11.6693 17.135L11.6593 17.125ZM11.6593 10.4681C11.0193 10.4681 10.3093 11.6245 10.3093 13.2837C10.3093 14.9429 11.0793 16.1898 11.7393 16.0892C12.3093 15.3049 12.6493 14.0781 12.6493 12.7407C12.6493 12.1574 12.5793 11.5943 12.4593 11.0513C12.2193 10.6792 11.9293 10.4681 11.6693 10.4681H11.6593Z" fill="#213E7A"/>
<path d="M17.8698 13.3123C17.8698 11.4721 18.6998 9.98386 19.7298 9.98386C20.2198 9.98386 20.6698 10.3258 20.9998 10.8788C20.5998 9.27996 19.6998 8.17383 18.6598 8.17383C17.2398 8.17383 16.0898 10.2353 16.0898 12.7693C16.0898 15.3033 17.2398 17.3648 18.6598 17.3648C19.1998 17.3648 19.6998 17.0731 20.1098 16.5603C19.9898 16.6005 19.8598 16.6307 19.7298 16.6307C18.6998 16.6307 17.8698 15.1424 17.8698 13.3022V13.3123Z" fill="white"/>
<path d="M18.6601 17.8885C16.9301 17.8885 15.5801 15.6461 15.5801 12.7802C15.5801 9.9143 16.9301 7.67188 18.6601 7.67188C19.9301 7.67188 21.0201 8.85845 21.5001 10.769C21.5601 11.0204 21.4401 11.2718 21.2001 11.3724C20.9701 11.4729 20.6901 11.3724 20.5601 11.1612C20.3101 10.7489 20.0101 10.5076 19.7301 10.5076C19.0901 10.5076 18.3801 11.664 18.3801 13.3232C18.3801 14.9824 19.0901 16.1388 19.7301 16.1388C19.8001 16.1388 19.8601 16.1287 19.9301 16.0986C20.1501 16.0181 20.3901 16.0986 20.5201 16.2896C20.6501 16.4807 20.6401 16.7321 20.5001 16.9131C19.9701 17.5567 19.3301 17.8985 18.6601 17.8985V17.8885ZM18.6601 8.69756C17.4501 8.69756 16.6001 10.8495 16.6001 12.7802C16.6001 14.7109 17.4401 16.8628 18.6601 16.8628C18.7001 16.8628 18.7401 16.8628 18.7801 16.8628C17.9301 16.2796 17.3501 14.9321 17.3501 13.3332C17.3501 11.1813 18.3901 9.49196 19.7301 9.49196C19.7701 9.49196 19.8001 9.49196 19.8401 9.49196C19.4901 8.99923 19.0801 8.71767 18.6601 8.71767V8.69756Z" fill="#213E7A"/>
<path d="M20.9991 10.8803C20.6691 10.3272 20.2191 9.98535 19.7291 9.98535C18.6991 9.98535 17.8691 11.4736 17.8691 13.3138C17.8691 15.154 18.6991 16.6422 19.7291 16.6422C19.8591 16.6422 19.9891 16.6221 20.1091 16.5719C20.7891 15.7473 21.2291 14.3495 21.2291 12.7708C21.2291 12.0971 21.1491 11.4535 20.9991 10.8803Z" fill="#213E7A"/>
<path d="M19.7296 17.1552C18.3996 17.1552 17.3496 15.4659 17.3496 13.3139C17.3496 11.162 18.3896 9.47266 19.7296 9.47266C20.3896 9.47266 20.9996 9.88494 21.4396 10.619C21.4696 10.6592 21.4896 10.7095 21.4996 10.7598C21.6596 11.4034 21.7396 12.0771 21.7396 12.781C21.7396 14.4201 21.2796 15.9586 20.4996 16.9038C20.4396 16.9742 20.3696 17.0245 20.2796 17.0647C20.0996 17.1351 19.9096 17.1653 19.7296 17.1653V17.1552ZM19.7296 10.4983C19.0896 10.4983 18.3796 11.6547 18.3796 13.3139C18.3796 15.0435 19.1496 16.21 19.8096 16.1195C20.3796 15.3351 20.7196 14.1083 20.7196 12.7709C20.7196 12.1877 20.6496 11.6246 20.5296 11.0816C20.2896 10.7095 19.9996 10.4983 19.7396 10.4983H19.7296Z" fill="#213E7A"/>
<path d="M15.2591 17.3345C15.1191 17.3345 14.9991 17.2239 14.9991 17.0831C14.9991 17.0027 14.9591 16.6206 14.6291 16.6206C14.2591 16.6206 14.1491 17.0228 14.1391 17.0731C14.1091 17.2138 13.969 17.3043 13.819 17.2742C13.679 17.244 13.5891 17.1032 13.6191 16.9624C13.6891 16.6608 13.9791 16.0977 14.6291 16.0977C15.2791 16.0977 15.5191 16.7312 15.5291 17.063C15.5291 17.2138 15.4191 17.3345 15.2791 17.3446C15.2791 17.3446 15.2791 17.3446 15.2691 17.3446L15.2591 17.3345Z" fill="#213E7A"/>
<path d="M15.2595 17.5556C14.9995 17.5556 14.7895 17.3545 14.7795 17.093C14.7795 17.0327 14.7595 16.8416 14.6295 16.8416C14.4295 16.8416 14.3595 17.093 14.3595 17.1232C14.2995 17.3846 14.0395 17.5455 13.7795 17.4852C13.5195 17.4248 13.3595 17.1634 13.4095 16.912C13.4895 16.55 13.8395 15.8662 14.6295 15.8662C15.4695 15.8662 15.7295 16.6405 15.7495 17.0427C15.7595 17.3142 15.5495 17.5355 15.2895 17.5556H15.2695H15.2595ZM14.6195 16.3992C15.0295 16.3992 15.1895 16.7612 15.2095 17.0628C15.2095 17.093 15.2295 17.1031 15.2495 17.1131C15.2795 17.1131 15.2995 17.093 15.2995 17.0628C15.2995 17.0327 15.2595 16.3087 14.6195 16.3087C13.9795 16.3087 13.8295 16.9925 13.8295 17.0025C13.8295 17.0226 13.8295 17.0528 13.8595 17.0528C13.8795 17.0528 13.9095 17.0528 13.9095 17.0226C13.9595 16.7913 14.1695 16.3992 14.6095 16.3992H14.6195Z" fill="#213E7A"/>
<path d="M14.4693 21.9192C12.6493 21.9192 11.4993 21.155 10.8593 20.5114C10.1593 19.8176 9.89926 19.1137 9.88926 19.0835C9.83926 18.9528 9.90926 18.8019 10.0393 18.7517C10.1693 18.7014 10.3193 18.7718 10.3693 18.9025C10.4093 19.003 11.3393 21.3963 14.4693 21.3963C17.5993 21.3963 18.3893 19.0131 18.4193 18.9125C18.4593 18.7818 18.6093 18.7014 18.7393 18.7517C18.8693 18.7919 18.9493 18.9327 18.9093 19.0734C18.9093 19.1036 17.9793 21.9192 14.4693 21.9192Z" fill="#213E7A"/>
<path d="M14.4688 22.1409C12.5688 22.1409 11.3788 21.3364 10.7088 20.6727C9.99879 19.9588 9.71879 19.2448 9.68879 19.1744C9.59879 18.923 9.72879 18.6515 9.96879 18.561C10.0888 18.5208 10.2188 18.5208 10.3288 18.5711C10.4488 18.6214 10.5288 18.7219 10.5788 18.8426C10.6188 18.9331 11.4888 21.1956 14.4688 21.1956C17.4488 21.1956 18.1788 18.9633 18.2088 18.8627C18.2888 18.6113 18.5588 18.4705 18.8088 18.551C19.0588 18.6314 19.1988 18.9029 19.1188 19.1443C19.1188 19.1744 18.1288 22.1409 14.4688 22.1409ZM10.1288 18.9633C10.1088 18.9633 10.0988 18.9934 10.1088 19.0035C10.1088 19.0337 10.3688 19.6873 11.0288 20.3509C11.6388 20.9643 12.7288 21.6884 14.4788 21.6884C17.7888 21.6884 18.6988 19.0236 18.7088 19.0035C18.7088 18.9834 18.7088 18.9633 18.6888 18.9633C18.6688 18.9633 18.6488 18.9633 18.6488 18.9834C18.6188 19.094 17.7688 21.618 14.4888 21.618C11.2088 21.618 10.2288 19.0839 10.1888 18.9834C10.1888 18.9733 10.1688 18.9633 10.1488 18.9633H10.1288Z" fill="#213E7A"/>
<path d="M7.44922 20.081C8.41572 20.081 9.19922 19.6038 9.19922 19.0151C9.19922 18.4264 8.41572 17.9492 7.44922 17.9492C6.48272 17.9492 5.69922 18.4264 5.69922 19.0151C5.69922 19.6038 6.48272 20.081 7.44922 20.081Z" fill="#FF3EA8"/>
<path d="M21.5586 19.8398C22.5251 19.8398 23.3086 19.3626 23.3086 18.7739C23.3086 18.1852 22.5251 17.708 21.5586 17.708C20.5921 17.708 19.8086 18.1852 19.8086 18.7739C19.8086 19.3626 20.5921 19.8398 21.5586 19.8398Z" fill="#FF3EA8"/>
</g>
<mask id="mask1_1311_52623" style="mask-type:luminance" maskUnits="userSpaceOnUse" x="0" y="0" width="30" height="30">
<path d="M14.63 29.4029C10.13 29.4029 5.94 27.3616 3.14 23.8019C1.09 21.1874 0 18.04 0 14.7015C0 6.59656 6.56 0 14.62 0C22.68 0 29.24 6.59656 29.24 14.7015C29.24 18.04 28.16 21.1874 26.1 23.8019C23.3 27.3616 19.12 29.4029 14.61 29.4029H14.63ZM14.63 1.07596C7.16 1.07596 1.09 7.17979 1.09 14.6914C1.09 17.7886 2.09 20.6947 3.99 23.1181C6.58 26.4164 10.46 28.3069 14.63 28.3069C18.8 28.3069 22.68 26.4164 25.27 23.1181C27.17 20.6947 28.17 17.7886 28.17 14.6914C28.17 7.17979 22.1 1.07596 14.63 1.07596Z" fill="white"/>
</mask>
<g mask="url(#mask1_1311_52623)">
<path d="M32.3202 -1.65039H-1.25977V32.1167H32.3202V-1.65039Z" fill="url(#paint0_radial_1311_52623)"/>
</g>
<defs>
<radialGradient id="paint0_radial_1311_52623" cx="0" cy="0" r="1" gradientUnits="userSpaceOnUse" gradientTransform="translate(8.50024 32.0363) scale(51.98 52.2697)">
<stop stop-color="#F9ED41"/>
<stop offset="0.24" stop-color="#FF833D"/>
<stop offset="0.4" stop-color="#EE5468"/>
<stop offset="0.49" stop-color="#E7407B"/>
<stop offset="1" stop-color="#0028FF"/>
</radialGradient>
</defs>
</svg>
