<svg width="30" height="30" viewBox="0 0 30 30" fill="none" xmlns="http://www.w3.org/2000/svg">
<mask id="mask0_1311_52701" style="mask-type:luminance" maskUnits="userSpaceOnUse" x="2" y="2" width="25" height="26">
<path d="M14.6296 27.4322C21.4117 27.4322 26.9096 21.9036 26.9096 15.0838C26.9096 8.26393 21.4117 2.73535 14.6296 2.73535C7.84755 2.73535 2.34961 8.26393 2.34961 15.0838C2.34961 21.9036 7.84755 27.4322 14.6296 27.4322Z" fill="white"/>
</mask>
<g mask="url(#mask0_1311_52701)">
<path d="M14.2087 31.2544C6.6387 31.2544 0.498704 27.7349 0.498704 20.2333C0.498704 16.7037 0.368704 13.1541 0.738704 9.63457C0.738704 9.6044 0.738704 9.56418 0.748704 9.53401C0.868704 8.36755 1.3787 7.13069 1.8887 6.0849C2.8987 3.98325 4.4687 2.17322 6.4287 0.886088C8.3887 -0.401045 10.7687 -1.14517 13.1587 -1.296C13.5087 -1.31612 13.8587 -1.32617 14.2187 -1.32617C21.7887 -1.32617 27.9287 4.75754 27.9287 12.2591V20.2333C27.9287 27.7349 21.7887 31.2544 14.2187 31.2544H14.2087Z" fill="#FC5230"/>
<path d="M10.9084 10.358C9.75836 10.358 8.81836 12.0273 8.81836 14.0887C8.81836 16.1501 9.74836 17.8194 10.9084 17.8194C11.3484 17.8194 11.7484 17.578 12.0884 17.1657C12.6384 16.492 12.9984 15.3658 12.9984 14.0786C12.9984 13.5356 12.9284 13.0127 12.8084 12.5401C12.4784 11.2429 11.7584 10.3379 10.9084 10.3379V10.358Z" fill="white"/>
<path d="M10.9082 18.2416C9.5082 18.2416 8.4082 16.4215 8.4082 14.0886C8.4082 11.7556 9.5082 9.93555 10.9082 9.93555C11.9382 9.93555 12.8182 10.9009 13.2182 12.4495C13.3482 12.9724 13.4182 13.5254 13.4182 14.0886C13.4182 15.4159 13.0382 16.6628 12.4082 17.4371C11.9782 17.96 11.4582 18.2416 10.9082 18.2416ZM10.9082 10.7802C9.9282 10.7802 9.2382 12.5299 9.2382 14.0986C9.2382 15.6673 9.9282 17.417 10.9082 17.417C11.2782 17.417 11.5782 17.1455 11.7582 16.9243C12.2682 16.3008 12.5782 15.245 12.5782 14.1087C12.5782 13.6159 12.5182 13.1333 12.4082 12.6808C12.1282 11.5545 11.5182 10.8003 10.9082 10.8003V10.7802Z" fill="#17386C"/>
<path d="M20.3181 12.5801C19.9881 11.2829 19.2681 10.3779 18.4181 10.3779C17.2681 10.3779 16.3281 12.0472 16.3281 14.1086C16.3281 16.17 17.2581 17.8393 18.4181 17.8393C18.8581 17.8393 19.2581 17.5979 19.5981 17.1857C20.1481 16.5119 20.5081 15.3857 20.5081 14.0985C20.5081 13.5555 20.4381 13.0326 20.3181 12.56V12.5801Z" fill="white"/>
<path d="M18.418 18.2719C17.018 18.2719 15.918 16.4518 15.918 14.1188C15.918 11.7859 17.018 9.96582 18.418 9.96582C19.448 9.96582 20.328 10.9312 20.728 12.4798C20.858 13.0026 20.928 13.5557 20.928 14.1188C20.928 15.4462 20.548 16.6931 19.918 17.4674C19.488 17.9903 18.968 18.2719 18.418 18.2719ZM18.418 10.8105C17.438 10.8105 16.748 12.5602 16.748 14.1289C16.748 15.6976 17.438 17.4473 18.418 17.4473C18.788 17.4473 19.088 17.1758 19.268 16.9546C19.778 16.3311 20.088 15.2752 20.088 14.1389C20.088 13.6462 20.028 13.1635 19.918 12.711C19.638 11.5848 19.028 10.8306 18.418 10.8306V10.8105Z" fill="#17386C"/>
<path d="M15.1787 17.8281C15.0687 17.8281 14.9687 17.7376 14.9687 17.617C14.9687 17.5566 14.9387 17.2449 14.6687 17.2449C14.3687 17.2449 14.2787 17.5767 14.2687 17.6069C14.2387 17.7276 14.1287 17.798 14.0087 17.7678C13.8887 17.7376 13.8187 17.627 13.8487 17.5164C13.8987 17.2751 14.1387 16.8125 14.6687 16.8125C15.1987 16.8125 15.3887 17.3253 15.3987 17.5968C15.3987 17.7175 15.3087 17.8181 15.1887 17.8181L15.1787 17.8281Z" fill="#17386C"/>
<path d="M15.1787 17.9487C14.9987 17.9487 14.8487 17.8079 14.8487 17.6269C14.8487 17.5665 14.8187 17.3654 14.6687 17.3654C14.4587 17.3654 14.3987 17.6068 14.3887 17.6369C14.3487 17.8179 14.1687 17.9286 13.9887 17.8883C13.8087 17.8481 13.6987 17.6671 13.7387 17.4861C13.7987 17.2045 14.0687 16.6816 14.6687 16.6816C15.3087 16.6816 15.5087 17.2749 15.5187 17.5867C15.5187 17.7677 15.3887 17.9286 15.1987 17.9386H15.1787V17.9487ZM14.6587 17.1241C14.9487 17.1241 15.0687 17.3855 15.0787 17.6068C15.0787 17.657 15.1187 17.6973 15.1787 17.6973C15.2387 17.6973 15.2787 17.647 15.2787 17.5967C15.2687 17.3654 15.1287 16.923 14.6687 16.923C14.2087 16.923 14.0187 17.3252 13.9687 17.5364C13.9587 17.5867 13.9887 17.6369 14.0387 17.647C14.0887 17.647 14.1387 17.6269 14.1487 17.5766C14.1587 17.5263 14.2687 17.114 14.6587 17.114V17.1241Z" fill="#17386C"/>
<path d="M19.1691 10.7402C18.3691 10.7402 17.7091 11.8564 17.5391 13.3447L18.2291 13.948C18.2291 13.948 18.2791 14.0787 18.2291 14.119L17.5391 14.8832C17.7191 16.3614 18.3791 17.4575 19.1691 17.4575C20.0991 17.4575 20.8491 15.9592 20.8491 14.0988C20.8491 12.2385 20.0991 10.7402 19.1691 10.7402Z" fill="#17386C"/>
<path d="M11.6378 10.7402C10.8378 10.7402 10.1778 11.8564 10.0078 13.3447L10.6978 13.948C10.6978 13.948 10.7478 14.0787 10.6978 14.119L10.0078 14.8832C10.1878 16.3614 10.8478 17.4575 11.6378 17.4575C12.5678 17.4575 13.3178 15.9592 13.3178 14.0988C13.3178 12.2385 12.5678 10.7402 11.6378 10.7402Z" fill="#17386C"/>
<path d="M12.7572 11.5056C12.7572 11.5056 12.0072 9.87658 9.81718 9.21291C7.62718 8.54923 6.90718 8.07661 6.90718 8.07661L7.83718 9.15257C7.83718 9.15257 6.33718 8.45873 5.88718 8.00622C5.43718 7.55371 6.52718 10.2989 8.14718 10.7715C9.76718 11.2442 12.7572 11.5056 12.7572 11.5056Z" fill="#17386C"/>
<path d="M12.758 11.625C12.758 11.625 12.758 11.625 12.748 11.625C12.718 11.625 9.72797 11.3535 8.11797 10.8808C6.71797 10.4786 5.70797 8.46747 5.66797 8.02502C5.66797 7.90435 5.71797 7.86413 5.75797 7.84401C5.85797 7.79374 5.94797 7.88424 5.97797 7.9144C6.23797 8.17585 6.89797 8.53786 7.36797 8.7792L6.81797 8.14569C6.81797 8.14569 6.77797 8.03507 6.81797 7.98479C6.85797 7.94457 6.91797 7.93452 6.96797 7.96468C6.96797 7.96468 7.71797 8.4373 9.84797 9.09092C12.058 9.76466 12.828 11.3836 12.858 11.454C12.878 11.4942 12.868 11.5345 12.848 11.5747C12.828 11.6049 12.788 11.625 12.748 11.625H12.758ZM5.96797 8.23619C6.19797 8.83953 7.04797 10.3278 8.17797 10.6496C9.51797 11.0317 11.818 11.2931 12.538 11.3635C12.268 10.9211 11.448 9.82499 9.77797 9.32221C8.59797 8.9602 7.83797 8.65853 7.38797 8.45741L7.91797 9.07081C7.91797 9.07081 7.95797 9.17137 7.91797 9.22165C7.88797 9.27193 7.82797 9.28198 7.76797 9.26187C7.70797 9.2317 6.51797 8.67864 5.94797 8.23619H5.96797Z" fill="#17386C"/>
<path d="M16.5879 11.5056C16.5879 11.5056 17.3379 9.87658 19.5279 9.21291C21.7179 8.54923 22.4379 8.07661 22.4379 8.07661L21.5079 9.15257C21.5079 9.15257 23.0079 8.45873 23.4579 8.00622C23.9079 7.55371 22.8179 10.2989 21.1979 10.7715C19.5779 11.2442 16.5879 11.5056 16.5879 11.5056Z" fill="#17386C"/>
<path d="M16.5877 11.625C16.5877 11.625 16.5177 11.6049 16.4877 11.5747C16.4677 11.5445 16.4577 11.4942 16.4777 11.454C16.5077 11.3836 17.2777 9.76466 19.4877 9.09092C21.6177 8.4373 22.3677 7.97474 22.3677 7.96468C22.4177 7.93452 22.4877 7.94457 22.5177 7.98479C22.5577 8.02502 22.5577 8.09541 22.5177 8.14569L21.9677 8.7792C22.4377 8.53786 23.0977 8.17585 23.3577 7.9144C23.3877 7.88424 23.4777 7.79374 23.5777 7.84401C23.6177 7.86413 23.6677 7.90435 23.6677 8.02502C23.6377 8.46747 22.6177 10.4786 21.2177 10.8808C19.5977 11.3434 16.6177 11.625 16.5877 11.625C16.5877 11.625 16.5877 11.625 16.5777 11.625H16.5877ZM21.9477 8.45741C21.4977 8.65853 20.7377 8.9602 19.5577 9.32221C17.8977 9.82499 17.0777 10.9211 16.7977 11.3635C17.5277 11.2931 19.8277 11.0417 21.1577 10.6496C22.2877 10.3177 23.1377 8.82948 23.3677 8.23619C22.7977 8.67864 21.6077 9.24176 21.5477 9.26187C21.4977 9.28198 21.4377 9.26187 21.3977 9.22165C21.3677 9.18143 21.3677 9.11104 21.3977 9.07081L21.9277 8.45741H21.9477Z" fill="#17386C"/>
<path d="M17.788 18.9449L14.648 18.9248L11.508 18.9449C11.508 18.9449 8.49805 18.6634 8.49805 20.3728C8.49805 22.0823 10.788 24.0633 14.648 24.0633C18.508 24.0633 20.798 22.0823 20.798 20.3728C20.798 18.6634 17.788 18.9449 17.788 18.9449Z" fill="#17386C"/>
<path d="M11.8075 19.357C11.7275 19.357 11.6475 19.347 11.5775 19.357C11.2275 19.3771 10.1075 19.2565 10.2675 19.9101C10.3375 20.2017 10.4975 20.624 10.8575 21.1771C11.0575 21.4888 11.5975 21.519 11.7875 21.2173C11.9875 20.8955 12.1675 20.4531 12.3375 19.9402C12.4675 19.5481 12.1175 19.3972 11.8075 19.357Z" fill="white"/>
<path d="M11.3684 21.6597C11.0784 21.6597 10.8084 21.5189 10.6684 21.2977C10.3584 20.815 10.1484 20.3625 10.0484 19.9602C9.98844 19.6988 10.0684 19.5278 10.1384 19.4273C10.3984 19.0954 10.9684 19.1055 11.3784 19.1055C11.4584 19.1055 11.5184 19.1055 11.5684 19.1055C11.6584 19.1055 11.7484 19.1055 11.8384 19.1055C12.1584 19.1457 12.3984 19.2664 12.5184 19.4575C12.5884 19.5681 12.6484 19.7491 12.5684 20.0005C12.3784 20.5837 12.1884 21.0161 11.9884 21.3278C11.8584 21.5289 11.6284 21.6395 11.3584 21.6496L11.3684 21.6597ZM11.2984 19.5882C11.0484 19.5882 10.6184 19.5982 10.5184 19.729C10.5184 19.729 10.4884 19.7591 10.5184 19.8496C10.5784 20.091 10.7284 20.4932 11.0784 21.0463C11.1284 21.1267 11.2484 21.187 11.3784 21.187C11.4784 21.187 11.5684 21.1468 11.6084 21.0965C11.7884 20.815 11.9584 20.4127 12.1384 19.8697C12.1684 19.7792 12.1384 19.7491 12.1384 19.739C12.1084 19.6887 11.9984 19.6284 11.7984 19.5982C11.7384 19.5982 11.6684 19.5982 11.6084 19.5982C11.5484 19.5982 11.4784 19.5982 11.3884 19.5982C11.3684 19.5982 11.3384 19.5982 11.3084 19.5982L11.2984 19.5882Z" fill="#17386C"/>
<path d="M18.4696 19.357C18.3896 19.357 18.3096 19.347 18.2396 19.357C17.8896 19.3771 16.7696 19.2565 16.9296 19.9101C16.9996 20.2017 17.1596 20.624 17.5196 21.1771C17.7196 21.4888 18.2596 21.519 18.4496 21.2173C18.6496 20.8955 18.8296 20.4531 18.9996 19.9402C19.1296 19.5481 18.7796 19.3972 18.4696 19.357Z" fill="white"/>
<path d="M18.0188 21.6597C17.7288 21.6597 17.4588 21.5189 17.3188 21.2977C17.0088 20.815 16.7988 20.3625 16.6988 19.9602C16.6388 19.6988 16.7188 19.5278 16.7888 19.4273C17.0488 19.0954 17.6188 19.1055 18.0288 19.1055C18.1088 19.1055 18.1688 19.1055 18.2188 19.1055C18.3088 19.1055 18.3988 19.1055 18.4888 19.1055C18.8088 19.1457 19.0488 19.2664 19.1688 19.4575C19.2388 19.5681 19.2988 19.7491 19.2188 20.0005C19.0288 20.5837 18.8388 21.0161 18.6388 21.3278C18.5088 21.5289 18.2788 21.6395 18.0088 21.6496L18.0188 21.6597ZM17.9488 19.5882C17.6988 19.5882 17.2688 19.5982 17.1688 19.729C17.1688 19.729 17.1388 19.7591 17.1688 19.8496C17.2288 20.091 17.3788 20.4932 17.7288 21.0463C17.7788 21.1267 17.8988 21.187 18.0288 21.187C18.1288 21.187 18.2188 21.1468 18.2588 21.0965C18.4388 20.815 18.6088 20.4127 18.7888 19.8697C18.8188 19.7792 18.7888 19.7491 18.7888 19.739C18.7588 19.6887 18.6488 19.6284 18.4488 19.5982C18.3888 19.5982 18.3188 19.5982 18.2588 19.5982C18.1988 19.5982 18.1288 19.5982 18.0388 19.5982C18.0188 19.5982 17.9888 19.5982 17.9588 19.5982L17.9488 19.5882Z" fill="#17386C"/>
</g>
<mask id="mask1_1311_52701" style="mask-type:luminance" maskUnits="userSpaceOnUse" x="0" y="0" width="30" height="30">
<path d="M14.63 29.788C10.13 29.788 5.94 27.7467 3.14 24.187C1.09 21.5725 0 18.425 0 15.0865C0 6.97156 6.56 0.375 14.63 0.375C22.7 0.375 29.25 6.97156 29.25 15.0765C29.25 18.415 28.17 21.5624 26.11 24.1769C23.31 27.7366 19.13 29.7779 14.62 29.7779L14.63 29.788ZM14.63 1.46102C7.16 1.46102 1.09 7.56484 1.09 15.0765C1.09 18.1736 2.09 21.0797 3.99 23.5032C6.58 26.8015 10.46 28.6919 14.63 28.6919C18.8 28.6919 22.68 26.8015 25.27 23.5032C27.17 21.0797 28.17 18.1736 28.17 15.0765C28.17 7.56484 22.1 1.46102 14.63 1.46102Z" fill="white"/>
</mask>
<g mask="url(#mask1_1311_52701)">
<path d="M32.3202 -1.25391H-1.25977V32.5132H32.3202V-1.25391Z" fill="url(#paint0_radial_1311_52701)"/>
</g>
<defs>
<radialGradient id="paint0_radial_1311_52701" cx="0" cy="0" r="1" gradientUnits="userSpaceOnUse" gradientTransform="translate(8.50024 32.4328) scale(51.98 52.2697)">
<stop stop-color="#F9ED41"/>
<stop offset="0.24" stop-color="#FF833D"/>
<stop offset="0.4" stop-color="#EE5468"/>
<stop offset="0.49" stop-color="#E7407B"/>
<stop offset="1" stop-color="#0028FF"/>
</radialGradient>
</defs>
</svg>
