<svg width="519" height="178" viewBox="0 0 519 178" fill="none" xmlns="http://www.w3.org/2000/svg">
<g clip-path="url(#clip0_1493_81414)">
<path d="M305.21 68.7762C291.823 68.7762 280.927 57.8863 280.927 44.5072C280.927 31.1282 291.823 20.2383 305.21 20.2383C318.597 20.2383 329.493 31.1282 329.493 44.5072C329.493 57.8863 318.597 68.7762 305.21 68.7762ZM305.21 36.0515C300.54 36.0515 296.749 39.8401 296.749 44.5072C296.749 49.1744 300.54 52.9629 305.21 52.9629C309.88 52.9629 313.671 49.1744 313.671 44.5072C313.671 39.8401 309.88 36.0515 305.21 36.0515Z" fill="#005BAD"/>
<path d="M79.2968 68.8497C66.3126 68.8497 55.7642 58.3076 55.7642 45.3312V22.5996H71.5869V45.3312C71.5869 49.5773 75.0481 53.0365 79.2968 53.0365C83.5455 53.0365 87.0067 49.5773 87.0067 45.3312V22.5996H102.829V45.3312C102.829 58.3076 92.281 68.8497 79.2968 68.8497Z" fill="#00A0A0"/>
<path d="M495.467 20.8965H471.935V68.1349H487.758V44.4151C487.758 40.1689 491.219 36.7097 495.467 36.7097C499.716 36.7097 503.177 40.1689 503.177 44.4151V68.1349H519V44.4151C519 31.4387 508.452 20.8965 495.467 20.8965Z" fill="#005BAD"/>
<path d="M385.844 52.3226V47.8385H411.354V30.9271C411.354 19.543 402.088 10.2637 390.679 10.2637C379.269 10.2637 370.021 19.5247 370.021 30.9271V68.1358H411.684V52.3226H385.844ZM390.679 26.0769C393.352 26.0769 395.513 28.2549 395.513 30.9088C395.513 33.5626 393.334 35.7406 390.679 35.7406C388.023 35.7406 385.844 33.5626 385.844 30.9088C385.844 28.2549 388.023 26.0769 390.679 26.0769Z" fill="#005BAD"/>
<path d="M185.807 20.9336C172.914 21.08 162.458 31.6039 162.458 44.5254C162.458 57.4469 172.914 67.9707 185.807 68.0988H209.669V20.9336H185.807ZM178.28 44.5254C178.28 40.2426 181.778 36.7469 186.063 36.7469C190.349 36.7469 193.847 40.2426 193.847 44.5254C193.847 48.8081 190.349 52.3039 186.063 52.3039C181.778 52.3039 178.28 48.8081 178.28 44.5254Z" fill="#00A0A0"/>
<path d="M440.289 20.9336C427.397 21.08 416.94 31.6039 416.94 44.5254C416.94 57.4469 427.397 67.9707 440.289 68.0988H464.151V20.9336H440.289ZM432.762 44.5254C432.762 40.2426 436.26 36.7469 440.546 36.7469C444.831 36.7469 448.329 40.2426 448.329 44.5254C448.329 48.8081 444.831 52.3039 440.546 52.3039C436.26 52.3039 432.762 48.8081 432.762 44.5254Z" fill="#005BAD"/>
<path d="M262.742 38.6866L280.524 20.2378H258.548L245.967 33.2874V0.507812H230.144V68.1351H245.967V60.4115C245.967 56.1654 249.428 52.7062 253.676 52.7062C257.925 52.7062 261.386 56.1654 261.386 60.4115V68.1351H277.209V60.4115C277.209 50.6564 271.221 42.2556 262.742 38.7049V38.6866Z" fill="#005BAD"/>
<path d="M335.739 20.8965V68.1349H351.561V44.4151C351.561 40.1689 355.022 36.7097 359.271 36.7097H364.582V20.8965H335.739Z" fill="#005BAD"/>
<path d="M141.818 3.32617V22.6901L140.591 22.2325C137.167 21.0429 133.431 20.5304 129.512 21.0429C117.571 22.5986 108.305 32.976 108.232 45.0007C108.14 58.4896 119.091 69.5076 132.57 69.5076C146.012 69.5076 156.908 58.6177 156.908 45.1837V3.32617H141.818ZM132.57 53.9506C127.717 53.9506 123.78 50.0156 123.78 45.1654C123.78 40.3153 127.717 36.3803 132.57 36.3803C137.423 36.3803 141.36 40.3153 141.36 45.1654C141.36 50.0156 137.423 53.9506 132.57 53.9506Z" fill="#00A0A0"/>
<path d="M33.5867 3.32617V22.6901L32.3598 22.2325C28.9352 21.0429 25.1992 20.5304 21.2802 21.0429C9.3582 22.5986 0.0916485 32.9577 8.17718e-05 45.0007C-0.0914849 58.4896 10.8599 69.5076 24.3385 69.5076C37.7805 69.5076 48.6769 58.6177 48.6769 45.1837V3.32617H33.5867ZM24.3385 53.9506C19.4855 53.9506 15.5481 50.0156 15.5481 45.1654C15.5481 40.3153 19.4855 36.3803 24.3385 36.3803C29.1915 36.3803 33.1289 40.3153 33.1289 45.1654C33.1289 50.0156 29.1915 53.9506 24.3385 53.9506Z" fill="#00A0A0"/>
</g>
<g clip-path="url(#clip1_1493_81414)">
<path d="M156.774 140.77V159.673H194.385V146.958H175.512C172.138 146.958 169.384 144.178 169.384 140.77C169.384 137.363 172.138 134.582 175.512 134.582H194.385V121.867H175.512C165.186 121.867 156.791 130.344 156.791 140.77H156.774Z" fill="#005BAD"/>
<path d="M201.639 121.799V159.774H214.232V140.719C214.232 137.311 216.986 134.531 220.361 134.531H224.592V121.816H201.639V121.799Z" fill="#005BAD"/>
<path d="M113 128.411V147.314H150.611V134.599H131.739C128.364 134.599 125.61 131.818 125.61 128.411C125.61 125.003 128.364 122.223 131.739 122.223H150.611V109.508H131.739C121.395 109.508 113 117.985 113 128.411Z" fill="#005BAD"/>
<path d="M150.611 152.416H113V165.131H131.873C135.248 165.131 138.002 167.911 138.002 171.319V175.591H150.595V152.416H150.611Z" fill="#005BAD"/>
<path d="M231.728 109.559V122.274H250.601C253.976 122.274 256.729 125.054 256.729 128.462V130.954H231.711V143.669H250.584C253.959 143.669 256.712 146.449 256.712 149.857V154.129H269.306V109.559H231.694H231.728Z" fill="#005BAD"/>
<path d="M231.728 177.322H269.339V164.607H250.466C247.091 164.607 244.338 161.826 244.338 158.419V154.146H231.745V177.322H231.728Z" fill="#005BAD"/>
<path d="M359.422 148.941C348.76 148.941 340.096 140.193 340.096 129.427C340.096 118.662 348.76 109.914 359.422 109.914C370.084 109.914 378.748 118.662 378.748 129.427C378.748 140.193 370.084 148.941 359.422 148.941ZM359.422 122.629C355.711 122.629 352.689 125.681 352.689 129.427C352.689 133.174 355.711 136.226 359.422 136.226C363.133 136.226 366.155 133.174 366.155 129.427C366.155 125.681 363.133 122.629 359.422 122.629Z" fill="#005BAD"/>
<path d="M383.047 115.457V153.433H395.64V134.377C395.64 130.969 398.393 128.189 401.768 128.189H406V115.457H383.047Z" fill="#005BAD"/>
<path d="M359.556 177.507H397.167V164.792H378.294C374.92 164.792 372.166 162.012 372.166 158.604V154.332H359.573V177.507H359.556Z" fill="#005BAD"/>
<path d="M334.874 118.883H320.232V166.929H334.874V118.883Z" fill="#005BAD"/>
<path d="M276.459 109.559V122.274H295.332C298.707 122.274 301.46 125.054 301.46 128.462V130.954H276.442V166.929H314.053V154.214H295.18C292.125 154.214 289.606 151.942 289.136 148.992C289.556 145.991 292.074 143.652 295.18 143.652H314.053V109.559H276.442H276.459Z" fill="#005BAD"/>
</g>
<defs>
<clipPath id="clip0_1493_81414">
<rect width="519" height="69" fill="white" transform="translate(0 0.507812)"/>
</clipPath>
<clipPath id="clip1_1493_81414">
<rect width="293" height="68" fill="white" transform="translate(113 109.508)"/>
</clipPath>
</defs>
</svg>
