<svg width="315" height="289" viewBox="0 0 315 289" fill="none" xmlns="http://www.w3.org/2000/svg">
<path d="M53.6058 221.703C53.3194 221.703 53.072 221.599 52.8637 221.391C52.6683 221.169 52.5446 220.902 52.4926 220.59C52.4665 220.303 52.4535 220.108 52.4535 220.004C52.4535 219.861 52.4665 219.672 52.4926 219.438C52.5967 218.734 52.766 218.155 53.0004 217.699C53.2347 217.243 53.5993 216.866 54.0941 216.566C54.2243 216.501 54.3415 216.469 54.4457 216.469C54.6019 216.469 54.7387 216.534 54.8558 216.664C54.973 216.781 55.0316 216.918 55.0316 217.074C55.0316 217.283 54.934 217.452 54.7387 217.582C54.3871 217.79 54.1332 218.025 53.9769 218.285C53.8207 218.546 53.7426 218.904 53.7426 219.359H53.8012C54.1006 219.359 54.3611 219.47 54.5824 219.691C54.8038 219.913 54.9144 220.173 54.9144 220.473V220.59C54.9144 220.889 54.8038 221.15 54.5824 221.371C54.3611 221.592 54.1006 221.703 53.8012 221.703H53.6058ZM48.9574 220.59C48.9314 220.303 48.9183 220.108 48.9183 220.004C48.9183 219.861 48.9314 219.672 48.9574 219.438C49.0616 218.734 49.2308 218.155 49.4652 217.699C49.6996 217.243 50.0642 216.866 50.559 216.566C50.6892 216.501 50.8064 216.469 50.9105 216.469C51.0668 216.469 51.2035 216.534 51.3207 216.664C51.4379 216.781 51.4965 216.918 51.4965 217.074C51.4965 217.283 51.3988 217.452 51.2035 217.582C50.8519 217.79 50.598 218.025 50.4418 218.285C50.2855 218.546 50.2074 218.904 50.2074 219.359H50.266C50.5655 219.359 50.8259 219.47 51.0472 219.691C51.2686 219.913 51.3793 220.173 51.3793 220.473V220.59C51.3793 220.889 51.2686 221.15 51.0472 221.371C50.8259 221.592 50.5655 221.703 50.266 221.703H50.0707C49.7842 221.703 49.5368 221.599 49.3285 221.391C49.1332 221.169 49.0095 220.902 48.9574 220.59ZM76.7808 232.387C74.398 232.387 72.842 232.243 72.1129 231.957C71.3316 231.658 70.6871 231.195 70.1793 230.57C68.7991 231.755 67.9527 232.348 67.6402 232.348C67.1454 232.348 66.898 232.061 66.898 231.488C66.898 231.345 66.9892 231.195 67.1715 231.039C67.3538 230.896 67.6663 230.688 68.109 230.414L69.398 229.613V226.02C69.398 225.837 69.3394 225.707 69.2222 225.629C69.1181 225.538 68.9423 225.492 68.6949 225.492C68.3824 225.492 68.1545 225.434 68.0113 225.316C67.8811 225.199 67.816 225.023 67.816 224.789C67.816 224.32 68.0894 224.086 68.6363 224.086H69.3785C70.329 224.086 70.8043 224.574 70.8043 225.551V229.516C71.1298 229.984 71.6767 230.349 72.4449 230.609C73.135 230.844 74.385 230.961 76.1949 230.961L79.0855 230.883C79.5933 230.857 79.8472 231.104 79.8472 231.625C79.8472 232.133 79.2678 232.387 78.109 232.387H76.7808ZM62.7183 217.523C62.7183 216.924 62.8486 216.482 63.109 216.195C63.3824 215.909 63.7991 215.779 64.359 215.805H66.6441C67.5686 215.805 68.0308 216.13 68.0308 216.781C68.0308 217.172 67.497 218.507 66.4293 220.785C66.1949 221.28 66.0777 221.632 66.0777 221.84C66.0777 221.879 66.1038 221.938 66.1558 222.016C66.2079 222.081 66.2535 222.139 66.2926 222.191C67.2821 223.52 67.7769 224.809 67.7769 226.059C67.7769 227.829 66.9045 228.715 65.1597 228.715C64.665 228.715 64.4176 228.435 64.4176 227.875C64.4176 227.432 64.6584 227.191 65.1402 227.152C65.5178 227.126 65.8043 227.009 65.9996 226.801C66.1949 226.579 66.2926 226.28 66.2926 225.902C66.2926 224.848 65.8889 223.767 65.0816 222.66C64.8603 222.361 64.7496 222.113 64.7496 221.918C64.7496 221.697 64.9058 221.228 65.2183 220.512C65.2834 220.342 65.342 220.186 65.3941 220.043C65.4592 219.9 65.5178 219.763 65.5699 219.633C65.6741 219.307 65.7913 219.008 65.9215 218.734L66.1363 218.246L66.3316 217.562V217.504C66.3316 217.413 66.2861 217.348 66.1949 217.309C66.1168 217.257 66.0061 217.23 65.8629 217.23H64.7691C64.3915 217.23 64.1897 217.432 64.1637 217.836V232.055C64.1637 232.628 63.9163 232.914 63.4215 232.914C63.1741 232.914 62.9918 232.842 62.8746 232.699C62.7704 232.569 62.7183 232.354 62.7183 232.055V217.523ZM67.6012 220.785C67.6012 220.316 67.8486 220.082 68.3433 220.082C68.5126 220.082 68.8642 220.264 69.398 220.629C69.9319 221.007 70.1988 221.339 70.1988 221.625C70.1988 222.133 69.9579 222.387 69.4762 222.387C69.2939 222.387 69.0986 222.296 68.8902 222.113L68.441 221.742C68.1415 221.495 67.9267 221.299 67.7965 221.156C67.6663 221.013 67.6012 220.889 67.6012 220.785ZM68.441 216.586C68.441 216.156 68.6884 215.941 69.1832 215.941C69.4176 215.941 69.7691 216.143 70.2379 216.547C70.7457 216.977 70.9996 217.322 70.9996 217.582C70.9996 218.09 70.7652 218.344 70.2965 218.344C70.0751 218.344 69.8668 218.227 69.6715 217.992L69.0855 217.504C68.6558 217.152 68.441 216.846 68.441 216.586ZM70.5504 220.902C70.5504 220.681 70.6871 220.46 70.9605 220.238C71.898 219.444 72.6402 218.591 73.1871 217.68H72.1324C71.9241 217.68 71.7613 217.628 71.6441 217.523C71.5269 217.419 71.4683 217.276 71.4683 217.094C71.4683 216.911 71.5269 216.768 71.6441 216.664C71.7613 216.56 71.9241 216.508 72.1324 216.508H73.7926L74.0855 215.707C74.2418 215.264 74.5022 215.043 74.8668 215.043C75.3355 215.043 75.5699 215.245 75.5699 215.648C75.5699 215.805 75.4592 216.091 75.2379 216.508H79.066C79.2874 216.508 79.4501 216.56 79.5543 216.664C79.6715 216.768 79.7301 216.911 79.7301 217.094C79.7301 217.484 79.5087 217.68 79.066 217.68H74.6715L74.0855 218.598H78.5191C78.9228 218.598 79.1246 218.78 79.1246 219.145C79.1246 219.509 78.9228 219.691 78.5191 219.691H76.4097V220.824H79.1051C79.5347 220.824 79.7496 221.02 79.7496 221.41C79.7496 221.775 79.5347 221.957 79.1051 221.957H73.0504C72.8551 221.957 72.6988 221.911 72.5816 221.82C72.4775 221.716 72.4254 221.579 72.4254 221.41C72.4254 221.02 72.6467 220.824 73.0894 220.824H75.0621V219.691H73.2652C72.2887 220.954 71.6051 221.586 71.2144 221.586C70.7717 221.586 70.5504 221.358 70.5504 220.902ZM72.0543 223.988C72.0543 223.116 72.51 222.68 73.4215 222.68H77.5621C78.4605 222.68 78.9097 223.116 78.9097 223.988V228.695C78.9097 229.281 78.7795 229.704 78.5191 229.965C78.2717 230.225 77.8616 230.336 77.2887 230.297H76.4097C75.954 230.297 75.7262 230.082 75.7262 229.652C75.7262 229.21 75.941 228.988 76.3707 228.988H76.9957C77.3733 228.988 77.5621 228.773 77.5621 228.344V227.699H73.4019V229.555C73.4019 230.036 73.1806 230.277 72.7379 230.277C72.5035 230.277 72.3277 230.219 72.2105 230.102C72.1064 229.984 72.0543 229.802 72.0543 229.555V223.988ZM77.5621 226.586V225.746H73.4019V226.586H77.5621ZM77.5621 224.633V224.359C77.5621 224.034 77.4058 223.871 77.0933 223.871H73.8902C73.5647 223.871 73.4019 224.034 73.4019 224.359V224.633H77.5621ZM90.6144 232.387C89.3514 232.387 88.4139 232.341 87.8019 232.25C87.203 232.172 86.7668 231.99 86.4933 231.703C86.2329 231.43 86.1027 230.993 86.1027 230.395V220.004C86.1027 219.639 86.1743 219.372 86.3176 219.203C86.4608 219.034 86.6821 218.949 86.9816 218.949C87.5676 218.949 87.8605 219.301 87.8605 220.004V229.613C87.8605 230.004 87.9387 230.284 88.0949 230.453C88.2642 230.609 88.5311 230.714 88.8957 230.766C89.2603 230.805 89.8788 230.824 90.7512 230.824C92.2616 230.824 93.147 230.753 93.4074 230.609C93.5897 230.505 93.7264 230.297 93.8176 229.984C93.9087 229.659 93.9608 229.184 93.9738 228.559C93.9738 228.285 94.0454 228.07 94.1887 227.914C94.3319 227.758 94.5402 227.68 94.8137 227.68C95.1131 227.68 95.328 227.758 95.4582 227.914C95.5884 228.07 95.66 228.298 95.673 228.598C95.6861 229.652 95.5754 230.46 95.341 231.02C95.1196 231.592 94.7616 231.957 94.2668 232.113C93.6808 232.296 92.4634 232.387 90.6144 232.387ZM81.5519 228.93C81.5259 228.682 81.578 228.37 81.7082 227.992C82.0337 227.12 82.2746 226.254 82.4308 225.395C82.5871 224.535 82.7173 223.526 82.8215 222.367C82.8475 222.107 82.9256 221.911 83.0558 221.781C83.1991 221.638 83.3944 221.566 83.6418 221.566C83.9282 221.566 84.1431 221.645 84.2863 221.801C84.4426 221.957 84.5142 222.172 84.5012 222.445C84.4621 223.474 84.3514 224.542 84.1691 225.648C83.9999 226.742 83.772 227.712 83.4855 228.559C83.3814 228.858 83.2381 229.092 83.0558 229.262C82.8866 229.431 82.6978 229.516 82.4894 229.516C82.229 229.516 82.0142 229.464 81.8449 229.359C81.6756 229.242 81.578 229.099 81.5519 228.93ZM88.4269 216.117C88.4269 215.909 88.5051 215.72 88.6613 215.551C88.8176 215.368 89.0194 215.277 89.2668 215.277C89.397 215.277 89.5207 215.303 89.6379 215.355C90.0936 215.538 90.6079 215.798 91.1808 216.137C91.7668 216.475 92.3137 216.827 92.8215 217.191C93.0428 217.335 93.1926 217.478 93.2707 217.621C93.3618 217.751 93.4074 217.914 93.4074 218.109C93.4074 218.357 93.3358 218.559 93.1926 218.715C93.0624 218.871 92.8996 218.962 92.7043 218.988C92.3137 219.027 91.9295 218.917 91.5519 218.656C90.9009 218.201 90.009 217.595 88.8762 216.84C88.7199 216.736 88.6027 216.632 88.5246 216.527C88.4595 216.41 88.4269 216.273 88.4269 216.117ZM94.6965 221.801C94.6965 221.306 94.9894 221.059 95.5754 221.059C95.979 221.059 96.6756 221.996 97.6652 223.871C98.6418 225.707 99.1301 227.003 99.1301 227.758C99.1301 227.966 99.0324 228.155 98.8371 228.324C98.6288 228.493 98.4009 228.578 98.1535 228.578C97.9321 228.578 97.7368 228.507 97.5676 228.363C97.4243 228.233 97.1704 227.628 96.8058 226.547C96.4803 225.596 96.0311 224.587 95.4582 223.52C94.9504 222.582 94.6965 222.009 94.6965 221.801ZM115.718 232.836C115.184 232.836 114.917 232.517 114.917 231.879V223.012H111.733C111.655 225.512 111.421 227.302 111.03 228.383C110.639 229.438 110.053 230.395 109.272 231.254C108.491 232.1 107.892 232.523 107.475 232.523C106.915 232.523 106.636 232.217 106.636 231.605C106.636 231.358 106.857 231.072 107.3 230.746C108.771 229.652 109.663 228.109 109.975 226.117C110.158 224.997 110.249 223.565 110.249 221.82V219.516C110.249 218.044 110.353 217.185 110.561 216.938C110.678 216.807 110.854 216.697 111.089 216.605C111.336 216.514 111.675 216.43 112.104 216.352C114.357 215.935 115.757 215.622 116.303 215.414C116.564 215.31 116.805 215.258 117.026 215.258C117.612 215.258 117.905 215.551 117.905 216.137C117.905 216.501 117.645 216.755 117.124 216.898C115.9 217.25 114.487 217.523 112.886 217.719C112.56 217.758 112.306 217.849 112.124 217.992C111.955 218.122 111.857 218.285 111.831 218.48L111.772 221.469H117.925C118.367 221.469 118.589 221.729 118.589 222.25C118.589 222.758 118.367 223.012 117.925 223.012H116.518V231.879C116.518 232.517 116.251 232.836 115.718 232.836ZM100.796 231.684C100.796 231.514 100.893 231.215 101.089 230.785C101.675 229.548 101.968 226.905 101.968 222.855L101.948 221.527C101.935 220.928 102.059 220.473 102.319 220.16C102.593 219.848 102.996 219.691 103.53 219.691H107.436C108.009 219.691 108.426 219.822 108.686 220.082C108.96 220.329 109.077 220.733 109.038 221.293V224.516C109.038 225.089 108.908 225.505 108.647 225.766C108.4 226.013 107.996 226.117 107.436 226.078H103.53C103.478 227.706 103.237 229.223 102.807 230.629C102.443 231.827 102.033 232.426 101.577 232.426C101.056 232.426 100.796 232.178 100.796 231.684ZM101.167 216.723C101.167 216.215 101.427 215.961 101.948 215.961H108.803C109.324 215.961 109.585 216.221 109.585 216.742C109.585 217.25 109.324 217.504 108.803 217.504H101.948C101.427 217.504 101.167 217.243 101.167 216.723ZM106.811 224.633C107.228 224.633 107.449 224.411 107.475 223.969V221.801C107.475 221.384 107.254 221.163 106.811 221.137H104.233C103.777 221.137 103.55 221.397 103.55 221.918V224.633H106.811ZM128.653 232.836C128.171 232.836 127.93 232.569 127.93 232.035C127.93 231.749 128.164 231.449 128.633 231.137C129.753 230.382 130.606 229.229 131.192 227.68C131.439 227.029 131.621 226.215 131.739 225.238C131.869 224.249 131.96 223.038 132.012 221.605C132.038 221.163 132.103 220.844 132.207 220.648C132.325 220.44 132.507 220.336 132.754 220.336C133.223 220.336 133.457 220.603 133.457 221.137L133.34 223.246C133.848 226.671 135.144 229.171 137.227 230.746C137.748 231.137 138.008 231.495 138.008 231.82C138.008 232.419 137.741 232.719 137.207 232.719C136.7 232.719 135.977 232.107 135.039 230.883C134.115 229.659 133.405 228.148 132.911 226.352C132.481 228.917 131.576 230.792 130.196 231.977C129.545 232.549 129.03 232.836 128.653 232.836ZM120.157 225.551C120.157 225.264 120.424 224.913 120.957 224.496C122.481 223.259 123.659 221.684 124.493 219.77C124.688 219.34 124.948 219.125 125.274 219.125C125.769 219.125 126.016 219.333 126.016 219.75C126.016 219.945 125.957 220.141 125.84 220.336C128.444 222.406 129.746 223.728 129.746 224.301C129.746 224.861 129.467 225.141 128.907 225.141C128.672 225.141 128.366 224.913 127.989 224.457C127.572 223.962 127.168 223.507 126.778 223.09C126.166 222.452 125.645 221.924 125.215 221.508C124.668 222.549 123.881 223.624 122.852 224.73C121.836 225.824 121.166 226.371 120.84 226.371C120.384 226.371 120.157 226.098 120.157 225.551ZM120.313 219.359C120.313 219.086 120.437 218.852 120.684 218.656C121.257 218.201 121.849 217.517 122.461 216.605C122.813 216.072 123.138 215.805 123.438 215.805C123.92 215.805 124.161 216.033 124.161 216.488C124.161 216.762 123.744 217.432 122.911 218.5C122.051 219.594 121.433 220.141 121.055 220.141C120.56 220.141 120.313 219.88 120.313 219.359ZM121.993 226.898C121.993 226.273 122.162 225.785 122.5 225.434C122.852 225.082 123.334 224.919 123.946 224.945H126.739C128.054 224.841 128.659 225.447 128.555 226.762V229.809C128.555 230.473 128.412 230.954 128.125 231.254C127.839 231.553 127.377 231.677 126.739 231.625H123.809C122.507 231.729 121.901 231.124 121.993 229.809V226.898ZM123.438 229.672C123.438 230.062 123.64 230.258 124.043 230.258H126.524C126.914 230.258 127.116 230.062 127.129 229.672V226.918C127.129 226.54 126.927 226.339 126.524 226.312H124.043C123.835 226.312 123.685 226.365 123.594 226.469C123.503 226.56 123.451 226.71 123.438 226.918V229.672ZM126.016 216.43C126.016 215.961 126.257 215.727 126.739 215.727C126.934 215.727 127.461 216.059 128.321 216.723C129.154 217.387 129.571 217.868 129.571 218.168C129.571 218.689 129.297 218.949 128.75 218.949C128.568 218.949 128.308 218.786 127.969 218.461C127.539 218.057 127.123 217.693 126.719 217.367C126.25 216.977 126.016 216.664 126.016 216.43ZM128.789 221.977C128.789 221.885 129.024 221.345 129.493 220.355C129.909 219.483 130.398 217.992 130.957 215.883C131.088 215.349 131.355 215.082 131.758 215.082C132.279 215.082 132.539 215.316 132.539 215.785C132.539 216.124 132.299 216.996 131.817 218.402H136.309C137.338 218.402 137.852 218.741 137.852 219.418C137.852 219.717 137.546 220.57 136.934 221.977C136.335 223.344 135.86 224.027 135.508 224.027C134.987 224.027 134.727 223.806 134.727 223.363C134.727 223.233 134.831 222.94 135.039 222.484C135.17 222.211 135.417 221.625 135.782 220.727L135.957 220.238C135.97 220.199 135.977 220.154 135.977 220.102C135.977 219.971 135.873 219.906 135.664 219.906H131.27C130.554 221.755 129.974 222.68 129.532 222.68C129.037 222.68 128.789 222.445 128.789 221.977ZM149.264 226.449C148.287 226.449 147.799 225.954 147.799 224.965V221.977C147.799 220.987 148.287 220.492 149.264 220.492H154.361C155.377 220.492 155.885 220.987 155.885 221.977V224.965C155.885 225.954 155.39 226.449 154.4 226.449H153.6V230.551C153.6 230.902 153.834 231.078 154.303 231.078C154.928 231.078 155.325 231.039 155.494 230.961C155.676 230.87 155.781 230.531 155.807 229.945C155.82 229.646 155.891 229.418 156.021 229.262C156.152 229.105 156.34 229.027 156.588 229.027C157.096 229.027 157.35 229.301 157.35 229.848C157.35 230.85 157.18 231.547 156.842 231.938C156.503 232.315 155.637 232.504 154.244 232.504C153.502 232.504 152.962 232.393 152.623 232.172C152.298 231.964 152.135 231.618 152.135 231.137V226.449H151.002C150.924 228.09 150.689 229.314 150.299 230.121C149.895 230.941 149.244 231.605 148.346 232.113C147.577 232.556 146.972 232.777 146.529 232.777C146.074 232.777 145.846 232.523 145.846 232.016C145.846 231.859 145.911 231.716 146.041 231.586C146.184 231.456 146.419 231.326 146.744 231.195C147.63 230.818 148.307 230.303 148.775 229.652C149.218 229.014 149.479 227.947 149.557 226.449H149.264ZM139.518 219.418C139.518 218.923 139.804 218.676 140.377 218.676H145.553C146.139 218.676 146.432 218.923 146.432 219.418C146.432 219.913 146.139 220.16 145.553 220.16H140.377C139.804 220.16 139.518 219.913 139.518 219.418ZM140.064 216.762C140.064 216.267 140.331 216.02 140.865 216.02H145.084C145.631 216.02 145.904 216.267 145.904 216.762C145.904 217.257 145.631 217.504 145.084 217.504H140.865C140.331 217.504 140.064 217.257 140.064 216.762ZM140.143 224.535C140.143 224.053 140.403 223.812 140.924 223.812H145.221C145.742 223.812 146.002 224.053 146.002 224.535C146.002 224.77 145.93 224.952 145.787 225.082C145.657 225.199 145.468 225.258 145.221 225.258H140.924C140.403 225.258 140.143 225.017 140.143 224.535ZM140.143 221.957C140.143 221.475 140.403 221.234 140.924 221.234H145.025C145.286 221.234 145.481 221.299 145.611 221.43C145.755 221.547 145.826 221.723 145.826 221.957C145.826 222.191 145.755 222.374 145.611 222.504C145.481 222.621 145.286 222.68 145.025 222.68H140.924C140.403 222.68 140.143 222.439 140.143 221.957ZM140.26 227.953C140.26 226.911 140.774 226.391 141.803 226.391H144.381C145.449 226.391 145.982 226.911 145.982 227.953V230.648C145.982 231.169 145.846 231.56 145.572 231.82C145.299 232.094 144.902 232.23 144.381 232.23H141.803C140.774 232.23 140.26 231.716 140.26 230.688V227.953ZM141.725 230.277C141.725 230.642 141.907 230.824 142.271 230.824H143.951C144.316 230.824 144.498 230.642 144.498 230.277V228.344C144.498 228.148 144.452 228.012 144.361 227.934C144.27 227.842 144.133 227.797 143.951 227.797H142.271C142.089 227.797 141.952 227.842 141.861 227.934C141.77 228.012 141.725 228.148 141.725 228.344V230.277ZM146.236 221.098C146.236 220.941 146.288 220.779 146.393 220.609C146.51 220.427 146.686 220.199 146.92 219.926C147.076 219.757 147.245 219.529 147.428 219.242C147.623 218.943 147.76 218.734 147.838 218.617C148.281 217.953 148.534 217.576 148.6 217.484C148.795 217.211 149.029 217.074 149.303 217.074C149.798 217.074 150.045 217.302 150.045 217.758C150.045 218.122 149.622 218.878 148.775 220.023C147.942 221.143 147.33 221.703 146.939 221.703C146.744 221.703 146.575 221.645 146.432 221.527C146.301 221.41 146.236 221.267 146.236 221.098ZM149.283 224.535C149.283 224.887 149.452 225.062 149.791 225.062H153.873C154.212 225.062 154.381 224.887 154.381 224.535V222.387C154.381 222.035 154.212 221.859 153.873 221.859H149.791C149.452 221.859 149.283 222.035 149.283 222.387V224.535ZM150.592 216.332C150.592 216.085 150.67 215.902 150.826 215.785C150.982 215.655 151.21 215.59 151.51 215.59H153.229C153.697 215.59 154.029 215.681 154.225 215.863C154.394 216.02 154.576 216.371 154.771 216.918C155.149 218.012 155.807 218.936 156.744 219.691C157.148 220.017 157.35 220.316 157.35 220.59C157.35 221.15 157.096 221.43 156.588 221.43C156.197 221.43 155.663 221.046 154.986 220.277C154.27 219.483 153.762 218.546 153.463 217.465C153.385 217.217 153.17 217.094 152.818 217.094H151.51C150.898 217.094 150.592 216.84 150.592 216.332ZM163.019 232.914C162.55 232.914 162.316 232.621 162.316 232.035V229.184H159.718C159.458 229.184 159.263 229.132 159.132 229.027C159.015 228.91 158.957 228.734 158.957 228.5C158.957 228.044 159.211 227.816 159.718 227.816H162.316V226.273H161.164C160.161 226.273 159.66 225.766 159.66 224.75V221.352C159.66 220.336 160.161 219.828 161.164 219.828H162.238V218.383H159.855C159.347 218.383 159.093 218.161 159.093 217.719C159.093 217.263 159.347 217.035 159.855 217.035H162.238V215.941C162.238 215.355 162.466 215.062 162.921 215.062C163.403 215.062 163.644 215.355 163.644 215.941V217.035H165.89C166.398 217.035 166.652 217.263 166.652 217.719C166.652 218.161 166.398 218.383 165.89 218.383H163.644V219.828H164.836C165.851 219.828 166.359 220.323 166.359 221.312V224.75C166.359 225.766 165.851 226.273 164.836 226.273H163.742V227.816H165.851C166.359 227.816 166.613 228.044 166.613 228.5C166.613 228.956 166.359 229.184 165.851 229.184H163.742V232.035C163.742 232.621 163.501 232.914 163.019 232.914ZM161.027 224.438C161.027 224.789 161.203 224.971 161.554 224.984H164.464C164.816 224.984 164.992 224.802 164.992 224.438V223.617H161.027V224.438ZM164.992 222.348V221.664C164.992 221.312 164.816 221.13 164.464 221.117H161.554C161.203 221.117 161.027 221.299 161.027 221.664V222.348H164.992ZM166.652 219.945C166.652 219.529 166.867 219.32 167.296 219.32H168.937L169.406 217.797H168.214C167.746 217.797 167.511 217.582 167.511 217.152C167.511 216.736 167.746 216.527 168.214 216.527H169.738C169.855 215.889 169.959 215.512 170.05 215.395C170.22 215.173 170.441 215.062 170.714 215.062C171.222 215.062 171.476 215.297 171.476 215.766C171.476 215.922 171.411 216.176 171.281 216.527H173.507C174.028 216.527 174.406 216.651 174.64 216.898C174.875 217.133 174.992 217.51 174.992 218.031V219.32H175.89C176.346 219.32 176.574 219.535 176.574 219.965C176.574 220.382 176.346 220.59 175.89 220.59H167.296C166.867 220.59 166.652 220.375 166.652 219.945ZM166.789 226.801C166.789 226.384 167.004 226.176 167.433 226.176H171.652V225.102H169.035C168.032 225.102 167.531 224.659 167.531 223.773V222.777C167.531 221.866 168.032 221.41 169.035 221.41H174.132C175.122 221.41 175.617 221.853 175.617 222.738V223.734C175.617 224.646 175.115 225.102 174.113 225.102H173.136V226.176H175.5C175.968 226.176 176.203 226.384 176.203 226.801C176.203 227.217 175.968 227.426 175.5 227.426H173.136V228.969H176.164C176.632 228.969 176.867 229.184 176.867 229.613C176.867 230.043 176.632 230.258 176.164 230.258H173.136V232.035C173.136 232.634 172.889 232.934 172.394 232.934C171.899 232.934 171.652 232.634 171.652 232.035V230.258H168.488C168.371 230.688 168.221 231.013 168.039 231.234C167.869 231.469 167.681 231.586 167.472 231.586C167.121 231.586 166.899 231.462 166.808 231.215C166.782 231.137 166.769 231.059 166.769 230.98C166.769 230.863 166.815 230.622 166.906 230.258L167.375 228.48C167.518 227.947 167.778 227.68 168.156 227.68C168.638 227.68 168.879 227.908 168.879 228.363L168.761 228.969H171.652V227.426H167.433C167.004 227.426 166.789 227.217 166.789 226.801ZM168.976 223.48C168.976 223.78 169.119 223.93 169.406 223.93H173.703C174.002 223.93 174.152 223.78 174.152 223.48V223.031C174.152 222.745 174.002 222.602 173.703 222.602H169.406C169.119 222.602 168.976 222.745 168.976 223.031V223.48ZM173.507 219.32V218.305C173.507 217.966 173.338 217.797 173 217.797H170.91L170.832 217.992L170.382 219.32H173.507ZM179.255 232.719C178.695 232.719 178.415 232.413 178.415 231.801C178.415 231.579 178.506 231.391 178.689 231.234C178.884 231.091 179.183 230.974 179.587 230.883C182.139 230.349 184.294 229.405 186.052 228.051V228.012C184.763 226.814 183.786 225.499 183.122 224.066C182.445 222.595 182.107 221.638 182.107 221.195C182.107 220.74 182.387 220.512 182.946 220.512C183.155 220.512 183.337 220.583 183.493 220.727C183.65 220.857 183.767 221.052 183.845 221.312C184.496 223.487 185.635 225.362 187.263 226.938H187.302C189.06 225.049 190.173 222.621 190.642 219.652H179.646C178.969 219.652 178.63 219.392 178.63 218.871C178.63 218.337 178.969 218.07 179.646 218.07H186.325V216.195C186.325 215.466 186.612 215.102 187.185 215.102C187.484 215.102 187.699 215.193 187.829 215.375C187.973 215.544 188.044 215.818 188.044 216.195V218.07H194.919C195.583 218.07 195.915 218.337 195.915 218.871C195.915 219.392 195.583 219.652 194.919 219.652H192.439C191.709 223.129 190.401 225.87 188.513 227.875V227.914C190.323 229.229 192.51 230.167 195.075 230.727C195.792 230.883 196.15 231.195 196.15 231.664C196.15 232.315 195.863 232.641 195.29 232.641C195.199 232.641 195.075 232.621 194.919 232.582C194.763 232.543 194.646 232.51 194.568 232.484C191.599 231.677 189.177 230.531 187.302 229.047H187.263C186.117 230.049 184.704 230.915 183.025 231.645C181.384 232.361 180.127 232.719 179.255 232.719ZM210.276 232.797C209.912 232.784 209.651 232.712 209.495 232.582C209.339 232.452 209.261 232.25 209.261 231.977C209.261 231.443 209.56 231.176 210.159 231.176C210.966 231.176 211.533 231.156 211.858 231.117C212.184 231.091 212.431 231.02 212.6 230.902C212.77 230.785 212.906 230.577 213.011 230.277C213.193 229.743 213.336 228.441 213.44 226.371C213.544 224.301 213.596 222.335 213.596 220.473C213.596 219.978 213.31 219.73 212.737 219.73H208.382C208.16 220.421 207.763 221.215 207.19 222.113C207.008 222.413 206.78 222.562 206.507 222.562C206.376 222.562 206.24 222.523 206.096 222.445C205.836 222.302 205.706 222.1 205.706 221.84C205.706 221.671 205.758 221.495 205.862 221.312C206.409 220.284 206.813 219.418 207.073 218.715C207.399 217.855 207.705 216.892 207.991 215.824C208.056 215.603 208.154 215.434 208.284 215.316C208.427 215.186 208.596 215.121 208.792 215.121C208.844 215.121 208.935 215.134 209.065 215.16C209.456 215.251 209.651 215.486 209.651 215.863C209.651 215.993 209.632 216.137 209.593 216.293C209.501 216.671 209.391 217.048 209.261 217.426C209.13 217.79 209.007 218.077 208.889 218.285H213.577C214.723 218.285 215.296 218.767 215.296 219.73C215.296 222.178 215.231 224.542 215.1 226.82C214.97 229.086 214.749 230.603 214.436 231.371C214.202 231.918 213.844 232.296 213.362 232.504C212.88 232.712 212.151 232.816 211.175 232.816C210.784 232.816 210.484 232.81 210.276 232.797ZM198.323 219.867C198.323 219.372 198.447 218.995 198.694 218.734C198.942 218.474 199.306 218.344 199.788 218.344H200.784C200.888 217.758 201.012 216.931 201.155 215.863C201.181 215.629 201.266 215.453 201.409 215.336C201.552 215.219 201.741 215.16 201.975 215.16C202.626 215.16 202.906 215.492 202.815 216.156C202.711 216.885 202.542 217.615 202.307 218.344H203.792C204.781 218.344 205.276 218.852 205.276 219.867L205.296 230.98C205.296 231.983 204.794 232.484 203.792 232.484H199.827C199.332 232.484 198.955 232.354 198.694 232.094C198.447 231.846 198.323 231.475 198.323 230.98V219.867ZM199.925 230.355C199.925 230.785 200.139 231 200.569 231H203.05C203.479 231 203.694 230.785 203.694 230.355V225.824H199.925V230.355ZM203.694 224.379V220.473C203.694 220.043 203.479 219.828 203.05 219.828H200.569C200.139 219.828 199.925 220.043 199.925 220.473V224.379H203.694ZM207.522 223.891C207.522 223.669 207.587 223.5 207.718 223.383C207.848 223.253 208.017 223.188 208.225 223.188C208.434 223.188 208.655 223.305 208.889 223.539C209.124 223.773 209.423 224.158 209.788 224.691C210.543 225.824 210.921 226.573 210.921 226.938C210.921 227.159 210.849 227.335 210.706 227.465C210.576 227.595 210.387 227.66 210.139 227.66C209.931 227.66 209.749 227.589 209.593 227.445C209.436 227.289 209.28 227.061 209.124 226.762C208.876 226.319 208.512 225.727 208.03 224.984L207.757 224.555C207.692 224.464 207.633 224.353 207.581 224.223C207.542 224.092 207.522 223.982 207.522 223.891ZM225.965 232.875C225.431 232.875 225.164 232.549 225.164 231.898V229.574H218.446C217.834 229.574 217.528 229.333 217.528 228.852C217.528 228.357 217.834 228.109 218.446 228.109H225.164V226.117H219.403C218.804 226.117 218.504 225.87 218.504 225.375C218.504 224.893 218.804 224.652 219.403 224.652H221.786L221.082 221.977H218.133C217.534 221.977 217.235 221.736 217.235 221.254C217.235 220.759 217.534 220.512 218.133 220.512H225.164V218.5H219.754C219.155 218.5 218.856 218.253 218.856 217.758C218.856 217.276 219.155 217.035 219.754 217.035H225.164V215.863C225.164 215.355 225.438 215.102 225.985 215.102C226.519 215.102 226.786 215.355 226.786 215.863V217.035H232.411C232.996 217.035 233.289 217.276 233.289 217.758C233.289 218.253 232.996 218.5 232.411 218.5H226.786V220.512H234.032C234.631 220.512 234.93 220.753 234.93 221.234C234.93 221.729 234.631 221.977 234.032 221.977H230.848C230.614 222.901 230.347 223.793 230.047 224.652H232.762C233.374 224.652 233.68 224.9 233.68 225.395C233.68 225.876 233.374 226.117 232.762 226.117H226.786V228.109H233.739C234.325 228.109 234.618 228.35 234.618 228.832C234.618 229.327 234.325 229.574 233.739 229.574H226.786V231.898C226.786 232.549 226.512 232.875 225.965 232.875ZM223.348 224.574L223.387 224.652H228.485C228.797 223.676 229.032 222.816 229.188 222.074L229.227 221.977H222.645L223.348 224.574ZM245.326 232.426C244.714 232.426 244.271 232.289 243.998 232.016C243.725 231.755 243.607 231.332 243.646 230.746V226.195C243.646 225.583 243.777 225.141 244.037 224.867C244.311 224.594 244.74 224.477 245.326 224.516H252.084C252.696 224.516 253.139 224.652 253.412 224.926C253.699 225.186 253.822 225.609 253.783 226.195V230.746C253.783 231.358 253.646 231.801 253.373 232.074C253.113 232.348 252.683 232.465 252.084 232.426H245.326ZM236.498 230.336C236.498 230.219 236.55 230.017 236.654 229.73C236.98 228.897 237.143 227.465 237.143 225.434L237.123 223.129C237.123 222.608 237.344 222.348 237.787 222.348C238.243 222.348 238.471 222.641 238.471 223.227L238.432 226.469C238.419 228.005 238.308 229.164 238.1 229.945C237.904 230.714 237.631 231.098 237.279 231.098C236.758 231.098 236.498 230.844 236.498 230.336ZM236.635 220.16C236.635 219.691 236.921 219.457 237.494 219.457H242.689C243.275 219.457 243.568 219.691 243.568 220.16C243.568 220.642 243.275 220.883 242.689 220.883H240.697V232.191C240.697 232.712 240.469 232.973 240.014 232.973C239.558 232.973 239.33 232.712 239.33 232.191V220.883H237.494C236.921 220.883 236.635 220.642 236.635 220.16ZM237.279 216.664C237.279 216.169 237.546 215.922 238.08 215.922H242.162C242.696 215.922 242.963 216.169 242.963 216.664C242.963 217.172 242.696 217.426 242.162 217.426H238.08C237.546 217.426 237.279 217.172 237.279 216.664ZM241.615 223.129C241.615 222.608 241.843 222.348 242.299 222.348C242.742 222.348 242.963 222.608 242.963 223.129V229.809C242.963 230.316 242.742 230.57 242.299 230.57C241.843 230.57 241.615 230.316 241.615 229.809V223.129ZM243.236 216.684C243.236 216.215 243.529 215.98 244.115 215.98H253.334C253.907 215.98 254.193 216.215 254.193 216.684C254.193 217.152 253.907 217.387 253.334 217.387H244.115C243.529 217.387 243.236 217.152 243.236 216.684ZM244.271 220.16C244.271 219.053 244.818 218.526 245.912 218.578H251.498C252.058 218.578 252.475 218.708 252.748 218.969C253.034 219.216 253.178 219.613 253.178 220.16V221.703C253.178 222.836 252.618 223.37 251.498 223.305H245.912C245.352 223.305 244.936 223.181 244.662 222.934C244.402 222.673 244.271 222.276 244.271 221.742V220.16ZM245.092 230.531C245.092 230.909 245.281 231.098 245.658 231.098H248.002V229.066H245.092V230.531ZM248.002 227.797V225.844H245.658C245.281 225.844 245.092 226.033 245.092 226.41V227.797H248.002ZM245.717 221.527C245.717 221.853 245.886 222.016 246.225 222.016H251.225C251.55 222.016 251.713 221.853 251.713 221.527V220.355C251.713 220.03 251.55 219.867 251.225 219.867H246.225C245.886 219.867 245.717 220.03 245.717 220.355V221.527ZM251.771 231.098C252.149 231.098 252.338 230.902 252.338 230.512V229.066H249.389V231.098H251.771ZM252.338 227.797V226.43C252.338 226.039 252.149 225.844 251.771 225.844H249.389V227.797H252.338ZM261.958 221.703C261.802 221.703 261.665 221.645 261.548 221.527C261.431 221.397 261.372 221.254 261.372 221.098C261.372 220.889 261.47 220.72 261.665 220.59C262.017 220.382 262.271 220.147 262.427 219.887C262.583 219.626 262.661 219.268 262.661 218.812H262.603C262.303 218.812 262.043 218.702 261.821 218.48C261.6 218.259 261.489 217.999 261.489 217.699V217.582C261.489 217.283 261.6 217.022 261.821 216.801C262.043 216.579 262.303 216.469 262.603 216.469H262.798C263.579 216.469 263.97 216.97 263.97 217.973C263.97 218.22 263.95 218.474 263.911 218.734C263.807 219.438 263.638 220.017 263.404 220.473C263.169 220.928 262.805 221.306 262.31 221.605C262.18 221.671 262.062 221.703 261.958 221.703ZM264.907 221.098C264.907 220.889 265.005 220.72 265.2 220.59C265.552 220.382 265.806 220.147 265.962 219.887C266.118 219.626 266.196 219.268 266.196 218.812H266.138C265.838 218.812 265.578 218.702 265.357 218.48C265.135 218.259 265.025 217.999 265.025 217.699V217.582C265.025 217.283 265.135 217.022 265.357 216.801C265.578 216.579 265.838 216.469 266.138 216.469H266.333C267.114 216.469 267.505 216.97 267.505 217.973C267.505 218.22 267.486 218.474 267.446 218.734C267.342 219.438 267.173 220.017 266.939 220.473C266.704 220.928 266.34 221.306 265.845 221.605C265.715 221.671 265.598 221.703 265.493 221.703C265.337 221.703 265.2 221.645 265.083 221.527C264.966 221.397 264.907 221.254 264.907 221.098Z" fill="white"/>
<path d="M0 259H315M0 189H315" stroke="white"/>
<path d="M99.7031 283V273.099H103.643C104.352 273.099 104.952 273.206 105.441 273.419C105.934 273.631 106.305 273.929 106.553 274.313C106.801 274.696 106.926 275.14 106.926 275.642C106.926 276.023 106.848 276.359 106.693 276.653C106.542 276.943 106.332 277.181 106.065 277.368C105.798 277.555 105.488 277.687 105.137 277.765V277.861C105.52 277.881 105.876 277.99 106.205 278.19C106.537 278.387 106.805 278.665 107.008 279.026C107.211 279.384 107.312 279.8 107.312 280.273C107.312 280.802 107.18 281.273 106.916 281.685C106.655 282.094 106.268 282.417 105.756 282.652C105.243 282.884 104.624 283 103.899 283H99.7031ZM103.493 281.313C103.877 281.313 104.194 281.263 104.446 281.163C104.7 281.06 104.887 280.916 105.006 280.733C105.129 280.546 105.19 280.325 105.19 280.07C105.19 279.797 105.122 279.552 104.987 279.336C104.852 279.12 104.66 278.952 104.412 278.833C104.164 278.714 103.872 278.654 103.537 278.654H101.758V281.313H103.493ZM103.338 277.247C103.625 277.247 103.883 277.196 104.112 277.093C104.344 276.989 104.524 276.843 104.653 276.653C104.782 276.459 104.847 276.234 104.847 275.976C104.847 275.734 104.789 275.523 104.673 275.343C104.557 275.159 104.388 275.017 104.165 274.917C103.946 274.817 103.683 274.767 103.377 274.767H101.758V277.247H103.338ZM109.343 285.785C109.137 285.785 108.945 285.781 108.768 285.775C108.59 285.768 108.439 285.76 108.313 285.751L108.318 284.175C108.373 284.178 108.428 284.181 108.482 284.184C108.54 284.188 108.598 284.189 108.656 284.189C108.801 284.196 108.961 284.199 109.135 284.199C109.299 284.199 109.435 284.186 109.541 284.16C109.647 284.134 109.749 284.072 109.846 283.972C109.942 283.875 110.031 283.725 110.112 283.522L110.228 283.208L107.559 275.575H109.691L111.248 281.047H111.325L112.896 275.575H115.038L112.142 283.817C111.92 284.449 111.584 284.934 111.136 285.272C110.688 285.614 110.091 285.785 109.343 285.785ZM118.459 273.099H120.992L123.743 279.809H123.859L126.609 273.099H129.147V283H127.151V276.517H127.069L124.487 282.956H123.114L120.533 276.493H120.45V283H118.459V273.099ZM133.695 283.145C132.957 283.145 132.312 282.985 131.761 282.666C131.21 282.347 130.786 281.899 130.49 281.323C130.193 280.742 130.045 280.074 130.045 279.316C130.045 278.552 130.193 277.882 130.49 277.305C130.786 276.725 131.21 276.276 131.761 275.956C132.312 275.637 132.957 275.478 133.695 275.478C134.433 275.478 135.076 275.637 135.624 275.956C136.175 276.276 136.597 276.725 136.891 277.305C137.187 277.882 137.335 278.552 137.335 279.316C137.335 280.074 137.187 280.742 136.891 281.323C136.597 281.899 136.175 282.347 135.624 282.666C135.076 282.985 134.433 283.145 133.695 283.145ZM133.705 281.574C134.04 281.574 134.325 281.477 134.56 281.284C134.799 281.087 134.978 280.818 135.097 280.477C135.219 280.132 135.281 279.74 135.281 279.302C135.281 278.863 135.219 278.474 135.097 278.132C134.978 277.787 134.799 277.516 134.56 277.32C134.325 277.123 134.04 277.025 133.705 277.025C133.363 277.025 133.071 277.123 132.83 277.32C132.588 277.516 132.406 277.787 132.283 278.132C132.164 278.474 132.105 278.863 132.105 279.302C132.105 279.743 132.164 280.135 132.283 280.477C132.406 280.818 132.588 281.087 132.83 281.284C133.071 281.477 133.363 281.574 133.705 281.574ZM140.929 283.121C140.355 283.121 139.839 282.973 139.382 282.676C138.927 282.38 138.568 281.943 138.304 281.366C138.039 280.789 137.907 280.099 137.907 279.297C137.907 278.478 138.041 277.782 138.308 277.209C138.579 276.632 138.942 276.2 139.396 275.913C139.854 275.623 140.363 275.478 140.924 275.478C141.291 275.478 141.61 275.538 141.881 275.657C142.155 275.773 142.377 275.921 142.548 276.102C142.719 276.279 142.864 276.482 142.983 276.711C142.996 276.727 143.006 276.744 143.012 276.764C143.022 276.783 143.032 276.802 143.041 276.822H143.099V273.099H145.12V283H143.128V281.816H143.041C143.035 281.828 143.028 281.841 143.022 281.854C143.015 281.867 143.009 281.88 143.003 281.893C142.877 282.125 142.727 282.33 142.553 282.507C142.379 282.684 142.155 282.831 141.881 282.947C141.61 283.063 141.293 283.121 140.929 283.121ZM141.562 281.506C141.891 281.506 142.174 281.414 142.413 281.231C142.651 281.047 142.832 280.789 142.954 280.457C143.08 280.122 143.143 279.732 143.143 279.287C143.143 278.839 143.081 278.451 142.959 278.122C142.837 277.79 142.656 277.537 142.418 277.363C142.179 277.186 141.894 277.097 141.562 277.097C141.224 277.097 140.935 277.189 140.697 277.373C140.458 277.553 140.278 277.808 140.155 278.137C140.036 278.465 139.976 278.849 139.976 279.287C139.976 279.729 140.038 280.117 140.16 280.452C140.282 280.784 140.463 281.044 140.701 281.231C140.94 281.414 141.227 281.506 141.562 281.506ZM151.088 279.838V275.575H153.109V283H151.165V281.656H151.088C150.975 281.946 150.812 282.201 150.6 282.42C150.39 282.636 150.136 282.803 149.836 282.923C149.536 283.039 149.204 283.097 148.84 283.097C148.344 283.097 147.905 282.984 147.525 282.758C147.148 282.533 146.853 282.21 146.64 281.791C146.431 281.369 146.326 280.873 146.326 280.302V275.575H148.352V279.95C148.352 280.24 148.405 280.493 148.511 280.709C148.618 280.924 148.769 281.09 148.966 281.206C149.162 281.323 149.391 281.381 149.652 281.381C149.907 281.381 150.144 281.323 150.363 281.206C150.582 281.087 150.758 280.912 150.89 280.68C151.022 280.444 151.088 280.164 151.088 279.838ZM157.001 283.121C156.427 283.121 155.911 282.973 155.454 282.676C154.999 282.38 154.64 281.943 154.376 281.366C154.111 280.789 153.979 280.099 153.979 279.297C153.979 278.478 154.113 277.782 154.381 277.209C154.651 276.632 155.014 276.2 155.468 275.913C155.926 275.623 156.435 275.478 156.996 275.478C157.363 275.478 157.682 275.538 157.953 275.657C158.227 275.773 158.449 275.921 158.62 276.102C158.791 276.279 158.936 276.482 159.055 276.711C159.068 276.727 159.078 276.744 159.084 276.764C159.094 276.783 159.104 276.802 159.113 276.822H159.171V273.099H161.192V283H159.2V281.816H159.113C159.107 281.828 159.1 281.841 159.094 281.854C159.088 281.867 159.081 281.88 159.075 281.893C158.949 282.125 158.799 282.33 158.625 282.507C158.451 282.684 158.227 282.831 157.953 282.947C157.682 283.063 157.365 283.121 157.001 283.121ZM157.634 281.506C157.963 281.506 158.246 281.414 158.485 281.231C158.723 281.047 158.904 280.789 159.026 280.457C159.152 280.122 159.215 279.732 159.215 279.287C159.215 278.839 159.154 278.451 159.031 278.122C158.909 277.79 158.728 277.537 158.49 277.363C158.251 277.186 157.966 277.097 157.634 277.097C157.296 277.097 157.007 277.189 156.769 277.373C156.53 277.553 156.35 277.808 156.227 278.137C156.108 278.465 156.048 278.849 156.048 279.287C156.048 279.729 156.11 280.117 156.232 280.452C156.355 280.784 156.535 281.044 156.774 281.231C157.012 281.414 157.299 281.506 157.634 281.506ZM166.759 279.8C166.727 279.8 166.672 279.803 166.594 279.809C166.52 279.813 166.43 279.816 166.324 279.819C166.117 279.832 165.903 279.846 165.681 279.863C165.462 279.875 165.281 279.888 165.139 279.901C164.778 279.93 164.496 280.029 164.293 280.196C164.09 280.36 163.989 280.583 163.989 280.863C163.989 281.05 164.036 281.21 164.129 281.342C164.222 281.471 164.353 281.569 164.521 281.637C164.688 281.701 164.88 281.733 165.096 281.733C165.399 281.733 165.668 281.674 165.903 281.555C166.142 281.432 166.327 281.265 166.459 281.052C166.594 280.839 166.662 280.604 166.662 280.346L166.652 277.948C166.652 277.739 166.606 277.56 166.512 277.412C166.419 277.263 166.283 277.152 166.106 277.078C165.932 277.001 165.721 276.962 165.473 276.962C165.244 276.962 165.043 276.996 164.869 277.064C164.698 277.128 164.558 277.221 164.448 277.344C164.338 277.466 164.266 277.613 164.23 277.784H162.311C162.353 277.346 162.503 276.952 162.761 276.604C163.022 276.256 163.388 275.982 163.858 275.782C164.329 275.579 164.883 275.478 165.521 275.478C166.095 275.478 166.617 275.567 167.088 275.744C167.561 275.918 167.943 276.195 168.233 276.575C168.523 276.956 168.668 277.429 168.668 277.997V283H166.749V281.97H166.691C166.565 282.209 166.403 282.415 166.203 282.589C166.006 282.763 165.766 282.898 165.483 282.995C165.199 283.092 164.878 283.14 164.521 283.14C164.04 283.14 163.615 283.056 163.244 282.889C162.874 282.721 162.582 282.471 162.369 282.14C162.157 281.804 162.05 281.4 162.05 280.926C162.05 280.159 162.305 279.6 162.814 279.249C163.326 278.894 163.992 278.689 164.811 278.635C165.014 278.622 165.267 278.609 165.57 278.596C165.876 278.58 166.153 278.567 166.401 278.557C166.488 278.551 166.561 278.548 166.619 278.548C166.677 278.544 166.719 278.543 166.744 278.543L166.759 279.8ZM172.64 283V273.099H174.694V277.489H174.825L178.422 273.099H180.892L177.203 277.532L180.935 283H178.47L175.734 278.91L174.694 280.172V283H172.64ZM184.253 283.145C183.515 283.145 182.871 282.985 182.319 282.666C181.768 282.347 181.345 281.899 181.048 281.323C180.752 280.742 180.603 280.074 180.603 279.316C180.603 278.552 180.752 277.882 181.048 277.305C181.345 276.725 181.768 276.276 182.319 275.956C182.871 275.637 183.515 275.478 184.253 275.478C184.991 275.478 185.634 275.637 186.182 275.956C186.733 276.276 187.155 276.725 187.449 277.305C187.745 277.882 187.893 278.552 187.893 279.316C187.893 280.074 187.745 280.742 187.449 281.323C187.155 281.899 186.733 282.347 186.182 282.666C185.634 282.985 184.991 283.145 184.253 283.145ZM184.263 281.574C184.598 281.574 184.883 281.477 185.118 281.284C185.357 281.087 185.536 280.818 185.655 280.477C185.778 280.132 185.839 279.74 185.839 279.302C185.839 278.863 185.778 278.474 185.655 278.132C185.536 277.787 185.357 277.516 185.118 277.32C184.883 277.123 184.598 277.025 184.263 277.025C183.921 277.025 183.63 277.123 183.388 277.32C183.146 277.516 182.964 277.787 182.842 278.132C182.722 278.474 182.663 278.863 182.663 279.302C182.663 279.743 182.722 280.135 182.842 280.477C182.964 280.818 183.146 281.087 183.388 281.284C183.63 281.477 183.921 281.574 184.263 281.574ZM188.746 283V275.575H190.708V276.865H190.786C190.876 276.566 191.008 276.311 191.182 276.102C191.356 275.889 191.561 275.731 191.796 275.628C192.035 275.521 192.294 275.468 192.574 275.468C192.681 275.468 192.79 275.475 192.903 275.488C193.016 275.497 193.122 275.512 193.222 275.531V277.339C193.119 277.31 192.985 277.284 192.821 277.262C192.657 277.239 192.502 277.228 192.357 277.228C192.054 277.228 191.782 277.294 191.54 277.426C191.301 277.555 191.113 277.739 190.974 277.977C190.839 278.212 190.771 278.48 190.771 278.78V283H188.746ZM196.918 283.145C196.167 283.145 195.514 282.99 194.96 282.681C194.409 282.372 193.985 281.93 193.688 281.356C193.392 280.779 193.244 280.101 193.244 279.321C193.244 278.564 193.392 277.895 193.688 277.315C193.988 276.732 194.409 276.28 194.95 275.961C195.492 275.639 196.12 275.478 196.836 275.478C197.503 275.478 198.099 275.618 198.624 275.898C199.15 276.179 199.564 276.603 199.867 277.17C200.17 277.734 200.321 278.425 200.321 279.244V279.809H194.07V278.543H198.412C198.408 278.243 198.341 277.977 198.209 277.745C198.08 277.513 197.899 277.329 197.667 277.194C197.435 277.059 197.171 276.991 196.874 276.991C196.562 276.991 196.281 277.064 196.033 277.209C195.788 277.354 195.596 277.55 195.458 277.798C195.319 278.047 195.248 278.319 195.245 278.615V279.809C195.245 280.18 195.314 280.502 195.453 280.776C195.595 281.05 195.793 281.261 196.048 281.41C196.305 281.555 196.607 281.627 196.952 281.627C197.18 281.627 197.387 281.596 197.57 281.535C197.754 281.474 197.912 281.389 198.044 281.279C198.176 281.166 198.276 281.036 198.344 280.887H200.268C200.171 281.342 199.975 281.74 199.678 282.081C199.382 282.42 198.998 282.683 198.528 282.869C198.057 283.053 197.52 283.145 196.918 283.145ZM205.528 279.8C205.496 279.8 205.441 279.803 205.363 279.809C205.289 279.813 205.199 279.816 205.093 279.819C204.887 279.832 204.672 279.846 204.45 279.863C204.231 279.875 204.05 279.888 203.908 279.901C203.547 279.93 203.265 280.029 203.062 280.196C202.859 280.36 202.758 280.583 202.758 280.863C202.758 281.05 202.805 281.21 202.898 281.342C202.991 281.471 203.122 281.569 203.29 281.637C203.457 281.701 203.649 281.733 203.865 281.733C204.168 281.733 204.437 281.674 204.672 281.555C204.911 281.432 205.096 281.265 205.228 281.052C205.363 280.839 205.431 280.604 205.431 280.346L205.422 277.948C205.422 277.739 205.375 277.56 205.281 277.412C205.188 277.263 205.052 277.152 204.875 277.078C204.701 277.001 204.49 276.962 204.242 276.962C204.013 276.962 203.812 276.996 203.638 277.064C203.467 277.128 203.327 277.221 203.217 277.344C203.108 277.466 203.035 277.613 203 277.784H201.08C201.122 277.346 201.272 276.952 201.53 276.604C201.791 276.256 202.157 275.982 202.627 275.782C203.098 275.579 203.652 275.478 204.29 275.478C204.864 275.478 205.386 275.567 205.857 275.744C206.33 275.918 206.712 276.195 207.002 276.575C207.292 276.956 207.437 277.429 207.437 277.997V283H205.518V281.97H205.46C205.334 282.209 205.172 282.415 204.972 282.589C204.775 282.763 204.535 282.898 204.252 282.995C203.968 283.092 203.647 283.14 203.29 283.14C202.809 283.14 202.384 283.056 202.013 282.889C201.643 282.721 201.351 282.471 201.138 282.14C200.926 281.804 200.819 281.4 200.819 280.926C200.819 280.159 201.074 279.6 201.583 279.249C202.096 278.894 202.761 278.689 203.58 278.635C203.783 278.622 204.036 278.609 204.339 278.596C204.645 278.58 204.922 278.567 205.17 278.557C205.257 278.551 205.33 278.548 205.388 278.548C205.446 278.544 205.488 278.543 205.513 278.543L205.528 279.8ZM210.58 278.702V283H208.554V275.575H210.483V276.88H210.57C210.683 276.593 210.844 276.345 211.053 276.135C211.266 275.926 211.519 275.765 211.812 275.652C212.109 275.536 212.439 275.478 212.803 275.478C213.316 275.478 213.765 275.591 214.152 275.816C214.539 276.042 214.837 276.366 215.046 276.788C215.256 277.207 215.361 277.702 215.361 278.272V283H213.335V278.625C213.335 278.322 213.282 278.061 213.176 277.842C213.072 277.619 212.921 277.45 212.721 277.334C212.521 277.218 212.283 277.16 212.006 277.16C211.722 277.16 211.474 277.221 211.261 277.344C211.048 277.466 210.881 277.644 210.758 277.876C210.639 278.108 210.58 278.383 210.58 278.702Z" fill="white"/>
<path d="M28.5547 32.5352H0.896484V29.0488H12.5508V22.873H3.81836V8.06445H25.4668V22.873H16.7676V29.0488H28.5547V32.5352ZM8.00195 19.5527H21.2832V11.4512H8.00195V19.5527ZM53.6323 19.918H32.7476V7.43359H53.3335V10.8203H37.0972V16.5977H53.6323V19.918ZM56.8862 26.3262H45.0659V36.0215H40.8823V26.3262H29.228V22.9727H56.8862V26.3262ZM88.2818 17.0625H92.731V20.5156H88.2818V36.1211H84.0318V5.83984H88.2818V17.0625ZM79.815 12.0488H69.8541V25.2969C72.2336 25.2747 74.3586 25.1917 76.2291 25.0479C78.0995 24.904 79.981 24.666 81.8736 24.334L82.3384 27.8867C80.313 28.2298 78.3153 28.4678 76.3453 28.6006C74.3863 28.7223 72.134 28.7832 69.5884 28.7832H68.1939H65.6373V8.62891H79.815V12.0488Z" fill="white"/>
<path d="M79.4989 75.8612H83.4437V79.759H79.4989V89.4682H74.6971V66.7507H79.4989V75.8612ZM55.1964 69.7797H61.8415V66.692H66.6198V69.7797H73.2413V73.5131H55.1964V69.7797ZM56.6053 80.3695C56.6053 79.1954 56.9262 78.1545 57.568 77.2465C58.2176 76.3386 59.1216 75.6342 60.28 75.1333C61.4384 74.6324 62.7533 74.3819 64.2247 74.3819C65.6884 74.3819 66.9915 74.6324 68.1343 75.1333C69.277 75.6342 70.1693 76.3386 70.8111 77.2465C71.4607 78.1545 71.7855 79.1954 71.7855 80.3695C71.7855 81.5279 71.4607 82.5532 70.8111 83.4454C70.1693 84.3299 69.277 85.0186 68.1343 85.5117C66.9915 85.997 65.6884 86.2396 64.2247 86.2396C62.7533 86.2396 61.4384 85.997 60.28 85.5117C59.1216 85.0186 58.2176 84.3299 57.568 83.4454C56.9262 82.5532 56.6053 81.5279 56.6053 80.3695ZM59.5169 87.7424H64.2952V92.8729H80.4851V96.7003H59.5169V87.7424ZM61.2662 80.3695C61.2662 81.1052 61.5284 81.6648 62.0528 82.0483C62.585 82.4319 63.309 82.6275 64.2247 82.6354C65.1483 82.6275 65.8801 82.4319 66.4202 82.0483C66.9602 81.6648 67.2342 81.1052 67.242 80.3695C67.2342 79.6103 66.9563 79.0311 66.4084 78.6319C65.8684 78.2327 65.1405 78.0292 64.2247 78.0214C63.309 78.0292 62.585 78.2327 62.0528 78.6319C61.5284 79.0311 61.2662 79.6103 61.2662 80.3695ZM108.263 70.4489C108.263 71.9908 108.228 73.3527 108.157 74.5345C108.095 75.7086 107.938 76.9922 107.688 78.3854H111.433V82.1775H99.8685V86.1457H108.216V97.1816H103.426V89.8791H86.3554V86.1457H95.0432V82.1775H83.5964V78.3854H102.851C103.078 77.1957 103.234 76.0843 103.32 75.0511C103.406 74.0101 103.457 72.9222 103.473 71.7873H86.9541V67.9952H108.263V70.4489ZM120.414 68.7935C121.768 68.7935 122.997 69.1457 124.101 69.8501C125.212 70.5546 126.128 71.5642 126.848 72.8791C127.568 74.1941 128.038 75.7399 128.257 77.5166H133.059V66.7037H137.79V97.2638H133.059V81.3204H128.315C128.151 83.2302 127.713 84.8895 127.001 86.2983C126.288 87.7072 125.361 88.7873 124.218 89.5387C123.083 90.2901 121.815 90.6657 120.414 90.6657C118.864 90.6657 117.483 90.2196 116.27 89.3273C115.057 88.4351 114.11 87.1593 113.429 85.5C112.748 83.8407 112.407 81.9035 112.407 79.6885C112.407 77.5048 112.748 75.5912 113.429 73.9475C114.11 72.296 115.057 71.0242 116.27 70.1319C117.483 69.2396 118.864 68.7935 120.414 68.7935ZM116.986 79.6885C116.986 81.1287 117.127 82.3458 117.409 83.3398C117.69 84.3338 118.09 85.0813 118.606 85.5822C119.123 86.0753 119.725 86.3218 120.414 86.3218C121.111 86.3218 121.713 86.0753 122.222 85.5822C122.739 85.0813 123.138 84.3377 123.42 83.3515C123.702 82.3575 123.842 81.1365 123.842 79.6885C123.842 78.264 123.702 77.0587 123.42 76.0725C123.138 75.0863 122.739 74.3467 122.222 73.8536C121.713 73.3527 121.111 73.1061 120.414 73.1139C119.725 73.1061 119.123 73.3527 118.606 73.8536C118.09 74.3467 117.69 75.0863 117.409 76.0725C117.127 77.0587 116.986 78.264 116.986 79.6885ZM168.162 93.9061H140.326V90.02H151.82V85.7818H143.437V75.2742H160.331V72.4095H143.402V68.6057H165.063V78.9841H148.215V81.9192H165.756V85.7818H156.551V90.02H168.162V93.9061ZM199.541 72.3743H203.486V76.2956H199.541V81.837H194.74V66.7037H199.541V72.3743ZM176.049 68.0421H190.842V80.8626H176.049V68.0421ZM179.078 82.9876H199.541V91.5698H183.833V93.1195H200.34V96.8646H179.113V88.1416H194.763V86.6271H179.078V82.9876ZM186.099 77.1057V71.799H180.78V77.1057H186.099ZM227.789 78.4441H232.109V82.3653H227.789V97.1816H223.069V66.7037H227.789V78.4441ZM203.475 71.1533H210.061V67.2203H214.828V71.1533H221.296V74.9572H203.475V71.1533ZM204.543 83.7389C204.543 82.3301 204.883 81.07 205.564 79.9586C206.245 78.8393 207.185 77.9666 208.382 77.3405C209.587 76.7065 210.941 76.3895 212.444 76.3895C213.916 76.3895 215.25 76.7065 216.448 77.3405C217.645 77.9666 218.588 78.8393 219.277 79.9586C219.966 81.0778 220.314 82.3379 220.322 83.7389C220.314 85.1478 219.966 86.4118 219.277 87.5311C218.588 88.6425 217.645 89.5152 216.448 90.1492C215.25 90.7753 213.916 91.0884 212.444 91.0884C210.941 91.0884 209.587 90.7753 208.382 90.1492C207.185 89.523 206.245 88.6542 205.564 87.5428C204.883 86.4236 204.543 85.1556 204.543 83.7389ZM209.122 83.7389C209.122 84.4669 209.259 85.093 209.533 85.6174C209.814 86.134 210.206 86.5292 210.707 86.8032C211.215 87.0693 211.795 87.2023 212.444 87.2023C213.086 87.2023 213.654 87.0693 214.147 86.8032C214.64 86.5292 215.027 86.134 215.309 85.6174C215.591 85.093 215.735 84.4669 215.743 83.7389C215.735 83.0267 215.591 82.4084 215.309 81.884C215.027 81.3596 214.636 80.9604 214.135 80.6865C213.642 80.4047 213.078 80.2599 212.444 80.2521C211.795 80.2599 211.215 80.4047 210.707 80.6865C210.206 80.9604 209.814 81.3596 209.533 81.884C209.259 82.4084 209.122 83.0267 209.122 83.7389ZM256.764 78.4558H235.35V67.7838H240.105V74.7341H256.764V78.4558ZM231.969 81.4261H259.817V85.1478H231.969V81.4261ZM235.033 87.4489H239.835V92.7086H256.952V96.5359H235.033V87.4489Z" fill="white"/>
<path d="M284.112 149.799H280.094V141.764H277.67V148.803H273.719V131.404H277.67V138.311H280.094V130.84H284.112V149.799ZM272.823 137.248H257.981V133.961H263.327V131.105H267.543V133.961H272.823V137.248ZM265.452 138.244C266.724 138.244 267.859 138.465 268.855 138.908C269.851 139.351 270.631 139.971 271.196 140.768C271.76 141.564 272.048 142.483 272.059 143.523C272.048 144.553 271.76 145.466 271.196 146.263C270.631 147.049 269.851 147.663 268.855 148.105C267.859 148.548 266.724 148.77 265.452 148.77C264.201 148.77 263.078 148.548 262.082 148.105C261.085 147.663 260.305 147.049 259.741 146.263C259.187 145.466 258.911 144.553 258.911 143.523C258.911 142.494 259.187 141.581 259.741 140.784C260.305 139.976 261.085 139.351 262.082 138.908C263.078 138.465 264.201 138.244 265.452 138.244ZM265.452 141.299C264.61 141.299 263.941 141.498 263.443 141.896C262.945 142.295 262.696 142.837 262.696 143.523C262.696 144.221 262.945 144.774 263.443 145.184C263.952 145.582 264.622 145.77 265.452 145.748C266.282 145.77 266.951 145.582 267.46 145.184C267.97 144.774 268.23 144.221 268.241 143.523C268.23 142.826 267.97 142.284 267.46 141.896C266.962 141.498 266.293 141.299 265.452 141.299ZM273.786 150.064C275.966 150.064 277.836 150.28 279.397 150.712C280.969 151.144 282.169 151.774 282.999 152.604C283.841 153.424 284.267 154.414 284.278 155.576C284.267 156.727 283.841 157.712 282.999 158.531C282.169 159.35 280.969 159.976 279.397 160.407C277.825 160.839 275.955 161.055 273.786 161.055C271.616 161.055 269.746 160.839 268.174 160.407C266.614 159.976 265.413 159.35 264.572 158.531C263.742 157.712 263.327 156.727 263.327 155.576C263.327 154.414 263.742 153.424 264.572 152.604C265.413 151.774 266.614 151.144 268.174 150.712C269.746 150.28 271.616 150.064 273.786 150.064ZM273.786 153.252C269.613 153.252 267.543 154.027 267.577 155.576C267.566 156.34 268.086 156.915 269.137 157.303C270.189 157.679 271.738 157.867 273.786 157.867C277.925 157.867 279.995 157.104 279.995 155.576C279.995 154.79 279.48 154.209 278.451 153.833C277.421 153.446 275.866 153.252 273.786 153.252ZM314.07 149.234H286.512V145.814H298.133V143.258H290.031V131.57H294.215V134.326H306.334V131.57H310.551V143.258H302.383V145.814H314.07V149.234ZM310.717 161.055H306.5V154.646H289.566V151.293H310.717V161.055ZM306.334 139.938V137.447H294.215V139.938H306.334Z" fill="white"/>
</svg>
