<svg width="83" height="80" viewBox="0 0 83 80" fill="none" xmlns="http://www.w3.org/2000/svg">
<g clip-path="url(#clip0_1045_67699)">
<path d="M24.8205 41.3394C20.5866 41.0614 18.5768 39.2915 15.5326 36.4098C14.2026 35.1518 13.0795 33.6305 12.444 31.919C11.8086 30.2075 12.1189 28.006 12.5548 26.2141C12.6878 25.6729 12.7691 24.5465 12.0155 24.371C10.6116 24.0492 10.3012 26.9089 8.93426 26.9675C6.9688 27.0552 5.2324 21.8257 2.55761 23.3544C1.61182 23.8956 1.39754 24.9561 1.4936 25.9728C1.78916 29.0739 3.65856 32.2116 5.32846 34.7788C8.87515 40.2276 15.5104 45.1353 21.4511 47.8488" fill="#3B84F5"/>
<path d="M21.4589 49.3109C21.252 49.3109 21.0377 49.2671 20.8382 49.172C15.4147 46.6925 8.16616 41.8141 4.09485 35.568C2.16634 32.6059 0.341269 29.417 0.0309329 26.1038C-0.139013 24.2753 0.496436 22.8491 1.82645 22.0884C4.43474 20.589 6.43715 22.8637 7.63416 24.2241C7.95927 24.5898 8.46172 25.1603 8.78683 25.4089C8.90505 25.248 9.05283 25.014 9.14889 24.8604C9.65134 24.0485 10.5897 22.5419 12.3631 22.9441C12.932 23.0758 13.4197 23.4195 13.73 23.9169C14.3211 24.8677 14.1216 26.0745 14.0034 26.5499C13.6709 27.9249 13.2941 29.9216 13.8409 31.4064C14.3655 32.8033 15.2817 34.1272 16.5674 35.3486C19.5304 38.1572 21.2446 39.6346 24.9317 39.8759C25.7445 39.9271 26.3651 40.6293 26.306 41.4338C26.2543 42.2383 25.5597 42.8527 24.7322 42.7942C19.8037 42.4724 17.358 40.1466 14.5206 37.4623C12.9099 35.9337 11.7424 34.2369 11.0626 32.423C10.4789 30.8505 10.538 29.1025 10.7671 27.6031C10.3311 28.042 9.76956 28.393 9.0085 28.4296C7.44204 28.5027 6.37804 27.2521 5.40269 26.1476C4.16874 24.7434 3.69585 24.3996 3.30423 24.6263C2.95695 24.8238 2.93479 25.3943 2.97173 25.8405C3.22296 28.5247 4.85591 31.3479 6.57754 33.9882C9.64395 38.6984 15.7324 43.6207 22.0722 46.5243C22.811 46.8608 23.1362 47.7311 22.7963 48.4625C22.545 48.9964 22.013 49.3109 21.4515 49.3109H21.4589Z" fill="#213E7A"/>
<path d="M56.2812 51.1461C60.5151 50.8828 62.7392 52.3822 66.1307 54.8543C67.6085 55.9367 68.9237 57.2971 69.7809 58.9208C70.6601 60.5884 70.6084 62.7607 70.4163 64.5891C70.3572 65.145 70.4163 66.2714 71.1847 66.3445C72.6182 66.4835 72.5591 63.6091 73.9039 63.375C75.8398 63.0386 78.2486 68.0048 80.6943 66.147C81.5662 65.4888 81.6327 64.4063 81.4111 63.4189C80.7165 60.3836 78.4555 57.5092 76.4605 55.1761C72.234 50.2245 65.0224 46.2019 58.7787 44.2637" fill="#3B84F5"/>
<path d="M79.5724 68.0493C77.9616 68.0493 76.5281 66.7913 75.5602 65.9429C75.1907 65.621 74.6218 65.1164 74.2671 64.9116C74.1711 65.0871 74.0602 65.3358 73.9789 65.504C73.5873 66.3744 72.8706 67.9834 71.0455 67.8079C70.4618 67.7494 69.9372 67.4715 69.5677 67.018C68.8584 66.1476 68.9027 64.9262 68.9545 64.4435C69.1096 63.0392 69.2279 61.0059 68.4816 59.609C67.7796 58.2925 66.7008 57.093 65.2674 56.0471C61.9645 53.6408 60.0803 52.3901 56.3859 52.6168C55.5805 52.6607 54.8711 52.0537 54.8194 51.2491C54.7677 50.4446 55.3884 49.7498 56.2011 49.6986C61.137 49.3914 63.8561 51.3881 67.0186 53.692C68.8215 55.0085 70.1884 56.5371 71.0973 58.2559C71.8805 59.7406 72.0504 61.4813 72.0135 63.0026C72.3903 62.5126 72.9002 62.0884 73.6538 61.9568C75.1686 61.6935 76.4173 62.7905 77.5256 63.7633C78.9295 64.9994 79.4468 65.2773 79.8014 65.0067C80.1192 64.7653 80.0748 64.1948 79.9714 63.7633C79.3729 61.1303 77.3852 58.5411 75.3385 56.1422C71.681 51.8562 65.0088 47.7531 58.3439 45.6832C57.5681 45.4419 57.1322 44.6227 57.376 43.8474C57.6198 43.0794 58.4474 42.6479 59.2306 42.8893C64.9349 44.6593 72.7524 48.5722 77.5995 54.2552C79.8975 56.9467 82.1216 59.8796 82.8605 63.1197C83.2668 64.9116 82.8235 66.4109 81.6043 67.3325C80.9098 67.8591 80.23 68.0639 79.5798 68.0639L79.5724 68.0493Z" fill="#213E7A"/>
<path d="M10.7431 54.1382C10.5288 53.2751 10.5362 52.4487 11.1791 51.7319C12.6938 51.0078 13.6396 51.9586 14.6962 52.807C15.2799 53.2825 15.9006 54.087 16.8686 53.4361C17.77 52.829 17.4892 51.9879 17.2528 51.2053C14.0903 40.7463 17.7774 31.5235 22.5137 22.4761C22.8979 21.7447 23.3782 21.2693 24.2353 21.3351C25.1516 21.4083 25.3954 22.1323 25.6614 22.8345C25.9348 23.5732 25.957 24.5679 27.0579 24.6264C28.181 24.6849 28.6096 23.7707 29.0234 22.9808C32.1267 16.9979 33.6858 10.7299 32.6513 3.9718C32.2967 1.66791 33.1612 0.856058 35.2301 1.91658C43.7865 6.28301 51.6926 11.4247 55.8452 20.5818C56.6728 22.403 57.0496 24.3119 57.227 26.294C57.5151 29.5779 58.2614 29.9071 60.9731 27.9031C62.2884 26.9303 63.382 25.6284 65.2661 25.8771C66.0198 28.7442 67.0247 36.1166 67.1281 36.9431C67.8818 43.1014 67.8153 49.2378 66.4927 55.3157C63.3228 69.8778 53.3404 78.4498 38.8802 78.5302C28.1145 78.5887 19.6985 74.098 14.2455 64.6191C12.3539 61.3278 11.9401 57.6123 10.7579 54.1236L10.7431 54.1382Z" fill="#3B84F5"/>
<path d="M38.6526 80.0009C27.185 80.0009 18.5325 75.0713 12.9465 65.3511C11.6091 63.018 10.9663 60.5385 10.353 58.1469C10.0352 56.9108 9.7323 55.7479 9.34807 54.5996C9.3333 54.563 9.32591 54.5191 9.31113 54.4753C9.17813 53.9194 8.75696 52.2299 10.0722 50.7525C10.2052 50.6062 10.3604 50.4892 10.5377 50.4014C12.7839 49.3335 14.3504 50.6135 15.3848 51.4692L15.6287 51.6667C15.7247 51.7472 15.8282 51.8349 15.9242 51.9227C15.9021 51.8349 15.8725 51.7472 15.8503 51.6667C12.3775 40.1692 16.7887 30.2222 21.1999 21.8038C21.9241 20.4215 22.9881 19.7706 24.3476 19.8803C26.1875 20.0192 26.749 21.5478 27.0224 22.2792C27.1111 22.5133 27.1628 22.7035 27.2219 22.8936C27.2367 22.9375 27.2515 22.996 27.2663 23.0472C27.414 22.879 27.5618 22.5864 27.6505 22.4109L27.7022 22.3158C30.9533 16.0478 32.0912 10.1235 31.1824 4.19184C30.909 2.39261 31.2563 1.13461 32.2169 0.45441C33.1479 -0.211159 34.3892 -0.152648 35.8965 0.615317C44.3495 4.93055 52.7729 10.2624 57.1841 19.9827C57.9969 21.7819 58.4771 23.7493 58.684 26.1703C58.7432 26.8431 58.817 27.26 58.8762 27.5233C59.12 27.3917 59.5042 27.1576 60.0806 26.7334C60.3096 26.5652 60.5313 26.3824 60.7529 26.1995C61.8835 25.2853 63.2874 24.137 65.4449 24.4222C66.0434 24.5027 66.5311 24.9269 66.6789 25.5047C67.4621 28.4668 68.467 35.8247 68.5778 36.7682C69.4128 43.5775 69.1985 49.7504 67.9202 55.6236C64.5656 71.0267 53.9773 79.9132 38.8669 79.9936C38.793 79.9936 38.7191 79.9936 38.6526 79.9936V80.0009ZM12.1633 53.7365C12.577 54.9653 12.9022 56.216 13.2125 57.4301C13.811 59.7413 14.3726 61.9282 15.5178 63.9103C20.5423 72.6504 28.3303 77.0827 38.66 77.0827C38.7265 77.0827 38.793 77.0827 38.8521 77.0827C52.4478 77.0095 61.9943 68.9715 65.0311 55.0238C66.2429 49.4725 66.4424 43.6214 65.6444 37.1339C65.5484 36.3659 64.7799 30.7122 64.1001 27.4648C63.6642 27.6477 63.2209 27.9914 62.6223 28.4742C62.3637 28.679 62.1051 28.8911 61.8465 29.0885C60.5239 30.0686 58.987 31.056 57.5683 30.427C56.1496 29.798 55.8836 28.0353 55.7432 26.4336C55.5585 24.3491 55.1595 22.6815 54.4871 21.1968C50.4528 12.2884 42.517 7.30027 34.5444 3.23371C34.3375 3.124 34.1749 3.05818 34.0493 3.01429C34.0493 3.18251 34.0493 3.43119 34.1084 3.76763C35.1133 10.3282 33.8794 16.8377 30.3327 23.6689L30.2883 23.7567C29.845 24.6197 29.0322 26.2141 26.9781 26.1044C25.0422 26.002 24.5767 24.393 24.3846 23.7055C24.3476 23.5884 24.3181 23.4714 24.2811 23.3617C24.2072 23.1642 24.126 22.9375 24.0595 22.8132C24.0521 22.8278 23.9634 22.9156 23.8304 23.1642C18.6877 32.9869 15.8503 41.4418 18.6729 50.7963C18.9241 51.6228 19.4783 53.4586 17.6976 54.6508C15.9242 55.843 14.5056 54.5996 13.9736 54.1315C13.8997 54.0657 13.8332 54.0072 13.7593 53.9487L13.4933 53.7365C12.7174 53.1002 12.4145 52.9174 12.1337 52.954C12.082 53.1075 12.0672 53.3416 12.1633 53.7439V53.7365Z" fill="#213E7A"/>
<path d="M46.0488 49.5906C49.5868 49.5906 52.455 46.7515 52.455 43.2494C52.455 39.7473 49.5868 36.9082 46.0488 36.9082C42.5107 36.9082 39.6426 39.7473 39.6426 43.2494C39.6426 46.7515 42.5107 49.5906 46.0488 49.5906Z" fill="white"/>
<path d="M44.8964 45.8452C46.5532 45.8452 47.8963 44.5157 47.8963 42.8757C47.8963 41.2357 46.5532 39.9062 44.8964 39.9062C43.2396 39.9062 41.8965 41.2357 41.8965 42.8757C41.8965 44.5157 43.2396 45.8452 44.8964 45.8452Z" fill="#213E7A"/>
<path d="M33.9082 49.2898C37.4462 49.2898 40.3144 46.4508 40.3144 42.9486C40.3144 39.4465 37.4462 36.6074 33.9082 36.6074C30.3701 36.6074 27.502 39.4465 27.502 42.9486C27.502 46.4508 30.3701 49.2898 33.9082 49.2898Z" fill="white"/>
<path d="M35.0019 45.3979C36.6587 45.3979 38.0018 44.0684 38.0018 42.4284C38.0018 40.7885 36.6587 39.459 35.0019 39.459C33.3451 39.459 32.002 40.7885 32.002 42.4284C32.002 44.0684 33.3451 45.3979 35.0019 45.3979Z" fill="#213E7A"/>
<path d="M56.9553 45.9106C58.2326 45.9106 59.2681 44.8856 59.2681 43.6213C59.2681 42.357 58.2326 41.332 56.9553 41.332C55.678 41.332 54.6426 42.357 54.6426 43.6213C54.6426 44.8856 55.678 45.9106 56.9553 45.9106Z" fill="#FFCA3F"/>
<path d="M23.092 46.0785C24.3693 46.0785 25.4048 45.0536 25.4048 43.7893C25.4048 42.5249 24.3693 41.5 23.092 41.5C21.8147 41.5 20.7793 42.5249 20.7793 43.7893C20.7793 45.0536 21.8147 46.0785 23.092 46.0785Z" fill="#FFCA3F"/>
<path d="M25.5521 53.9484C27.7687 51.0814 31.6036 52.8294 34.0124 54.5189C39.1699 57.9053 41.6082 54.6433 46.2189 52.7197C48.3322 52.0468 50.1351 52.4052 51.4577 54.1679C52.7877 55.9452 51.7237 57.9711 50.4602 59.4778C49.1228 61.0722 47.4012 62.3741 45.4874 63.303C44.0909 61.9719 41.4678 61.0722 38.4531 61.0722C35.4385 61.0722 32.7415 61.9938 31.3598 63.3542C29.446 62.4985 27.7318 61.2405 26.3501 59.4705C25.1087 57.8687 24.0817 55.7331 25.5594 53.9484H25.5521Z" fill="#213E7A" stroke="#213E7A" stroke-width="2" stroke-linecap="round" stroke-linejoin="round"/>
<path d="M45.487 63.3039C43.1743 64.4303 40.5734 65.0081 38.0242 64.8618C35.6745 64.7301 33.4061 64.2693 31.3594 63.3478C32.7411 61.9874 35.4159 60.6562 38.4675 60.6562C41.5192 60.6562 44.0979 61.9654 45.487 63.2966V63.3039Z" fill="#E13E6B" stroke="#213E7A" stroke-width="2" stroke-linecap="round" stroke-linejoin="round"/>
</g>
<defs>
<clipPath id="clip0_1045_67699">
<rect width="83" height="80" fill="white"/>
</clipPath>
</defs>
</svg>
