<svg width="124" height="124" viewBox="0 0 124 124" fill="none" xmlns="http://www.w3.org/2000/svg">
<g clip-path="url(#clip0_1282_66870)">
<path d="M85.8462 0H38.1538C17.0821 0 0 17.0821 0 38.1538V85.8462C0 106.918 17.0821 124 38.1538 124H85.8462C106.918 124 124 106.918 124 85.8462V38.1538C124 17.0821 106.918 0 85.8462 0Z" fill="#FD9F28"/>
<path d="M36.3155 54.5453C36.3155 44.6098 40.857 36.5562 46.4503 36.5562C49.1274 36.5562 51.5495 38.4062 53.3661 41.4203C51.1671 32.7926 46.3069 26.7803 40.6499 26.7803C32.9373 26.7803 26.6748 37.9118 26.6748 51.6428C26.6748 65.3738 32.9214 76.5053 40.6499 76.5053C43.566 76.5053 46.275 74.9105 48.5218 72.1835C47.8526 72.4227 47.1674 72.5503 46.4662 72.5503C40.873 72.5503 36.3315 64.4967 36.3315 54.5612L36.3155 54.5453Z" fill="white"/>
<path d="M40.6339 79.2804C31.2321 79.2804 23.8701 67.1282 23.8701 51.627C23.8701 36.1258 31.2321 23.9736 40.6339 23.9736C47.5178 23.9736 53.4297 30.3846 56.059 40.7188C56.3937 42.0584 55.7085 43.4458 54.4337 43.988C53.1589 44.5143 51.6769 44.0359 50.9757 42.8558C49.6372 40.6231 47.9799 39.3472 46.4502 39.3472C42.9763 39.3472 39.12 45.5988 39.12 54.5454C39.12 63.4921 42.9923 69.7596 46.4502 69.7596C46.8167 69.7596 47.1832 69.6958 47.5497 69.5523C48.7289 69.1217 50.0515 69.5363 50.7845 70.557C51.5175 71.5776 51.4538 72.9651 50.657 73.9379C47.7887 77.4305 44.3149 79.2804 40.6339 79.2804ZM40.6339 29.5713C34.0526 29.5713 29.4474 41.1972 29.4474 51.6429C29.4474 62.0887 34.0367 73.7146 40.6339 73.7146C40.8569 73.7146 41.0641 73.7146 41.2872 73.6668C36.6819 70.5251 33.5268 63.237 33.5268 54.5454C33.5268 42.8877 39.1997 33.7655 46.4342 33.7655C46.6255 33.7655 46.8326 33.7655 47.0238 33.7815C45.1435 31.1182 42.8966 29.5713 40.6339 29.5713Z" fill="#213E7A"/>
<path d="M53.3504 41.4207C51.5338 38.4066 49.1116 36.5566 46.4345 36.5566C40.8413 36.5566 36.2998 44.6103 36.2998 54.5457C36.2998 64.4811 40.8413 72.5347 46.4345 72.5347C47.1357 72.5347 47.8209 72.4072 48.4902 72.1679C52.1712 67.6866 54.5933 60.1593 54.5933 51.6273C54.5933 47.9752 54.1471 44.5305 53.3504 41.4048V41.4207Z" fill="#213E7A"/>
<path d="M46.4504 75.3414C39.2159 75.3414 33.543 66.2033 33.543 54.5455C33.543 42.8877 39.2159 33.7656 46.4504 33.7656C50.0358 33.7656 53.3344 35.9664 55.7406 39.9852C55.884 40.2245 55.9796 40.4796 56.0593 40.7348C56.9357 44.2114 57.3978 47.8794 57.3978 51.643C57.3978 60.4781 54.8801 68.8187 50.6732 73.9539C50.3545 74.3367 49.9402 74.6237 49.4781 74.7991C48.4901 75.1659 47.4703 75.3414 46.4663 75.3414H46.4504ZM46.4504 39.3473C42.9766 39.3473 39.1203 45.5989 39.1203 54.5455C39.1203 63.4922 43.2953 70.2381 46.8807 69.7278C49.988 65.5016 51.8205 58.8355 51.8205 51.643C51.8205 48.4854 51.47 45.4234 50.7688 42.5209C49.4621 40.4956 47.9164 39.3473 46.4663 39.3473H46.4504Z" fill="#213E7A"/>
<path d="M80.1691 54.7211C80.1691 44.7856 84.7106 36.732 90.3038 36.732C92.9809 36.732 95.403 38.582 97.2196 41.5961C95.0206 32.9684 90.1604 26.9561 84.5034 26.9561C76.7908 26.9561 70.5283 38.0876 70.5283 51.8186C70.5283 65.5496 76.7749 76.6811 84.5034 76.6811C87.4195 76.6811 90.1285 75.0863 92.3754 72.3593C91.7061 72.5985 91.0209 72.726 90.3197 72.726C84.7265 72.726 80.185 64.6724 80.185 54.737L80.1691 54.7211Z" fill="white"/>
<path d="M84.4874 79.4562C75.0857 79.4562 67.7236 67.304 67.7236 51.8028C67.7236 36.3016 75.0857 24.1494 84.4874 24.1494C91.3713 24.1494 97.2833 30.5604 99.9126 40.8945C100.247 42.2341 99.562 43.6216 98.2872 44.1638C97.0124 44.6901 95.5304 44.2117 94.8293 43.0315C93.4907 40.7989 91.8335 39.523 90.3037 39.523C86.8298 39.523 82.9576 45.7745 82.9576 54.7212C82.9576 63.6679 86.8298 69.9354 90.3037 69.9354C90.6702 69.9354 91.0208 69.8716 91.4032 69.7281C92.5824 69.2975 93.905 69.7121 94.638 70.7327C95.3711 71.7534 95.3073 73.1409 94.5106 74.1137C91.6422 77.6062 88.1684 79.4562 84.4874 79.4562ZM84.4874 29.7311C77.9062 29.7311 73.3009 41.357 73.3009 51.8028C73.3009 62.2486 77.8902 73.8744 84.4874 73.8744C84.7105 73.8744 84.9176 73.8744 85.1407 73.8266C80.5355 70.6849 77.3803 63.3968 77.3803 54.7053C77.3803 43.0475 83.0532 33.9254 90.3037 33.9254C90.4949 33.9254 90.6861 33.9254 90.8933 33.9413C89.0129 31.278 86.7661 29.7311 84.5033 29.7311H84.4874Z" fill="#213E7A"/>
<path d="M97.2029 41.5808C95.3863 38.5667 92.9642 36.7168 90.2871 36.7168C84.6939 36.7168 80.1523 44.7704 80.1523 54.7058C80.1523 64.6413 84.6939 72.6949 90.2871 72.6949C90.9882 72.6949 91.6734 72.5673 92.3427 72.3281C96.0237 67.8468 98.4459 60.3194 98.4459 51.7874C98.4459 48.1354 97.9997 44.6907 97.2029 41.5649V41.5808Z" fill="#213E7A"/>
<path d="M90.3033 75.5015C83.0687 75.5015 77.3799 66.3635 77.3799 54.7057C77.3799 43.0479 83.0528 33.9258 90.3033 33.9258C93.8887 33.9258 97.1872 36.1266 99.5934 40.1454C99.7368 40.3846 99.8325 40.6398 99.9121 40.8949C100.789 44.3715 101.251 48.0395 101.251 51.8032C101.251 60.6382 98.7329 68.9789 94.5261 74.1141C94.2074 74.4968 93.793 74.7839 93.3309 74.9593C92.3429 75.3261 91.3231 75.5015 90.3192 75.5015H90.3033ZM90.3033 39.5075C86.8294 39.5075 82.9572 45.759 82.9572 54.7057C82.9572 64.0351 87.1162 70.3823 90.7176 69.8879C93.8249 65.6618 95.6575 58.9956 95.6575 51.8032C95.6575 48.6455 95.3069 45.5836 94.6057 42.6811C93.2991 40.6557 91.7534 39.5075 90.3033 39.5075Z" fill="#213E7A"/>
<path d="M66.0176 76.49C65.2528 76.49 64.6154 75.884 64.5835 75.1185C64.5676 74.7039 64.3445 72.6307 62.5597 72.6307C60.536 72.6307 59.9623 74.8155 59.8986 75.0707C59.7233 75.8362 58.9584 76.3306 58.1776 76.1551C57.4127 75.9797 56.9187 75.2302 57.094 74.4487C57.4445 72.822 59.054 69.7441 62.5597 69.7441C66.0654 69.7441 67.3721 73.1729 67.4518 74.975C67.4837 75.7724 66.8781 76.4422 66.0814 76.4741C66.0654 76.4741 66.0336 76.4741 66.0176 76.4741V76.49Z" fill="#213E7A"/>
<path d="M66.018 77.6859C64.5998 77.6859 63.4524 76.5855 63.3887 75.1662C63.3728 74.8631 63.2612 73.8265 62.5601 73.8265C61.4446 73.8265 61.11 75.1821 61.0622 75.3416C60.7275 76.745 59.3252 77.6381 57.923 77.3191C56.5207 77.0001 55.6283 75.5967 55.9311 74.1933C56.3613 72.2477 58.2895 68.5479 62.5601 68.5479C67.1494 68.5479 68.5517 72.7262 68.6473 74.9269C68.711 76.3782 67.5796 77.6062 66.1295 77.6859H66.0021H66.018ZM62.5601 71.4344C64.7751 71.4344 65.6674 73.38 65.779 75.0545C65.779 75.1981 65.8905 75.2938 66.018 75.3097C66.1773 75.3097 66.273 75.1821 66.273 75.0545C66.273 74.8951 66.0499 70.956 62.576 70.956C59.1022 70.956 58.2895 74.6718 58.2735 74.7196C58.2417 74.8472 58.3213 74.9748 58.4647 75.0067C58.5922 75.0386 58.7197 74.9588 58.7516 74.8153C59.0384 73.5714 60.1698 71.4503 62.576 71.4503L62.5601 71.4344Z" fill="#213E7A"/>
<path d="M61.7313 101.288C51.8356 101.288 45.605 97.1573 42.1311 93.6807C38.3545 89.9011 36.9363 86.1374 36.8725 85.9779C36.6016 85.2603 36.9681 84.4629 37.6852 84.2077C38.4023 83.9366 39.199 84.3034 39.454 85.0211C39.6612 85.5952 44.7126 98.5129 61.7154 98.5129C78.7181 98.5129 83.0047 85.6271 83.18 85.0689C83.419 84.3353 84.1998 83.9367 84.9169 84.1759C85.6499 84.4151 86.0483 85.1806 85.8093 85.9142C85.7615 86.0736 80.7419 101.288 61.6994 101.288H61.7313Z" fill="#213E7A"/>
<path d="M61.7313 102.484C51.4213 102.484 44.9198 98.1623 41.2866 94.5262C37.4143 90.6509 35.9164 86.8234 35.7571 86.3928C35.2631 85.0532 35.9483 83.5701 37.2869 83.0757C37.9243 82.8365 38.6254 82.8684 39.2469 83.1555C39.8684 83.4425 40.3464 83.9528 40.5854 84.6067C40.7767 85.117 45.5253 97.317 61.7313 97.317C77.9373 97.317 81.9052 85.2287 82.0645 84.7183C82.4948 83.3628 83.9449 82.6132 85.2994 83.0438C86.6379 83.4744 87.4028 84.9257 86.9725 86.2653C86.9247 86.4247 81.5865 102.468 61.7313 102.468V102.484ZM38.1474 85.3244C38.1474 85.3244 38.1155 85.3244 38.0996 85.3244C38.0039 85.3562 37.9561 85.4679 37.988 85.5636C38.0358 85.7071 39.3903 89.2634 42.9598 92.8357C46.2743 96.1529 52.2181 100.092 61.7154 100.092C79.738 100.092 84.646 85.7071 84.6938 85.5476C84.7257 85.4519 84.662 85.3562 84.5663 85.3244C84.4707 85.2925 84.3592 85.3562 84.3273 85.4519C84.1361 86.026 79.5627 99.7252 61.7154 99.7252C43.8681 99.7252 38.5457 86.026 38.3226 85.4519C38.2908 85.3881 38.2111 85.3244 38.1314 85.3244H38.1474Z" fill="#213E7A"/>
<path d="M23.567 91.3365C28.821 91.3365 33.0802 88.759 33.0802 85.5794C33.0802 82.3998 28.821 79.8223 23.567 79.8223C18.3129 79.8223 14.0537 82.3998 14.0537 85.5794C14.0537 88.759 18.3129 91.3365 23.567 91.3365Z" fill="#FF3EA8"/>
<path d="M100.247 89.9977C105.501 89.9977 109.76 87.4201 109.76 84.2405C109.76 81.061 105.501 78.4834 100.247 78.4834C94.9926 78.4834 90.7334 81.061 90.7334 84.2405C90.7334 87.4201 94.9926 89.9977 100.247 89.9977Z" fill="#FF3EA8"/>
</g>
<defs>
<clipPath id="clip0_1282_66870">
<rect width="124" height="124" fill="white"/>
</clipPath>
</defs>
</svg>
