<svg width="1354" height="340" viewBox="0 0 1354 340" fill="none" xmlns="http://www.w3.org/2000/svg">
<path d="M87.3438 111.914V122.578H2.74219V111.914H38.3906V93.0234H11.6797V47.7266H77.8984V93.0234H51.2891V111.914H87.3438ZM24.4766 58.0859V82.8672H65.1016V58.0859H24.4766ZM164.052 73.8281V83.9844H100.169V45.7969H163.138V56.1562H113.474V73.8281H164.052ZM174.005 93.3281V103.586H137.849V133.242H125.052V103.586H89.4034V93.3281H174.005ZM270.038 40.9219V75.25H283.648V85.8125H270.038V133.547H257.038V40.9219H270.038ZM244.14 49.4531V59.9141H213.671V100.438C227.077 100.285 238.148 99.6758 250.437 97.4922L251.859 108.359C237.538 110.797 224.945 111.203 208.593 111.102H200.773V49.4531H244.14Z" fill="white"/>
<path d="M1259.52 40.9219V98.9141H1247.23V74.3359H1239.82V95.8672H1227.73V42.6484H1239.82V63.7734H1247.23V40.9219H1259.52ZM1224.99 50.4688V60.5234H1179.59V50.4688H1195.94V41.7344H1208.84V50.4688H1224.99ZM1202.44 63.5703C1214.22 63.5703 1222.55 70.0703 1222.65 79.7188C1222.55 89.2656 1214.22 95.7656 1202.44 95.7656C1190.86 95.7656 1182.43 89.2656 1182.43 79.7188C1182.43 70.0703 1190.86 63.5703 1202.44 63.5703ZM1202.44 72.9141C1197.36 72.9141 1194.01 75.4531 1194.01 79.7188C1194.01 83.9844 1197.36 86.625 1202.44 86.5234C1207.52 86.625 1210.87 83.9844 1210.97 79.7188C1210.87 75.4531 1207.52 72.9141 1202.44 72.9141ZM1227.93 99.7266C1247.94 99.7266 1259.92 105.82 1260.03 116.586C1259.92 127.25 1247.94 133.344 1227.93 133.344C1208.03 133.344 1195.94 127.25 1195.94 116.586C1195.94 105.82 1208.03 99.7266 1227.93 99.7266ZM1227.93 109.477C1215.44 109.477 1208.84 111.711 1208.94 116.586C1208.84 121.258 1215.44 123.594 1227.93 123.594C1240.53 123.594 1246.92 121.258 1246.92 116.586C1246.92 111.711 1240.53 109.477 1227.93 109.477ZM1351.16 86.7266V97.1875H1266.86V86.7266H1302.41V78.9062H1277.62V43.1562H1290.42V51.5859H1327.49V43.1562H1340.39V78.9062H1315.41V86.7266H1351.16ZM1340.9 103.484V133.344H1328V113.742H1276.2V103.484H1340.9ZM1290.42 68.75H1327.49V61.1328H1290.42V68.75Z" fill="white"/>
<g clip-path="url(#clip0_1338_78215)">
<path d="M581.307 102.276C597.902 101.679 601.774 107.189 595.87 120.724C594.029 124.939 591.452 128.99 588.506 132.507C583.669 138.271 577.434 139.947 570.883 135.478C564.204 130.907 565.652 123.885 568.47 118.426C573.486 108.687 579.872 99.66 585.751 90.3786C587.097 88.2583 588.709 86.3284 588.988 83.078C577.777 88.0551 566.566 93.045 555.355 98.0221C554.809 97.146 554.263 96.2699 553.717 95.3939C554.986 93.9718 555.99 91.8642 557.577 91.2293C566.16 87.7377 574.844 84.4619 583.618 81.4655C585.954 80.6656 588.722 81.1481 591.299 81.0338C590.817 83.5605 590.868 86.3664 589.738 88.5757C587.541 92.8926 584.697 96.8794 581.32 102.288L581.307 102.276ZM593.928 111.95C592.137 110.808 589.357 107.659 586.259 107.303C578.018 106.351 571.987 113.499 571.454 123.213C571.149 128.888 573.816 132.367 579.034 133.294C584.519 134.284 593.293 122.844 593.928 111.95Z" fill="white"/>
<path d="M628.388 46.3711C628.972 69.1491 629.531 90.721 630.077 111.95C640.729 109.068 651.153 106.249 661.59 103.43C661.857 104.154 662.136 104.878 662.403 105.602C655.204 108.433 648.119 111.582 640.793 114.032C629.734 117.727 629.67 117.524 631.042 129.484C631.245 131.3 631.397 133.128 631.651 135.795C622.903 125.18 620.199 56.465 628.401 46.3711H628.388Z" fill="white"/>
<path d="M1013.89 106.122C1010.22 111.607 1006.41 117.003 1002.92 122.602C1000.63 126.259 998.563 130.094 996.862 134.055C993.573 141.686 985.409 141.064 981.435 139.172C970.097 133.763 966.224 139.857 962.504 148.237C962.072 149.19 961.209 149.951 960.371 151.031C961.285 139.261 975.925 102.351 982.083 97.7422C979.378 106.566 977.436 114.654 974.401 122.31C972.065 128.189 973.296 130.678 979.315 132.404C990.793 135.68 992.037 135.426 998.017 125.002C1001.71 118.565 1005.48 112.153 1009.3 105.779C1009.65 105.208 1010.62 105.017 1011.31 104.649C1012.17 105.144 1013.04 105.627 1013.9 106.122H1013.89Z" fill="white"/>
<path d="M961.298 51.3991C968.472 45.3935 975.379 46.9298 979.67 50.7896C982.502 53.3417 983.784 61.2264 981.93 64.6545C977.156 73.4534 970.833 81.6428 964.015 89.045C959.025 94.4539 951.369 93.1715 946.328 87.7754C939.739 80.7033 941.681 64.7561 950.379 58.1538C949.287 63.6134 947.281 68.7175 947.598 73.6692C947.865 77.8719 949.909 84.271 952.842 85.4138C956.359 86.7977 962.695 84.8805 965.932 82.1634C970.617 78.2274 974.388 72.6662 977.131 67.105C981.054 59.1822 978.756 55.4112 970.249 53.3036C967.722 52.6814 965.158 52.2244 961.298 51.3991Z" fill="white"/>
<path d="M675.074 137.09C676.776 135.198 678.261 131.947 680.204 131.643C688.165 130.424 687.542 125.701 686.997 119.581C686.285 111.658 686.781 103.596 687.212 95.6092C687.352 92.9937 688.952 90.4544 691.783 88.3086C691.415 101.272 691.059 114.235 690.653 128.583C702.969 126.78 714.688 125.066 726.395 123.352C726.623 124.406 726.864 125.447 727.093 126.501C710.282 130.703 693.459 134.906 676.649 139.121C676.128 138.448 675.607 137.775 675.087 137.102L675.074 137.09Z" fill="white"/>
<path d="M1066.06 110.985C1066.57 121.308 1066.96 131.643 1067.64 141.966C1067.81 144.53 1068.88 147.019 1069.52 149.558C1072.23 148.555 1075.69 148.301 1077.48 146.435C1084.05 139.553 1090.07 132.151 1096.99 125.523C1090.91 137.496 1084.53 149.393 1071.68 155.462C1069.68 156.415 1063.18 153.443 1063 151.818C1061.63 139.312 1061.23 126.691 1060.8 114.096C1060.76 112.941 1062.58 111.709 1063.54 110.516C1064.38 110.668 1065.22 110.833 1066.06 110.985Z" fill="white"/>
<path d="M414.027 45.9649C416.592 63.2452 419.169 80.5255 421.734 97.8059L419.677 98.3772C416.884 88.4737 414.103 78.5702 410.84 66.9907C399.667 73.7581 388.544 80.5001 377.435 87.2294L376.076 86.62C377.739 84.0171 378.819 80.5001 381.18 78.9892C387.897 74.7104 394.842 70.457 402.244 67.7145C409.367 65.0735 412.973 61.9882 410.573 53.9385C409.85 51.5007 411.056 48.4788 411.386 45.7363C412.262 45.8125 413.138 45.8887 414.014 45.9776L414.027 45.9649Z" fill="white"/>
<path d="M874.109 154.865C881.22 138.791 888.33 122.717 895.44 106.643C896.697 107.125 897.941 107.608 899.198 108.103C896.595 114.692 894.005 121.269 891.212 128.341C903.007 129.281 914.155 130.17 925.303 131.058C925.404 131.833 925.519 132.608 925.62 133.382C917.57 134.03 909.267 136.213 901.509 134.956C891.542 133.357 885.79 135.769 882.413 145.254C881.042 149.101 878.249 152.453 876.115 156.033L874.109 154.865Z" fill="white"/>
<path d="M500.53 102.477C504.225 98.922 510.002 97.7539 515.868 100.865C521.988 104.102 523.016 110.413 520.591 116.025C517.697 122.716 513.964 129.407 509.152 134.803C504.403 140.11 492.582 137.685 488.583 131.756C485.447 127.122 487.631 120.075 493.471 115.961C493.623 116.482 494.042 117.104 493.877 117.472C491.605 122.665 490.348 127.782 496.785 130.842C503.146 133.864 508.987 130.981 511.894 125.928C514.662 121.129 517.176 113.765 515.322 109.473C513.71 105.753 505.812 104.75 500.543 102.477H500.53Z" fill="white"/>
<path d="M361.577 110.401C365.488 90.8097 369.411 71.2186 373.626 50.0657C364.091 53.6335 355.94 56.6808 347.865 59.6899C346.938 52.1988 362.123 44.9235 378.096 46.3837C373.461 67.9809 368.865 89.4258 364.282 110.871C363.38 110.706 362.479 110.553 361.59 110.401H361.577Z" fill="white"/>
<path d="M460.219 48.8584C464.904 42.2434 473.081 43.9447 480.318 40.5039C482.857 61.5298 464.752 77.6801 469.779 97.8172C463.875 96.6872 462.657 95.2144 464.498 88.5359C467.494 77.6801 471.1 66.9894 474.426 56.2225C475.201 53.734 475.887 51.2327 476.953 47.5506C470.757 49.0235 465.945 50.1789 461.133 51.3216L460.219 48.8584Z" fill="white"/>
<path d="M399.768 117.791L398.968 146.13C410.484 142.296 420.947 138.817 431.409 135.325C422.369 144.048 411.513 148.835 399.806 151.628C398.257 151.996 394.588 149.901 394.41 148.606C392.937 138.017 393.687 127.555 397.216 117.512C398.067 117.613 398.918 117.702 399.768 117.804V117.791Z" fill="white"/>
<path d="M877.486 72.4619C876.242 69.0846 875.988 64.336 873.613 62.7489C868.344 59.2446 854.53 61.1237 852.651 64.8692C851.699 66.7611 852.131 69.5417 852.461 71.8525C853.362 78.1882 854.543 84.4858 855.609 90.7961C854.441 91.0373 853.286 91.2913 852.118 91.5325C850.226 83.2161 847.75 74.9505 846.836 66.5198C846.595 64.2852 850.861 61.1364 853.578 59.1049C858.834 55.1689 872.179 55.4228 877.08 59.4858C882.654 64.082 878.845 68.7164 877.473 72.4619H877.486Z" fill="white"/>
<path d="M1042.12 39.9717C1042.39 46.1043 1042.75 52.2241 1042.91 58.3567C1043.17 67.5745 1044.27 68.476 1053.25 65.8478C1055.6 65.1621 1057.77 63.8544 1060.04 62.864C1061.96 62.026 1063.9 61.2515 1066.74 61.8737C1063.14 64.5781 1059.71 67.5872 1055.89 69.9361C1044.71 76.767 1038.18 73.2754 1037.62 60.4008C1037.41 55.7157 1036.92 51.0179 1037.1 46.3455C1037.19 44.0855 1038.51 41.8762 1039.27 39.6289C1040.22 39.7432 1041.18 39.8701 1042.14 39.9844L1042.12 39.9717Z" fill="white"/>
<path d="M901.52 44.873C903.057 63.9944 904.529 82.3413 906.104 101.78C897.445 89.5403 894.105 51.45 901.52 44.873Z" fill="white"/>
<path d="M503.743 38.7773C505.343 57.3781 506.93 75.9916 508.529 94.5924C507.717 94.6559 506.904 94.7321 506.092 94.7956C500.797 76.4233 499.299 57.7083 500.162 38.7773C501.356 38.7773 502.549 38.7773 503.743 38.7773Z" fill="white"/>
<path d="M1084.2 81.4902C1073.28 92.7142 1043.36 105.081 1034.08 103.1C1037.83 95.863 1045.4 98.3516 1050.24 95.7614C1055.55 92.9173 1061.15 90.5811 1066.72 88.2576C1072.48 85.8579 1078.38 83.7376 1084.2 81.5029V81.4902Z" fill="white"/>
<path d="M1000.71 86.3148C996.188 75.8273 990.741 38.0924 994.334 32.6074C999.006 51.0812 1003.72 67.7394 1000.71 86.3148Z" fill="white"/>
<path d="M675.836 66.5591C683.327 64.0579 690.729 61.1249 698.398 59.4109C699.973 59.0553 704.023 63.0548 704.455 65.4926C705.965 74.0503 706.397 82.7983 707.248 91.4702C706.321 91.6226 705.381 91.775 704.455 91.9273C703.451 86.5185 702.372 81.1097 701.433 75.6881C698.982 61.4804 698.017 60.9726 685.473 67.2321C683.505 68.2097 681.486 69.0985 679.416 69.8476C678.756 70.0889 677.88 69.7206 677.093 69.6318C676.674 68.6033 676.255 67.5749 675.836 66.5465V66.5591Z" fill="white"/>
<path d="M885.32 93.8179C875.62 97.3984 865.919 100.966 856.219 104.547C855.673 103.607 855.14 102.668 854.594 101.741C860.434 94.7702 866.287 87.7996 872.128 80.8164C872.572 81.0703 873.004 81.337 873.448 81.5909C870.173 86.3522 866.897 91.1135 863.621 95.8748C864.066 96.5731 864.523 97.2841 864.967 97.9825C871.404 95.6209 877.829 93.272 884.266 90.9103C884.622 91.8753 884.964 92.8403 885.32 93.8052V93.8179Z" fill="white"/>
<path d="M1026.49 139.794C1019.05 136.251 1011.61 132.709 1004.05 129.103C1008.91 123.351 1024.29 129.458 1026.49 139.794Z" fill="white"/>
<path d="M585.713 45.4692C578.057 48.8085 570.413 52.135 562.363 55.6394C564.204 47.9832 573.346 43.7171 585.713 45.4692Z" fill="white"/>
<path d="M528.49 61.7213C524.186 64.0702 519.869 66.4318 515.158 69.0092C515.768 61.6959 518.828 59.7152 528.49 61.7213Z" fill="white"/>
<path d="M899.857 75.4837C905.761 74.5442 911.665 73.6046 917.569 72.6523C917.722 73.5157 917.861 74.3664 918.014 75.2298C912.161 76.3725 906.307 77.5279 900.454 78.6706C900.264 77.6041 900.061 76.5376 899.87 75.471L899.857 75.4837Z" fill="white"/>
</g>
<path d="M262 282.627H1092M262 219.627H1092" stroke="white" stroke-width="2"/>
<path d="M449.25 245.195C448.763 245.195 448.342 245.018 447.988 244.664C447.656 244.288 447.446 243.834 447.357 243.303C447.313 242.816 447.291 242.484 447.291 242.307C447.291 242.063 447.313 241.742 447.357 241.344C447.534 240.148 447.822 239.163 448.221 238.389C448.619 237.614 449.239 236.972 450.08 236.463C450.301 236.352 450.5 236.297 450.678 236.297C450.943 236.297 451.176 236.408 451.375 236.629C451.574 236.828 451.674 237.061 451.674 237.326C451.674 237.68 451.508 237.968 451.176 238.189C450.578 238.544 450.146 238.942 449.881 239.385C449.615 239.827 449.482 240.436 449.482 241.211H449.582C450.091 241.211 450.534 241.399 450.91 241.775C451.286 242.152 451.474 242.594 451.474 243.104V243.303C451.474 243.812 451.286 244.255 450.91 244.631C450.534 245.007 450.091 245.195 449.582 245.195H449.25ZM441.348 243.303C441.303 242.816 441.281 242.484 441.281 242.307C441.281 242.063 441.303 241.742 441.348 241.344C441.525 240.148 441.812 239.163 442.211 238.389C442.609 237.614 443.229 236.972 444.07 236.463C444.292 236.352 444.491 236.297 444.668 236.297C444.933 236.297 445.166 236.408 445.365 236.629C445.564 236.828 445.664 237.061 445.664 237.326C445.664 237.68 445.498 237.968 445.166 238.189C444.568 238.544 444.137 238.942 443.871 239.385C443.605 239.827 443.473 240.436 443.473 241.211H443.572C444.081 241.211 444.524 241.399 444.9 241.775C445.277 242.152 445.465 242.594 445.465 243.104V243.303C445.465 243.812 445.277 244.255 444.9 244.631C444.524 245.007 444.081 245.195 443.572 245.195H443.24C442.753 245.195 442.333 245.018 441.978 244.664C441.646 244.288 441.436 243.834 441.348 243.303ZM488.913 263.49C487.673 263.512 486.29 263.446 484.763 263.291C483.235 263.136 481.951 262.937 480.911 262.693C478.764 262.162 476.949 261.133 475.466 259.605C474.602 261.089 473.54 262.328 472.278 263.324C471.968 263.568 471.658 263.689 471.349 263.689C470.994 263.689 470.696 263.535 470.452 263.225C470.275 262.981 470.186 262.749 470.186 262.527C470.186 262.173 470.386 261.819 470.784 261.465C472.046 260.358 473.031 259.207 473.739 258.012C472.544 256.241 471.692 254.304 471.183 252.201C471.138 251.98 471.116 251.836 471.116 251.77C471.116 251.26 471.393 250.917 471.946 250.74C472.123 250.696 472.245 250.674 472.311 250.674C472.776 250.674 473.108 250.995 473.308 251.637C473.883 253.408 474.425 254.702 474.934 255.521C475.444 253.906 475.776 251.758 475.931 249.08V248.98C475.931 248.759 475.864 248.604 475.731 248.516C475.621 248.427 475.444 248.383 475.2 248.383H473.374C472.843 248.383 472.433 248.272 472.145 248.051C471.88 247.829 471.747 247.508 471.747 247.088C471.747 246.756 471.824 246.402 471.979 246.025L474.104 240.945C474.304 240.458 474.47 240.027 474.602 239.65C474.735 239.274 474.824 239.042 474.868 238.953C474.89 238.909 474.901 238.842 474.901 238.754C474.901 238.577 474.768 238.488 474.503 238.488H472.942C472.013 238.488 471.548 238.079 471.548 237.26C471.548 236.441 472.013 236.031 472.942 236.031H475.931C476.528 236.031 477.004 236.175 477.358 236.463C477.712 236.729 477.89 237.105 477.89 237.592C477.89 237.835 477.845 238.079 477.757 238.322C477.624 238.721 477.336 239.473 476.893 240.58C476.097 242.506 475.399 244.1 474.802 245.361C474.713 245.583 474.669 245.715 474.669 245.76C474.669 245.915 474.835 245.992 475.167 245.992H476.296C476.982 245.992 477.502 246.158 477.856 246.49C478.21 246.822 478.377 247.309 478.354 247.951C478.244 251.714 477.668 254.891 476.628 257.48C478.244 258.986 479.804 259.915 481.309 260.27C482.128 260.469 483.102 260.635 484.231 260.768C485.382 260.878 486.556 260.934 487.751 260.934L488.78 260.9L492.134 260.801C493.152 260.779 493.661 261.199 493.661 262.062C493.661 262.527 493.539 262.87 493.296 263.092C493.052 263.335 492.643 263.457 492.067 263.457L488.913 263.49ZM463.878 248.416C464.608 247.154 465.195 246.036 465.638 245.062C466.102 244.066 466.578 242.926 467.065 241.643C467.552 240.292 468.261 238.101 469.19 235.068C469.39 234.382 469.788 234.039 470.386 234.039C470.474 234.039 470.607 234.061 470.784 234.105C471.094 234.194 471.315 234.316 471.448 234.471C471.581 234.626 471.647 234.847 471.647 235.135C471.647 235.378 471.625 235.577 471.581 235.732C471.249 237.083 470.673 238.842 469.854 241.012V262.627C469.854 263.158 469.744 263.535 469.522 263.756C469.323 263.999 469.002 264.121 468.559 264.121C468.139 264.121 467.829 263.999 467.63 263.756C467.431 263.535 467.331 263.158 467.331 262.627V246.855C466.8 247.918 466.268 248.848 465.737 249.645C465.449 250.087 465.128 250.309 464.774 250.309C464.597 250.309 464.376 250.231 464.11 250.076C463.778 249.855 463.612 249.578 463.612 249.246C463.612 249.003 463.701 248.726 463.878 248.416ZM477.458 242.639C477.458 241.93 477.867 241.576 478.686 241.576H483.733V239.385H479.948C479.196 239.385 478.819 239.031 478.819 238.322C478.819 237.614 479.196 237.26 479.948 237.26H483.733V235.434C483.733 234.526 484.154 234.072 484.995 234.072C485.792 234.072 486.19 234.526 486.19 235.434V237.26H489.013C489.832 237.26 490.451 237.481 490.872 237.924C491.315 238.367 491.536 239.008 491.536 239.85V241.576H492.565C493.318 241.576 493.694 241.93 493.694 242.639C493.694 243.347 493.318 243.701 492.565 243.701H491.536V245.527C491.536 247.188 490.695 248.018 489.013 248.018H486.19V249.943H490.739C491.115 249.943 491.403 250.043 491.602 250.242C491.824 250.419 491.934 250.685 491.934 251.039C491.934 251.77 491.536 252.135 490.739 252.135H486.19V254.061H491.636C492.034 254.061 492.344 254.16 492.565 254.359C492.787 254.536 492.897 254.802 492.897 255.156C492.897 255.887 492.477 256.252 491.636 256.252H486.19V258.809C486.19 259.694 485.792 260.137 484.995 260.137C484.552 260.137 484.231 260.037 484.032 259.838C483.833 259.617 483.733 259.273 483.733 258.809V256.252H479.284C478.465 256.252 478.056 255.887 478.056 255.156C478.056 254.802 478.155 254.536 478.354 254.359C478.576 254.16 478.886 254.061 479.284 254.061H483.733V252.135H479.915C479.118 252.135 478.72 251.77 478.72 251.039C478.72 250.309 479.118 249.943 479.915 249.943H483.733V248.018H480.147C479.328 248.018 478.919 247.663 478.919 246.955C478.919 246.247 479.328 245.893 480.147 245.893H483.733V243.701H478.686C478.266 243.701 477.956 243.624 477.757 243.469C477.558 243.292 477.458 243.015 477.458 242.639ZM488.149 245.893C488.725 245.893 489.024 245.605 489.046 245.029V243.701H486.19V245.893H488.149ZM489.046 241.576V240.248C489.046 239.717 488.747 239.429 488.149 239.385H486.19V241.576H489.046ZM497.489 263.756C496.891 263.535 496.592 263.158 496.592 262.627C496.592 262.339 496.67 262.029 496.825 261.697C497.71 259.749 498.319 257.613 498.651 255.289C499.005 252.943 499.182 249.977 499.182 246.391V239.75C499.182 237.669 500.167 236.629 502.137 236.629H511.766V235.301C511.766 234.438 512.264 234.006 513.26 234.006C514.256 234.006 514.754 234.438 514.754 235.301V236.629H524.914C525.756 236.629 526.176 237.016 526.176 237.791C526.176 238.566 525.756 238.953 524.914 238.953H502.668C502.115 238.953 501.838 239.23 501.838 239.783V246.457C501.838 249.999 501.628 253.164 501.207 255.953C500.809 258.72 500.211 260.978 499.414 262.727C499.082 263.479 498.629 263.855 498.053 263.855C497.876 263.855 497.688 263.822 497.489 263.756ZM501.008 261.465C501.008 261.155 501.108 260.889 501.307 260.668C501.528 260.447 501.927 260.236 502.502 260.037L503.2 259.805C505.457 258.986 506.929 258.421 507.616 258.111C508.346 257.801 508.888 257.591 509.243 257.48C509.597 257.348 509.907 257.281 510.172 257.281C510.46 257.281 510.704 257.381 510.903 257.58C511.102 257.779 511.202 258.023 511.202 258.311C511.202 258.665 511.024 258.964 510.67 259.207C510.294 259.473 509.464 259.915 508.18 260.535C506.874 261.177 505.635 261.708 504.461 262.129C503.332 262.549 502.569 262.76 502.17 262.76C501.794 262.76 501.506 262.638 501.307 262.395C501.108 262.173 501.008 261.863 501.008 261.465ZM502.469 246.988C502.469 246.634 502.58 246.357 502.801 246.158C503.023 245.959 503.343 245.859 503.764 245.859H512.198V243.9H505.358C504.959 243.9 504.649 243.801 504.428 243.602C504.207 243.402 504.096 243.126 504.096 242.771C504.096 242.063 504.517 241.709 505.358 241.709H512.198V240.48C512.198 240.126 512.308 239.839 512.53 239.617C512.773 239.374 513.094 239.252 513.493 239.252C513.891 239.252 514.201 239.374 514.422 239.617C514.666 239.839 514.788 240.126 514.788 240.48V241.709H521.03C521.827 241.709 522.435 241.93 522.856 242.373C523.299 242.794 523.52 243.402 523.52 244.199V245.859H525.413C526.232 245.859 526.641 246.236 526.641 246.988C526.641 247.342 526.53 247.619 526.309 247.818C526.088 248.018 525.789 248.117 525.413 248.117H523.52V249.943C523.52 250.74 523.299 251.36 522.856 251.803C522.435 252.223 521.827 252.434 521.03 252.434H514.788C515.518 253.695 516.525 254.968 517.809 256.252C519.403 255.3 520.941 254.238 522.424 253.064C522.646 252.91 522.834 252.799 522.989 252.732C523.166 252.644 523.376 252.6 523.62 252.6C523.974 252.6 524.261 252.71 524.483 252.932C524.704 253.131 524.815 253.408 524.815 253.762C524.815 254.204 524.605 254.57 524.184 254.857C522.944 255.831 521.362 256.75 519.436 257.613C520.034 258.034 520.864 258.51 521.926 259.041C523.011 259.55 524.195 260.015 525.479 260.436C525.855 260.546 526.143 260.712 526.342 260.934C526.541 261.155 526.641 261.41 526.641 261.697C526.641 261.808 526.619 261.952 526.575 262.129C526.486 262.461 526.331 262.715 526.11 262.893C525.888 263.07 525.623 263.158 525.313 263.158C525.136 263.158 524.948 263.125 524.748 263.059C522.601 262.439 520.587 261.41 518.705 259.971C516.824 258.51 515.518 256.993 514.788 255.422V261C514.788 262.107 514.544 262.904 514.057 263.391C513.57 263.878 512.773 264.121 511.666 264.121H509.375C508.424 264.121 507.948 263.701 507.948 262.859C507.948 262.417 508.058 262.096 508.28 261.896C508.523 261.697 508.888 261.598 509.375 261.598H511.368C511.921 261.598 512.198 261.321 512.198 260.768V252.434H504.926C504.506 252.434 504.196 252.345 503.996 252.168C503.797 251.991 503.698 251.703 503.698 251.305C503.698 250.596 504.107 250.242 504.926 250.242H512.198V248.117H503.764C503.343 248.117 503.023 248.018 502.801 247.818C502.58 247.619 502.469 247.342 502.469 246.988ZM503.532 253.994C503.532 253.684 503.631 253.441 503.83 253.264C504.052 253.087 504.329 252.998 504.661 252.998C504.926 252.998 505.38 253.142 506.022 253.43C506.686 253.695 507.339 254.016 507.981 254.393C508.468 254.68 508.811 254.946 509.01 255.189C509.209 255.433 509.309 255.699 509.309 255.986C509.309 256.318 509.198 256.595 508.977 256.816C508.756 257.016 508.479 257.115 508.147 257.115C507.948 257.115 507.704 257.049 507.416 256.916C507.129 256.761 506.819 256.584 506.487 256.385L504.196 255.057C503.753 254.791 503.532 254.437 503.532 253.994ZM520.166 250.242C520.72 250.242 520.996 249.965 520.996 249.412V248.117H514.788V250.242H520.166ZM520.996 245.859V244.73C520.996 244.177 520.72 243.9 520.166 243.9H514.788V245.859H520.996ZM543.185 255.156C542.853 255.156 542.61 255.079 542.455 254.924C542.3 254.769 542.223 254.503 542.223 254.127C542.223 253.861 542.433 253.574 542.853 253.264C544.602 252.002 545.476 250.973 545.476 250.176C545.476 249.977 545.421 249.877 545.31 249.877C545.244 249.877 545.156 249.888 545.045 249.91C544.956 249.932 544.868 249.943 544.779 249.943C542.809 249.943 541.824 249.014 541.824 247.154C541.824 246.269 542.101 245.572 542.654 245.062C543.23 244.553 543.993 244.299 544.945 244.299C547.07 244.299 548.133 245.561 548.133 248.084C548.133 249.833 547.491 251.482 546.207 253.031C545.056 254.448 544.049 255.156 543.185 255.156ZM583.039 263.125C579.984 263.125 577.792 262.815 576.464 262.195C575.114 261.576 574.439 260.546 574.439 259.107C574.439 256.54 577.35 253.175 583.171 249.014C583.503 248.792 583.669 248.615 583.669 248.482C583.669 248.305 583.559 248.217 583.337 248.217H577.693C576.697 248.217 576.199 247.807 576.199 246.988C576.199 246.169 576.697 245.76 577.693 245.76H586.425C587.953 245.76 588.716 246.236 588.716 247.188C588.716 247.652 588.152 248.25 587.023 248.98C585.584 249.91 583.537 251.504 580.88 253.762C578.401 255.865 577.162 257.48 577.162 258.609C577.162 259.561 577.914 260.17 579.419 260.436C580.216 260.568 581.71 260.635 583.902 260.635C586.846 260.635 588.617 260.369 589.214 259.838C589.414 259.661 589.58 259.318 589.712 258.809C589.867 258.277 589.956 257.624 589.978 256.85C590.022 255.986 590.509 255.555 591.439 255.555C592.346 255.555 592.8 256.053 592.8 257.049C592.8 259.462 592.313 261.111 591.339 261.996C590.52 262.749 587.753 263.125 583.039 263.125ZM563.814 239.75C563.814 238.732 564.046 237.99 564.511 237.525C564.976 237.038 565.706 236.817 566.703 236.861H569.99C571.008 236.861 571.749 237.094 572.214 237.559C572.701 238.023 572.912 238.754 572.845 239.75V254.592C572.845 255.61 572.613 256.363 572.148 256.85C571.705 257.314 570.986 257.536 569.99 257.514H566.703C565.684 257.514 564.932 257.281 564.445 256.816C563.98 256.329 563.77 255.588 563.814 254.592V239.75ZM566.404 253.895C566.404 254.227 566.492 254.481 566.669 254.658C566.869 254.835 567.134 254.935 567.466 254.957H569.259C569.923 254.957 570.277 254.603 570.322 253.895V240.414C570.322 239.75 569.968 239.396 569.259 239.352H567.466C567.134 239.352 566.88 239.451 566.703 239.65C566.525 239.827 566.426 240.082 566.404 240.414V253.895ZM573.21 245.428C573.21 244.963 573.387 244.487 573.742 244C575.158 242.052 576.453 239.407 577.626 236.064C578.136 234.67 578.711 233.973 579.353 233.973C580.238 233.973 580.681 234.371 580.681 235.168C580.681 235.589 580.227 236.85 579.32 238.953H591.04C592.125 238.953 592.667 239.396 592.667 240.281C592.667 241.145 592.125 241.576 591.04 241.576H578.124C577.261 243.258 576.531 244.498 575.933 245.295C575.335 246.07 574.848 246.479 574.472 246.523C574.074 246.546 573.764 246.457 573.542 246.258C573.321 246.036 573.21 245.76 573.21 245.428ZM596.894 263.291C596.008 263.291 595.565 262.87 595.565 262.029C595.565 261.653 595.654 261.343 595.831 261.1C596.03 260.878 596.362 260.745 596.827 260.701L603.335 259.971V254.393H598.089C597.071 254.393 596.561 253.972 596.561 253.131C596.561 252.334 597.071 251.936 598.089 251.936H603.335V247.586C600.878 247.896 598.886 248.106 597.358 248.217C596.761 248.261 596.318 248.173 596.03 247.951C595.765 247.708 595.632 247.32 595.632 246.789C595.632 246.391 595.742 246.092 595.964 245.893C596.207 245.671 596.595 245.549 597.126 245.527C597.569 245.505 598.332 245.45 599.417 245.361C600.457 242.462 601.188 240.16 601.608 238.455H597.425C596.938 238.455 596.561 238.355 596.296 238.156C596.03 237.935 595.897 237.614 595.897 237.193C595.897 236.773 596.03 236.463 596.296 236.264C596.561 236.042 596.938 235.932 597.425 235.932H611.769C612.831 235.932 613.362 236.352 613.362 237.193C613.362 238.035 612.831 238.455 611.769 238.455H604.563C603.722 240.979 602.87 243.214 602.007 245.162C604.818 244.941 607.186 244.708 609.112 244.465L608.515 243.469C608.338 243.159 608.183 242.882 608.05 242.639C607.939 242.395 607.884 242.185 607.884 242.008C607.884 241.299 608.282 240.945 609.079 240.945C609.632 240.945 610.584 241.941 611.935 243.934C613.241 245.904 613.894 247.165 613.894 247.719C613.894 248.538 613.429 248.947 612.499 248.947C612.233 248.947 611.99 248.848 611.769 248.648C611.547 248.449 611.304 248.128 611.038 247.686L610.374 246.59L609.345 246.756C608.88 246.822 608.371 246.9 607.817 246.988C607.286 247.077 606.711 247.154 606.091 247.221V251.936H610.938C611.979 251.936 612.499 252.345 612.499 253.164C612.499 253.983 611.979 254.393 610.938 254.393H606.091V259.672L612.399 258.975C613.307 258.886 613.761 259.273 613.761 260.137C613.761 260.424 613.672 260.679 613.495 260.9C613.318 261.1 613.063 261.221 612.731 261.266C608.57 261.93 603.412 262.594 597.259 263.258L596.894 263.291ZM615.321 238.588C615.321 237.57 615.753 237.061 616.616 237.061C617.502 237.061 617.944 237.57 617.944 238.588V256.252C617.944 257.204 617.502 257.68 616.616 257.68C615.753 257.68 615.321 257.204 615.321 256.252V238.588ZM616.317 262.66C616.317 261.753 616.86 261.299 617.944 261.299H620.069C620.556 261.299 620.91 261.188 621.132 260.967C621.353 260.745 621.464 260.391 621.464 259.904V235.799C621.464 234.781 621.918 234.271 622.825 234.271C623.755 234.271 624.22 234.781 624.22 235.799V260.668C624.22 261.753 623.954 262.583 623.423 263.158C622.892 263.734 622.084 264.021 620.999 264.021H617.944C616.86 264.021 616.317 263.568 616.317 262.66ZM630.04 250.01C629.11 250.01 628.645 249.611 628.645 248.814C628.645 248.018 629.11 247.619 630.04 247.619H642.026V245.029H632.862C631.976 245.029 631.534 244.642 631.534 243.867C631.534 243.115 631.976 242.738 632.862 242.738H642.026V240.281H630.803C629.918 240.281 629.475 239.883 629.475 239.086C629.475 238.289 629.918 237.891 630.803 237.891H637.377L636.415 236.33C636.06 235.755 635.883 235.378 635.883 235.201C635.883 234.449 636.337 234.072 637.245 234.072C637.997 234.072 639.015 235.345 640.299 237.891H646.209L647.372 235.533C647.637 235.002 647.903 234.604 648.168 234.338C648.434 234.072 648.722 233.939 649.032 233.939C649.961 233.939 650.426 234.338 650.426 235.135C650.426 235.378 649.939 236.275 648.965 237.824L648.899 237.891H656.204C657.111 237.891 657.565 238.289 657.565 239.086C657.565 239.883 657.111 240.281 656.204 240.281H644.682V242.738H654.178C655.064 242.738 655.506 243.115 655.506 243.867C655.506 244.642 655.064 245.029 654.178 245.029H644.682V247.619H656.967C657.875 247.619 658.329 248.018 658.329 248.814C658.329 249.611 657.875 250.01 656.967 250.01H630.04ZM628.379 262.693C628.379 262.383 628.446 262.129 628.579 261.93C628.734 261.753 628.977 261.62 629.309 261.531L630.803 261.266C635.739 260.602 639.071 258.775 640.797 255.787H630.438C629.442 255.787 628.944 255.389 628.944 254.592C628.944 253.773 629.442 253.363 630.438 253.363H641.661L641.86 251.869C641.993 250.807 642.424 250.275 643.155 250.275C644.04 250.275 644.483 250.696 644.483 251.537L644.284 253.363H656.569C657.565 253.363 658.063 253.773 658.063 254.592C658.063 255.389 657.565 255.787 656.569 255.787H645.545C647.958 258.952 651.788 260.768 657.034 261.232C657.565 261.277 657.963 261.421 658.229 261.664C658.517 261.908 658.661 262.206 658.661 262.561C658.661 263.535 658.107 264.021 657 264.021C654.698 264.021 652.175 263.302 649.43 261.863C646.685 260.424 644.649 258.62 643.321 256.451L643.254 256.484C642.214 258.366 640.72 259.949 638.772 261.232C636.846 262.494 634.135 263.424 630.637 264.021L629.874 264.121C629.387 264.188 629.01 264.088 628.745 263.822C628.501 263.579 628.379 263.202 628.379 262.693ZM681.248 264.188C680.429 264.188 680.02 263.723 680.02 262.793V251.803L679.887 251.77C678.736 253.939 676.921 256.163 674.441 258.443C673.29 259.506 672.283 260.314 671.42 260.867C670.557 261.398 669.904 261.664 669.461 261.664C668.576 261.664 668.133 261.21 668.133 260.303C668.133 259.838 668.664 259.285 669.727 258.643C674.109 255.942 677.352 252.743 679.455 249.047H673.877C672.814 249.047 672.283 248.626 672.283 247.785C672.283 246.922 672.814 246.49 673.877 246.49H680.02V241.742H674.939C673.877 241.742 673.346 241.311 673.346 240.447C673.346 239.606 673.877 239.186 674.939 239.186H680.02V235.4C680.02 234.449 680.429 233.973 681.248 233.973C682.089 233.973 682.51 234.449 682.51 235.4V239.186H688.686C689.77 239.186 690.312 239.606 690.312 240.447C690.312 241.311 689.77 241.742 688.686 241.742H682.51V246.49H689.98C691.043 246.49 691.574 246.922 691.574 247.785C691.574 248.626 691.043 249.047 689.98 249.047H682.941C684.69 252.389 687.291 255.344 690.744 257.912C691.43 258.421 691.773 258.952 691.773 259.506C691.773 260.015 691.663 260.391 691.441 260.635C691.242 260.856 690.921 260.967 690.479 260.967C689.814 260.967 688.663 260.048 687.025 258.211C685.299 256.263 683.838 254.227 682.643 252.102L682.51 252.135V262.793C682.51 263.723 682.089 264.188 681.248 264.188ZM662.721 239.75C662.721 238.71 662.953 237.957 663.418 237.492C663.905 237.005 664.646 236.784 665.643 236.828H668.764C669.804 236.828 670.557 237.061 671.021 237.525C671.508 237.99 671.719 238.732 671.652 239.75V254.193C671.652 255.234 671.42 255.997 670.955 256.484C670.49 256.949 669.76 257.16 668.764 257.115H665.643C664.602 257.115 663.839 256.883 663.352 256.418C662.887 255.953 662.676 255.212 662.721 254.193V239.75ZM665.277 253.43C665.277 253.762 665.355 254.005 665.51 254.16C665.687 254.315 665.941 254.404 666.273 254.426H668.1C668.454 254.426 668.708 254.348 668.863 254.193C669.018 254.038 669.107 253.784 669.129 253.43V240.48C669.129 239.839 668.786 239.507 668.1 239.484H666.273C665.654 239.484 665.322 239.816 665.277 240.48V253.43ZM715.589 264.055C714.97 264.033 714.527 263.911 714.261 263.689C713.996 263.468 713.863 263.125 713.863 262.66C713.863 261.753 714.372 261.299 715.39 261.299C716.763 261.299 717.725 261.266 718.279 261.199C718.832 261.155 719.253 261.033 719.541 260.834C719.828 260.635 720.061 260.281 720.238 259.771C720.548 258.864 720.791 256.65 720.968 253.131C721.145 249.611 721.234 246.269 721.234 243.104C721.234 242.262 720.747 241.842 719.773 241.842H712.369C711.992 243.015 711.317 244.365 710.343 245.893C710.033 246.402 709.646 246.656 709.181 246.656C708.96 246.656 708.727 246.59 708.484 246.457C708.041 246.214 707.82 245.87 707.82 245.428C707.82 245.14 707.908 244.841 708.085 244.531C709.015 242.783 709.701 241.311 710.144 240.115C710.697 238.654 711.218 237.016 711.705 235.201C711.815 234.825 711.981 234.537 712.203 234.338C712.446 234.117 712.734 234.006 713.066 234.006C713.154 234.006 713.309 234.028 713.531 234.072C714.195 234.227 714.527 234.626 714.527 235.268C714.527 235.489 714.494 235.732 714.427 235.998C714.272 236.64 714.084 237.282 713.863 237.924C713.641 238.544 713.431 239.031 713.232 239.385H721.201C723.149 239.385 724.123 240.204 724.123 241.842C724.123 246.003 724.012 250.021 723.791 253.895C723.569 257.746 723.193 260.325 722.662 261.631C722.263 262.561 721.654 263.202 720.835 263.557C720.016 263.911 718.777 264.088 717.117 264.088C716.453 264.088 715.944 264.077 715.589 264.055ZM695.269 242.074C695.269 241.233 695.479 240.591 695.9 240.148C696.321 239.706 696.94 239.484 697.759 239.484H699.453C699.63 238.488 699.84 237.083 700.084 235.268C700.128 234.869 700.272 234.57 700.515 234.371C700.759 234.172 701.08 234.072 701.478 234.072C702.585 234.072 703.061 234.637 702.906 235.766C702.729 237.005 702.441 238.245 702.043 239.484H704.566C706.248 239.484 707.089 240.348 707.089 242.074L707.123 260.967C707.123 262.671 706.27 263.523 704.566 263.523H697.826C696.985 263.523 696.343 263.302 695.9 262.859C695.479 262.439 695.269 261.808 695.269 260.967V242.074ZM697.992 259.904C697.992 260.635 698.357 261 699.087 261H703.304C704.035 261 704.4 260.635 704.4 259.904V252.201H697.992V259.904ZM704.4 249.744V243.104C704.4 242.373 704.035 242.008 703.304 242.008H699.087C698.357 242.008 697.992 242.373 697.992 243.104V249.744H704.4ZM710.908 248.914C710.908 248.538 711.018 248.25 711.24 248.051C711.461 247.829 711.749 247.719 712.103 247.719C712.457 247.719 712.834 247.918 713.232 248.316C713.63 248.715 714.14 249.368 714.759 250.275C716.043 252.201 716.685 253.474 716.685 254.094C716.685 254.47 716.563 254.769 716.32 254.99C716.099 255.212 715.778 255.322 715.357 255.322C715.003 255.322 714.693 255.201 714.427 254.957C714.162 254.691 713.896 254.304 713.63 253.795C713.21 253.042 712.59 252.035 711.771 250.773L711.306 250.043C711.196 249.888 711.096 249.7 711.007 249.479C710.941 249.257 710.908 249.069 710.908 248.914ZM732.101 246.025C731.946 243.657 733.041 242.561 735.388 242.738H740.733V240.812C740.733 239.816 741.187 239.318 742.095 239.318C743.002 239.318 743.456 239.816 743.456 240.812V242.738H749.565C750.761 242.738 751.624 243.004 752.155 243.535C752.709 244.044 752.941 244.874 752.853 246.025V251.404C752.853 252.577 752.587 253.441 752.056 253.994C751.547 254.525 750.717 254.747 749.565 254.658H743.689C744.552 256.097 745.47 257.171 746.444 257.879H746.478C749.377 256.573 751.668 255.278 753.351 253.994C753.838 253.618 754.192 253.43 754.413 253.43C754.922 253.43 755.287 253.54 755.509 253.762C755.73 253.983 755.841 254.348 755.841 254.857C755.841 255.743 753.45 257.16 748.669 259.107V259.24C750.838 260.347 753.174 261.033 755.675 261.299C756.959 261.432 757.601 261.874 757.601 262.627C757.601 263.579 757.147 264.055 756.239 264.055C754.933 264.055 753.218 263.689 751.093 262.959C746.312 261.343 743.013 258.576 741.198 254.658H734.69V260.502L742.36 259.207C742.737 259.141 743.024 259.229 743.224 259.473C743.445 259.694 743.556 260.026 743.556 260.469C743.556 260.757 743.467 261 743.29 261.199C743.113 261.421 742.869 261.564 742.56 261.631C741.918 261.786 740.711 262.018 738.94 262.328C738.808 262.35 738.321 262.439 737.48 262.594L729.411 263.988C728.88 263.988 728.493 263.867 728.249 263.623C728.006 263.402 727.884 263.048 727.884 262.561C727.884 262.029 728.083 261.664 728.481 261.465C728.659 261.398 729.068 261.299 729.71 261.166C730.374 261.055 731.171 260.956 732.101 260.867V246.025ZM727.286 243.07C727.286 242.428 727.873 241.93 729.046 241.576C733.739 240.093 737.568 237.857 740.534 234.869C740.955 234.449 741.298 234.139 741.564 233.939C741.851 233.74 742.139 233.641 742.427 233.641C742.892 233.641 743.257 233.762 743.522 234.006C743.788 234.227 743.921 234.504 743.921 234.836C743.921 234.969 743.832 235.19 743.655 235.5C747.086 238.223 750.982 240.071 755.343 241.045C756.87 241.377 757.634 241.875 757.634 242.539C757.634 243.624 757.147 244.166 756.173 244.166C754.867 244.166 752.797 243.491 749.964 242.141C747.086 240.79 744.43 239.141 741.995 237.193C739.848 239.053 737.325 240.746 734.425 242.273C731.503 243.823 729.577 244.598 728.647 244.598C727.74 244.598 727.286 244.089 727.286 243.07ZM748.968 252.334C749.477 252.334 749.82 252.257 749.997 252.102C750.174 251.924 750.263 251.581 750.263 251.072V249.744H734.69V252.334H748.968ZM750.263 247.42V246.391C750.263 245.882 750.174 245.538 749.997 245.361C749.82 245.162 749.477 245.062 748.968 245.062H736.019C735.509 245.062 735.155 245.162 734.956 245.361C734.779 245.538 734.69 245.882 734.69 246.391V247.42H750.263ZM782.911 263.756C781.45 263.756 780.719 263.214 780.719 262.129C780.719 261.243 781.417 260.768 782.811 260.701C784.206 260.635 785.036 260.369 785.301 259.904C785.921 259.351 786.43 255.278 786.829 247.686L787.028 243.303C787.05 242.572 786.707 242.207 785.999 242.207H785.169C784.637 246.125 783.829 249.379 782.745 251.969C781.638 254.559 779.922 257.005 777.598 259.307C775.252 261.587 773.603 262.727 772.651 262.727C771.81 262.727 771.389 262.262 771.389 261.332C771.389 260.845 771.887 260.281 772.883 259.639C778.727 255.898 782.003 250.087 782.711 242.207H780.553C779.823 246.147 778.406 249.335 776.303 251.77C774.2 254.204 772.817 255.422 772.153 255.422C771.334 255.422 770.924 255.012 770.924 254.193C770.924 253.95 771.035 253.695 771.256 253.43C771.478 253.142 771.821 252.81 772.286 252.434C775.628 249.799 777.598 246.391 778.196 242.207H775.506C773.846 246.214 772.54 248.217 771.588 248.217C770.747 248.217 770.327 247.785 770.327 246.922C770.327 246.701 770.648 246.081 771.29 245.062C772.131 243.734 772.751 242.484 773.149 241.311C773.747 239.54 774.256 237.736 774.676 235.898C774.964 234.592 775.506 233.939 776.303 233.939C777.233 233.939 777.698 234.36 777.698 235.201C777.698 235.688 777.277 237.16 776.436 239.617H786.364C788.533 239.617 789.618 240.591 789.618 242.539C789.618 248.184 789.33 253.275 788.754 257.812C788.6 259.052 788.389 260.07 788.124 260.867C787.88 261.642 787.559 262.217 787.161 262.594C786.32 263.368 784.903 263.756 782.911 263.756ZM760.399 248.184C761.019 245.97 761.395 243.037 761.528 239.385C761.572 238.079 761.971 237.426 762.723 237.426C763.52 237.426 763.919 237.824 763.919 238.621L763.786 240.646L763.719 241.178H765.977V235.4C765.977 234.426 766.387 233.939 767.206 233.939C768.025 233.939 768.434 234.426 768.434 235.4V241.178H770.493C771.334 241.178 771.754 241.609 771.754 242.473C771.754 243.292 771.334 243.701 770.493 243.701H768.434V250.641L769.696 250.143C770.161 249.965 770.504 249.877 770.725 249.877C771.5 249.877 771.887 250.275 771.887 251.072C771.887 251.581 771.611 251.958 771.057 252.201C770.548 252.423 769.674 252.766 768.434 253.23V262.76C768.434 263.756 768.025 264.254 767.206 264.254C766.387 264.254 765.977 263.756 765.977 262.76V254.094C763.52 254.979 762.103 255.422 761.727 255.422C760.842 255.422 760.399 254.968 760.399 254.061C760.399 253.308 760.975 252.799 762.126 252.533L765.911 251.438L765.977 251.404V243.701H763.52C763.188 247.885 762.513 249.977 761.495 249.977C760.676 249.977 760.266 249.611 760.266 248.881L760.399 248.184ZM814.529 264.055C813.91 264.033 813.467 263.911 813.201 263.689C812.936 263.468 812.803 263.125 812.803 262.66C812.803 261.753 813.312 261.299 814.33 261.299C815.703 261.299 816.665 261.266 817.219 261.199C817.772 261.155 818.193 261.033 818.481 260.834C818.768 260.635 819.001 260.281 819.178 259.771C819.488 258.864 819.731 256.65 819.908 253.131C820.085 249.611 820.174 246.269 820.174 243.104C820.174 242.262 819.687 241.842 818.713 241.842H811.309C810.932 243.015 810.257 244.365 809.283 245.893C808.973 246.402 808.586 246.656 808.121 246.656C807.9 246.656 807.667 246.59 807.424 246.457C806.981 246.214 806.76 245.87 806.76 245.428C806.76 245.14 806.848 244.841 807.025 244.531C807.955 242.783 808.641 241.311 809.084 240.115C809.637 238.654 810.158 237.016 810.645 235.201C810.755 234.825 810.921 234.537 811.143 234.338C811.386 234.117 811.674 234.006 812.006 234.006C812.094 234.006 812.249 234.028 812.471 234.072C813.135 234.227 813.467 234.626 813.467 235.268C813.467 235.489 813.434 235.732 813.367 235.998C813.212 236.64 813.024 237.282 812.803 237.924C812.581 238.544 812.371 239.031 812.172 239.385H820.141C822.089 239.385 823.063 240.204 823.063 241.842C823.063 246.003 822.952 250.021 822.731 253.895C822.509 257.746 822.133 260.325 821.602 261.631C821.203 262.561 820.594 263.202 819.775 263.557C818.956 263.911 817.717 264.088 816.057 264.088C815.393 264.088 814.884 264.077 814.529 264.055ZM794.209 242.074C794.209 241.233 794.419 240.591 794.84 240.148C795.261 239.706 795.88 239.484 796.699 239.484H798.393C798.57 238.488 798.78 237.083 799.024 235.268C799.068 234.869 799.212 234.57 799.455 234.371C799.699 234.172 800.02 234.072 800.418 234.072C801.525 234.072 802.001 234.637 801.846 235.766C801.669 237.005 801.381 238.245 800.983 239.484H803.506C805.188 239.484 806.029 240.348 806.029 242.074L806.063 260.967C806.063 262.671 805.21 263.523 803.506 263.523H796.766C795.925 263.523 795.283 263.302 794.84 262.859C794.419 262.439 794.209 261.808 794.209 260.967V242.074ZM796.932 259.904C796.932 260.635 797.297 261 798.027 261H802.244C802.975 261 803.34 260.635 803.34 259.904V252.201H796.932V259.904ZM803.34 249.744V243.104C803.34 242.373 802.975 242.008 802.244 242.008H798.027C797.297 242.008 796.932 242.373 796.932 243.104V249.744H803.34ZM809.848 248.914C809.848 248.538 809.958 248.25 810.18 248.051C810.401 247.829 810.689 247.719 811.043 247.719C811.397 247.719 811.774 247.918 812.172 248.316C812.57 248.715 813.08 249.368 813.699 250.275C814.983 252.201 815.625 253.474 815.625 254.094C815.625 254.47 815.503 254.769 815.26 254.99C815.039 255.212 814.718 255.322 814.297 255.322C813.943 255.322 813.633 255.201 813.367 254.957C813.102 254.691 812.836 254.304 812.57 253.795C812.15 253.042 811.53 252.035 810.711 250.773L810.246 250.043C810.136 249.888 810.036 249.7 809.947 249.479C809.881 249.257 809.848 249.069 809.848 248.914ZM841.201 264.188C840.293 264.188 839.839 263.634 839.839 262.527V258.576H828.418C827.377 258.576 826.857 258.167 826.857 257.348C826.857 256.507 827.377 256.086 828.418 256.086H839.839V252.699H830.045C829.026 252.699 828.517 252.279 828.517 251.438C828.517 250.618 829.026 250.209 830.045 250.209H834.095L832.9 245.66H827.886C826.868 245.66 826.359 245.251 826.359 244.432C826.359 243.59 826.868 243.17 827.886 243.17H839.839V239.75H830.642C829.624 239.75 829.115 239.329 829.115 238.488C829.115 237.669 829.624 237.26 830.642 237.26H839.839V235.268C839.839 234.404 840.304 233.973 841.234 233.973C842.142 233.973 842.595 234.404 842.595 235.268V237.26H852.158C853.154 237.26 853.652 237.669 853.652 238.488C853.652 239.329 853.154 239.75 852.158 239.75H842.595V243.17H854.914C855.932 243.17 856.441 243.579 856.441 244.398C856.441 245.24 855.932 245.66 854.914 245.66H849.502C849.103 247.232 848.649 248.748 848.14 250.209H852.755C853.796 250.209 854.316 250.63 854.316 251.471C854.316 252.29 853.796 252.699 852.755 252.699H842.595V256.086H854.416C855.412 256.086 855.91 256.495 855.91 257.314C855.91 258.156 855.412 258.576 854.416 258.576H842.595V262.527C842.595 263.634 842.13 264.188 841.201 264.188ZM836.752 250.076L836.818 250.209H845.484C846.015 248.549 846.414 247.088 846.679 245.826L846.746 245.66H835.556L836.752 250.076ZM874.114 263.424C873.074 263.424 872.321 263.191 871.857 262.727C871.392 262.284 871.193 261.564 871.259 260.568V252.832C871.259 251.792 871.48 251.039 871.923 250.574C872.388 250.109 873.118 249.91 874.114 249.977H885.603C886.643 249.977 887.396 250.209 887.86 250.674C888.347 251.117 888.558 251.836 888.491 252.832V260.568C888.491 261.609 888.259 262.361 887.794 262.826C887.351 263.291 886.621 263.49 885.603 263.424H874.114ZM859.107 259.871C859.107 259.672 859.195 259.329 859.372 258.842C859.926 257.425 860.202 254.99 860.202 251.537L860.169 247.619C860.169 246.734 860.545 246.291 861.298 246.291C862.073 246.291 862.46 246.789 862.46 247.785L862.394 253.297C862.372 255.909 862.183 257.879 861.829 259.207C861.497 260.513 861.032 261.166 860.435 261.166C859.549 261.166 859.107 260.734 859.107 259.871ZM859.339 242.572C859.339 241.775 859.826 241.377 860.8 241.377H869.632C870.628 241.377 871.126 241.775 871.126 242.572C871.126 243.391 870.628 243.801 869.632 243.801H866.245V263.025C866.245 263.911 865.858 264.354 865.083 264.354C864.308 264.354 863.921 263.911 863.921 263.025V243.801H860.8C859.826 243.801 859.339 243.391 859.339 242.572ZM860.435 236.629C860.435 235.788 860.888 235.367 861.796 235.367H868.735C869.643 235.367 870.097 235.788 870.097 236.629C870.097 237.492 869.643 237.924 868.735 237.924H861.796C860.888 237.924 860.435 237.492 860.435 236.629ZM867.806 247.619C867.806 246.734 868.193 246.291 868.968 246.291C869.72 246.291 870.097 246.734 870.097 247.619V258.975C870.097 259.838 869.72 260.27 868.968 260.27C868.193 260.27 867.806 259.838 867.806 258.975V247.619ZM870.562 236.662C870.562 235.865 871.06 235.467 872.056 235.467H887.728C888.702 235.467 889.189 235.865 889.189 236.662C889.189 237.459 888.702 237.857 887.728 237.857H872.056C871.06 237.857 870.562 237.459 870.562 236.662ZM872.321 242.572C872.321 240.691 873.251 239.794 875.11 239.883H884.607C885.558 239.883 886.267 240.104 886.732 240.547C887.219 240.967 887.462 241.643 887.462 242.572V245.195C887.462 247.121 886.51 248.029 884.607 247.918H875.11C874.159 247.918 873.45 247.708 872.985 247.287C872.543 246.844 872.321 246.169 872.321 245.262V242.572ZM873.716 260.203C873.716 260.845 874.037 261.166 874.679 261.166H878.663V257.713H873.716V260.203ZM878.663 255.555V252.234H874.679C874.037 252.234 873.716 252.555 873.716 253.197V255.555H878.663ZM874.778 244.896C874.778 245.45 875.066 245.727 875.642 245.727H884.142C884.695 245.727 884.972 245.45 884.972 244.896V242.904C884.972 242.351 884.695 242.074 884.142 242.074H875.642C875.066 242.074 874.778 242.351 874.778 242.904V244.896ZM885.071 261.166C885.713 261.166 886.034 260.834 886.034 260.17V257.713H881.021V261.166H885.071ZM886.034 255.555V253.23C886.034 252.566 885.713 252.234 885.071 252.234H881.021V255.555H886.034ZM902.389 245.195C902.123 245.195 901.891 245.096 901.692 244.896C901.492 244.675 901.393 244.432 901.393 244.166C901.393 243.812 901.559 243.524 901.891 243.303C902.488 242.949 902.92 242.55 903.186 242.107C903.451 241.665 903.584 241.056 903.584 240.281H903.485C902.975 240.281 902.533 240.093 902.156 239.717C901.78 239.34 901.592 238.898 901.592 238.389V238.189C901.592 237.68 901.78 237.238 902.156 236.861C902.533 236.485 902.975 236.297 903.485 236.297H903.817C905.145 236.297 905.809 237.149 905.809 238.854C905.809 239.274 905.776 239.706 905.709 240.148C905.532 241.344 905.244 242.329 904.846 243.104C904.447 243.878 903.828 244.52 902.986 245.029C902.765 245.14 902.566 245.195 902.389 245.195ZM907.402 244.166C907.402 243.812 907.569 243.524 907.901 243.303C908.498 242.949 908.93 242.55 909.195 242.107C909.461 241.665 909.594 241.056 909.594 240.281H909.494C908.985 240.281 908.542 240.093 908.166 239.717C907.79 239.34 907.602 238.898 907.602 238.389V238.189C907.602 237.68 907.79 237.238 908.166 236.861C908.542 236.485 908.985 236.297 909.494 236.297H909.826C911.154 236.297 911.819 237.149 911.819 238.854C911.819 239.274 911.785 239.706 911.719 240.148C911.542 241.344 911.254 242.329 910.856 243.104C910.457 243.878 909.837 244.52 908.996 245.029C908.775 245.14 908.576 245.195 908.399 245.195C908.133 245.195 907.901 245.096 907.701 244.896C907.502 244.675 907.402 244.432 907.402 244.166Z" fill="white"/>
<path d="M622.9 302.617H630.213C631.525 302.617 632.638 302.816 633.552 303.214C634.466 303.603 635.151 304.153 635.608 304.864C636.074 305.575 636.306 306.4 636.306 307.34C636.306 308.042 636.163 308.664 635.875 309.206C635.596 309.739 635.206 310.184 634.707 310.539C634.207 310.886 633.636 311.132 632.993 311.275V311.453C633.695 311.487 634.356 311.69 634.973 312.062C635.591 312.435 636.086 312.955 636.459 313.624C636.831 314.284 637.017 315.054 637.017 315.935C637.017 316.916 636.772 317.788 636.281 318.55C635.799 319.312 635.083 319.912 634.136 320.353C633.188 320.784 632.041 321 630.695 321H622.9V302.617ZM629.921 317.864C630.64 317.864 631.233 317.771 631.698 317.585C632.172 317.39 632.519 317.124 632.739 316.785C632.968 316.438 633.078 316.028 633.069 315.554C633.078 315.046 632.955 314.593 632.701 314.195C632.456 313.789 632.1 313.476 631.635 313.256C631.178 313.036 630.64 312.926 630.022 312.926H626.709V317.864H629.921ZM629.641 310.323C630.175 310.315 630.653 310.217 631.076 310.031C631.508 309.837 631.842 309.562 632.079 309.206C632.324 308.851 632.447 308.432 632.447 307.949C632.447 307.501 632.337 307.107 632.117 306.769C631.905 306.43 631.592 306.172 631.178 305.994C630.771 305.808 630.285 305.715 629.718 305.715H626.709V310.323H629.641ZM640.795 326.18C639.856 326.163 639.221 326.142 638.891 326.116V323.184C639.187 323.209 639.695 323.226 640.414 323.234C640.71 323.226 640.96 323.196 641.163 323.146C641.375 323.103 641.565 322.989 641.734 322.803C641.912 322.625 642.073 322.346 642.217 321.965L642.445 321.394L637.482 307.213H641.442L644.337 317.369H644.489L647.397 307.213H651.383L646 322.511C645.585 323.696 644.963 324.601 644.134 325.228C643.304 325.854 642.191 326.171 640.795 326.18ZM670.443 302.54H680.869V305.374H670.443V302.54ZM667.427 310.6H681.441V313.59H667.427V310.6ZM672.887 303.788H676.033V323.314H672.887V303.788ZM670.105 298.848L673.251 299.472C672.341 303.294 670.807 307.064 669.039 309.43C668.415 308.936 667.037 308.078 666.283 307.688C668.077 305.608 669.429 302.228 670.105 298.848ZM658.249 306.908H666.647V309.248H658.249V306.908ZM658.405 299.732H666.699V302.098H658.405V299.732ZM658.249 310.444H666.647V312.81H658.249V310.444ZM656.975 303.242H667.687V305.712H656.975V303.242ZM659.679 314.058H666.569V321.962H659.679V319.492H663.839V316.528H659.679V314.058ZM658.171 314.058H660.875V323.002H658.171V314.058ZM701.773 313.668L704.217 312.732C705.101 314.24 706.011 316.216 706.427 317.516L703.879 318.556C703.489 317.256 702.579 315.176 701.773 313.668ZM693.531 300.642H706.193V303.606H693.531V300.642ZM693.843 309.092H705.959V312.056H693.843V309.092ZM693.089 319.258H706.609V322.196H693.089V319.258ZM698.107 302.436H701.279V320.922H698.107V302.436ZM684.067 305.374H692.153V307.974H684.067V305.374ZM682.949 309.898H692.725V312.55H682.949V309.898ZM683.157 314.032L685.185 313.512C685.653 314.942 686.069 316.788 686.199 317.984L684.041 318.582C683.963 317.334 683.573 315.488 683.157 314.032ZM682.533 319.986C685.159 319.622 689.111 319.024 692.881 318.4L693.063 321.026C689.631 321.676 685.939 322.326 683.157 322.794L682.533 319.986ZM690.489 313.278L692.855 313.85C692.335 315.41 691.815 317.126 691.399 318.218L689.527 317.672C689.891 316.476 690.333 314.578 690.489 313.278ZM686.563 306.492H689.267V320.454L686.563 320.922V306.492ZM686.563 298.926H688.253V299.498H689.137V300.356C688.071 302.332 686.381 305.036 683.651 307.35C683.235 306.7 682.351 305.686 681.753 305.27C684.093 303.398 685.679 300.954 686.563 298.926ZM686.953 298.926H689.137C690.749 300.252 692.777 302.202 693.739 303.58L691.711 305.998C690.879 304.62 689.007 302.358 687.499 301.136H686.953V298.926ZM712.485 308.494H726.655V310.418H712.485V308.494ZM708.039 319.96H731.335V322.534H708.039V319.96ZM717.997 303.554H721.091V306.44H717.997V303.554ZM708.533 305.192H730.737V310.236H727.825V307.532H711.341V310.236H708.533V305.192ZM715.085 315.982V317.152H724.055V315.982H715.085ZM715.085 313.174V314.292H724.055V313.174H715.085ZM712.147 311.38H727.123V318.946H712.147V311.38ZM713.447 298.926H716.489V304.282H713.447V298.926ZM722.651 298.926H725.719V304.282H722.651V298.926ZM708.117 300.252H731.257V302.8H708.117V300.252Z" fill="white"/>
<defs>
<clipPath id="clip0_1338_78215">
<rect width="749.174" height="123.413" fill="white" transform="translate(347.826 32.6074)"/>
</clipPath>
</defs>
</svg>
