<svg width="30" height="30" viewBox="0 0 30 30" fill="none" xmlns="http://www.w3.org/2000/svg">
<mask id="mask0_1311_52659" style="mask-type:luminance" maskUnits="userSpaceOnUse" x="2" y="2" width="25" height="26">
<path d="M14.6296 27.4156C21.4117 27.4156 26.9096 21.887 26.9096 15.0672C26.9096 8.24733 21.4117 2.71875 14.6296 2.71875C7.84755 2.71875 2.34961 8.24733 2.34961 15.0672C2.34961 21.887 7.84755 27.4156 14.6296 27.4156Z" fill="white"/>
</mask>
<g mask="url(#mask0_1311_52659)">
<path d="M7.08875 11.7069C4.92875 11.5661 3.89876 10.641 2.34875 9.14271C1.66876 8.48909 1.09875 7.70474 0.768755 6.80978C0.438755 5.91482 0.598755 4.77852 0.828755 3.8534C0.898755 3.57184 0.938755 2.9886 0.558755 2.8981C-0.161245 2.72716 -0.321245 4.2154 -1.01125 4.24557C-2.01125 4.29585 -2.90125 1.5808 -4.27125 2.37521C-4.75125 2.65677 -4.86125 3.20983 -4.81125 3.73273C-4.66125 5.34164 -3.70125 6.97067 -2.85125 8.30808C-1.04125 11.1337 2.34875 13.6778 5.37875 15.0957" fill="#3B84F5"/>
<path d="M5.36885 15.8402C5.25885 15.8402 5.15885 15.8201 5.04885 15.7698C2.27885 14.4827 -1.42115 11.9486 -3.50115 8.71067C-4.48115 7.17215 -5.42115 5.51295 -5.58115 3.80348C-5.67115 2.85824 -5.34115 2.11411 -4.66115 1.72194C-3.33115 0.947649 -2.30115 2.12417 -1.69115 2.82807C-1.52115 3.01913 -1.27115 3.31075 -1.10115 3.44147C-1.04115 3.36102 -0.971152 3.24036 -0.921152 3.15991C-0.661152 2.73757 -0.191152 1.95322 0.718848 2.16439C1.00885 2.23478 1.25885 2.41579 1.41885 2.66718C1.71885 3.15991 1.61885 3.78336 1.55885 4.03476C1.38885 4.74871 1.19885 5.78445 1.47885 6.55875C1.74885 7.28276 2.21885 7.9766 2.86885 8.61011C4.37885 10.0682 5.25885 10.8324 7.13885 10.9632C7.55885 10.9933 7.86885 11.3553 7.83885 11.7676C7.80885 12.19 7.45885 12.5017 7.03885 12.4715C4.51885 12.3006 3.26885 11.0939 1.81885 9.70619C0.998848 8.91179 0.398848 8.02688 0.0488482 7.0917C-0.251152 6.27718 -0.221152 5.37217 -0.101152 4.58782C-0.321152 4.8191 -0.611152 5.00011 -1.00115 5.02022C-1.80115 5.06044 -2.35115 4.40682 -2.84115 3.83364C-3.47115 3.09958 -3.71115 2.92863 -3.91115 3.03924C-4.09115 3.1398 -4.10115 3.44147 -4.08115 3.67275C-3.95115 5.0705 -3.12115 6.52858 -2.24115 7.90621C-0.671152 10.3498 2.43885 12.9039 5.67885 14.4123C6.05885 14.5832 6.21885 15.0357 6.04885 15.4178C5.91885 15.6994 5.64885 15.8603 5.35885 15.8603L5.36885 15.8402Z" fill="#213E7A"/>
<path d="M23.1582 16.7944C25.3182 16.6536 26.4582 17.438 28.1882 18.715C28.9482 19.2782 29.6182 19.9821 30.0482 20.8267C30.4782 21.6714 30.4682 22.8178 30.3682 23.7731C30.3382 24.0647 30.3682 24.6479 30.7582 24.6881C31.4882 24.7585 31.4582 23.2703 32.1482 23.1496C33.1382 22.9686 34.3682 25.5529 35.6182 24.5876C36.0582 24.2457 36.0982 23.6826 35.9782 23.1697C35.6282 21.591 34.4682 20.1027 33.4482 18.886C31.2882 16.3117 27.6082 14.2302 24.4182 13.2246" fill="#3B84F5"/>
<path d="M35.0582 25.5632C34.2382 25.5632 33.5082 24.9095 33.0082 24.4671C32.8182 24.2961 32.5282 24.0347 32.3482 23.9341C32.2982 24.0246 32.2382 24.1554 32.1982 24.2459C31.9982 24.6984 31.6282 25.533 30.6982 25.4425C30.3982 25.4123 30.1282 25.2615 29.9382 25.0302C29.5782 24.5777 29.5982 23.9442 29.6282 23.6928C29.7082 22.9587 29.7682 21.9129 29.3882 21.1789C29.0282 20.4951 28.4782 19.8716 27.7482 19.3286C26.0582 18.0817 25.0982 17.4281 23.2082 17.5487C22.7982 17.5689 22.4382 17.2571 22.4082 16.8348C22.3782 16.4125 22.6982 16.0605 23.1182 16.0303C25.6382 15.8694 27.0282 16.9052 28.6482 18.1018C29.5682 18.7856 30.2682 19.58 30.7282 20.4649C31.1282 21.2392 31.2182 22.1342 31.1982 22.9286C31.3882 22.6772 31.6482 22.4559 32.0382 22.3856C32.8082 22.2448 33.4482 22.8179 34.0182 23.3207C34.7382 23.9643 34.9982 24.1051 35.1782 23.9643C35.3382 23.8336 35.3182 23.542 35.2682 23.3207C34.9582 21.9532 33.9482 20.6157 32.8982 19.3688C31.0282 17.1465 27.6182 15.0147 24.2182 13.9387C23.8182 13.8181 23.5982 13.3857 23.7282 12.9834C23.8482 12.5812 24.2782 12.36 24.6782 12.4907C27.5882 13.4058 31.5882 15.437 34.0582 18.3834C35.2282 19.7811 36.3682 21.2995 36.7482 22.9889C36.9582 23.9241 36.7282 24.6984 36.1082 25.171C35.7582 25.4425 35.4082 25.5531 35.0782 25.5531L35.0582 25.5632Z" fill="#213E7A"/>
<path d="M-0.102019 18.3438C-0.212019 17.8913 -0.202019 17.4689 0.117981 17.0969C0.887981 16.7248 1.37798 17.2176 1.91798 17.66C2.21798 17.9013 0.717981 18.5751 1.21798 18.2332C1.67798 17.9214 0.407981 18.7259 -0.252019 15.0757C-1.26202 9.50481 3.49798 6.61881 5.91798 1.92279C6.11798 1.54067 6.35798 1.29933 6.79798 1.3295C7.26798 1.36972 7.38798 1.74179 7.52798 2.11385C7.66798 2.49597 7.67798 3.00881 8.23798 3.03897C8.80798 3.06914 9.02798 2.59652 9.23798 2.18424C10.828 -0.922982 11.618 -4.17098 11.088 -7.68043C10.908 -8.87706 11.348 -9.2994 12.408 -8.74634C16.778 -6.4838 20.818 -3.80898 22.938 0.937327C23.358 1.88257 23.558 2.87808 23.638 3.90377C23.788 5.60318 24.168 5.78419 25.558 4.73839C26.228 4.23561 26.788 3.56187 27.748 3.68254C28.138 5.17079 28.648 8.99196 28.698 9.42436C29.088 12.6221 29.048 15.7997 28.368 18.9572C26.748 26.5191 21.648 30.9637 14.258 31.004C8.75798 31.0341 4.45798 28.7012 1.67798 23.7839C0.707981 22.0745 0.497981 20.1438 -0.102019 18.3337V18.3438Z" fill="#3B84F5"/>
<path d="M17.9263 15.9807C19.7322 15.9807 21.1963 14.5086 21.1963 12.6925C21.1963 10.8765 19.7322 9.4043 17.9263 9.4043C16.1203 9.4043 14.6562 10.8765 14.6562 12.6925C14.6562 14.5086 16.1203 15.9807 17.9263 15.9807Z" fill="white"/>
<path d="M17.3464 14.039C18.1914 14.039 18.8764 13.3501 18.8764 12.5004C18.8764 11.6507 18.1914 10.9619 17.3464 10.9619C16.5014 10.9619 15.8164 11.6507 15.8164 12.5004C15.8164 13.3501 16.5014 14.039 17.3464 14.039Z" fill="#213E7A"/>
<path d="M11.727 15.8294C13.533 15.8294 14.997 14.3572 14.997 12.5412C14.997 10.7251 13.533 9.25293 11.727 9.25293C9.92106 9.25293 8.45703 10.7251 8.45703 12.5412C8.45703 14.3572 9.92106 15.8294 11.727 15.8294Z" fill="white"/>
<path d="M12.2878 13.8075C13.1328 13.8075 13.8178 13.1187 13.8178 12.269C13.8178 11.4193 13.1328 10.7305 12.2878 10.7305C11.4428 10.7305 10.7578 11.4193 10.7578 12.269C10.7578 13.1187 11.4428 13.8075 12.2878 13.8075Z" fill="#213E7A"/>
<path d="M23.5081 14.0694C24.1598 14.0694 24.6881 13.5382 24.6881 12.8829C24.6881 12.2275 24.1598 11.6963 23.5081 11.6963C22.8564 11.6963 22.3281 12.2275 22.3281 12.8829C22.3281 13.5382 22.8564 14.0694 23.5081 14.0694Z" fill="#FFCA3F"/>
<path d="M6.20734 14.1603C6.85904 14.1603 7.38734 13.629 7.38734 12.9737C7.38734 12.3184 6.85904 11.7871 6.20734 11.7871C5.55565 11.7871 5.02734 12.3184 5.02734 12.9737C5.02734 13.629 5.55565 14.1603 6.20734 14.1603Z" fill="#FFCA3F"/>
<path d="M7.45797 18.2533C8.58798 16.765 10.548 17.67 11.778 18.5449C14.408 20.3046 15.658 18.6052 18.018 17.6097C19.098 17.2578 20.018 17.4488 20.698 18.3639C21.378 19.289 20.838 20.3348 20.188 21.1192C19.508 21.9437 18.628 22.6175 17.648 23.1102C16.938 22.4164 15.598 21.9538 14.048 21.9538C12.498 21.9538 11.128 22.4365 10.428 23.1404C9.44798 22.6979 8.57797 22.0443 7.86797 21.1192C7.22797 20.2845 6.70797 19.1784 7.45797 18.2533Z" fill="#213E7A"/>
<path d="M10.4272 23.5122C10.3772 23.5122 10.3172 23.5022 10.2672 23.4821C9.17722 22.9893 8.26722 22.2653 7.56722 21.3502C6.31722 19.7212 6.65722 18.6453 7.16722 18.0218C8.18722 16.6944 9.94722 16.7749 12.0072 18.243C13.8172 19.4497 14.8172 18.8967 16.3172 18.062C16.7972 17.7905 17.2972 17.519 17.8772 17.2676C19.1972 16.8453 20.2672 17.147 21.0072 18.1425C21.4672 18.7659 21.7472 19.8318 20.4872 21.3704C19.7872 22.215 18.8672 22.9391 17.8272 23.4519C17.6872 23.5223 17.5172 23.4921 17.3972 23.3815C16.7272 22.7379 15.4472 22.3357 14.0672 22.3357C12.6872 22.3357 11.3672 22.748 10.7072 23.4117C10.6372 23.4821 10.5372 23.5223 10.4372 23.5223L10.4272 23.5122ZM9.06722 17.8408C8.57722 17.8408 8.11722 18.0117 7.76722 18.4743C7.76722 18.4743 7.76722 18.4743 7.76722 18.4844C7.27722 19.0777 7.41722 19.8821 8.17722 20.8776C8.75722 21.6318 9.49722 22.2352 10.3672 22.6776C11.1972 21.9838 12.5772 21.5715 14.0572 21.5715C15.5372 21.5715 16.8672 21.9737 17.7072 22.6474C18.5572 22.1949 19.3172 21.5815 19.8972 20.8776C20.6672 19.9525 20.8272 19.1883 20.3972 18.595C19.8572 17.8509 19.1372 17.6598 18.1372 17.9816C17.6272 18.2028 17.1472 18.4643 16.6872 18.7257C15.1972 19.5603 13.7872 20.3447 11.5772 18.8765C11.0472 18.4944 10.0072 17.8609 9.06722 17.8609V17.8408Z" fill="#213E7A"/>
<path d="M17.638 23.101C16.458 23.6842 15.128 23.9859 13.828 23.9155C12.628 23.8451 11.468 23.6038 10.418 23.1311C11.128 22.4272 12.488 21.7334 14.048 21.7334C15.608 21.7334 16.928 22.4172 17.638 23.101Z" fill="#E13E6B"/>
<path d="M14.228 24.3077C14.088 24.3077 13.948 24.3077 13.808 24.2976C12.478 24.2172 11.288 23.9457 10.268 23.4831C10.158 23.4328 10.078 23.3322 10.048 23.2015C10.028 23.0809 10.068 22.9501 10.158 22.8697C10.858 22.1758 12.288 21.3613 14.058 21.3613C15.828 21.3613 17.168 22.1256 17.908 22.8395C17.998 22.93 18.038 23.0507 18.018 23.1714C17.998 23.292 17.918 23.4026 17.808 23.4529C16.668 24.016 15.438 24.3177 14.228 24.3177V24.3077ZM11.148 23.0205C11.948 23.3121 12.858 23.4831 13.848 23.5434C14.868 23.6038 15.918 23.4228 16.928 23.0205C16.258 22.5479 15.238 22.1256 14.058 22.1256C12.878 22.1256 11.858 22.5378 11.158 23.0306L11.148 23.0205Z" fill="#213E7A"/>
</g>
<mask id="mask1_1311_52659" style="mask-type:luminance" maskUnits="userSpaceOnUse" x="0" y="0" width="30" height="30">
<path d="M14.63 29.7779C10.13 29.7779 5.94 27.7366 3.14 24.1769C1.09 21.5624 0 18.415 0 15.0765C0 6.97156 6.56 0.375 14.62 0.375C22.68 0.375 29.24 6.97156 29.24 15.0765C29.24 18.415 28.16 21.5624 26.1 24.1769C23.3 27.7366 19.12 29.7779 14.61 29.7779H14.63ZM14.63 1.45096C7.16 1.45096 1.09 7.55479 1.09 15.0664C1.09 18.1636 2.09 21.0697 3.99 23.4931C6.58 26.7914 10.46 28.6819 14.63 28.6819C18.8 28.6819 22.68 26.7914 25.27 23.4931C27.17 21.0697 28.17 18.1636 28.17 15.0664C28.17 7.55479 22.1 1.45096 14.63 1.45096Z" fill="white"/>
</mask>
<g mask="url(#mask1_1311_52659)">
<path d="M32.3202 -1.27539H-1.25977V32.4917H32.3202V-1.27539Z" fill="url(#paint0_radial_1311_52659)"/>
</g>
<defs>
<radialGradient id="paint0_radial_1311_52659" cx="0" cy="0" r="1" gradientUnits="userSpaceOnUse" gradientTransform="translate(8.50024 32.4113) scale(51.98 52.2697)">
<stop stop-color="#F9ED41"/>
<stop offset="0.24" stop-color="#FF833D"/>
<stop offset="0.4" stop-color="#EE5468"/>
<stop offset="0.49" stop-color="#E7407B"/>
<stop offset="1" stop-color="#0028FF"/>
</radialGradient>
</defs>
</svg>
