<svg width="641" height="263" viewBox="0 0 641 263" fill="none" xmlns="http://www.w3.org/2000/svg">
<g clip-path="url(#clip0_1531_80908)">
<path d="M409.767 60.56C397.895 60.56 388.231 50.9053 388.231 39.0241C388.231 27.1429 397.895 17.4883 409.767 17.4883C421.639 17.4883 431.303 27.1519 431.303 39.0241C431.303 50.8963 421.648 60.56 409.767 60.56ZM409.767 31.524C405.63 31.524 402.267 34.8864 402.267 39.0241C402.267 43.1618 405.63 46.5243 409.767 46.5243C413.905 46.5243 417.267 43.1618 417.267 39.0241C417.267 34.8864 413.905 31.524 409.767 31.524Z" fill="#3B84F5"/>
<path d="M209.499 60.6238C197.997 60.6238 188.64 51.2666 188.64 39.764V19.6074H202.666V39.764C202.666 43.5321 205.731 46.5971 209.499 46.5971C213.267 46.5971 216.332 43.5321 216.332 39.764V19.6074H230.359V39.764C230.359 51.2666 221.002 60.6238 209.499 60.6238Z" fill="#3B84F5"/>
<path d="M578.439 18.084H557.579V59.9838H571.606V38.9437C571.606 35.1756 574.671 32.1107 578.439 32.1107C582.207 32.1107 585.272 35.1756 585.272 38.9437V59.9838H599.299V38.9437C599.299 27.4411 589.941 18.084 578.439 18.084Z" fill="#3B84F5"/>
<path d="M481.252 45.9566V41.9812H503.87V26.9809C503.87 16.8756 495.649 8.6543 485.543 8.6543C475.438 8.6543 467.226 16.8756 467.226 26.9809V59.9833H504.158V45.9566H481.252ZM485.543 22.69C487.914 22.69 489.834 24.6191 489.834 26.9809C489.834 29.3428 487.905 31.2719 485.543 31.2719C483.181 31.2719 481.252 29.3428 481.252 26.9809C481.252 24.6191 483.181 22.69 485.543 22.69Z" fill="#3B84F5"/>
<path d="M303.926 18.1289C292.496 18.2641 283.22 27.5942 283.22 39.0608C283.22 50.5273 292.487 59.8574 303.926 59.9836L325.083 59.9926V18.1289H303.926ZM297.246 39.0518C297.246 35.2476 300.338 32.1556 304.152 32.1556C307.965 32.1556 311.048 35.2476 311.048 39.0518C311.048 42.8559 307.956 45.9569 304.152 45.9569C300.347 45.9569 297.246 42.8649 297.246 39.0518Z" fill="#3B84F5"/>
<path d="M529.526 18.1289C518.095 18.2641 508.819 27.5942 508.819 39.0608C508.819 50.5273 518.086 59.8574 529.526 59.9836L550.683 59.9926V18.1289H529.526ZM522.855 39.0518C522.855 35.2476 525.947 32.1556 529.76 32.1556C533.573 32.1556 536.656 35.2476 536.656 39.0518C536.656 42.8559 533.564 45.9569 529.76 45.9569C525.956 45.9569 522.855 42.8649 522.855 39.0518Z" fill="#3B84F5"/>
<path d="M372.122 33.8768L387.889 17.5153H368.408L357.257 29.0901V0H343.23V59.983H357.257V53.1229C357.257 49.3548 360.322 46.2899 364.09 46.2899C367.858 46.2899 370.923 49.3548 370.923 53.1229V59.983H384.95V53.1229C384.95 44.4599 379.649 37.0229 372.113 33.8678L372.122 33.8768Z" fill="#3B84F5"/>
<path d="M436.847 18.084V59.9838H450.873V38.9437C450.873 35.1756 453.938 32.1107 457.706 32.1107H462.421V18.084H436.847Z" fill="#3B84F5"/>
<path d="M264.92 2.50586V19.6786L263.839 19.273C260.81 18.2093 257.492 17.7675 254.013 18.2183C243.43 19.5885 235.217 28.8014 235.136 39.4657C235.055 51.437 244.764 61.1998 256.717 61.1998C268.634 61.1998 278.298 51.5362 278.298 39.6189V2.50586H264.911H264.92ZM256.726 47.4075C252.435 47.4075 248.938 43.9098 248.938 39.6189C248.938 35.328 252.426 31.8303 256.726 31.8303C261.026 31.8303 264.515 35.3189 264.515 39.6189C264.515 43.9189 261.017 47.4075 256.726 47.4075Z" fill="#3B84F5"/>
<path d="M168.978 2.50586V19.6786L167.896 19.273C164.867 18.2093 161.55 17.7675 158.07 18.2183C147.487 19.5885 139.275 28.8014 139.194 39.4657C139.113 51.437 148.821 61.1998 160.775 61.1998C172.692 61.1998 182.356 51.5362 182.356 39.6189V2.50586H168.969H168.978ZM160.775 47.4075C156.484 47.4075 152.986 43.9098 152.986 39.6189C152.986 35.328 156.475 31.8303 160.775 31.8303C165.075 31.8303 168.563 35.3189 168.563 39.6189C168.563 43.9189 165.066 47.4075 160.775 47.4075Z" fill="#3B84F5"/>
<path d="M111.465 61.6779C99.2321 61.6779 89.2891 51.7258 89.2891 39.502C89.2891 27.2783 99.2412 17.3262 111.465 17.3262C123.689 17.3262 133.641 27.2783 133.641 39.502C133.641 51.7258 123.689 61.6779 111.465 61.6779ZM111.465 31.5422C107.075 31.5422 103.505 35.1119 103.505 39.502C103.505 43.8922 107.075 47.4619 111.465 47.4619C115.855 47.4619 119.425 43.8922 119.425 39.502C119.425 35.1119 115.855 31.5422 111.465 31.5422Z" fill="#3B84F5"/>
<path d="M62.8677 6.89648C57.5311 6.89648 52.6632 8.93378 48.9673 12.2421C45.2713 8.93378 40.4124 6.89648 35.0668 6.89648C23.5642 6.89648 14.207 16.2536 14.207 27.7562V60.1817H28.2337V27.7562C28.2337 23.9881 31.2987 20.9232 35.0668 20.9232C38.8349 20.9232 41.8998 23.9881 41.8998 27.7562V60.1817H56.0257V27.7562C56.0257 23.9881 59.0906 20.9232 62.8587 20.9232C66.6268 20.9232 69.6918 23.9881 69.6918 27.7562V60.1817H83.7185V27.7562C83.7185 16.2536 74.3613 6.89648 62.8587 6.89648H62.8677Z" fill="#3B84F5"/>
<path d="M531.328 219.523C520.412 219.523 511.532 210.643 511.532 199.727V180.598H524.847V199.727C524.847 203.305 527.758 206.208 531.328 206.208C534.898 206.208 537.81 203.296 537.81 199.727V180.598H551.124V199.727C551.124 210.643 542.245 219.523 531.328 219.523Z" fill="#3B84F5"/>
<path d="M620.924 179.201C610.07 179.327 601.281 188.18 601.281 199.06C601.281 209.941 610.07 218.793 620.924 218.91L641 218.919V179.201H620.924ZM614.596 199.06C614.596 195.445 617.535 192.516 621.14 192.516C624.746 192.516 627.685 195.454 627.685 199.06C627.685 202.666 624.746 205.605 621.14 205.605C617.535 205.605 614.596 202.666 614.596 199.06Z" fill="#3B84F5"/>
<path d="M583.919 164.381V180.679L582.892 180.292C580.016 179.282 576.87 178.858 573.571 179.291C563.528 180.598 555.731 189.333 555.668 199.457C555.586 210.815 564.808 220.082 576.149 220.082C587.462 220.082 596.63 210.914 596.63 199.601V164.381H583.928H583.919ZM576.14 206.993C572.065 206.993 568.748 203.675 568.748 199.601C568.748 195.526 572.065 192.209 576.14 192.209C580.214 192.209 583.532 195.526 583.532 199.601C583.532 203.675 580.214 206.993 576.14 206.993Z" fill="#3B84F5"/>
<path d="M492.89 164.381V180.679L491.862 180.292C488.987 179.282 485.841 178.858 482.541 179.291C472.499 180.598 464.701 189.333 464.638 199.457C464.557 210.815 473.779 220.082 485.119 220.082C496.433 220.082 505.6 210.914 505.6 199.601V164.381H492.899H492.89ZM485.11 206.993C481.036 206.993 477.718 203.675 477.718 199.601C477.718 195.526 481.036 192.209 485.11 192.209C489.185 192.209 492.502 195.526 492.502 199.601C492.502 203.675 489.185 206.993 485.11 206.993Z" fill="#3B84F5"/>
<path d="M438.316 220.533C426.715 220.533 417.276 211.095 417.276 199.493C417.276 187.891 426.715 178.453 438.316 178.453C449.918 178.453 459.356 187.891 459.356 199.493C459.356 211.095 449.918 220.533 438.316 220.533ZM438.316 191.939C434.152 191.939 430.762 195.328 430.762 199.493C430.762 203.658 434.152 207.047 438.316 207.047C442.481 207.047 445.871 203.658 445.871 199.493C445.871 195.328 442.481 191.939 438.316 191.939Z" fill="#3B84F5"/>
<path d="M392.207 168.545C387.141 168.545 382.525 170.474 379.019 173.62C375.512 170.474 370.896 168.545 365.83 168.545C354.914 168.545 346.034 177.424 346.034 188.341V219.108H359.349V188.341C359.349 184.762 362.26 181.859 365.83 181.859C369.4 181.859 372.312 184.771 372.312 188.341V219.108H385.716V188.341C385.716 184.762 388.628 181.859 392.198 181.859C395.768 181.859 398.679 184.771 398.679 188.341V219.108H411.994V188.341C411.994 177.424 403.115 168.545 392.198 168.545H392.207Z" fill="#3B84F5"/>
<path d="M357.717 242.006C357.32 239.149 354.877 236.949 351.911 236.949C348.666 236.949 346.043 239.581 346.043 242.818C346.043 246.054 348.675 248.686 351.911 248.686C354.877 248.686 357.329 246.487 357.717 243.629H416.834V242.006H357.717Z" fill="#3B84F5"/>
<path d="M431.113 242.475L431.636 242.006L442.327 232.55H436.666L426.75 241.06V232.514H422.378V242.006V243.629V252.932H426.75V244.161L437.441 252.932H443.039L432.438 243.629L431.113 242.475Z" fill="#3B84F5"/>
<path d="M465.297 242.005C465.054 235.884 460.664 231.801 454.2 231.801C447.737 231.801 443.31 235.875 443.067 242.005C443.067 242.186 443.04 242.357 443.04 242.537C443.04 242.907 443.058 243.267 443.085 243.619C443.563 249.433 447.908 253.273 454.2 253.273C460.492 253.273 464.801 249.442 465.279 243.619C465.306 243.267 465.324 242.907 465.324 242.537C465.324 242.357 465.306 242.177 465.297 242.005ZM454.2 249.298C450.116 249.298 447.8 247.342 447.439 243.628C447.403 243.276 447.385 242.925 447.385 242.546C447.385 242.366 447.394 242.186 447.403 242.014C447.592 237.949 449.927 235.794 454.209 235.794C454.38 235.794 454.534 235.803 454.696 235.812C458.635 235.975 460.799 238.111 460.979 242.014C460.979 242.195 460.997 242.366 460.997 242.546C460.997 242.925 460.97 243.285 460.943 243.628C460.591 247.18 458.455 249.127 454.705 249.28C454.543 249.28 454.38 249.298 454.218 249.298H454.2Z" fill="#3B84F5"/>
<path d="M487.265 243.628C487.689 243.168 488.031 242.627 488.284 242.005C488.653 241.103 488.852 240.04 488.852 238.805C488.852 234.784 486.778 232.477 483.155 232.477H468.857V252.958H473.266V245.232H480.369C483.777 245.232 484.867 247.008 484.867 252.552V252.958H489.203V252.552C489.203 248.495 488.545 245.602 487.193 243.709C487.22 243.682 487.247 243.646 487.265 243.619V243.628ZM473.266 236.461H481.433C482.839 236.461 484.516 236.876 484.516 238.841C484.516 240.806 482.839 241.221 481.433 241.221H473.266V236.461Z" fill="#3B84F5"/>
<path d="M497.289 244.962H512.208V243.628V242.005V240.941H497.289V236.497H512.56V232.477H492.953V242.005V243.628V252.931H513.263V248.91H497.289V244.962Z" fill="#3B84F5"/>
<path d="M534.889 242.005L530.95 232.477H524.306L520.367 242.005L519.7 243.628L515.859 252.931H520.511L523.224 246.368H532.023L534.736 252.931H539.387L535.547 243.628L534.88 242.005H534.889ZM527.281 236.497H527.975L530.247 242.005L530.391 242.348H524.865L525.009 242.005L527.281 236.497Z" fill="#3B84F5"/>
<path d="M558.147 232.477V242.005V243.628V246.449L555.749 243.628L554.379 242.005L546.293 232.477H542.173V242.005V243.628V252.931H546.509V243.628V242.005V238.994L549.078 242.005L550.457 243.628L558.363 252.931H562.483V243.628V242.005V232.477H558.147Z" fill="#3B84F5"/>
<path d="M635.132 236.949C632.166 236.949 629.714 239.149 629.326 242.006H569.091V243.629H629.326C629.723 246.487 632.166 248.686 635.132 248.686C638.377 248.686 641 246.054 641 242.818C641 239.581 638.368 236.949 635.132 236.949Z" fill="#3B84F5"/>
<path d="M111.555 262.774C100.701 262.774 91.8672 253.94 91.8672 243.086C91.8672 232.233 100.701 223.398 111.555 223.398C122.409 223.398 131.243 232.233 131.243 243.086C131.243 253.94 122.409 262.774 111.555 262.774ZM111.555 236.226C107.769 236.226 104.695 239.3 104.695 243.086C104.695 246.872 107.769 249.946 111.555 249.946C115.341 249.946 118.415 246.872 118.415 243.086C118.415 239.3 115.341 236.226 111.555 236.226Z" fill="#3B84F5"/>
<path d="M179.165 206.498C168.645 206.498 160.09 197.943 160.09 187.423V168.988H172.918V187.423C172.918 190.867 175.721 193.67 179.165 193.67C182.608 193.67 185.412 190.867 185.412 187.423V168.988H198.24V187.423C198.24 197.943 189.685 206.498 179.165 206.498Z" fill="#3B84F5"/>
<path d="M265.768 223.939H246.693V262.251H259.521V243.014C259.521 239.571 262.325 236.767 265.768 236.767C269.212 236.767 272.015 239.571 272.015 243.014V262.251H284.843V243.014C284.843 232.494 276.288 223.939 265.768 223.939Z" fill="#3B84F5"/>
<path d="M176.912 249.425V245.792H197.591V232.081C197.591 222.841 190.073 215.332 180.842 215.332C171.611 215.332 164.093 222.85 164.093 232.081V262.253H197.861V249.425H176.921H176.912ZM180.833 228.151C182.996 228.151 184.754 229.909 184.754 232.072C184.754 234.236 182.996 235.993 180.833 235.993C178.669 235.993 176.912 234.236 176.912 232.072C176.912 229.909 178.669 228.151 180.833 228.151Z" fill="#3B84F5"/>
<path d="M265.497 167.645C255.04 167.771 246.566 176.299 246.566 186.782C246.566 197.266 255.04 205.794 265.497 205.911L284.842 205.92V167.654H265.497V167.645ZM259.394 186.782C259.394 183.303 262.225 180.472 265.704 180.472C269.184 180.472 272.015 183.303 272.015 186.782C272.015 190.262 269.184 193.093 265.704 193.093C262.225 193.093 259.394 190.262 259.394 186.782Z" fill="#3B84F5"/>
<path d="M221.047 223.977C210.59 224.103 202.116 232.631 202.116 243.115C202.116 253.598 210.59 262.126 221.047 262.243L240.392 262.252V223.986H221.047V223.977ZM214.944 243.115C214.944 239.635 217.775 236.804 221.254 236.804C224.734 236.804 227.564 239.635 227.564 243.115C227.564 246.594 224.734 249.425 221.254 249.425C217.775 249.425 214.944 246.594 214.944 243.115Z" fill="#3B84F5"/>
<path d="M77.1376 238.373L91.5519 223.418H73.7391L63.5436 233.992V206.092H50.7158V262.244H63.5436V255.97C63.5436 252.526 66.3471 249.722 69.7907 249.722C73.2343 249.722 76.0378 252.526 76.0378 255.97V262.244H88.8655V255.97C88.8655 248.055 84.0157 241.249 77.1286 238.364L77.1376 238.373Z" fill="#3B84F5"/>
<path d="M136.31 223.939V262.251H149.137V243.014C149.137 239.571 151.941 236.767 155.384 236.767H159.693V223.939H136.31Z" fill="#3B84F5"/>
<path d="M229.836 153.365V169.069L228.844 168.69C226.077 167.716 223.048 167.311 219.866 167.725C210.193 168.978 202.675 177.398 202.612 187.152C202.531 198.096 211.419 207.029 222.345 207.029C233.243 207.029 242.078 198.195 242.078 187.296V153.365H229.836ZM222.345 194.418C218.414 194.418 215.223 191.226 215.223 187.296C215.223 183.366 218.414 180.175 222.345 180.175C226.275 180.175 229.466 183.366 229.466 187.296C229.466 191.226 226.275 194.418 222.345 194.418Z" fill="#3B84F5"/>
<path d="M142.124 153.365V169.069L141.132 168.69C138.365 167.716 135.336 167.311 132.154 167.725C122.481 168.978 114.963 177.398 114.9 187.152C114.819 198.096 123.707 207.029 134.633 207.029C145.532 207.029 154.366 198.195 154.366 187.296V153.365H142.124ZM134.624 194.418C130.694 194.418 127.502 191.226 127.502 187.296C127.502 183.366 130.694 180.175 134.624 180.175C138.554 180.175 141.745 183.366 141.745 187.296C141.745 191.226 138.554 194.418 134.624 194.418Z" fill="#3B84F5"/>
<path d="M89.2357 207.471C78.0576 207.471 68.9619 198.376 68.9619 187.198C68.9619 176.02 78.0576 166.924 89.2357 166.924C100.414 166.924 109.51 176.02 109.51 187.198C109.51 198.376 100.414 207.471 89.2357 207.471ZM89.2357 179.914C85.2242 179.914 81.9609 183.177 81.9609 187.189C81.9609 191.2 85.2242 194.463 89.2357 194.463C93.2472 194.463 96.5105 191.2 96.5105 187.189C96.5105 183.177 93.2472 179.914 89.2357 179.914Z" fill="#3B84F5"/>
<path d="M44.4867 157.377C39.6008 157.377 35.1567 159.234 31.7852 162.263C28.4047 159.234 23.9605 157.377 19.0836 157.377C8.56363 157.377 0.00878906 165.932 0.00878906 176.452V206.092H12.8365V176.452C12.8365 173.008 15.6401 170.205 19.0836 170.205C22.5272 170.205 25.3308 173.008 25.3308 176.452V206.092H38.2487V176.452C38.2487 173.008 41.0522 170.205 44.4958 170.205C47.9393 170.205 50.7429 173.008 50.7429 176.452V206.092H63.5706V176.452C63.5706 165.932 55.0158 157.377 44.4958 157.377H44.4867Z" fill="#3B84F5"/>
</g>
<defs>
<clipPath id="clip0_1531_80908">
<rect width="641" height="262.775" fill="white"/>
</clipPath>
</defs>
</svg>
