<svg width="88" height="68" viewBox="0 0 88 68" fill="none" xmlns="http://www.w3.org/2000/svg">
<g clip-path="url(#clip0_1046_67721)">
<path d="M15.9526 60.4978C19.749 64.5872 24.444 64.532 29.4734 62.7774C34.5306 61.009 40.1172 60.9676 45.2581 62.4182C50.4616 63.8826 56.7657 68.3312 62.3175 65.9135C63.8221 65.2573 65.271 64.3317 66.9707 64.3109C69.0396 64.2902 71.0109 65.2435 73.0798 65.3333C75.5875 65.4438 78.5132 64.3593 79.4188 61.831C80.0318 60.111 79.5163 58.2045 78.757 56.5397C77.7469 54.3223 76.3189 52.2983 74.5635 50.599C73.846 49.9013 73.3236 47.532 74.2361 46.9034C74.7516 46.5442 76.3886 46.6892 77.0434 46.5994C78.0395 46.4613 79.0287 46.2817 80.0039 46.0192C81.6339 45.5771 83.3614 44.8518 84.6432 43.7465C85.6254 42.8969 86.3846 41.7502 86.5588 40.4653C87.1369 36.3483 82.3862 35.4503 79.4327 36.8664C77.8654 37.6193 74.7377 40.2167 73.045 38.4483C72.2091 37.5779 72.5852 36.1065 72.5713 35.0358C72.4807 29.5165 70.593 24.087 67.535 19.5003C64.2122 14.5198 59.6705 11.3284 54.6829 8.15084C51.2905 5.99562 49.4097 -0.490771 44.3316 1.91313C42.1931 2.92166 40.6536 4.77985 38.5987 5.91963C35.5546 7.60512 32.0716 8.28209 29.0067 10.0297C26.1437 11.66 23.5663 13.7738 21.3721 16.226C16.9209 21.1996 14.1345 27.5616 13.5563 34.1862C11.2228 33.5576 8.86829 32.929 6.45113 32.7977C4.95346 32.7148 3.28862 32.8944 2.26463 33.979C0.133074 36.2378 2.32733 39.5881 4.45889 40.9143C6.4163 42.1301 8.75684 42.5515 10.979 43.187C11.181 43.2423 11.383 43.3044 11.5432 43.4288C13.5842 44.9416 9.29321 49.0793 8.28316 49.9911C6.40933 51.6766 4.15935 53.4105 3.93645 56.1045C3.73444 58.5568 5.7824 60.7949 8.1717 61.4442C10.561 62.0935 12.8319 61.3613 15.054 60.2768C15.5207 60.0488 15.869 60.4011 15.9526 60.4978Z" fill="#FFCA3F"/>
<path d="M58.8062 68C55.5392 68 52.2652 66.6391 49.2769 65.3957C47.7165 64.7464 46.2467 64.1316 44.8814 63.7517C39.8938 62.3494 34.5858 62.4668 29.9396 64.0902C23.726 66.2592 18.9056 65.4924 15.2137 61.7415C13.1936 62.681 10.6023 63.5445 7.802 62.7846C4.56287 61.9073 2.30592 58.9922 2.54276 56.0012C2.78657 53.0101 4.91813 51.1174 6.80588 49.4457L7.34225 48.9691C9.49471 47.028 10.7068 45.1422 10.6928 44.5481C10.658 44.5343 10.6232 44.5274 10.5884 44.5205C10.1216 44.3892 9.65493 44.2649 9.18821 44.1406C7.34225 43.657 5.44057 43.1597 3.71999 42.089C2.10391 41.0873 0.341541 39.0564 0.0420078 36.7838C-0.146071 35.3677 0.271882 34.069 1.24711 33.0398C2.38254 31.8378 4.16581 31.2921 6.52724 31.4234C8.53342 31.5339 10.4699 31.9622 12.3507 32.4457C13.2354 26.1528 16.0287 20.1223 20.3267 15.3145C22.6602 12.7033 25.3491 10.5205 28.3096 8.83499C29.9744 7.88863 31.7298 7.2393 33.4295 6.6176C35.0177 6.03735 36.5223 5.48473 37.9155 4.71106C38.7514 4.24824 39.5177 3.62654 40.3327 2.9703C41.3567 2.14137 42.4224 1.28481 43.7251 0.663109C48.1484 -1.42994 50.8163 1.85815 52.7668 4.25515C53.6654 5.36039 54.5152 6.40346 55.4277 6.98371C60.1994 10.0162 65.1521 13.4287 68.6908 18.7338C72.0414 23.7627 73.8664 29.3925 73.957 35.0085C73.957 35.2986 73.9431 35.6233 73.9222 35.9549C73.8804 36.542 73.8386 37.2742 74.0475 37.4953C74.6188 38.0894 76.4577 36.991 77.5583 36.3279C78.0111 36.0585 78.4361 35.8029 78.8122 35.6233C81.2085 34.4697 84.1968 34.6217 86.0776 35.9756C87.5474 37.0325 88.2022 38.6972 87.9236 40.6521C87.7076 42.1718 86.8648 43.6432 85.5413 44.783C84.2456 45.902 82.4972 46.7655 80.3517 47.3458C79.4182 47.6013 78.4221 47.7948 77.217 47.9605C76.9175 48.002 76.5762 48.0089 76.1721 48.0158C75.8865 48.0158 75.4268 48.0296 75.1203 48.0642C75.0855 48.5063 75.2875 49.3559 75.5243 49.6184C77.4121 51.4421 78.9237 53.5835 80.0103 55.9735C81.1249 58.4258 81.3548 60.4912 80.7139 62.2942C79.5576 65.5408 75.991 66.8533 73.0027 66.7151C71.8951 66.6668 70.8572 66.4112 69.861 66.1694C68.851 65.9207 67.9036 65.679 66.9702 65.6997C65.9671 65.7135 64.971 66.1901 63.9192 66.6944C63.5709 66.8602 63.2156 67.0329 62.8603 67.1848C61.5159 67.7651 60.1576 68.0069 58.7923 68.0069L58.8062 68ZM37.8528 60.0077C40.4581 60.0077 43.0842 60.3669 45.6407 61.0853C47.1662 61.5136 48.7196 62.1629 50.3566 62.8399C54.2575 64.4632 58.2977 66.1487 61.7597 64.6428C62.0802 64.5046 62.4006 64.3458 62.721 64.1938C63.94 63.6066 65.3263 62.9435 66.9563 62.9228C68.2589 62.902 69.4083 63.1991 70.5437 63.4754C71.4493 63.6964 72.3061 63.9106 73.142 63.9451C75.0576 64.0349 77.426 63.2612 78.1017 61.3616C78.4918 60.2702 78.2898 58.8748 77.4817 57.0995C76.5483 55.0548 75.2039 53.1483 73.5808 51.5802C72.6962 50.7237 72.2643 48.9967 72.3618 47.8224C72.4593 46.6619 72.9957 46.0609 73.4345 45.7639C74.0824 45.3149 74.967 45.2665 76.1443 45.2527C76.402 45.2527 76.7224 45.2458 76.8478 45.2251C77.9345 45.0731 78.8192 44.9004 79.6272 44.6794C81.3408 44.2096 82.7619 43.5258 83.7232 42.6899C84.5242 41.9992 85.0536 41.115 85.1721 40.2653C85.3044 39.3258 85.0676 38.6489 84.4476 38.2068C83.4097 37.4608 81.4732 37.4124 80.0312 38.1032C79.7665 38.2275 79.3973 38.4555 79.0003 38.6903C77.1822 39.7818 74.1451 41.6054 72.0274 39.3949C70.9686 38.2966 71.0661 36.8321 71.1358 35.7684C71.1497 35.5197 71.1706 35.2779 71.1637 35.0499C71.0801 30.0349 69.3734 24.7781 66.3572 20.2535C63.1181 15.3905 58.6181 12.3027 53.9161 9.30472C52.6205 8.48269 51.5895 7.21167 50.5934 5.98209C48.2877 3.1499 47.1383 2.09992 44.9162 3.1499C43.9131 3.62654 43.0285 4.34495 42.0811 5.1048C41.2104 5.80939 40.3118 6.53471 39.2599 7.11496C37.6787 7.99224 35.9999 8.60703 34.3838 9.2011C32.719 9.80898 31.1516 10.3823 29.6888 11.2182C26.986 12.7586 24.541 14.748 22.4025 17.1312C18.1324 21.9114 15.4784 28.004 14.9351 34.297C14.9002 34.7046 14.6843 35.0776 14.343 35.3124C14.0016 35.5473 13.5767 35.6233 13.1797 35.5128C10.9506 34.9118 8.64487 34.297 6.36006 34.1657C4.85543 34.0829 3.81055 34.3315 3.26721 34.9118C2.86319 35.3401 2.71691 35.8098 2.79353 36.4108C2.96071 37.7094 4.15188 39.091 5.18283 39.7334C6.54814 40.5831 8.17119 41.0044 9.8848 41.4534C10.3724 41.5847 10.86 41.709 11.3407 41.8472C11.5775 41.9163 11.9815 42.0268 12.3577 42.31C13.0264 42.8074 13.4165 43.5327 13.4513 44.3616C13.5698 46.7862 10.5117 49.8118 9.19518 50.9931L8.64487 51.4835C7.00789 52.9341 5.46146 54.3019 5.30822 56.1946C5.16193 58.0252 6.86161 59.6416 8.52645 60.0906C10.1913 60.5396 11.9537 60.2218 14.4196 59.013C15.2764 58.5916 16.2795 58.7988 16.9621 59.538C19.9296 62.7293 23.6424 63.3234 28.9992 61.4514C31.7925 60.4774 34.7948 59.987 37.8389 59.987L37.8528 60.0077Z" fill="#17386C"/>
<path d="M61.0493 42.3246C60.6175 37.13 54.7452 39.4855 51.8822 40.8187C47.9047 42.67 43.558 42.746 39.3506 41.6408C38.2012 41.3368 37.0728 40.9569 35.9791 40.4941C35.3592 40.2316 34.7531 39.9484 34.161 39.6375C32.6216 38.8362 30.9428 37.0955 29.1595 36.8606C26.1224 36.4599 24.6038 39.1263 24.4158 41.3645C24.1371 44.7009 29.0063 47.3673 31.6394 48.4242C31.918 48.5347 32.2106 48.6314 32.4962 48.7281C35.1014 47.8232 38.4381 46.9667 41.7051 47.0012C45.3273 47.0357 48.9775 48.8179 51.6315 50.4965C54.996 50.0199 58.2073 48.7834 60.095 45.7854C60.7428 44.7493 61.1469 43.5335 61.0493 42.3177V42.3246Z" fill="#213E7A" stroke="#213E7A" stroke-width="2" stroke-linecap="round" stroke-linejoin="round"/>
<path d="M32.5039 48.7358C37.1153 50.3867 42.3955 50.7874 47.2367 50.7805C48.6648 50.7805 50.1694 50.7114 51.6392 50.5041C48.9921 48.8256 45.342 47.0434 41.7128 47.0088C38.4458 46.9743 35.1091 47.8308 32.5039 48.7358Z" fill="#E13E6B" stroke="#213E7A" stroke-width="2" stroke-linecap="round" stroke-linejoin="round"/>
<path d="M37.2318 34.1717C41.202 34.1717 44.4206 30.98 44.4206 27.0429C44.4206 23.1057 41.202 19.9141 37.2318 19.9141C33.2615 19.9141 30.043 23.1057 30.043 27.0429C30.043 30.98 33.2615 34.1717 37.2318 34.1717Z" fill="white"/>
<path d="M38.5559 30.0967C40.4141 30.0967 41.9204 28.6029 41.9204 26.7603C41.9204 24.9176 40.4141 23.4238 38.5559 23.4238C36.6978 23.4238 35.1914 24.9176 35.1914 26.7603C35.1914 28.6029 36.6978 30.0967 38.5559 30.0967Z" fill="#17386C"/>
<path d="M50.8157 35.2225C54.786 35.2225 58.0045 32.0308 58.0045 28.0937C58.0045 24.1565 54.786 20.9648 50.8157 20.9648C46.8455 20.9648 43.627 24.1565 43.627 28.0937C43.627 32.0308 46.8455 35.2225 50.8157 35.2225Z" fill="white"/>
<path d="M49.6516 30.7315C51.5098 30.7315 53.0162 29.2377 53.0162 27.395C53.0162 25.5524 51.5098 24.0586 49.6516 24.0586C47.7935 24.0586 46.2871 25.5524 46.2871 27.395C46.2871 29.2377 47.7935 30.7315 49.6516 30.7315Z" fill="#17386C"/>
<path d="M25.0073 28.7761C26.4385 28.7761 27.5986 27.6256 27.5986 26.2064C27.5986 24.7872 26.4385 23.6367 25.0073 23.6367C23.5762 23.6367 22.416 24.7872 22.416 26.2064C22.416 27.6256 23.5762 28.7761 25.0073 28.7761Z" fill="#E13E6B"/>
<path d="M62.7905 32.8445C64.2217 32.8445 65.3818 31.694 65.3818 30.2748C65.3818 28.8556 64.2217 27.7051 62.7905 27.7051C61.3594 27.7051 60.1992 28.8556 60.1992 30.2748C60.1992 31.694 61.3594 32.8445 62.7905 32.8445Z" fill="#E13E6B"/>
<path d="M35.7364 6.03749C35.2557 5.69901 34.7402 5.40198 34.2178 5.13949C33.7163 4.89081 33.2078 4.66976 32.6992 4.46943C32.1071 4.24148 31.4663 4.02734 30.8045 3.84773C28.5267 3.22604 26.005 3.03262 24.1173 4.09641C22.2852 5.12567 21.3727 7.38451 20.8015 9.39467C20.7946 9.42921 20.7876 9.46374 20.7806 9.49828C20.4741 10.6035 20.2791 11.7502 20.2025 12.9176C20.1885 13.1387 20.2024 13.3666 20.1955 13.5946C20.1816 13.9883 20.1676 14.3821 20.1816 14.7758C20.1955 15.1212 20.1119 16.2817 20.7388 15.9225C25.5871 13.1318 30.4214 10.3203 35.1512 7.31543C35.3393 7.19109 35.5274 7.06675 35.7224 6.94932C36.1125 6.70064 36.2101 6.35525 35.7433 6.03059L35.7364 6.03749Z" fill="#17386C"/>
<path d="M20.5155 17.0412C20.2995 17.0412 20.0836 16.986 19.8885 16.8754C19.1362 16.4472 19.1292 15.5077 19.1292 14.9482V14.8238C19.1153 14.4853 19.1292 14.1469 19.1292 13.8015V13.5666C19.1362 13.4837 19.1362 13.4077 19.1362 13.3248C19.1362 13.166 19.1362 13.0071 19.1432 12.8551C19.2268 11.6324 19.4288 10.4167 19.7562 9.22163C19.7562 9.20091 19.7701 9.15946 19.784 9.11111C20.3343 7.17693 21.3235 4.46218 23.5874 3.18425C25.4543 2.13427 28.0386 2.01684 31.0688 2.83886C31.7654 3.02537 32.4341 3.24642 33.068 3.48819C33.6531 3.71615 34.1825 3.9441 34.6771 4.19969C35.2901 4.50363 35.8334 4.8283 36.328 5.17368C36.9967 5.64341 37.0873 6.20985 37.0803 6.50688C37.0803 6.80392 36.9619 7.37035 36.2653 7.81245C36.133 7.89534 36.0145 7.97133 35.8961 8.04731L35.6941 8.17856C30.9434 11.1973 26.1508 13.988 21.2399 16.8133C20.9961 16.9514 20.7453 17.0205 20.5015 17.0205L20.5155 17.0412ZM27.3629 4.3862C26.3947 4.3862 25.4403 4.55199 24.6253 5.0079C23.0301 5.899 22.25 8.10948 21.8041 9.68445C21.8041 9.69827 21.7902 9.73971 21.7832 9.78807C21.4907 10.838 21.3096 11.9157 21.2399 13.0002C21.2399 13.1107 21.2399 13.2212 21.2399 13.3317C21.2399 13.4354 21.2399 13.539 21.2399 13.6426V13.8844C21.226 14.0778 21.219 14.2712 21.219 14.4646C25.7329 11.8604 30.1632 9.26999 34.5308 6.49307C34.287 6.348 34.0362 6.20985 33.7576 6.07169C33.3187 5.85064 32.8451 5.64341 32.3226 5.44309C31.7584 5.22895 31.1593 5.02862 30.5324 4.85593C29.6059 4.60725 28.4844 4.3862 27.3699 4.3862H27.3629ZM35.1368 6.88681C35.1368 6.88681 35.1438 6.90062 35.1508 6.90062L35.7359 6.04406L35.1368 6.88681Z" fill="#17386C"/>
<path d="M69.5324 17.0555C69.5881 16.5029 69.616 15.9503 69.616 15.4045C69.616 14.769 69.5881 14.1059 69.5254 13.4289C69.2956 11.101 68.5851 8.69711 66.9063 7.32246C65.2832 5.99617 62.8312 5.95473 60.7275 6.14124C60.6927 6.14124 60.6579 6.15505 60.623 6.15505C59.4737 6.26558 58.3173 6.49353 57.1889 6.83892C56.9729 6.908 56.7639 6.9978 56.548 7.07378C56.1718 7.20503 55.7957 7.32246 55.4265 7.48134C55.1061 7.6195 53.9846 7.95798 54.5488 8.40698C58.9094 11.9023 63.277 15.3838 67.7979 18.6926C67.979 18.8239 68.1671 18.9551 68.3482 19.0933C68.7244 19.3627 69.0796 19.3351 69.2259 18.7824C69.3722 18.216 69.4697 17.6358 69.5254 17.0555H69.5324Z" fill="#17386C"/>
<path d="M68.7802 20.2948C68.4946 20.2948 68.1323 20.2119 67.7422 19.9286L67.1919 19.528C62.6502 16.2054 58.3174 12.7584 53.901 9.21471C53.49 8.88314 53.302 8.43413 53.3716 7.96441C53.504 7.11475 54.3886 6.77627 54.9111 6.56904L55.0225 6.52759C55.336 6.39635 55.6564 6.28582 55.9769 6.1753L56.2067 6.09931C56.2834 6.07168 56.36 6.04405 56.4366 6.01642C56.5829 5.96116 56.7361 5.89899 56.8894 5.85754C58.0666 5.49834 59.2857 5.25656 60.5256 5.13222C60.5535 5.13222 60.5952 5.11841 60.644 5.11841C62.6571 4.93881 65.5689 4.88355 67.5751 6.5345C69.226 7.88842 70.2639 10.244 70.5634 13.3386C70.6331 14.0501 70.6679 14.7478 70.6609 15.4179C70.6609 16.0465 70.6261 16.6129 70.5704 17.1655C70.5007 17.8425 70.3962 18.4573 70.243 19.0445C70.041 19.8319 69.5394 20.1221 69.2538 20.2188C69.1354 20.2602 68.9752 20.3017 68.7732 20.3017L68.7802 20.2948ZM56.1162 8.32361C60.1843 11.5772 64.1966 14.7547 68.3692 17.8149C68.4179 17.5386 68.4597 17.2484 68.4876 16.9514C68.5364 16.4679 68.5642 15.9567 68.5712 15.3972C68.5712 14.7962 68.5433 14.1745 68.4806 13.5321C68.3065 11.7637 67.7771 9.3805 66.2376 8.12329C64.8235 6.96278 62.476 7.03186 60.8251 7.17692C60.8112 7.17692 60.7694 7.19074 60.7276 7.19074C59.634 7.29435 58.5473 7.5154 57.5094 7.83316C57.4049 7.8677 57.3004 7.90914 57.1959 7.94368C57.0984 7.97822 57.0009 8.01967 56.9033 8.05421L56.6665 8.1371C56.4854 8.19927 56.2973 8.26144 56.1162 8.33052V8.32361Z" fill="#17386C"/>
</g>
<defs>
<clipPath id="clip0_1046_67721">
<rect width="88" height="68" fill="white"/>
</clipPath>
</defs>
</svg>
