<svg width="18" height="19" viewBox="0 0 18 19" fill="none" xmlns="http://www.w3.org/2000/svg">
<path d="M16.0421 0.558076H2.65249C1.7239 0.558076 0.955078 1.26021 0.955078 2.12863V16.9748C0.955078 17.4275 1.22465 17.8248 1.67397 18.0095C1.84371 18.0834 2.01346 18.1112 2.19318 18.1112C2.48274 18.1112 2.76232 18.0188 2.99197 17.834L9.35227 12.7898L15.7126 17.834C16.082 18.1296 16.5912 18.1943 17.0306 18.0003C17.4699 17.8155 17.7495 17.4183 17.7495 16.9656V2.11938C17.7495 1.2602 16.9906 0.548828 16.0521 0.548828L16.0421 0.558076ZM16.741 16.9748C16.741 17.0949 16.6512 17.1504 16.6012 17.1688C16.5613 17.1873 16.4515 17.215 16.3516 17.1411L9.67179 11.8382C9.48208 11.6904 9.21248 11.6904 9.02277 11.8382L2.34296 17.1411C2.24312 17.2243 2.13328 17.1873 2.09334 17.1688C2.0534 17.1504 1.95356 17.0949 1.95356 16.9748V2.12863C1.95356 1.77756 2.26308 1.48192 2.65249 1.48192H16.0421C16.4215 1.48192 16.741 1.76833 16.741 2.12863V16.9748Z" fill="#3C3C3B"/>
</svg>
