<svg width="1354" height="340" viewBox="0 0 1354 340" fill="none" xmlns="http://www.w3.org/2000/svg">
<path d="M87.3438 111.914V122.578H2.74219V111.914H38.3906V93.0234H11.6797V47.7266H77.8984V93.0234H51.2891V111.914H87.3438ZM24.4766 58.0859V82.8672H65.1016V58.0859H24.4766ZM164.052 73.8281V83.9844H100.169V45.7969H163.138V56.1562H113.474V73.8281H164.052ZM174.005 93.3281V103.586H137.849V133.242H125.052V103.586H89.4034V93.3281H174.005ZM270.038 40.9219V75.25H283.648V85.8125H270.038V133.547H257.038V40.9219H270.038ZM244.14 49.4531V59.9141H213.671V100.438C227.077 100.285 238.148 99.6758 250.437 97.4922L251.859 108.359C237.538 110.797 224.945 111.203 208.593 111.102H200.773V49.4531H244.14Z" fill="white"/>
<path d="M1259.52 40.9219V98.9141H1247.23V74.3359H1239.82V95.8672H1227.73V42.6484H1239.82V63.7734H1247.23V40.9219H1259.52ZM1224.99 50.4688V60.5234H1179.59V50.4688H1195.94V41.7344H1208.84V50.4688H1224.99ZM1202.44 63.5703C1214.22 63.5703 1222.55 70.0703 1222.65 79.7188C1222.55 89.2656 1214.22 95.7656 1202.44 95.7656C1190.86 95.7656 1182.43 89.2656 1182.43 79.7188C1182.43 70.0703 1190.86 63.5703 1202.44 63.5703ZM1202.44 72.9141C1197.36 72.9141 1194.01 75.4531 1194.01 79.7188C1194.01 83.9844 1197.36 86.625 1202.44 86.5234C1207.52 86.625 1210.87 83.9844 1210.97 79.7188C1210.87 75.4531 1207.52 72.9141 1202.44 72.9141ZM1227.93 99.7266C1247.94 99.7266 1259.92 105.82 1260.03 116.586C1259.92 127.25 1247.94 133.344 1227.93 133.344C1208.03 133.344 1195.94 127.25 1195.94 116.586C1195.94 105.82 1208.03 99.7266 1227.93 99.7266ZM1227.93 109.477C1215.44 109.477 1208.84 111.711 1208.94 116.586C1208.84 121.258 1215.44 123.594 1227.93 123.594C1240.53 123.594 1246.92 121.258 1246.92 116.586C1246.92 111.711 1240.53 109.477 1227.93 109.477ZM1351.16 86.7266V97.1875H1266.86V86.7266H1302.41V78.9062H1277.62V43.1562H1290.42V51.5859H1327.49V43.1562H1340.39V78.9062H1315.41V86.7266H1351.16ZM1340.9 103.484V133.344H1328V113.742H1276.2V103.484H1340.9ZM1290.42 68.75H1327.49V61.1328H1290.42V68.75Z" fill="white"/>
<g clip-path="url(#clip0_1338_78225)">
<path d="M954.785 85.3332C958.325 85.9568 961.78 86.9899 962.631 90.9959C963.436 94.7807 960.841 97.4292 958.371 99.9961C959.276 100.309 959.944 100.539 960.85 100.852C961.136 100.406 961.615 99.8899 961.824 99.2829C962.771 96.5098 963.577 93.6889 964.557 90.929C965.171 89.2057 966.116 87.5999 966.707 85.8725C968.179 81.5357 969.864 77.2263 968.459 72.4639C968.012 70.9455 969.48 70.3191 970.532 69.9385C970.978 69.7801 971.977 70.5402 972.398 71.1189C972.756 71.6111 972.762 72.454 972.721 73.1312C972.538 76.0491 972.549 78.9996 971.408 81.7864C970.763 83.3575 970.244 84.9814 969.693 86.5921C969.163 88.142 969.897 89.0796 971.584 89.2913C974.097 89.6093 976.603 89.9877 979.091 90.4545C979.715 90.5701 980.369 91.0091 980.815 91.4807C981.157 91.8435 981.466 92.6194 981.298 92.9845C981.082 93.4526 980.367 93.9692 979.871 93.9666C978.379 93.9589 976.887 93.738 975.4 93.5449C973.282 93.2689 971.178 92.8489 969.053 92.7027C968.446 92.6609 967.513 93.201 967.206 93.7453C965.932 95.9746 964.827 98.3066 963.689 100.612C963.184 101.633 963.196 102.564 964.156 103.417C965.361 104.492 965.67 105.833 965.448 107.492C965.218 109.207 965.514 110.988 965.414 112.727C965.382 113.326 965.005 114.089 964.536 114.447C961.217 116.969 957.433 118.204 953.266 118.299C952.46 118.317 951.627 118.336 950.858 118.543C948.597 119.137 946.58 118.233 944.554 117.547C944.269 117.452 944.021 116.323 944.219 115.878C945.939 112.04 947.77 108.256 949.546 104.44C949.731 104.042 949.748 103.569 949.84 103.155C948.483 102.556 947.256 101.94 945.976 101.459C943.471 100.516 942.313 97.434 943.557 94.9367C944.545 92.9594 945.903 91.1636 947.13 89.3059C947.811 88.276 949.303 87.473 947.938 85.9152C947.876 85.8425 948.547 84.7896 948.98 84.6964C949.981 84.4791 951.064 84.6675 952.084 84.5053C952.689 84.4082 953.239 83.9602 953.816 83.6738C953.757 83.4898 953.701 83.3012 953.641 83.1172C951.143 82.8452 948.649 82.5453 946.151 82.3103C943.965 82.1007 941.763 82.035 939.588 81.7463C938.989 81.6673 937.969 80.9957 937.993 80.6662C938.051 79.933 938.585 79.1936 939.062 78.5574C939.251 78.3076 939.819 78.2298 940.199 78.2628C943.3 78.5258 946.401 78.8119 949.493 79.126C950.867 79.2661 952.235 79.5314 953.609 79.6484C954.788 79.7513 955.276 79.0268 955.284 77.9288C955.301 74.4125 954.131 71.2614 952.272 68.3298C951.498 67.1106 950.665 65.9298 949.974 64.667C949.346 63.5232 949.519 62.3751 950.646 61.6222C951.837 60.8261 953.375 61.4304 954.112 62.8635C954.819 64.2371 955.399 65.697 956.248 66.97C958.559 70.4287 958.447 74.239 958.192 78.122C958.155 78.7158 958.516 79.5275 958.965 79.9202C960.256 81.0489 960.158 82.237 958.567 82.9866C957.243 83.6097 955.914 84.2329 954.589 84.8606C954.657 85.0165 954.721 85.1726 954.79 85.3285L954.785 85.3332ZM962.122 108.504C962.024 105.43 957.901 102.768 954.861 103.925C953.938 104.275 952.849 104.875 952.409 105.677C951.021 108.191 949.905 110.862 948.672 113.465C948.159 114.552 948.48 115.211 949.683 115.165C951.974 115.085 954.263 114.922 956.548 114.745C959.905 114.488 962.222 111.874 962.117 108.499L962.122 108.504ZM952.199 99.5159C954.891 98.9173 957.654 97.0107 959.236 93.8526C959.763 92.8029 959.598 90.3979 958.883 89.9232C957.034 88.7007 954.716 88.179 952.554 87.4546C952.284 87.3635 951.72 87.6265 951.536 87.8901C949.838 90.407 948.167 92.9418 946.568 95.526C946.318 95.93 946.348 96.6381 946.498 97.1303C946.994 98.7727 948.881 99.6748 952.194 99.5114L952.199 99.5159Z" fill="white"/>
<path d="M468.893 87.7301C469.78 87.835 470.354 88.0257 470.894 87.9486C473.498 87.5789 476.102 87.2001 478.685 86.6966C481.507 86.1459 483.273 84.3455 483.928 81.5837C484.27 80.1352 484.24 78.6073 484.522 77.1417C484.845 75.4575 485.219 73.7674 485.798 72.1654C485.95 71.7357 487.042 71.2755 487.518 71.4221C488.237 71.6466 489.262 72.3413 489.327 72.9281C489.483 74.305 489.318 75.7818 488.969 77.1331C488.206 80.0734 487.281 82.9758 486.365 85.8733C485.276 89.312 484.182 92.7509 482.981 96.1505C482.18 98.4154 481.127 100.589 480.308 102.849C479.571 104.872 479.005 105.047 477.444 103.605C477.184 103.365 476.499 103.209 476.262 103.372C472.691 105.844 469.159 108.37 465.443 111.012C468.085 113.082 470.368 114.893 472.669 116.675C474.777 118.308 477.079 119.53 479.732 120.076C480.141 120.159 480.746 120.882 480.698 121.235C480.636 121.737 480.061 122.556 479.687 122.569C478.284 122.62 476.635 122.829 475.514 122.201C471.502 119.958 467.637 117.452 463.791 114.922C462.521 114.084 461.629 113.989 460.43 115.031C458.34 116.843 456.166 118.574 453.875 120.118C453.287 120.516 452.152 120.092 451.266 120.048C451.543 119.393 451.639 118.534 452.12 118.11C457.525 113.355 462.771 108.372 468.528 104.086C471.248 102.06 473.696 99.308 477.291 98.5082C477.765 98.4047 478.309 97.8689 478.511 97.3964C479.52 95.099 480.449 92.771 481.336 90.4254C481.441 90.1497 481.219 89.5572 480.97 89.3961C480.735 89.244 480.177 89.354 479.894 89.5457C477.23 91.3481 474.241 91.7357 471.131 91.6212C469.916 91.5748 468.644 91.6871 467.507 91.3563C464.742 90.5622 463.011 92.0839 461.102 93.6653C457.996 96.2328 454.767 98.6595 451.485 100.999C450.701 101.559 449.526 101.623 448.51 101.757C448.141 101.807 447.522 101.502 447.372 101.19C447.236 100.911 447.491 100.312 447.748 100.005C448.113 99.5799 448.644 99.3038 449.104 98.9598C450.07 98.2337 451.059 97.5349 452.001 96.7723C454.243 94.9471 456.456 93.0901 458.689 91.2559C459.044 90.9652 459.479 90.7654 459.825 90.4657C462.423 88.2109 465.05 85.9878 467.582 83.6604C468.72 82.6107 469.688 81.375 470.675 80.1713C471.329 79.3782 471.907 78.5174 472.457 77.6479C472.806 77.098 473.032 76.4767 473.316 75.8866C472.759 75.6445 472.217 75.2446 471.641 75.1789C466.996 74.6269 462.344 74.1398 457.695 73.6203C456.074 73.4395 455.063 72.3461 455.465 70.8778C455.832 69.5353 456.901 69.2516 458.33 69.5619C459.717 69.8592 461.212 69.6121 462.629 69.8022C465.524 70.1949 468.404 70.7315 471.291 71.1893C471.798 71.2704 472.381 71.4424 472.822 71.2795C475.256 70.381 476.815 71.9205 478.128 73.4054C479.364 74.8086 478.226 76.3076 477.312 77.4494C474.835 80.5538 472.221 83.5455 469.668 86.5914C469.456 86.8464 469.287 87.1375 468.888 87.7163L468.893 87.7301Z" fill="white"/>
<path d="M890.643 104.928C887.628 105.979 884.839 107.367 881.9 107.865C878.171 108.496 874.32 108.436 870.517 108.615C869.323 108.67 868.45 107.777 868.743 106.798C868.967 106.047 870.137 105.557 870.94 105.025C871.09 104.924 871.467 105.198 871.751 105.247C875.416 105.886 875.605 105.266 876.171 102.446C876.5 100.808 877.057 99.2202 877.455 97.5945C878.625 92.8429 878.676 88.1585 876.866 83.5026C876.418 82.3548 876.471 81.0102 876.277 79.5971C875.89 79.731 875.556 79.8961 875.206 79.9643C874.274 80.1384 873.654 79.5873 874.133 78.8307C875.416 76.8049 876.92 74.9132 878.354 72.9813C878.435 72.8729 878.679 72.8303 878.842 72.8405C880.605 72.9856 882.559 72.7142 884.093 73.388C889.357 75.7001 890.975 78.9847 887.815 84.4532C886.745 86.3026 885.346 87.9187 882.936 88.2654C882.437 88.337 881.804 89.2037 881.683 89.7948C881.387 91.2607 881.473 92.8013 881.187 94.2716C880.773 96.4072 880.097 98.4886 879.669 100.62C879.407 101.923 879.396 103.28 879.273 104.613C880.453 104.544 881.736 104.756 882.783 104.347C885.722 103.206 888.649 101.963 891.398 100.436C892.327 99.9196 892.994 98.4962 893.292 97.3591C894.359 93.3464 895.253 89.2821 896.133 85.2227C896.834 82.0105 897.367 78.7604 898.086 75.5478C898.347 74.3884 898.84 73.2562 899.385 72.1923C900.037 70.9221 901.114 70.388 902.631 70.9186C902.753 73.0328 902.599 75.0189 901.608 77.0519C900.803 78.7054 900.63 80.6966 900.311 82.5567C899.992 84.4123 900.013 86.3388 899.568 88.1555C899.068 90.2051 898.237 92.1696 897.513 94.1594C896.886 95.883 897.787 97.6135 899.586 97.7208C901.066 97.8075 902.572 97.6111 904.059 97.4476C907.788 97.0292 911.511 96.5368 915.24 96.1369C915.799 96.0779 916.742 96.1954 916.898 96.5207C917.141 97.0386 917.108 98.0261 916.755 98.4047C916.145 99.0625 915.246 99.6805 914.379 99.8392C911.939 100.288 909.451 100.503 906.985 100.795C903.945 101.151 900.904 101.471 897.869 101.836C895.67 102.104 894.586 103.315 894.238 105.546C893.66 109.232 893.053 112.915 892.317 116.573C892.192 117.187 891.345 117.66 890.829 118.196C890.391 117.654 889.657 117.157 889.574 116.57C889.43 115.531 889.534 114.399 889.803 113.378C890.553 110.531 890.914 107.678 890.653 104.933L890.643 104.928ZM886.243 79.7085C886.413 78.2315 885.242 77.4661 884.067 77.1037C883.003 76.7759 881.762 76.9709 880.605 77.0343C880.411 77.0433 880.121 77.5502 880.095 77.8426C879.988 79.0448 879.845 80.2664 879.951 81.4591C880.1 83.1464 881.82 84.6174 883.011 84.2614C884.976 83.6747 886.207 81.993 886.243 79.7085Z" fill="white"/>
<path d="M352.914 101.544C351.65 103.212 350.449 104.555 349.529 106.068C348.225 108.21 347.062 110.441 346.016 112.716C345.835 113.105 346.379 114.2 346.862 114.457C348.367 115.257 350.027 115.747 351.572 116.476C352.645 116.984 353.62 117.708 354.653 118.305C357.675 120.048 360.748 121.715 363.708 123.556C364.525 124.066 365.186 125.009 365.628 125.898C366.099 126.846 365.566 127.641 364.487 127.263C362.885 126.702 361.379 125.86 359.834 125.145C357.189 123.917 354.535 122.704 351.894 121.467C350.747 120.928 349.64 120.314 348.488 119.789C347.229 119.211 345.904 118.773 344.68 118.134C343.381 117.45 342.502 117.896 341.677 118.897C339.869 121.074 337.957 123.165 336.248 125.413C334.76 127.369 332.757 128.545 330.62 129.497C330.07 129.741 329.178 129.215 328.442 129.042C328.721 128.466 328.867 127.754 329.297 127.336C334.224 122.559 338.971 117.652 342.072 111.412C343.21 109.121 344.222 106.744 345.586 104.596C346.811 102.665 348.426 100.969 350.992 100.772C352.149 100.686 352.689 100.011 352.881 98.8808C353.321 96.2351 353.942 93.613 354.294 90.9553C354.484 89.5196 354.269 88.0329 354.229 86.2597C354.934 86.7115 355.273 86.9261 355.545 87.1052C355.772 84.4411 355.973 81.8656 356.215 79.2938C356.304 78.3283 356.445 77.3662 356.645 76.4167C356.942 74.9878 357.171 73.6809 356.277 72.2606C355.84 71.5665 356.175 70.3869 356.144 69.4287C356.097 68.0031 355.946 66.6631 356.412 65.1609C356.935 63.4768 357.879 63.6499 359.011 63.7306C360.301 63.8217 361.096 64.5818 361.042 65.8662C360.822 70.8555 360.519 75.8468 360.243 80.8373C360.194 81.7001 360.125 82.5632 360.043 83.4267C359.777 86.189 361.43 87.7773 364.254 87.5231C366.612 87.3119 368.98 86.9569 371.327 87.0749C372.305 87.1267 373.256 88.2122 374.148 88.9146C374.238 88.982 373.952 89.8594 373.654 90.0236C372.968 90.4006 372.18 90.7613 371.416 90.7972C367.904 90.9513 364.388 90.9664 360.875 91.0881C358.843 91.1575 358.437 91.6531 358.187 93.6553C357.803 96.7353 357.391 99.8158 356.854 102.871C356.759 103.397 355.994 104.188 355.545 104.184C354.845 104.182 354.075 103.694 353.489 103.221C353.164 102.955 353.163 102.293 352.937 101.557L352.914 101.544Z" fill="white"/>
<path d="M985.035 109.937C991.13 103.586 997.23 97.2357 1003.38 90.8283C1001.64 89.7931 999.358 90.1879 998.507 91.4997C995.773 95.7031 992.192 99.1523 988.606 102.583C985.528 105.53 982.312 108.336 979.11 111.147C978.12 112.017 977.007 112.76 975.878 113.434C975.471 113.675 974.843 113.541 974.315 113.581C974.499 113.09 974.549 112.464 974.889 112.127C977.602 109.416 980.424 106.809 983.099 104.066C986.191 100.896 989.16 97.6093 992.204 94.3901C993 93.5474 993.872 92.7771 994.778 91.9042C993.559 91.4548 992.302 91.363 991.912 90.7372C991.532 90.1205 992.034 88.9556 992.171 87.8639C990.115 87.0538 987.886 87.0535 985.673 87.5115C984.276 87.8027 983.173 87.7538 982.918 86.129C982.685 84.6242 983.566 83.8537 985.004 83.7515C989.171 83.4528 993.377 83.4358 997.16 85.4157C999.884 86.8407 1002.63 86.4818 1005.44 86.4594C1006.31 86.4536 1007.55 86.6338 1007.96 87.2036C1008.66 88.1836 1008.6 89.3337 1007.44 90.4116C1005.93 91.8125 1004.71 93.5264 1003.41 95.1403C1003.11 95.5083 1003 96.0205 1002.8 96.4651C1002.9 96.6434 1003 96.8265 1003.1 97.0048C1005.57 96.4437 1008.06 95.9562 1010.5 95.2984C1012.35 94.8025 1013.25 93.3691 1013.75 91.5788C1014.43 89.1917 1015.19 86.8211 1016.02 84.4815C1016.24 83.8883 1016.76 83.1909 1017.31 82.9791C1017.97 82.7232 1019.46 82.8514 1019.48 82.953C1019.62 84.1123 1019.97 85.5358 1019.46 86.4322C1018.42 88.2533 1017.46 89.8083 1018.46 92.0323C1018.72 92.6147 1017.92 93.828 1017.37 94.5816C1016.04 96.4278 1014.49 98.1167 1014.14 100.51C1014.04 101.17 1013.46 101.749 1013.32 102.41C1013.12 103.424 1013.12 104.48 1012.99 105.511C1012.9 106.236 1012.98 107.239 1012.56 107.592C1012.08 107.992 1010.89 108.116 1010.4 107.785C1009.84 107.399 1009.39 106.344 1009.47 105.652C1009.69 103.891 1010.25 102.169 1010.64 100.428C1010.74 99.953 1010.74 99.4575 1010.76 99.2021C1006.87 99.6474 1003.09 99.8909 999.405 100.605C998.026 100.872 996.771 102.129 995.608 103.114C992.977 105.337 990.474 107.715 987.823 109.911C987.223 110.406 986.218 110.41 985.398 110.637C985.277 110.404 985.156 110.166 985.035 109.932L985.035 109.937Z" fill="white"/>
<path d="M1104.67 97.9175C1102.07 97.6154 1099.47 97.3133 1096.86 97.0067C1096.06 96.9138 1095.24 96.8814 1094.46 96.6954C1093.05 96.3661 1092.17 96.627 1090.9 97.7075C1089.36 99.0118 1086.96 99.4416 1084.85 99.9064C1083.01 100.314 1081.06 100.201 1079.17 100.416C1076.72 100.694 1075.89 101.625 1075.24 103.896C1074.49 106.475 1073.46 108.967 1072.66 111.533C1072.29 112.732 1072.31 114.056 1071.89 115.238C1071.68 115.845 1070.91 116.256 1070.4 116.759C1069.99 116.221 1069.19 115.633 1069.25 115.15C1069.49 113.231 1069.88 111.309 1070.43 109.453C1072 104.104 1073.71 98.789 1075.31 93.4486C1076.12 90.7433 1076.95 88.0332 1077.55 85.2772C1077.95 83.4569 1077.96 81.548 1078.13 79.6776C1078.2 78.8142 1078.11 77.9268 1078.29 77.0937C1078.58 75.7159 1079.54 75.0594 1080.96 75.1754C1082.44 75.2945 1082.44 76.2765 1082.3 77.4285C1082.03 79.737 1082.08 82.1121 1081.55 84.3477C1080.69 87.9062 1079.48 91.3804 1078.4 94.8884C1078.02 96.1292 1078.5 96.8131 1079.79 96.6911C1082.43 96.441 1085.07 96.1771 1087.71 95.8207C1088.41 95.726 1089.05 95.0768 1089.74 95.0333C1091.82 94.9025 1093.4 93.0971 1095.33 93.0901C1097.96 93.0813 1100.57 93.8279 1103.2 94.0505C1108.01 94.4554 1112.79 94.1706 1117.47 92.9569C1118.07 92.7996 1118.59 92.2412 1119.17 92.1816C1119.81 92.116 1120.67 92.2262 1121.09 92.6242C1121.34 92.8595 1121.12 94.18 1120.78 94.3546C1118.7 95.421 1116.57 96.4145 1114.37 97.1872C1113.2 97.5983 1111.86 97.5455 1110.59 97.653C1108.95 97.7923 1107.26 97.7983 1106.98 100.024C1106.95 100.265 1106.68 100.512 1106.47 100.688C1103.35 103.33 1103.62 108.234 1107.05 110.472C1107.42 110.714 1107.91 110.916 1108.33 110.888C1112.61 110.591 1116.93 110.428 1120.48 107.526C1121.28 106.874 1122.33 106.15 1122.9 107.379C1123.18 107.974 1122.57 109.475 1121.92 109.916C1119.88 111.297 1117.76 112.795 1115.44 113.455C1112.07 114.411 1108.43 114.768 1105.04 113.52C1102.51 112.586 1100.77 108.012 1101.05 104.921C1101.3 102.117 1101.78 99.5767 1105.04 98.428C1104.91 98.2549 1104.78 98.0863 1104.65 97.9132L1104.67 97.9175Z" fill="white"/>
<path d="M571.793 86.3047C572.873 86.9194 573.614 87.338 574.351 87.7566C573.63 88.4494 573.026 89.3757 572.169 89.7982C566.823 92.4305 561.15 92.8978 555.318 92.0532C555.09 92.0213 554.874 91.9196 554.647 91.8831C551.973 91.4437 551.663 91.0524 552.265 88.4122C553.344 83.7044 554.511 79.0178 555.604 74.3143C555.954 72.8055 556.029 71.2242 556.515 69.7678C556.732 69.119 557.569 68.47 558.268 68.2178C561.553 67.0313 564.736 68.696 567.989 68.7377C568.239 68.7413 568.526 68.934 568.725 69.1194C569.813 70.1091 570.932 71.0656 571.934 72.136C572.812 73.0749 573.55 74.1514 574.361 75.1566C574.604 75.4568 574.832 75.9149 575.144 75.9958C577.716 76.6506 580.279 77.5095 582.897 77.7417C584.827 77.9109 586.949 77.5198 588.758 76.7977C589.63 76.4536 590.163 74.834 590.508 73.6867C591.154 71.5504 591.46 69.3107 592.111 67.1743C592.287 66.5912 593.366 65.7375 593.716 65.8685C594.459 66.1388 595.074 66.9169 595.576 67.6096C595.791 67.9104 595.68 68.5244 595.584 68.9666C594.455 73.9072 593.48 78.8905 592.076 83.7539C591.376 86.1787 589.93 88.398 588.717 90.6537C588.543 90.9773 587.775 90.9809 587.282 91.1311C587.117 90.5882 586.71 89.9814 586.824 89.5063C587.579 86.4411 588.445 83.4058 589.339 80.129C588.813 80.2336 588.332 80.2769 587.886 80.426C584.015 81.7093 580.133 81.4873 576.287 80.3982C574.897 80.0083 574.271 80.1754 573.862 81.7458C573.44 83.3674 572.474 84.8486 571.789 86.2956L571.793 86.3047ZM561.67 89.0829C564.157 89.4617 565.868 88.3157 567.359 86.4659C569.062 84.3472 570.252 82.0642 570.616 79.3322C571.003 76.4143 570.319 75.0309 567.594 73.9627C566.21 73.4198 564.778 73.003 563.36 72.5443C560.695 71.6785 559.171 72.4775 559.154 75.2155C559.134 78.9913 557.242 82.1889 556.387 85.6965C556.001 87.2756 556.256 88.326 557.896 88.7148C559.116 89.002 560.412 88.9725 561.675 89.0874L561.67 89.0829Z" fill="white"/>
<path d="M684.508 88.8226C681.935 88.1353 679.064 87.3391 676.171 86.6175C675.724 86.5072 675.095 86.5725 674.721 86.8219C672.809 88.0976 670.978 89.4872 669.067 90.7629C668.569 91.0985 667.906 91.2618 667.301 91.3358C666.968 91.3758 666.356 91.135 666.3 90.9093C666.209 90.5639 666.362 89.9721 666.63 89.7437C668.911 87.8018 671.211 85.8826 673.559 84.0272C676.176 81.9619 678.836 79.9605 681.5 77.9543C684.132 75.972 686.459 73.5751 689.742 72.4998C691.126 72.0468 692.334 71.014 693.58 70.175C694.565 69.5087 695.525 69.334 696.393 70.2176C697.061 70.8972 696.607 72.7326 695.583 73.3257C693.791 74.3578 691.825 75.1159 690.119 76.2619C686.693 78.5633 683.386 81.0474 680.036 83.4675C679.977 83.5106 680.014 83.6812 679.994 84.029C680.724 84.1699 681.474 84.3705 682.241 84.4596C684.865 84.7797 687.489 85.2713 690.116 85.3041C693.508 85.3427 696.901 85.0061 700.297 84.8269C700.528 84.817 700.758 84.7608 700.985 84.7695C701.913 84.8087 703.135 84.3593 703.416 85.7426C703.698 87.1212 702.986 88.1982 701.683 88.5614C700.477 88.8992 699.178 88.9936 697.913 89.0039C694.792 89.024 691.672 88.9328 688.554 88.8926C688.049 88.8856 687.54 88.9157 687.419 88.9185C686.756 92.153 686.195 95.1767 685.508 98.1755C684.956 100.583 684.251 102.952 683.596 105.334C683.322 106.332 683.016 107.325 682.677 108.306C682.169 109.791 682.553 110.393 684.083 110.442C687.55 110.553 691.026 110.622 694.491 110.821C694.941 110.848 695.693 111.526 695.697 111.91C695.707 112.535 695.388 113.404 694.905 113.758C693.069 115.106 690.973 114.598 688.902 114.385C686.506 114.143 684.083 113.911 681.686 114.031C680.756 114.08 679.886 115.109 678.977 115.672C678.611 115.898 678.023 116.319 677.854 116.203C677.487 115.947 677.066 115.35 677.131 114.978C677.42 113.433 676.432 113.377 675.402 113.308C673.041 113.148 670.676 113.021 668.318 112.848C666.954 112.749 665.878 112.255 666.118 110.619C666.356 109.034 667.638 108.783 668.887 108.907C671.403 109.155 673.904 109.539 676.405 109.926C678.906 110.319 679.173 110.044 679.704 107.512C680.46 103.909 681.421 100.348 682.247 96.7582C682.555 95.4124 682.62 94.0027 682.998 92.6786C683.375 91.3498 684 90.0895 684.508 88.8133L684.508 88.8226Z" fill="white"/>
<path d="M404.63 87.6126C405.836 88.0808 406.695 88.5986 407.606 88.7214C408.67 88.864 409.866 88.897 410.854 88.5456C412.352 88.0159 415.972 89.5548 416.211 91.0641C416.454 92.6011 415.707 93.3639 414.162 93.2369C411.127 92.991 408.096 92.7404 405.058 92.5594C402.683 92.4189 401.725 93.4968 401.098 96.6518C400.885 97.7081 400.52 98.7402 400.163 99.7628C399.232 102.406 398.208 105.019 397.337 107.683C396.947 108.874 396.635 109.992 395.066 109.653C394.018 109.427 393.429 107.559 393.922 106.219C394.751 103.958 395.612 101.71 396.422 99.4403C396.653 98.7958 396.795 98.1023 396.872 97.4243C396.973 96.5604 396.565 95.5506 397.824 95.1004C398.013 95.0312 397.924 94.2041 397.964 93.689C395.568 94.2808 393.348 94.8039 391.137 95.3776C387.2 96.3983 380.693 93.8134 379.539 90.1292C379.269 89.2599 379.132 88.3458 379.01 87.4406C378.56 84.1759 378.582 80.8725 379.4 77.7179C380.145 74.8428 382.607 73.3045 385.306 72.437C385.858 72.2577 386.853 73.0272 387.422 73.5886C387.588 73.7516 387.142 74.9245 386.695 75.2589C382.509 78.3651 382.276 82.7572 382.847 87.2977C383.09 89.2424 384.445 90.5503 386.546 90.8962C387.955 91.1235 389.333 91.6295 390.743 91.7132C391.407 91.7537 392.243 91.2344 392.764 90.7269C393.502 90.0106 394.097 89.4551 395.132 90.1588C395.395 90.3381 395.927 90.5159 396.091 90.3871C397.306 89.4191 398.582 88.4821 399.598 87.3241C401.525 85.1216 401.265 82.2138 401.765 79.5667C402.303 76.7427 402.678 73.8899 403.267 71.0786C403.455 70.1849 403.899 69.1372 404.573 68.5984C405.76 67.6496 407.864 68.8941 407.729 70.4999C407.55 72.6256 407.01 74.7224 406.683 76.8375C406.553 77.6743 406.722 78.5691 406.537 79.3886C406.027 81.6329 405.383 83.8479 404.827 86.0841C404.691 86.6245 404.681 87.1945 404.635 87.6078L404.63 87.6126Z" fill="white"/>
<path d="M323.165 99.4695C321.637 97.6699 321.741 95.7359 321.835 93.7558C321.973 90.8621 321.972 87.9623 322.022 85.066C322.028 84.7231 321.823 84.2506 321.98 84.0525C323.498 82.1373 322.317 80.1213 322.002 78.2895C321.671 76.3607 322.556 75.9561 323.918 75.573C325.037 75.2604 326.482 75.6583 327.015 74.0527C327.08 73.8566 327.75 73.7812 328.139 73.7816C332.638 73.832 337.14 73.8129 341.633 74.0164C344.253 74.1328 347.386 77.4477 347.809 80.9493C348.117 83.5178 347.636 86.197 347.404 88.8149C347.297 90.0078 346.883 91.166 346.706 92.3559C346.642 92.7835 346.783 93.2806 346.959 93.6935C347.262 94.3953 348.141 95.362 347.94 95.6677C347.264 96.6929 346.356 97.7188 345.295 98.3173C340.771 100.861 336.007 102.577 330.697 102.712C328.201 102.778 325.732 103.557 323.239 103.97C320.904 104.357 319.902 103.467 320.234 101.38C320.405 100.315 320.858 99.8695 322.081 99.8648C324.674 99.8521 327.304 99.7968 329.846 99.3499C333.025 98.7911 336.135 97.831 339.266 97.0093C339.694 96.8976 340.268 96.6715 340.432 96.3342C341.419 94.3152 343.259 92.7355 343.252 90.1879C343.245 88.0294 343.825 85.8622 343.767 83.7095C343.655 79.5801 342.107 78.1469 338.033 78.0311C335.493 77.9593 332.953 77.9151 330.416 77.9683C328.439 78.0133 326.849 80.4119 326.885 82.3891C326.935 85.1997 326.661 88.027 326.419 90.835C326.273 92.5569 325.765 94.2593 325.712 95.979C325.656 97.7776 324.619 98.6258 323.16 99.4696L323.165 99.4695Z" fill="white"/>
<path d="M778.561 76.9627C779.918 81.6289 778.732 85.9176 777.213 90.2185C777 90.8255 777.712 92.3982 778.215 92.5072C780.743 93.0565 783.335 93.3681 785.919 93.5501C787.278 93.6443 788.665 93.3023 790.042 93.1413C791.248 93.0027 792.304 93.2288 792.663 94.5362C792.971 95.6548 791.986 96.965 790.592 96.955C786.214 96.9296 781.829 96.8395 777.464 96.5405C775.821 96.425 774.788 96.4068 774.163 98.26C773.304 100.813 772.104 103.254 771.04 105.743C770.644 106.669 770.08 107.131 768.917 107.111C768.268 107.103 767.451 107.835 766.983 108.448C766.223 109.442 765.651 110.586 765.07 111.706C764.573 112.667 763.905 113.655 763.795 114.686C763.447 117.941 765.096 118.946 768.737 119.567C772.504 120.208 775.796 118.299 779.14 116.875C781.356 115.931 783.606 115.064 785.866 114.234C786.215 114.106 786.703 114.359 787.126 114.433C787.034 114.866 787.084 115.434 786.822 115.7C785.857 116.685 784.914 117.767 783.748 118.456C780.051 120.648 776.119 122.308 771.83 122.966C768.516 123.477 765.295 123.402 762.847 120.688C760.628 118.227 759.896 115.367 761.306 112.213C762.682 109.134 764.706 106.679 767.989 105.442C768.362 105.303 768.649 104.709 768.801 104.265C770.379 99.6942 772.101 95.1663 773.408 90.5182C774.29 87.3759 775.786 84.3124 774.756 80.7505C774.072 78.3897 776.002 76.6781 778.556 76.9535L778.561 76.9627Z" fill="white"/>
<path d="M493.454 119.583C495.578 119.878 497.708 120.464 499.819 120.397C502.731 120.308 505.632 119.765 508.527 119.328C509.168 119.23 509.735 118.703 510.375 118.512C511.277 118.242 512.233 117.905 513.133 117.982C513.625 118.022 514.148 118.802 514.447 119.36C514.539 119.529 513.999 120.19 513.619 120.43C509.176 123.232 504.291 124.316 499.082 124.022C497.138 123.914 495.186 123.796 493.278 123.45C492.069 123.228 490.839 122.732 489.792 122.08C488.406 121.222 488.307 118.917 489.589 117.855C491.789 116.031 494.119 114.371 496.338 112.569C499.208 110.239 502.04 107.863 504.838 105.446C505.216 105.122 505.573 104.354 505.435 103.978C505.287 103.578 504.566 103.261 504.045 103.152C500.317 102.389 496.577 101.696 492.841 100.975C491.385 100.694 490.559 99.6098 490.798 98.3073C491.02 97.0933 491.999 96.7375 493.712 97.12C496.859 97.8173 500.028 98.4262 503.175 99.1327C504.782 99.4946 506.389 99.9166 507.944 100.46C510.4 101.317 510.957 102.99 509.426 105.1C506.964 108.487 503.958 111.316 500.434 113.629C497.997 115.227 495.694 117.026 493.333 118.738C493.372 119.02 493.411 119.297 493.445 119.579L493.454 119.583Z" fill="white"/>
<path d="M732.608 73.1022C729.761 72.7733 726.917 72.4072 724.067 72.1293C722.173 71.9454 720.255 71.9612 718.37 71.7355C717.794 71.6652 716.803 71.0763 716.819 70.7656C716.87 69.7361 716.467 68.1193 718.203 68.0844C720.49 68.037 722.795 68.1605 725.071 68.4052C727.926 68.7062 730.756 69.2625 733.612 69.5912C734.935 69.7418 736.298 69.544 737.629 69.6388C738.265 69.6845 739.327 69.929 739.413 70.2791C739.638 71.1866 739.758 72.4021 739.311 73.1257C738.829 73.9149 737.665 74.2795 736.803 74.8411C736.086 75.3067 735.289 75.7001 734.681 76.2883C733.938 77.0093 734.035 77.5862 735.121 78.0895C737.574 79.2196 740.041 80.3678 742.343 81.7699C744.593 83.1455 744.711 85.4543 742.839 86.6781C741.744 87.3933 740.993 87.1695 740.294 85.9995C739.798 85.1677 739.07 84.3042 738.231 83.8693C735.62 82.5159 732.976 81.1308 730.195 80.2352C729.163 79.9066 727.607 80.7157 726.467 81.3299C722.307 83.5601 718.225 85.9228 714.113 88.2399C713.61 88.52 713.141 88.8827 712.608 89.0848C712.135 89.2669 711.593 89.2746 711.081 89.3604C711.113 88.725 710.894 87.8545 711.224 87.4996C712.119 86.5389 713.184 85.6855 714.303 84.9883C717.231 83.166 720.24 81.4716 723.192 79.6905C726.377 77.7651 729.533 75.794 732.703 73.8412C732.67 73.5964 732.641 73.3516 732.608 73.1068L732.608 73.1022Z" fill="white"/>
<path d="M610.082 91.1229C610.172 95.0861 610.429 99.0594 610.283 103.014C610.209 105.045 609.5 107.071 608.938 109.057C608.407 110.945 608.681 111.375 610.613 111.618C614.088 112.058 617.543 112.641 621.018 113.086C622.036 113.215 623.088 113.039 624.117 113.089C624.906 113.127 625.804 113.093 626.442 113.458C626.968 113.761 627.445 114.602 627.441 115.205C627.44 115.603 626.576 116.294 626.058 116.339C624.348 116.484 622.614 116.445 620.89 116.382C615.702 116.195 610.509 115.993 605.324 115.708C604.373 115.656 603.458 115.144 602.508 114.943C600.311 114.474 598.101 114.047 595.892 113.634C594.556 113.382 593.543 112.803 593.665 111.276C593.755 110.149 595.006 109.745 596.607 110.061C598.812 110.492 601.039 110.849 603.266 111.178C604.79 111.403 605.257 110.313 605.563 109.134C605.895 107.857 606.274 106.584 606.481 105.287C606.711 103.818 606.923 102.322 606.88 100.845C606.789 97.8452 606.456 94.851 606.351 91.8517C606.323 91.0232 606.589 90.0907 607.003 89.3725C607.297 88.8609 608.265 88.2043 608.592 88.3543C609.285 88.6674 609.803 89.4385 610.286 90.0946C610.448 90.3132 610.292 90.7661 610.281 91.1138C610.212 91.1153 610.142 91.1169 610.073 91.1185L610.082 91.1229Z" fill="white"/>
<path d="M392.612 123.481C388.098 123.584 383.984 122.566 380.485 119.644C379.957 119.202 379.564 118.456 379.382 117.779C378.815 115.661 378.998 113.503 379.389 111.377C379.501 110.777 379.71 109.998 380.148 109.692C381.976 108.414 383.895 107.258 385.825 106.135C386.113 105.966 386.728 106.124 387.038 106.344C387.194 106.456 387.121 107.138 386.938 107.416C386.302 108.371 385.648 109.34 384.851 110.159C383.344 111.722 382.359 113.445 383.182 115.617C383.981 117.725 385.588 118.958 387.899 119.132C393.565 119.564 399.123 119.331 404.438 116.945C405.878 116.3 407.501 115.999 409.071 115.764C409.56 115.693 410.227 116.294 410.654 116.738C410.749 116.838 410.254 117.66 409.9 118.011C407.101 120.784 403.682 121.997 399.769 122.253C397.368 122.409 394.997 123.052 392.612 123.477L392.612 123.481Z" fill="white"/>
<path d="M606.077 79.1832C608.871 79.4253 612.096 79.6715 615.313 79.9967C616.757 80.1445 618.187 80.4547 619.623 80.6815C622.282 81.0934 622.907 83.0989 623.536 85.3127C624.291 87.959 623.968 90.6577 624.306 93.2719C624.739 96.639 623.1 99.3259 622.506 102.327C622.078 104.491 621.409 106.646 619.296 107.843C618.784 108.133 618.084 108.098 617.475 108.214C617.431 107.478 617.09 106.573 617.398 106.034C619.268 102.744 620.086 99.1861 620.242 95.4721C620.347 92.9636 620.391 90.4149 620.052 87.9397C619.669 85.1552 618.21 84.1461 615.418 83.9827C612.19 83.7921 608.956 83.5924 605.735 83.3044C604.584 83.2009 603.532 82.757 603.807 81.2313C604.001 80.1662 603.981 78.8927 606.081 79.1831L606.077 79.1832Z" fill="white"/>
<path d="M833.736 87.7869C833.146 86.4755 833.776 85.7015 834.823 85.7054C837.358 85.7219 839.995 85.597 842.396 86.2511C844.829 86.9137 847.08 88.3448 849.314 89.6095C851.665 90.9411 852.206 93.1337 850.861 95.5221C848.217 100.21 838.581 104.061 832.729 99.0987C830.495 97.204 829.362 94.2419 829.689 91.1077C829.886 89.1855 831.588 87.8312 833.736 87.7869ZM840.866 98.2186C843.129 97.7085 845.45 96.9145 847.26 95.0436C848.768 93.4899 848.81 92.3077 846.88 91.3696C844.384 90.1572 841.692 89.329 839.05 88.4349C837.897 88.0443 836.77 87.9773 836.358 89.6357C836.265 90.0084 835.492 90.2669 834.987 90.4683C833.353 91.1262 832.816 92.3336 833.509 93.9067C834.867 96.9794 837.098 98.3229 840.857 98.2142L840.866 98.2186Z" fill="white"/>
<path d="M855.493 80.047C855.346 78.2623 855.218 76.4772 855.052 74.6975C854.867 72.6867 855.539 71.2493 856.732 71.1758C857.958 71.1016 858.926 72.7055 858.913 74.6004C858.888 78.5708 859.048 82.5463 858.888 86.5105C858.787 89.0003 858.278 91.4809 857.89 93.9587C857.194 98.3938 856.577 102.846 855.681 107.239C855.094 110.124 854.524 112.954 854.763 115.927C854.802 116.426 853.803 117.51 853.477 117.438C852.765 117.278 851.764 116.653 851.62 116.044C851.323 114.791 851.361 113.405 851.531 112.109C852.107 107.709 852.794 103.325 853.459 98.9374C853.604 97.9752 853.916 97.0324 854.024 96.0664C854.634 90.7439 855.208 85.4177 855.791 80.0912C855.689 80.075 855.591 80.0587 855.488 80.0378L855.493 80.047Z" fill="white"/>
<path d="M587.421 99.6517C586.201 104.446 584.985 109.236 583.756 114.03C583.471 115.149 583.303 116.338 582.779 117.337C582.375 118.101 581.513 119.093 580.81 119.133C579.616 119.197 579.583 117.928 579.733 117.012C580.05 115.055 580.413 113.097 580.897 111.172C581.538 108.605 582.366 106.09 583.016 103.523C583.585 101.258 582.99 100.721 580.621 101.066C578.396 101.395 576.164 101.835 573.923 101.9C570.65 101.998 567.367 101.817 564.09 101.73C562.773 101.695 561.822 101.198 561.93 99.6529C562.018 98.4141 563.12 97.5876 564.536 97.7407C566.542 97.9544 568.555 98.4645 570.55 98.4005C573.698 98.2965 576.842 97.8682 579.974 97.4819C581.337 97.3119 582.671 96.9017 584.021 96.6023C586.132 96.1374 587 96.9978 586.993 99.5457C587.137 99.5841 587.282 99.6178 587.426 99.6563L587.421 99.6517Z" fill="white"/>
<path d="M728.22 96.2538C722.784 96.1691 717.396 95.7497 712.127 94.2021C710.522 93.729 710.237 92.7905 710.56 91.4954C710.929 90.0001 712.191 90.3002 713.26 90.4658C716.365 90.951 719.531 91.231 722.547 92.0471C728.075 93.5472 733.557 92.2181 739.056 92.2365C740.422 92.2425 741.741 91.3694 743.169 92.4347C744.267 93.2528 744.536 94.0666 743.258 94.7118C742.159 95.2695 740.857 95.4474 739.63 95.7069C738.902 95.8625 738.045 95.655 737.413 95.9612C736.803 96.2576 736.087 96.9364 735.976 97.5504C735.39 100.723 734.308 103.657 732.323 106.208C732.017 106.604 731.334 106.707 730.825 106.946C730.706 106.37 730.381 105.742 730.504 105.221C731.035 102.916 731.794 100.666 732.279 98.3525C732.676 96.4628 732.251 96.1204 730.294 96.1974C729.599 96.2271 728.905 96.229 728.215 96.2447L728.22 96.2538Z" fill="white"/>
<path d="M510.504 69.0146C511.388 68.3737 512.276 67.7328 513.466 66.8719C515.264 68.1465 517.342 69.4611 519.23 71.0024C520.806 72.2914 520.886 76.6068 519.546 78.1706C518.909 78.9124 518.326 79.7224 517.575 80.3278C513.891 83.3022 508.48 82.0819 506.441 77.7694C505.692 76.1929 505.268 74.4655 504.652 72.8212C503.857 70.6945 504.837 68.9583 505.963 67.3484C506.349 66.7976 507.447 66.2168 507.952 66.3952C508.895 66.7304 509.642 67.6121 510.468 68.265C510.483 68.5148 510.493 68.7647 510.508 69.0145L510.504 69.0146ZM513.165 77.8943C515.036 77.8517 516.74 76.0017 516.682 74.076C516.622 72.016 515.238 70.8385 513.025 70.8981C511.9 70.9237 510.773 70.8799 509.65 70.8128C508.644 70.7523 508.433 71.2667 508.633 72.1006C508.832 72.9298 509.069 73.749 509.31 74.5681C509.757 76.0912 511.892 77.9233 513.165 77.8897L513.165 77.8943Z" fill="white"/>
<path d="M764.134 65.9194C766.868 66.3806 766.605 66.4282 767.168 69.3893C767.547 71.3911 767.774 73.2342 767.058 75.1359C765.983 77.9814 764.904 80.827 763.806 83.6684C763.438 84.6218 763.789 84.9566 764.726 85.2456C765.627 85.5262 766.446 86.1236 767.233 86.6848C767.379 86.788 767.3 87.5912 767.112 87.702C766.307 88.165 765.374 88.8857 764.575 88.7927C760.688 88.3485 756.828 87.6859 752.965 87.0651C751.826 86.8826 750.711 86.5374 749.572 86.3734C748.731 86.2535 747.892 86.2541 747.889 85.1054C747.882 83.9752 747.926 82.6587 749.27 82.4567C750.452 82.2769 751.731 82.5396 752.932 82.781C754.928 83.1803 756.879 83.8214 758.883 84.1603C760.093 84.3644 761.113 83.6278 761.383 82.4497C762.145 79.1064 763.918 75.9809 763.596 72.4029C763.534 71.7141 763.453 71.0211 763.308 70.3481C762.806 68.0572 762.797 68.0621 764.138 65.9239L764.134 65.9194Z" fill="white"/>
<path d="M725.214 119.9C722.165 119.895 719.495 118.779 717.177 116.85C715.614 115.551 716.074 111.131 717.868 109.756C718.919 108.949 719.995 108.369 721.494 108.487C722.835 108.596 724.217 108.059 725.59 107.926C728.825 107.607 732.042 107.497 734.819 109.657C736.536 110.994 736.756 112.703 735.481 114.501C732.977 118.042 729.629 119.957 725.214 119.9ZM723.049 110.675C721.483 110.669 720.067 110.752 719.69 112.679C719.437 113.982 720.568 115.23 722.392 115.786C722.886 115.937 723.376 116.106 723.866 116.276C726.094 117.045 730.394 115.886 731.8 113.974C732.218 113.404 732.464 112.407 732.26 111.777C732.115 111.331 731.102 110.96 730.447 110.919C727.984 110.758 725.51 110.749 723.044 110.68L723.049 110.675Z" fill="white"/>
<path d="M1113.24 86.7773C1110.93 86.2092 1108.07 85.7602 1105.39 84.7928C1101.49 83.3899 1101.07 80.407 1101.79 77.3381C1102.61 73.7989 1104.33 70.4569 1105.83 67.1014C1106.11 66.4836 1107.16 66.052 1107.93 65.8863C1108.29 65.8086 1109.16 66.5299 1109.22 66.9641C1109.32 67.8603 1109.37 69.11 1108.85 69.673C1106.59 72.138 1105.64 75.1242 1105.1 78.2633C1104.85 79.7467 1106.86 81.6742 1108.28 82.0866C1112.97 83.4484 1117.5 83.248 1121.97 81.2608C1122.45 81.0508 1123.31 81.1979 1123.7 81.5273C1123.98 81.7618 1124.01 82.7849 1123.73 83.0968C1122.94 84.0136 1122.05 85.1687 1120.98 85.4756C1118.67 86.1304 1116.23 86.311 1113.23 86.7822L1113.24 86.7773Z" fill="white"/>
<path d="M754.796 107.303C751.655 107.907 747.764 103.804 748.4 101.422C748.873 99.6373 750.367 98.121 751.438 96.5031C751.621 96.2257 752.007 96.0918 752.224 95.8275C752.895 95.0108 753.455 93.5528 754.199 93.4571C755.658 93.271 757.231 93.7726 758.73 94.1183C759.964 94.4052 761.126 94.9949 762.364 95.2446C765.72 95.9279 766.363 100.578 764.35 102.704C761.658 105.544 758.563 107.75 754.805 107.298L754.796 107.303ZM755.712 103.767C758.311 103.781 760.186 102.511 761.768 100.595C762.593 99.5937 762.373 98.8715 761.279 98.447C759.625 97.8038 757.956 97.1423 756.229 96.7832C755.401 96.6121 754.15 96.8259 753.593 97.3713C752.832 98.1251 752.517 99.346 752.068 100.394C751.435 101.877 751.947 103.014 753.495 103.474C754.2 103.681 754.968 103.677 755.707 103.771L755.712 103.767Z" fill="white"/>
<path d="M1056.37 89.8087C1055.93 88.0631 1056.12 88.6842 1057.96 88.1373C1060.68 87.3297 1061.55 89.135 1062.97 90.395C1063.44 90.8151 1063.98 91.1828 1064.52 91.5086C1067.67 93.3964 1068.08 96.1664 1065.89 99.1994C1063.16 102.986 1056.15 103.266 1053.18 100.739C1051.27 99.1154 1050.59 96.4347 1052.06 94.391C1053.2 92.79 1054.77 91.4898 1056.38 89.8133L1056.37 89.8087ZM1058.92 91.6639C1058.06 92.3736 1056.84 93.3001 1055.71 94.3309C1054.13 95.7798 1054.65 98.0981 1056.7 98.7462C1058.89 99.4329 1060.96 99.0848 1062.73 97.6314C1063.22 97.2359 1063.68 96.5353 1063.73 95.9365C1063.91 94.0333 1061.38 91.5987 1058.92 91.6639Z" fill="white"/>
<path d="M1047.9 82.3621C1050.02 82.5547 1052.14 82.877 1054.27 82.9166C1059.11 83.0056 1063.96 83.0342 1068.81 82.9054C1070.26 82.8677 1071.72 82.297 1073.13 81.8295C1074.11 81.5062 1075.13 81.293 1075.48 82.3645C1075.65 82.8841 1075.02 84.0379 1074.45 84.3472C1071.72 85.8222 1068.73 86.3072 1065.64 86.5582C1058.98 87.1035 1052.38 86.355 1045.77 85.9079C1045.23 85.8738 1044.25 84.9792 1044.32 84.732C1044.55 83.9485 1045.05 83.0895 1045.7 82.6346C1046.24 82.261 1047.15 82.4302 1047.9 82.3575L1047.9 82.3621Z" fill="white"/>
<path d="M1024.19 113.276C1024.74 110.201 1025.23 107.355 1025.78 104.522C1026.77 99.4453 1026.94 94.3228 1026.62 89.1791C1026.55 88.1569 1026.02 87.1406 1026.09 86.1432C1026.15 85.0809 1026.51 83.9379 1027.08 83.0448C1027.35 82.6171 1028.41 82.5513 1029.1 82.5912C1029.46 82.6107 1030.06 83.1762 1030.1 83.5412C1030.39 86.4575 1030.77 89.3858 1030.74 92.3048C1030.71 94.5057 1030.17 96.7046 1029.78 98.8952C1029.06 102.909 1028.34 106.928 1027.49 110.912C1027.28 111.871 1026.59 112.753 1026.01 113.586C1025.76 113.954 1025.2 114.11 1024.78 114.365C1024.56 113.958 1024.34 113.55 1024.2 113.28L1024.19 113.276Z" fill="white"/>
<path d="M507.03 91.8285C502.816 92.5173 498.43 91.334 494.006 90.5268C492.918 90.3292 491.917 88.2628 492.389 87.0523C492.906 85.725 493.861 86.1572 494.973 86.3728C498.685 87.0851 502.432 87.6483 506.19 88.1001C507.839 88.2988 509.538 88.0656 511.215 88.0784C511.78 88.084 512.493 88.0493 512.88 88.3601C513.489 88.8466 513.877 89.6113 514.359 90.2581C513.712 90.7407 513.11 91.5419 512.403 91.6413C510.755 91.8781 509.062 91.7822 507.034 91.8284L507.03 91.8285Z" fill="white"/>
<path d="M1064.43 64.9011C1065.51 64.5709 1065.83 65.203 1066.03 66.222C1066.36 67.7942 1066.99 69.3086 1067.22 70.8876C1067.36 71.9126 1067 73.0047 1066.93 74.0718C1066.76 76.6281 1066.64 79.2064 1064.82 81.2629C1064.47 81.6505 1063.9 81.8395 1063.44 82.1235C1063.22 81.5679 1062.8 81.003 1062.83 80.465C1062.93 78.7442 1063.07 77.0038 1063.43 75.3233C1063.95 72.9213 1063.43 70.7791 1062.32 68.6736C1061.3 66.7558 1062.3 64.9357 1064.43 64.9105L1064.43 64.9011Z" fill="white"/>
</g>
<path d="M262 283.072H1092M262 220.072H1092" stroke="white" stroke-width="2"/>
<path d="M384.29 246.191C383.803 246.191 383.382 246.014 383.028 245.66C382.696 245.284 382.486 244.83 382.397 244.299C382.353 243.812 382.331 243.48 382.331 243.303C382.331 243.059 382.353 242.738 382.397 242.34C382.574 241.145 382.862 240.16 383.261 239.385C383.659 238.61 384.279 237.968 385.12 237.459C385.341 237.348 385.541 237.293 385.718 237.293C385.983 237.293 386.216 237.404 386.415 237.625C386.614 237.824 386.714 238.057 386.714 238.322C386.714 238.676 386.548 238.964 386.216 239.186C385.618 239.54 385.186 239.938 384.921 240.381C384.655 240.824 384.522 241.432 384.522 242.207H384.622C385.131 242.207 385.574 242.395 385.95 242.771C386.326 243.148 386.514 243.59 386.514 244.1V244.299C386.514 244.808 386.326 245.251 385.95 245.627C385.574 246.003 385.131 246.191 384.622 246.191H384.29ZM376.388 244.299C376.343 243.812 376.321 243.48 376.321 243.303C376.321 243.059 376.343 242.738 376.388 242.34C376.565 241.145 376.852 240.16 377.251 239.385C377.649 238.61 378.269 237.968 379.11 237.459C379.332 237.348 379.531 237.293 379.708 237.293C379.973 237.293 380.206 237.404 380.405 237.625C380.604 237.824 380.704 238.057 380.704 238.322C380.704 238.676 380.538 238.964 380.206 239.186C379.608 239.54 379.177 239.938 378.911 240.381C378.645 240.824 378.513 241.432 378.513 242.207H378.612C379.121 242.207 379.564 242.395 379.94 242.771C380.317 243.148 380.505 243.59 380.505 244.1V244.299C380.505 244.808 380.317 245.251 379.94 245.627C379.564 246.003 379.121 246.191 378.612 246.191H378.28C377.793 246.191 377.373 246.014 377.018 245.66C376.686 245.284 376.476 244.83 376.388 244.299ZM419.139 264.121C416.084 264.121 413.892 263.811 412.564 263.191C411.214 262.572 410.539 261.542 410.539 260.104C410.539 257.536 413.45 254.171 419.271 250.01C419.603 249.788 419.769 249.611 419.769 249.479C419.769 249.301 419.659 249.213 419.437 249.213H413.793C412.797 249.213 412.299 248.803 412.299 247.984C412.299 247.165 412.797 246.756 413.793 246.756H422.525C424.053 246.756 424.816 247.232 424.816 248.184C424.816 248.648 424.252 249.246 423.123 249.977C421.684 250.906 419.637 252.5 416.98 254.758C414.501 256.861 413.262 258.477 413.262 259.605C413.262 260.557 414.014 261.166 415.519 261.432C416.316 261.564 417.81 261.631 420.002 261.631C422.946 261.631 424.717 261.365 425.314 260.834C425.514 260.657 425.68 260.314 425.812 259.805C425.967 259.273 426.056 258.62 426.078 257.846C426.122 256.982 426.609 256.551 427.539 256.551C428.446 256.551 428.9 257.049 428.9 258.045C428.9 260.458 428.413 262.107 427.439 262.992C426.62 263.745 423.853 264.121 419.139 264.121ZM399.914 240.746C399.914 239.728 400.146 238.986 400.611 238.521C401.076 238.035 401.806 237.813 402.803 237.857H406.09C407.108 237.857 407.849 238.09 408.314 238.555C408.801 239.02 409.012 239.75 408.945 240.746V255.588C408.945 256.606 408.713 257.359 408.248 257.846C407.805 258.311 407.086 258.532 406.09 258.51H402.803C401.784 258.51 401.032 258.277 400.545 257.812C400.08 257.326 399.87 256.584 399.914 255.588V240.746ZM402.504 254.891C402.504 255.223 402.592 255.477 402.769 255.654C402.969 255.831 403.234 255.931 403.566 255.953H405.359C406.023 255.953 406.377 255.599 406.422 254.891V241.41C406.422 240.746 406.068 240.392 405.359 240.348H403.566C403.234 240.348 402.98 240.447 402.803 240.646C402.626 240.824 402.526 241.078 402.504 241.41V254.891ZM409.31 246.424C409.31 245.959 409.487 245.483 409.842 244.996C411.258 243.048 412.553 240.403 413.726 237.061C414.236 235.666 414.811 234.969 415.453 234.969C416.338 234.969 416.781 235.367 416.781 236.164C416.781 236.585 416.327 237.846 415.42 239.949H427.14C428.225 239.949 428.767 240.392 428.767 241.277C428.767 242.141 428.225 242.572 427.14 242.572H414.224C413.361 244.255 412.631 245.494 412.033 246.291C411.435 247.066 410.948 247.475 410.572 247.52C410.174 247.542 409.864 247.453 409.642 247.254C409.421 247.033 409.31 246.756 409.31 246.424ZM440.464 264.287C439.512 264.287 438.826 264.077 438.406 263.656C437.985 263.236 437.797 262.561 437.841 261.631V254.027C435.34 256.529 433.635 257.779 432.728 257.779C431.887 257.779 431.466 257.326 431.466 256.418C431.466 256.064 431.566 255.776 431.765 255.555C431.854 255.444 432.495 255.057 433.691 254.393C436.502 252.843 438.505 250.917 439.701 248.615H432.828C432.009 248.615 431.599 248.25 431.599 247.52C431.599 246.789 432.009 246.424 432.828 246.424H445.279V244.332H435.915C435.163 244.332 434.786 243.978 434.786 243.27C434.786 242.561 435.163 242.207 435.915 242.207H445.279V240.215H433.923C433.126 240.215 432.728 239.839 432.728 239.086C432.728 238.333 433.126 237.957 433.923 237.957H439.966L439.169 236.33L439.103 235.965C439.059 235.655 439.147 235.423 439.369 235.268C439.612 235.09 439.955 235.002 440.398 235.002C440.863 235.002 441.217 235.157 441.46 235.467C441.748 235.843 442.124 236.551 442.589 237.592L442.755 237.957H450.591L451.322 236.131C451.654 235.356 452.163 234.969 452.849 234.969C453.801 234.969 454.277 235.301 454.277 235.965C454.277 236.319 453.967 236.983 453.347 237.957H459.49C460.309 237.957 460.718 238.333 460.718 239.086C460.718 239.839 460.309 240.215 459.49 240.215H447.869V242.207H457.531C458.283 242.207 458.66 242.561 458.66 243.27C458.66 243.978 458.283 244.332 457.531 244.332H447.869V246.424H460.619C461.415 246.424 461.814 246.789 461.814 247.52C461.814 248.25 461.415 248.615 460.619 248.615H442.49L441.328 250.375H455.87C456.822 250.375 457.509 250.585 457.929 251.006C458.35 251.426 458.549 252.113 458.527 253.064V261.631C458.527 262.583 458.316 263.269 457.896 263.689C457.475 264.132 456.8 264.331 455.87 264.287H440.464ZM440.431 261.166C440.431 261.874 440.807 262.251 441.56 262.295H454.742C455.45 262.295 455.826 261.919 455.87 261.166V260.17H440.431V261.166ZM455.87 258.311V256.252H440.431V258.311H455.87ZM455.87 254.359V253.496C455.87 252.788 455.494 252.411 454.742 252.367H441.261C440.752 252.367 440.475 252.644 440.431 253.197V254.359H455.87ZM480.882 265.018C479.709 265.018 479.122 264.542 479.122 263.59C479.122 262.66 479.709 262.195 480.882 262.195H482.774C483.682 262.195 484.158 261.708 484.202 260.734V251.504H477.993C476.931 251.504 476.399 251.072 476.399 250.209C476.399 249.346 476.931 248.914 477.993 248.914H484.202V245.428C484.202 244.742 484.357 244.21 484.667 243.834C484.999 243.436 485.906 242.727 487.39 241.709C488.917 240.669 489.681 239.993 489.681 239.684C489.681 239.573 489.636 239.484 489.548 239.418C489.459 239.352 489.36 239.318 489.249 239.318H478.491C477.429 239.318 476.897 238.909 476.897 238.09C476.897 237.647 477.019 237.326 477.263 237.127C477.528 236.906 477.938 236.795 478.491 236.795H491.274C493.067 236.795 493.964 237.337 493.964 238.422C493.964 239.329 492.104 241.1 488.386 243.734C487.434 244.443 486.936 245.14 486.891 245.826V248.914H493.067C494.152 248.914 494.694 249.346 494.694 250.209C494.694 251.072 494.152 251.504 493.067 251.504H486.891V261.432C486.891 262.693 486.582 263.59 485.962 264.121C485.276 264.719 484.379 265.018 483.272 265.018H480.882ZM464.413 263.059C464.413 262.594 464.878 262.074 465.808 261.498C467.733 260.347 469.227 259.019 470.29 257.514L467.302 255.256C466.438 254.592 466.007 253.895 466.007 253.164C466.007 252.766 466.14 251.98 466.405 250.807C466.56 250.098 466.859 248.383 467.302 245.66L467.534 244.232L465.741 244.266C464.856 244.288 464.413 243.845 464.413 242.938C464.413 242.096 464.933 241.654 465.974 241.609H467.933L468.497 236.43C468.541 235.987 468.685 235.655 468.929 235.434C469.172 235.19 469.493 235.068 469.891 235.068C470.755 235.068 471.186 235.522 471.186 236.43L470.556 241.543L473.577 241.51C475.304 241.488 476.167 242.34 476.167 244.066C476.167 245.461 475.946 247.708 475.503 250.807C475.149 253.175 474.507 255.245 473.577 257.016C475.68 258.919 476.731 260.225 476.731 260.934C476.731 261.908 476.255 262.395 475.304 262.395C474.861 262.395 474.119 261.742 473.079 260.436L472.183 259.373C470.921 261.011 469.748 262.24 468.663 263.059C467.379 264.033 466.394 264.52 465.708 264.52C464.845 264.52 464.413 264.033 464.413 263.059ZM468.663 252.467C468.663 252.954 469.139 253.529 470.091 254.193L471.585 255.256C472.404 253.374 472.979 250.962 473.311 248.018L473.61 244.996C473.677 244.421 473.322 244.133 472.548 244.133L470.157 244.199C469.869 246.103 469.515 248.051 469.095 250.043C468.807 251.438 468.663 252.245 468.663 252.467ZM518.079 264.121C515.024 264.121 512.832 263.811 511.504 263.191C510.154 262.572 509.479 261.542 509.479 260.104C509.479 257.536 512.39 254.171 518.211 250.01C518.543 249.788 518.709 249.611 518.709 249.479C518.709 249.301 518.599 249.213 518.377 249.213H512.733C511.737 249.213 511.239 248.803 511.239 247.984C511.239 247.165 511.737 246.756 512.733 246.756H521.465C522.993 246.756 523.756 247.232 523.756 248.184C523.756 248.648 523.192 249.246 522.063 249.977C520.624 250.906 518.577 252.5 515.92 254.758C513.441 256.861 512.202 258.477 512.202 259.605C512.202 260.557 512.954 261.166 514.459 261.432C515.256 261.564 516.75 261.631 518.942 261.631C521.886 261.631 523.657 261.365 524.254 260.834C524.454 260.657 524.62 260.314 524.752 259.805C524.907 259.273 524.996 258.62 525.018 257.846C525.062 256.982 525.549 256.551 526.479 256.551C527.386 256.551 527.84 257.049 527.84 258.045C527.84 260.458 527.353 262.107 526.379 262.992C525.56 263.745 522.793 264.121 518.079 264.121ZM498.854 240.746C498.854 239.728 499.086 238.986 499.551 238.521C500.016 238.035 500.746 237.813 501.743 237.857H505.03C506.048 237.857 506.789 238.09 507.254 238.555C507.741 239.02 507.952 239.75 507.885 240.746V255.588C507.885 256.606 507.653 257.359 507.188 257.846C506.745 258.311 506.026 258.532 505.03 258.51H501.743C500.724 258.51 499.972 258.277 499.485 257.812C499.02 257.326 498.81 256.584 498.854 255.588V240.746ZM501.444 254.891C501.444 255.223 501.532 255.477 501.709 255.654C501.909 255.831 502.174 255.931 502.506 255.953H504.299C504.963 255.953 505.317 255.599 505.362 254.891V241.41C505.362 240.746 505.008 240.392 504.299 240.348H502.506C502.174 240.348 501.92 240.447 501.743 240.646C501.566 240.824 501.466 241.078 501.444 241.41V254.891ZM508.25 246.424C508.25 245.959 508.427 245.483 508.782 244.996C510.198 243.048 511.493 240.403 512.666 237.061C513.176 235.666 513.751 234.969 514.393 234.969C515.278 234.969 515.721 235.367 515.721 236.164C515.721 236.585 515.267 237.846 514.36 239.949H526.08C527.165 239.949 527.707 240.392 527.707 241.277C527.707 242.141 527.165 242.572 526.08 242.572H513.164C512.301 244.255 511.571 245.494 510.973 246.291C510.375 247.066 509.888 247.475 509.512 247.52C509.114 247.542 508.804 247.453 508.582 247.254C508.361 247.033 508.25 246.756 508.25 246.424ZM551.689 265.051C551.07 265.029 550.627 264.907 550.361 264.686C550.096 264.464 549.963 264.121 549.963 263.656C549.963 262.749 550.472 262.295 551.49 262.295C552.863 262.295 553.825 262.262 554.379 262.195C554.932 262.151 555.353 262.029 555.641 261.83C555.928 261.631 556.161 261.277 556.338 260.768C556.648 259.86 556.891 257.646 557.068 254.127C557.245 250.607 557.334 247.265 557.334 244.1C557.334 243.258 556.847 242.838 555.873 242.838H548.469C548.092 244.011 547.417 245.361 546.443 246.889C546.133 247.398 545.746 247.652 545.281 247.652C545.06 247.652 544.827 247.586 544.584 247.453C544.141 247.21 543.92 246.867 543.92 246.424C543.92 246.136 544.008 245.837 544.185 245.527C545.115 243.779 545.801 242.307 546.244 241.111C546.797 239.65 547.318 238.012 547.805 236.197C547.915 235.821 548.081 235.533 548.303 235.334C548.546 235.113 548.834 235.002 549.166 235.002C549.254 235.002 549.409 235.024 549.631 235.068C550.295 235.223 550.627 235.622 550.627 236.264C550.627 236.485 550.594 236.729 550.527 236.994C550.372 237.636 550.184 238.278 549.963 238.92C549.741 239.54 549.531 240.027 549.332 240.381H557.301C559.249 240.381 560.223 241.2 560.223 242.838C560.223 246.999 560.112 251.017 559.891 254.891C559.669 258.742 559.293 261.321 558.762 262.627C558.363 263.557 557.754 264.199 556.935 264.553C556.116 264.907 554.877 265.084 553.217 265.084C552.553 265.084 552.044 265.073 551.689 265.051ZM531.369 243.07C531.369 242.229 531.579 241.587 532 241.145C532.421 240.702 533.04 240.48 533.859 240.48H535.553C535.73 239.484 535.94 238.079 536.184 236.264C536.228 235.865 536.372 235.566 536.615 235.367C536.859 235.168 537.18 235.068 537.578 235.068C538.685 235.068 539.161 235.633 539.006 236.762C538.829 238.001 538.541 239.241 538.143 240.48H540.666C542.348 240.48 543.189 241.344 543.189 243.07L543.223 261.963C543.223 263.667 542.37 264.52 540.666 264.52H533.926C533.085 264.52 532.443 264.298 532 263.855C531.579 263.435 531.369 262.804 531.369 261.963V243.07ZM534.092 260.9C534.092 261.631 534.457 261.996 535.187 261.996H539.404C540.135 261.996 540.5 261.631 540.5 260.9V253.197H534.092V260.9ZM540.5 250.74V244.1C540.5 243.369 540.135 243.004 539.404 243.004H535.187C534.457 243.004 534.092 243.369 534.092 244.1V250.74H540.5ZM547.008 249.91C547.008 249.534 547.118 249.246 547.34 249.047C547.561 248.826 547.849 248.715 548.203 248.715C548.557 248.715 548.934 248.914 549.332 249.312C549.73 249.711 550.24 250.364 550.859 251.271C552.143 253.197 552.785 254.47 552.785 255.09C552.785 255.466 552.663 255.765 552.42 255.986C552.199 256.208 551.878 256.318 551.457 256.318C551.103 256.318 550.793 256.197 550.527 255.953C550.262 255.688 549.996 255.3 549.73 254.791C549.31 254.038 548.69 253.031 547.871 251.77L547.406 251.039C547.296 250.884 547.196 250.696 547.107 250.475C547.041 250.253 547.008 250.065 547.008 249.91ZM578.361 265.25C577.475 265.25 577.033 264.719 577.033 263.656V256.318C575.417 258.023 573.624 259.517 571.654 260.801C569.971 261.885 568.533 262.704 567.337 263.258C566.164 263.811 565.301 264.088 564.748 264.088C563.884 264.088 563.453 263.645 563.453 262.76C563.453 262.516 563.508 262.284 563.619 262.062C563.729 261.841 563.884 261.675 564.083 261.564L566.374 260.568C569.739 259.24 572.827 257.259 575.638 254.625H569.097C567.99 254.625 567.182 254.382 566.673 253.895C566.186 253.385 565.976 252.6 566.042 251.537V245.66C566.042 244.553 566.275 243.745 566.74 243.236C567.227 242.727 568.012 242.495 569.097 242.539H577.033V240.281H565.345C564.858 240.281 564.471 240.171 564.183 239.949C563.917 239.728 563.785 239.418 563.785 239.02C563.785 238.178 564.305 237.758 565.345 237.758H577.033V236.131C577.033 235.732 577.143 235.434 577.365 235.234C577.608 235.035 577.94 234.936 578.361 234.936C578.781 234.936 579.102 235.035 579.324 235.234C579.567 235.434 579.689 235.732 579.689 236.131V237.758H591.708C592.771 237.758 593.302 238.178 593.302 239.02C593.302 239.861 592.771 240.281 591.708 240.281H579.689V242.539H587.956C589.063 242.539 589.86 242.794 590.347 243.303C590.856 243.812 591.078 244.598 591.011 245.66V251.537C591.011 252.666 590.768 253.485 590.281 253.994C589.816 254.503 589.041 254.714 587.956 254.625H580.917C582.113 255.953 583.662 257.148 585.566 258.211C587.47 259.251 589.65 260.126 592.107 260.834C593.214 261.144 593.767 261.697 593.767 262.494C593.767 263.512 593.302 264.021 592.373 264.021C591.708 264.021 590.347 263.546 588.289 262.594C586.407 261.73 584.725 260.757 583.242 259.672C581.781 258.565 580.596 257.414 579.689 256.219V263.656C579.689 264.719 579.246 265.25 578.361 265.25ZM568.732 250.939C568.732 251.426 568.82 251.758 568.998 251.936C569.175 252.113 569.529 252.201 570.06 252.201H577.033V249.711H568.732V250.939ZM577.033 247.32V244.963H570.06C569.529 244.963 569.175 245.051 568.998 245.229C568.82 245.406 568.732 245.76 568.732 246.291V247.32H577.033ZM587.027 252.201C587.558 252.201 587.901 252.113 588.056 251.936C588.233 251.758 588.322 251.426 588.322 250.939V249.711H579.689V252.201H587.027ZM588.322 247.32V246.291C588.322 245.76 588.233 245.406 588.056 245.229C587.901 245.051 587.558 244.963 587.027 244.963H579.689V247.32H588.322ZM601.247 263.922C600.03 263.922 599.155 263.656 598.624 263.125C598.093 262.594 597.871 261.764 597.96 260.635V247.52C597.871 246.391 598.093 245.561 598.624 245.029C599.177 244.498 600.052 244.232 601.247 244.232H606.194V239.451H598.06C597.506 239.451 597.097 239.352 596.831 239.152C596.588 238.953 596.466 238.632 596.466 238.189C596.466 237.747 596.588 237.426 596.831 237.227C597.097 237.005 597.506 236.895 598.06 236.895H624.987C626.072 236.895 626.614 237.326 626.614 238.189C626.614 239.031 626.072 239.451 624.987 239.451H615.624V244.232H621.833C623.028 244.232 623.892 244.498 624.423 245.029C624.976 245.561 625.209 246.391 625.12 247.52V260.635C625.275 262.893 624.179 263.988 621.833 263.922H601.247ZM600.716 259.805C600.716 260.845 601.225 261.365 602.243 261.365H620.837C621.855 261.365 622.364 260.845 622.364 259.805V248.316C622.364 247.829 622.242 247.453 621.999 247.188C621.756 246.922 621.39 246.789 620.903 246.789H615.558V253.828C615.558 254.359 616.166 254.625 617.384 254.625C618.38 254.625 618.889 254.061 618.911 252.932C618.933 251.913 619.321 251.404 620.073 251.404C620.826 251.404 621.202 251.77 621.202 252.5C621.202 255.068 620.593 256.507 619.376 256.816C618.889 256.949 618.136 257.016 617.118 257.016C615.369 257.016 614.274 256.85 613.831 256.518C613.366 256.163 613.134 255.676 613.134 255.057V246.789H608.552C608.463 249.645 608.142 251.825 607.589 253.33C607.146 254.481 606.438 255.521 605.464 256.451C604.601 257.292 603.837 257.713 603.173 257.713C602.774 257.713 602.476 257.613 602.276 257.414C602.099 257.193 602.011 256.85 602.011 256.385C602.011 255.876 602.332 255.4 602.974 254.957C603.903 254.337 604.667 253.463 605.265 252.334C605.796 251.36 606.106 249.512 606.194 246.789H602.243C601.225 246.789 600.716 247.298 600.716 248.316V259.805ZM613.067 244.232V239.451H608.685V244.232H613.067ZM637.813 265.25C636.95 265.25 636.518 264.719 636.518 263.656V251.072C635.699 253.374 634.659 255.455 633.397 257.314C632.135 259.152 631.239 260.07 630.708 260.07C629.8 260.07 629.346 259.594 629.346 258.643C629.346 258.311 629.634 257.801 630.209 257.115C632.976 253.839 635.002 250.309 636.286 246.523H630.907C629.955 246.523 629.479 246.081 629.479 245.195C629.479 244.332 629.955 243.9 630.907 243.9H636.518V239.053C634.725 239.252 632.932 239.418 631.139 239.551C630.741 239.573 630.431 239.484 630.209 239.285C630.01 239.064 629.911 238.732 629.911 238.289C629.911 237.536 630.486 237.127 631.637 237.061C635.71 236.795 639.008 236.264 641.532 235.467L642.993 235.068C643.922 235.068 644.387 235.533 644.387 236.463C644.387 237.105 644.055 237.548 643.391 237.791C642.572 238.079 641.155 238.378 639.141 238.688V243.9H643.192C644.166 243.9 644.653 244.343 644.653 245.229C644.653 246.092 644.166 246.523 643.192 246.523H639.141V250.309C639.318 249.866 639.639 249.645 640.104 249.645C640.259 249.645 640.547 249.844 640.967 250.242C641.41 250.618 641.941 251.172 642.561 251.902C643.269 252.721 643.778 253.363 644.088 253.828C644.42 254.293 644.586 254.647 644.586 254.891C644.586 255.71 644.166 256.119 643.325 256.119C642.838 256.119 642.34 255.676 641.831 254.791C641.366 253.972 640.691 253.053 639.805 252.035C639.584 251.792 639.362 251.449 639.141 251.006V263.656C639.141 264.719 638.698 265.25 637.813 265.25ZM645.417 242.008C645.262 239.573 646.39 238.444 648.803 238.621H655.045C657.48 238.444 658.609 239.573 658.432 242.008V259.738C658.432 260.978 658.155 261.874 657.602 262.428C657.071 262.981 656.219 263.214 655.045 263.125H648.803C647.586 263.125 646.7 262.848 646.147 262.295C645.594 261.764 645.35 260.911 645.417 259.738V242.008ZM648.172 258.908C648.172 259.904 648.67 260.402 649.667 260.402H654.182C655.156 260.402 655.643 259.904 655.643 258.908V242.838C655.643 241.864 655.156 241.377 654.182 241.377H649.667C648.648 241.377 648.15 241.864 648.172 242.838V258.908ZM663.688 261.598C662.78 261.598 662.326 261.122 662.326 260.17C662.326 259.462 662.669 259.008 663.355 258.809L667.074 257.846L667.174 257.812V249.047H664.385C663.433 249.047 662.957 248.637 662.957 247.818C662.957 246.955 663.433 246.523 664.385 246.523H667.174V239.318H663.953C662.935 239.318 662.426 238.909 662.426 238.09C662.426 237.227 662.935 236.795 663.953 236.795H672.287C672.818 236.795 673.206 236.906 673.449 237.127C673.715 237.326 673.848 237.647 673.848 238.09C673.848 238.909 673.327 239.318 672.287 239.318H669.797V246.523H671.391C672.342 246.523 672.818 246.955 672.818 247.818C672.818 248.637 672.342 249.047 671.391 249.047H669.797V257.115L671.889 256.451L672.287 256.418C673.084 256.352 673.482 256.761 673.482 257.646C673.482 258.178 673.283 258.554 672.885 258.775L668.369 260.303C667.13 260.723 666.078 261.044 665.215 261.266C664.374 261.487 663.865 261.598 663.688 261.598ZM672.852 246.258C672.852 245.771 673.139 245.328 673.715 244.93C676.548 242.96 678.85 240.038 680.621 236.164C680.975 235.345 681.473 234.936 682.115 234.936C683.089 234.936 683.576 235.301 683.576 236.031C683.576 236.142 683.488 236.408 683.311 236.828C684.971 240.148 687.649 242.783 691.346 244.73C692.231 245.195 692.674 245.738 692.674 246.357C692.674 247.376 692.187 247.885 691.213 247.885C690.283 247.885 688.8 246.955 686.764 245.096C684.727 243.214 683.178 241.255 682.115 239.219C681.208 241.012 679.857 242.871 678.064 244.797C676.316 246.701 675.01 247.652 674.146 247.652C673.283 247.652 672.852 247.188 672.852 246.258ZM673.316 263.391C673.316 263.036 673.438 262.749 673.682 262.527C673.947 262.306 674.357 262.14 674.91 262.029C680.798 260.834 685.535 258.643 689.121 255.455C689.564 255.057 689.973 254.857 690.35 254.857C691.235 254.857 691.678 255.322 691.678 256.252C691.678 257.071 690.449 258.233 687.992 259.738C685.38 261.354 682.779 262.583 680.189 263.424C677.334 264.354 675.508 264.818 674.711 264.818C673.781 264.818 673.316 264.342 673.316 263.391ZM674.777 251.604C674.777 251.094 675.154 250.663 675.906 250.309C678.43 249.091 680.654 247.475 682.58 245.461C683.067 244.974 683.499 244.73 683.875 244.73C684.738 244.73 685.17 245.14 685.17 245.959C685.17 246.822 683.842 248.184 681.186 250.043C679.791 251.017 678.673 251.747 677.832 252.234C676.991 252.699 676.382 252.932 676.006 252.932C675.187 252.932 674.777 252.489 674.777 251.604ZM675.674 257.016C675.674 256.462 676.183 255.986 677.201 255.588C680.411 254.326 683.056 252.688 685.137 250.674C685.668 250.143 686.166 249.877 686.631 249.877C687.516 249.877 687.959 250.309 687.959 251.172C687.959 251.637 687.561 252.212 686.764 252.898C685.989 253.585 684.794 254.437 683.178 255.455C680.035 257.425 677.965 258.41 676.969 258.41C676.105 258.41 675.674 257.945 675.674 257.016ZM701.88 261.1C700.751 261.1 699.921 260.889 699.39 260.469C698.881 260.048 698.671 259.384 698.759 258.477V251.072C698.582 249.213 699.623 248.327 701.88 248.416H719.08C720.231 248.416 721.061 248.626 721.57 249.047C722.079 249.467 722.289 250.143 722.201 251.072V258.477C722.378 260.314 721.337 261.188 719.08 261.1H701.88ZM695.306 245.826C695.306 245.45 695.395 245.173 695.572 244.996C695.771 244.819 696.07 244.73 696.468 244.73H709.052V243.037H701.05C699.434 243.037 698.626 242.24 698.626 240.646V239.318C698.626 238.566 698.826 238.001 699.224 237.625C699.645 237.227 700.253 237.027 701.05 237.027H709.052V236.031C709.052 235.257 709.484 234.869 710.347 234.869C711.233 234.869 711.675 235.257 711.675 236.031V237.027H719.91C721.548 237.027 722.367 237.813 722.367 239.385V240.713C722.367 241.465 722.156 242.041 721.736 242.439C721.315 242.838 720.707 243.037 719.91 243.037H711.675V244.73H724.492C725.266 244.73 725.654 245.096 725.654 245.826C725.654 246.535 725.266 246.889 724.492 246.889H696.468C695.694 246.889 695.306 246.535 695.306 245.826ZM695.572 263.955C695.572 263.38 696.181 263.048 697.398 262.959C698.881 262.848 700.22 262.693 701.416 262.494L706.097 261.531C706.96 261.531 707.392 261.908 707.392 262.66C707.392 263.147 706.54 263.59 704.835 263.988C703.286 264.342 701.67 264.652 699.988 264.918L696.834 265.217C695.992 265.283 695.572 264.863 695.572 263.955ZM701.15 240.016C701.15 240.702 701.438 241.045 702.013 241.045H709.052V239.02H702.013C701.725 239.02 701.504 239.097 701.349 239.252C701.216 239.407 701.15 239.661 701.15 240.016ZM701.349 258.145C701.349 258.477 701.438 258.731 701.615 258.908C701.814 259.085 702.069 259.174 702.378 259.174H718.548C718.88 259.174 719.135 259.085 719.312 258.908C719.489 258.709 719.578 258.454 719.578 258.145V257.381H701.349V258.145ZM719.578 255.488V253.861H701.349V255.488H719.578ZM719.578 252.002V251.404C719.578 251.072 719.489 250.818 719.312 250.641C719.135 250.441 718.88 250.342 718.548 250.342H702.378C702.046 250.342 701.792 250.441 701.615 250.641C701.438 250.818 701.349 251.072 701.349 251.404V252.002H719.578ZM718.98 241.045C719.533 241.045 719.81 240.702 719.81 240.016C719.81 239.352 719.533 239.02 718.98 239.02H711.675V241.045H718.98ZM713.634 262.66C713.634 261.93 714.066 261.564 714.929 261.564L715.527 261.664C718.05 262.284 720.795 262.693 723.761 262.893C724.846 262.959 725.388 263.313 725.388 263.955C725.388 264.398 725.278 264.719 725.056 264.918C724.857 265.117 724.536 265.217 724.093 265.217C722.433 265.217 720.308 264.918 717.718 264.32C714.996 263.678 713.634 263.125 713.634 262.66ZM749.569 265.051C748.95 265.029 748.507 264.907 748.241 264.686C747.976 264.464 747.843 264.121 747.843 263.656C747.843 262.749 748.352 262.295 749.37 262.295C750.743 262.295 751.705 262.262 752.259 262.195C752.812 262.151 753.233 262.029 753.521 261.83C753.808 261.631 754.041 261.277 754.218 260.768C754.528 259.86 754.771 257.646 754.948 254.127C755.125 250.607 755.214 247.265 755.214 244.1C755.214 243.258 754.727 242.838 753.753 242.838H746.349C745.972 244.011 745.297 245.361 744.323 246.889C744.013 247.398 743.626 247.652 743.161 247.652C742.94 247.652 742.707 247.586 742.464 247.453C742.021 247.21 741.8 246.867 741.8 246.424C741.8 246.136 741.888 245.837 742.065 245.527C742.995 243.779 743.681 242.307 744.124 241.111C744.677 239.65 745.198 238.012 745.685 236.197C745.795 235.821 745.961 235.533 746.183 235.334C746.426 235.113 746.714 235.002 747.046 235.002C747.135 235.002 747.289 235.024 747.511 235.068C748.175 235.223 748.507 235.622 748.507 236.264C748.507 236.485 748.474 236.729 748.407 236.994C748.252 237.636 748.064 238.278 747.843 238.92C747.621 239.54 747.411 240.027 747.212 240.381H755.181C757.129 240.381 758.103 241.2 758.103 242.838C758.103 246.999 757.992 251.017 757.771 254.891C757.549 258.742 757.173 261.321 756.642 262.627C756.243 263.557 755.635 264.199 754.815 264.553C753.996 264.907 752.757 265.084 751.097 265.084C750.433 265.084 749.924 265.073 749.569 265.051ZM729.249 243.07C729.249 242.229 729.459 241.587 729.88 241.145C730.301 240.702 730.92 240.48 731.739 240.48H733.433C733.61 239.484 733.82 238.079 734.064 236.264C734.108 235.865 734.252 235.566 734.495 235.367C734.739 235.168 735.06 235.068 735.458 235.068C736.565 235.068 737.041 235.633 736.886 236.762C736.709 238.001 736.421 239.241 736.023 240.48H738.546C740.228 240.48 741.069 241.344 741.069 243.07L741.103 261.963C741.103 263.667 740.25 264.52 738.546 264.52H731.806C730.965 264.52 730.323 264.298 729.88 263.855C729.459 263.435 729.249 262.804 729.249 261.963V243.07ZM731.972 260.9C731.972 261.631 732.337 261.996 733.067 261.996H737.284C738.015 261.996 738.38 261.631 738.38 260.9V253.197H731.972V260.9ZM738.38 250.74V244.1C738.38 243.369 738.015 243.004 737.284 243.004H733.067C732.337 243.004 731.972 243.369 731.972 244.1V250.74H738.38ZM744.888 249.91C744.888 249.534 744.998 249.246 745.22 249.047C745.441 248.826 745.729 248.715 746.083 248.715C746.437 248.715 746.814 248.914 747.212 249.312C747.61 249.711 748.12 250.364 748.739 251.271C750.023 253.197 750.665 254.47 750.665 255.09C750.665 255.466 750.543 255.765 750.3 255.986C750.079 256.208 749.758 256.318 749.337 256.318C748.983 256.318 748.673 256.197 748.407 255.953C748.142 255.688 747.876 255.3 747.61 254.791C747.19 254.038 746.57 253.031 745.751 251.77L745.286 251.039C745.176 250.884 745.076 250.696 744.987 250.475C744.921 250.253 744.888 250.065 744.888 249.91ZM763.491 264.885C763.225 264.995 762.982 265.051 762.76 265.051C762.362 265.051 762.019 264.918 761.731 264.652C761.465 264.387 761.333 264.021 761.333 263.557C761.333 263.025 761.665 262.572 762.329 262.195C769.921 258.078 774.049 251.604 774.713 242.771C774.824 241.266 774.879 239.916 774.879 238.721L774.846 236.928C774.846 236.463 774.979 236.087 775.245 235.799C775.51 235.511 775.876 235.367 776.34 235.367C776.805 235.367 777.17 235.5 777.436 235.766C777.724 236.031 777.868 236.385 777.868 236.828C777.868 238.134 777.823 239.54 777.735 241.045C777.713 241.244 777.68 241.488 777.635 241.775C777.613 242.041 777.602 242.251 777.602 242.406C777.602 242.517 777.624 242.683 777.669 242.904C778.2 245.538 779.052 248.073 780.225 250.508C781.398 252.943 782.859 255.123 784.608 257.049C786.379 258.975 788.371 260.447 790.585 261.465C791.404 261.819 791.813 262.328 791.813 262.992C791.813 263.236 791.769 263.479 791.68 263.723C791.415 264.409 790.939 264.752 790.253 264.752C789.943 264.752 789.6 264.686 789.223 264.553C787.364 263.844 785.582 262.638 783.878 260.934C782.195 259.229 780.723 257.226 779.461 254.924C778.222 252.6 777.292 250.209 776.672 247.752C775.898 251.714 774.348 255.178 772.024 258.145C769.722 261.089 766.878 263.335 763.491 264.885ZM796.305 251.238C795.065 251.238 794.445 250.729 794.445 249.711C794.445 248.693 795.065 248.184 796.305 248.184H822.568C823.808 248.184 824.428 248.704 824.428 249.744C824.428 250.74 823.808 251.238 822.568 251.238H796.305ZM828.355 264.32C827.58 264.32 827.193 263.878 827.193 262.992C827.193 262.616 827.337 262.151 827.625 261.598C828.2 260.469 828.676 259.008 829.052 257.215C829.451 255.4 829.672 253.64 829.716 251.936C829.761 250.873 830.192 250.342 831.011 250.342C831.764 250.342 832.14 250.873 832.14 251.936C832.14 252.577 832.03 253.983 831.808 256.152C832.207 256.883 832.605 257.48 833.004 257.945C833.402 258.388 833.966 258.853 834.697 259.34V248.084H829.052C828.034 248.084 827.525 247.674 827.525 246.855C827.525 246.036 828.034 245.627 829.052 245.627H834.63V241.941H830.148C829.661 241.941 829.285 241.842 829.019 241.643C828.754 241.421 828.621 241.1 828.621 240.68C828.621 239.861 829.13 239.451 830.148 239.451H834.63V236.463C834.63 235.467 835.084 234.969 835.992 234.969C836.855 234.969 837.287 235.467 837.287 236.463V239.451H840.707C841.194 239.451 841.57 239.562 841.836 239.783C842.101 239.982 842.234 240.292 842.234 240.713C842.234 241.532 841.725 241.941 840.707 241.941H837.287V245.627H841.47C842.489 245.627 842.998 246.036 842.998 246.855C842.998 247.276 842.876 247.586 842.632 247.785C842.389 247.984 842.002 248.084 841.47 248.084H837.353V252.301H840.806C841.293 252.301 841.67 252.411 841.935 252.633C842.201 252.832 842.334 253.142 842.334 253.562C842.334 254.382 841.825 254.791 840.806 254.791H837.353V260.768C839.257 261.299 843.031 261.587 848.675 261.631C849.959 261.631 851.376 261.598 852.925 261.531C853.457 261.531 854.475 261.509 855.98 261.465C857.043 261.421 857.574 261.885 857.574 262.859C857.574 263.28 857.43 263.634 857.142 263.922C856.877 264.188 856.069 264.32 854.718 264.32C853.235 264.32 852.129 264.309 851.398 264.287C849.162 264.287 847.491 264.276 846.384 264.254C843.95 264.21 841.813 264.066 839.976 263.822C838.139 263.579 836.733 263.258 835.759 262.859C833.922 262.107 832.428 260.779 831.277 258.875C830.458 262.505 829.484 264.32 828.355 264.32ZM843.927 239.717C843.927 238.876 844.149 238.234 844.591 237.791C845.034 237.348 845.676 237.127 846.517 237.127H852.992C854.054 237.127 854.818 237.359 855.283 237.824C855.77 238.289 855.969 239.031 855.88 240.049V244.963C855.88 246.003 855.648 246.767 855.183 247.254C854.741 247.719 854.01 247.918 852.992 247.852H846.584V255.023C846.584 255.82 846.772 256.307 847.148 256.484C847.369 256.573 847.701 256.639 848.144 256.684C848.609 256.728 848.93 256.761 849.107 256.783C849.86 256.827 850.579 256.85 851.265 256.85C851.951 256.85 852.693 256.827 853.49 256.783C853.8 256.739 854.021 256.507 854.154 256.086C854.309 255.665 854.386 254.99 854.386 254.061C854.386 253.574 854.497 253.208 854.718 252.965C854.94 252.721 855.25 252.6 855.648 252.6C856.135 252.6 856.5 252.721 856.744 252.965C856.987 253.208 857.109 253.596 857.109 254.127C857.109 256.186 856.81 257.558 856.213 258.244C855.88 258.62 855.394 258.886 854.752 259.041C854.132 259.174 853.246 259.24 852.095 259.24C849.793 259.24 848.122 259.185 847.082 259.074C846.063 258.964 845.366 258.798 844.99 258.576C844.304 258.178 843.95 257.458 843.927 256.418V239.717ZM851.996 245.262C852.394 245.262 852.693 245.151 852.892 244.93C853.114 244.708 853.224 244.398 853.224 244V240.979C853.224 240.182 852.815 239.761 851.996 239.717H847.879C847.015 239.717 846.584 240.148 846.584 241.012V245.262H851.996ZM881.489 265.051C880.87 265.029 880.427 264.907 880.161 264.686C879.896 264.464 879.763 264.121 879.763 263.656C879.763 262.749 880.272 262.295 881.29 262.295C882.663 262.295 883.625 262.262 884.179 262.195C884.732 262.151 885.153 262.029 885.441 261.83C885.728 261.631 885.961 261.277 886.138 260.768C886.448 259.86 886.691 257.646 886.868 254.127C887.045 250.607 887.134 247.265 887.134 244.1C887.134 243.258 886.647 242.838 885.673 242.838H878.269C877.892 244.011 877.217 245.361 876.243 246.889C875.933 247.398 875.546 247.652 875.081 247.652C874.86 247.652 874.627 247.586 874.384 247.453C873.941 247.21 873.72 246.867 873.72 246.424C873.72 246.136 873.808 245.837 873.985 245.527C874.915 243.779 875.601 242.307 876.044 241.111C876.597 239.65 877.118 238.012 877.605 236.197C877.715 235.821 877.881 235.533 878.103 235.334C878.346 235.113 878.634 235.002 878.966 235.002C879.054 235.002 879.209 235.024 879.431 235.068C880.095 235.223 880.427 235.622 880.427 236.264C880.427 236.485 880.394 236.729 880.327 236.994C880.172 237.636 879.984 238.278 879.763 238.92C879.541 239.54 879.331 240.027 879.132 240.381H887.101C889.049 240.381 890.023 241.2 890.023 242.838C890.023 246.999 889.912 251.017 889.691 254.891C889.469 258.742 889.093 261.321 888.562 262.627C888.163 263.557 887.554 264.199 886.735 264.553C885.916 264.907 884.677 265.084 883.017 265.084C882.353 265.084 881.844 265.073 881.489 265.051ZM861.169 243.07C861.169 242.229 861.379 241.587 861.8 241.145C862.22 240.702 862.84 240.48 863.659 240.48H865.353C865.53 239.484 865.74 238.079 865.984 236.264C866.028 235.865 866.172 235.566 866.415 235.367C866.659 235.168 866.98 235.068 867.378 235.068C868.485 235.068 868.961 235.633 868.806 236.762C868.629 238.001 868.341 239.241 867.943 240.48H870.466C872.148 240.48 872.989 241.344 872.989 243.07L873.023 261.963C873.023 263.667 872.17 264.52 870.466 264.52H863.726C862.885 264.52 862.243 264.298 861.8 263.855C861.379 263.435 861.169 262.804 861.169 261.963V243.07ZM863.892 260.9C863.892 261.631 864.257 261.996 864.987 261.996H869.204C869.935 261.996 870.3 261.631 870.3 260.9V253.197H863.892V260.9ZM870.3 250.74V244.1C870.3 243.369 869.935 243.004 869.204 243.004H864.987C864.257 243.004 863.892 243.369 863.892 244.1V250.74H870.3ZM876.808 249.91C876.808 249.534 876.918 249.246 877.14 249.047C877.361 248.826 877.649 248.715 878.003 248.715C878.357 248.715 878.734 248.914 879.132 249.312C879.53 249.711 880.04 250.364 880.659 251.271C881.943 253.197 882.585 254.47 882.585 255.09C882.585 255.466 882.463 255.765 882.22 255.986C881.998 256.208 881.678 256.318 881.257 256.318C880.903 256.318 880.593 256.197 880.327 255.953C880.062 255.688 879.796 255.3 879.53 254.791C879.11 254.038 878.49 253.031 877.671 251.77L877.206 251.039C877.095 250.884 876.996 250.696 876.907 250.475C876.841 250.253 876.808 250.065 876.808 249.91ZM908.161 265.184C907.253 265.184 906.799 264.63 906.799 263.523V259.572H895.378C894.337 259.572 893.817 259.163 893.817 258.344C893.817 257.503 894.337 257.082 895.378 257.082H906.799V253.695H897.005C895.986 253.695 895.477 253.275 895.477 252.434C895.477 251.615 895.986 251.205 897.005 251.205H901.055L899.86 246.656H894.846C893.828 246.656 893.319 246.247 893.319 245.428C893.319 244.587 893.828 244.166 894.846 244.166H906.799V240.746H897.602C896.584 240.746 896.075 240.326 896.075 239.484C896.075 238.665 896.584 238.256 897.602 238.256H906.799V236.264C906.799 235.4 907.264 234.969 908.194 234.969C909.102 234.969 909.555 235.4 909.555 236.264V238.256H919.118C920.114 238.256 920.612 238.665 920.612 239.484C920.612 240.326 920.114 240.746 919.118 240.746H909.555V244.166H921.874C922.892 244.166 923.401 244.576 923.401 245.395C923.401 246.236 922.892 246.656 921.874 246.656H916.462C916.063 248.228 915.609 249.744 915.1 251.205H919.715C920.756 251.205 921.276 251.626 921.276 252.467C921.276 253.286 920.756 253.695 919.715 253.695H909.555V257.082H921.376C922.372 257.082 922.87 257.492 922.87 258.311C922.87 259.152 922.372 259.572 921.376 259.572H909.555V263.523C909.555 264.63 909.09 265.184 908.161 265.184ZM903.712 251.072L903.778 251.205H912.444C912.975 249.545 913.374 248.084 913.639 246.822L913.706 246.656H902.516L903.712 251.072ZM941.074 264.42C940.034 264.42 939.281 264.188 938.817 263.723C938.352 263.28 938.153 262.561 938.219 261.564V253.828C938.219 252.788 938.44 252.035 938.883 251.57C939.348 251.105 940.078 250.906 941.074 250.973H952.563C953.603 250.973 954.356 251.205 954.82 251.67C955.307 252.113 955.518 252.832 955.451 253.828V261.564C955.451 262.605 955.219 263.357 954.754 263.822C954.311 264.287 953.581 264.486 952.563 264.42H941.074ZM926.067 260.867C926.067 260.668 926.155 260.325 926.332 259.838C926.886 258.421 927.162 255.986 927.162 252.533L927.129 248.615C927.129 247.73 927.505 247.287 928.258 247.287C929.033 247.287 929.42 247.785 929.42 248.781L929.354 254.293C929.332 256.905 929.143 258.875 928.789 260.203C928.457 261.509 927.992 262.162 927.395 262.162C926.509 262.162 926.067 261.73 926.067 260.867ZM926.299 243.568C926.299 242.771 926.786 242.373 927.76 242.373H936.592C937.588 242.373 938.086 242.771 938.086 243.568C938.086 244.387 937.588 244.797 936.592 244.797H933.205V264.021C933.205 264.907 932.818 265.35 932.043 265.35C931.268 265.35 930.881 264.907 930.881 264.021V244.797H927.76C926.786 244.797 926.299 244.387 926.299 243.568ZM927.395 237.625C927.395 236.784 927.848 236.363 928.756 236.363H935.695C936.603 236.363 937.057 236.784 937.057 237.625C937.057 238.488 936.603 238.92 935.695 238.92H928.756C927.848 238.92 927.395 238.488 927.395 237.625ZM934.766 248.615C934.766 247.73 935.153 247.287 935.928 247.287C936.681 247.287 937.057 247.73 937.057 248.615V259.971C937.057 260.834 936.681 261.266 935.928 261.266C935.153 261.266 934.766 260.834 934.766 259.971V248.615ZM937.522 237.658C937.522 236.861 938.02 236.463 939.016 236.463H954.688C955.662 236.463 956.149 236.861 956.149 237.658C956.149 238.455 955.662 238.854 954.688 238.854H939.016C938.02 238.854 937.522 238.455 937.522 237.658ZM939.281 243.568C939.281 241.687 940.211 240.79 942.07 240.879H951.567C952.518 240.879 953.227 241.1 953.692 241.543C954.179 241.964 954.422 242.639 954.422 243.568V246.191C954.422 248.117 953.47 249.025 951.567 248.914H942.07C941.119 248.914 940.41 248.704 939.945 248.283C939.503 247.84 939.281 247.165 939.281 246.258V243.568ZM940.676 261.199C940.676 261.841 940.997 262.162 941.639 262.162H945.623V258.709H940.676V261.199ZM945.623 256.551V253.23H941.639C940.997 253.23 940.676 253.551 940.676 254.193V256.551H945.623ZM941.738 245.893C941.738 246.446 942.026 246.723 942.602 246.723H951.102C951.655 246.723 951.932 246.446 951.932 245.893V243.9C951.932 243.347 951.655 243.07 951.102 243.07H942.602C942.026 243.07 941.738 243.347 941.738 243.9V245.893ZM952.031 262.162C952.673 262.162 952.994 261.83 952.994 261.166V258.709H947.981V262.162H952.031ZM952.994 256.551V254.227C952.994 253.562 952.673 253.23 952.031 253.23H947.981V256.551H952.994ZM969.349 246.191C969.083 246.191 968.851 246.092 968.652 245.893C968.452 245.671 968.353 245.428 968.353 245.162C968.353 244.808 968.519 244.52 968.851 244.299C969.448 243.945 969.88 243.546 970.146 243.104C970.411 242.661 970.544 242.052 970.544 241.277H970.445C969.935 241.277 969.493 241.089 969.116 240.713C968.74 240.337 968.552 239.894 968.552 239.385V239.186C968.552 238.676 968.74 238.234 969.116 237.857C969.493 237.481 969.935 237.293 970.445 237.293H970.777C972.105 237.293 972.769 238.145 972.769 239.85C972.769 240.27 972.736 240.702 972.669 241.145C972.492 242.34 972.204 243.325 971.806 244.1C971.407 244.874 970.788 245.516 969.946 246.025C969.725 246.136 969.526 246.191 969.349 246.191ZM974.362 245.162C974.362 244.808 974.529 244.52 974.861 244.299C975.458 243.945 975.89 243.546 976.155 243.104C976.421 242.661 976.554 242.052 976.554 241.277H976.454C975.945 241.277 975.502 241.089 975.126 240.713C974.75 240.337 974.562 239.894 974.562 239.385V239.186C974.562 238.676 974.75 238.234 975.126 237.857C975.502 237.481 975.945 237.293 976.454 237.293H976.786C978.114 237.293 978.779 238.145 978.779 239.85C978.779 240.27 978.745 240.702 978.679 241.145C978.502 242.34 978.214 243.325 977.816 244.1C977.417 244.874 976.797 245.516 975.956 246.025C975.735 246.136 975.536 246.191 975.359 246.191C975.093 246.191 974.861 246.092 974.661 245.893C974.462 245.671 974.362 245.428 974.362 245.162Z" fill="white"/>
<path d="M622.9 302.617H630.213C631.525 302.617 632.638 302.816 633.552 303.214C634.466 303.603 635.151 304.153 635.608 304.864C636.074 305.575 636.306 306.4 636.306 307.34C636.306 308.042 636.163 308.664 635.875 309.206C635.596 309.739 635.206 310.184 634.707 310.539C634.207 310.886 633.636 311.132 632.993 311.275V311.453C633.695 311.487 634.356 311.69 634.973 312.062C635.591 312.435 636.086 312.955 636.459 313.624C636.831 314.284 637.017 315.054 637.017 315.935C637.017 316.916 636.772 317.788 636.281 318.55C635.799 319.312 635.083 319.912 634.136 320.353C633.188 320.784 632.041 321 630.695 321H622.9V302.617ZM629.921 317.864C630.64 317.864 631.233 317.771 631.698 317.585C632.172 317.39 632.519 317.124 632.739 316.785C632.968 316.438 633.078 316.028 633.069 315.554C633.078 315.046 632.955 314.593 632.701 314.195C632.456 313.789 632.1 313.476 631.635 313.256C631.178 313.036 630.64 312.926 630.022 312.926H626.709V317.864H629.921ZM629.641 310.323C630.175 310.315 630.653 310.217 631.076 310.031C631.508 309.837 631.842 309.562 632.079 309.206C632.324 308.851 632.447 308.432 632.447 307.949C632.447 307.501 632.337 307.107 632.117 306.769C631.905 306.43 631.592 306.172 631.178 305.994C630.771 305.808 630.285 305.715 629.718 305.715H626.709V310.323H629.641ZM640.795 326.18C639.856 326.163 639.221 326.142 638.891 326.116V323.184C639.187 323.209 639.695 323.226 640.414 323.234C640.71 323.226 640.96 323.196 641.163 323.146C641.375 323.103 641.565 322.989 641.734 322.803C641.912 322.625 642.073 322.346 642.217 321.965L642.445 321.394L637.482 307.213H641.442L644.337 317.369H644.489L647.397 307.213H651.383L646 322.511C645.585 323.696 644.963 324.601 644.134 325.228C643.304 325.854 642.191 326.171 640.795 326.18ZM665.919 301.318H681.025V303.944H665.919V301.318ZM671.847 298.926H674.889V323.34H671.847V298.926ZM675.851 313.304C677.021 315.852 679.257 318.322 681.727 319.57C681.077 320.142 680.115 321.26 679.673 322.04C677.099 320.35 674.915 317.23 673.667 313.954L675.851 313.304ZM669.559 311.198V312.628H677.229V311.198H669.559ZM669.559 307.766V309.17H677.229V307.766H669.559ZM666.829 305.582H680.115V314.812H666.829V305.582ZM670.729 313.356L673.173 314.162C671.665 317.516 669.091 320.584 666.127 322.196C665.659 321.468 664.723 320.35 664.047 319.752C666.829 318.504 669.403 315.982 670.729 313.356ZM658.067 300.044H664.203V302.826H660.797V323.366H658.067V300.044ZM663.241 300.044H663.761L664.203 299.94L666.231 301.084C665.555 303.32 664.697 306.154 663.943 308.182C665.555 310.21 665.867 311.952 665.867 313.46C665.867 315.15 665.529 316.242 664.697 316.814C664.281 317.1 663.787 317.282 663.215 317.36C662.747 317.412 662.123 317.438 661.525 317.438C661.499 316.684 661.265 315.514 660.849 314.76C661.317 314.786 661.655 314.812 661.967 314.786C662.253 314.786 662.513 314.734 662.695 314.578C663.007 314.344 663.137 313.824 663.137 313.096C663.137 311.874 662.799 310.262 661.317 308.52C662.045 306.18 662.877 302.592 663.241 300.928V300.044ZM697.951 304.178H700.915V319.986C700.915 321.442 700.655 322.326 699.719 322.82C698.809 323.314 697.509 323.366 695.663 323.366C695.559 322.534 695.169 321.156 694.779 320.35C695.871 320.428 697.093 320.402 697.457 320.402C697.821 320.402 697.951 320.298 697.951 319.934V304.178ZM694.441 301.396L695.793 298.9C698.211 299.446 701.695 300.59 703.437 301.526L702.007 304.308C700.369 303.346 696.963 302.072 694.441 301.396ZM700.785 306.57C701.773 311.484 703.801 316.294 707.103 318.504C706.427 319.076 705.439 320.246 704.971 321.052C701.591 318.27 699.771 312.784 698.731 306.96L700.785 306.57ZM694.389 309.066H694.883L695.403 308.988L697.301 309.586C696.625 314.786 694.883 318.712 692.075 321C691.659 320.324 690.775 319.232 690.151 318.712C692.387 316.996 693.895 313.33 694.389 309.56V309.066ZM704.139 306.31L706.687 308.364C705.179 309.872 703.619 311.614 702.371 312.68L700.525 311.042C701.695 309.846 703.255 307.818 704.139 306.31ZM693.115 304.178H699.277V307.012H693.115V304.178ZM691.191 309.066H695.221V311.874H691.191V309.066ZM683.365 306.908H690.619V309.248H683.365V306.908ZM683.521 299.732H690.541V302.098H683.521V299.732ZM683.365 310.444H690.619V312.81H683.365V310.444ZM682.195 303.242H691.477V305.712H682.195V303.242ZM684.795 314.058H690.671V321.91H684.795V319.466H688.123V316.502H684.795V314.058ZM683.287 314.058H685.835V323.002H683.287V314.058ZM723.223 298.926H726.213V302.722H723.223V298.926ZM718.075 301.032H731.569V305.894H728.813V303.658H720.727V305.998H718.075V301.032ZM721.351 304.724L724.003 305.53C723.015 307.324 721.377 309.248 719.947 310.418C719.453 309.95 718.413 309.066 717.763 308.676C719.167 307.688 720.545 306.18 721.351 304.724ZM725.511 305.868L727.643 304.594C728.995 305.764 730.711 307.454 731.491 308.598L729.229 310.054C728.501 308.91 726.863 307.116 725.511 305.868ZM724.835 310.99C723.587 312.992 721.325 315.436 718.881 316.944C718.569 316.19 717.945 315.124 717.425 314.5C719.869 313.122 722.261 310.47 723.405 308.364H726.057C727.669 310.652 730.009 312.94 732.323 314.058C731.751 314.76 731.101 315.826 730.685 316.684C728.553 315.358 726.161 312.992 724.835 310.99ZM719.583 314.448H730.061V323.132H727.253V317.022H722.287V323.314H719.583V314.448ZM720.935 319.882H728.657V322.482H720.935V319.882ZM709.261 305.4H716.775V308H709.261V305.4ZM708.013 309.898H717.503V312.55H708.013V309.898ZM708.273 314.006L710.249 313.512C710.691 314.968 711.055 316.788 711.185 318.036L709.079 318.582C709.027 317.334 708.663 315.462 708.273 314.006ZM707.727 319.96C710.301 319.596 714.175 318.894 717.867 318.218L718.075 320.792C714.669 321.494 711.055 322.248 708.325 322.794L707.727 319.96ZM715.475 313.304L717.711 313.85C717.243 315.332 716.827 316.97 716.437 318.062L714.565 317.542C714.903 316.372 715.293 314.552 715.475 313.304ZM711.575 306.44H714.253V320.454L711.575 320.922V306.44ZM711.445 298.926H713.083V299.498H713.967V300.304C712.953 302.28 711.367 304.958 708.793 307.298C708.377 306.674 707.493 305.686 706.921 305.27C709.105 303.398 710.639 300.954 711.445 298.926ZM711.835 298.926H714.019C715.527 300.226 717.477 302.072 718.413 303.398L716.411 305.79C715.579 304.49 713.811 302.306 712.381 301.136H711.835V298.926Z" fill="white"/>
<defs>
<clipPath id="clip0_1338_78225">
<rect width="804" height="69.2854" fill="white" transform="translate(319.316 64.5508) rotate(-1.30383)"/>
</clipPath>
</defs>
</svg>
