<svg width="474" height="51" viewBox="0 0 474 51" fill="none" xmlns="http://www.w3.org/2000/svg">
<g clip-path="url(#clip0_1396_78200)">
<path d="M0 18.1677C0 8.35021 5.45669 0.82561 15.2103 0V7.24654C10.467 7.70426 7.69276 11.1008 7.69276 15.7807H14.134V30H0V18.1634V18.1677ZM18.7897 18.1677C18.7897 8.35021 24.2464 0.82561 34 0V7.24654C29.2567 7.70426 26.4825 11.1008 26.4825 15.7807H32.9237V30H18.7855V18.1634L18.7897 18.1677Z" fill="#005BAD" fill-opacity="0.5"/>
</g>
<g clip-path="url(#clip1_1396_78200)">
<path d="M474 11.8323C474 21.6498 468.543 29.1744 458.79 30L458.79 22.7535C463.533 22.2957 466.307 18.8992 466.307 14.2193L459.866 14.2193L459.866 1.23563e-06L474 0L474 11.8366L474 11.8323ZM455.21 11.8323C455.21 21.6498 449.754 29.1744 440 30L440 22.7535C444.743 22.2957 447.518 18.8992 447.518 14.2193L441.076 14.2193L441.076 2.87828e-06L455.214 1.64228e-06L455.214 11.8366L455.21 11.8323Z" fill="#005BAD" fill-opacity="0.5"/>
</g>
<path d="M82.1025 48C76.8837 48 73.5087 47.8125 71.9775 47.4375C70.2587 47.0312 69.3994 45.625 69.3994 43.2188V13.7344C69.3994 12.2344 69.7431 11.125 70.4306 10.4062C71.1181 9.65625 72.2275 9.3125 73.7587 9.375H88.9931C90.3994 9.375 91.5087 9.71875 92.3212 10.4062C93.04 11.2812 93.3837 12.3906 93.3525 13.7344V25.0312C93.5712 28.1562 92.1181 29.625 88.9931 29.4375H73.0556V42.2812C73.0556 42.625 73.1494 42.9062 73.3369 43.125C73.5556 43.3125 73.8681 43.5 74.2744 43.6875C75.0244 44 78.1806 44.1562 83.7431 44.1562C86.7431 44.1562 88.7275 43.9844 89.6962 43.6406C90.6337 43.3281 91.1181 42.2344 91.1494 40.3594C91.2119 38.5156 91.9306 37.5938 93.3056 37.5938C94.7431 37.5938 95.4619 38.3906 95.4619 39.9844C95.4619 43.1406 94.8369 45.2969 93.5869 46.4531C92.5244 47.4844 88.6962 48 82.1025 48ZM52.6181 32.8125C52.6181 31.7188 53.4775 30.9844 55.1962 30.6094L59.0869 29.625V19.4531H54.8212C53.415 19.4531 52.7119 18.8438 52.7119 17.625C52.7119 16.4062 53.415 15.7969 54.8212 15.7969H59.0869V8.71875C59.0869 7.4375 59.6962 6.79688 60.915 6.79688C62.1337 6.79688 62.7431 7.4375 62.7431 8.71875V15.7969H65.6962C67.1337 15.7969 67.8525 16.4062 67.8525 17.625C67.8525 18.8438 67.1337 19.4531 65.6962 19.4531H62.7431V28.5938L63.4462 28.3594L65.04 27.8906L66.2587 27.6094C67.3525 27.6094 67.8994 28.1875 67.8994 29.3438C67.8994 30.2188 67.415 30.8438 66.4462 31.2188L62.7431 32.4375V44.5781C62.9619 47.8594 61.3837 49.4219 58.0087 49.2656H55.7119C54.4306 49.2656 53.79 48.6094 53.79 47.2969C53.79 45.9844 54.4306 45.3281 55.7119 45.3281H57.3056C58.4306 45.3281 59.0244 44.7344 59.0869 43.5469V33.5156L54.54 34.7812C53.2587 34.7812 52.6181 34.125 52.6181 32.8125ZM79.4775 25.9219V12.8906H74.8837C73.6337 12.8906 73.0244 13.4844 73.0556 14.6719V25.9219H79.4775ZM87.7275 25.9219C88.9775 25.9219 89.5712 25.3125 89.5087 24.0938V14.6719C89.5087 13.4531 88.915 12.8594 87.7275 12.8906H82.9931V25.9219H87.7275ZM108.928 49.5938C107.803 49.5938 107.241 48.8906 107.241 47.4844V40.6406H101.006C100.381 40.6406 99.9125 40.5156 99.6 40.2656C99.3187 39.9844 99.1781 39.5625 99.1781 39C99.1781 37.9062 99.7875 37.3594 101.006 37.3594H107.241V33.6562H104.475C102.069 33.6562 100.866 32.4375 100.866 30V21.8438C100.866 19.4062 102.069 18.1875 104.475 18.1875H107.053V14.7188H101.334C100.116 14.7188 99.5062 14.1875 99.5062 13.125C99.5062 12.0312 100.116 11.4844 101.334 11.4844H107.053V8.85938C107.053 7.45312 107.6 6.75 108.694 6.75C109.85 6.75 110.428 7.45312 110.428 8.85938V11.4844H115.819C117.037 11.4844 117.647 12.0312 117.647 13.125C117.647 14.1875 117.037 14.7188 115.819 14.7188H110.428V18.1875H113.287C115.725 18.1875 116.944 19.375 116.944 21.75V30C116.944 32.4375 115.725 33.6562 113.287 33.6562H110.662V37.3594H115.725C116.944 37.3594 117.553 37.9062 117.553 39C117.553 40.0938 116.944 40.6406 115.725 40.6406H110.662V47.4844C110.662 48.8906 110.084 49.5938 108.928 49.5938ZM104.147 29.25C104.147 30.0938 104.569 30.5312 105.412 30.5625H112.397C113.241 30.5625 113.662 30.125 113.662 29.25V27.2812H104.147V29.25ZM113.662 24.2344V22.5938C113.662 21.75 113.241 21.3125 112.397 21.2812H105.412C104.569 21.2812 104.147 21.7188 104.147 22.5938V24.2344H113.662ZM117.647 18.4688C117.647 17.4688 118.162 16.9688 119.194 16.9688H123.131L124.256 13.3125H121.397C120.272 13.3125 119.709 12.7969 119.709 11.7656C119.709 10.7656 120.272 10.2656 121.397 10.2656H125.053C125.334 8.73438 125.584 7.82812 125.803 7.54688C126.209 7.01562 126.741 6.75 127.397 6.75C128.616 6.75 129.225 7.3125 129.225 8.4375C129.225 8.8125 129.069 9.42188 128.756 10.2656H134.1C135.35 10.2656 136.256 10.5625 136.819 11.1562C137.381 11.7188 137.662 12.625 137.662 13.875V16.9688H139.819C140.912 16.9688 141.459 17.4844 141.459 18.5156C141.459 19.5156 140.912 20.0156 139.819 20.0156H119.194C118.162 20.0156 117.647 19.5 117.647 18.4688ZM117.975 34.9219C117.975 33.9219 118.491 33.4219 119.522 33.4219H129.647V30.8438H123.366C120.959 30.8438 119.756 29.7812 119.756 27.6562V25.2656C119.756 23.0781 120.959 21.9844 123.366 21.9844H135.6C137.975 21.9844 139.162 23.0469 139.162 25.1719V27.5625C139.162 29.75 137.959 30.8438 135.553 30.8438H133.209V33.4219H138.881C140.006 33.4219 140.569 33.9219 140.569 34.9219C140.569 35.9219 140.006 36.4219 138.881 36.4219H133.209V40.125H140.475C141.6 40.125 142.162 40.6406 142.162 41.6719C142.162 42.7031 141.6 43.2188 140.475 43.2188H133.209V47.4844C133.209 48.9219 132.616 49.6406 131.428 49.6406C130.241 49.6406 129.647 48.9219 129.647 47.4844V43.2188H122.053C121.772 44.25 121.412 45.0312 120.975 45.5625C120.569 46.125 120.116 46.4062 119.616 46.4062C118.772 46.4062 118.241 46.1094 118.022 45.5156C117.959 45.3281 117.928 45.1406 117.928 44.9531C117.928 44.6719 118.037 44.0938 118.256 43.2188L119.381 38.9531C119.725 37.6719 120.35 37.0312 121.256 37.0312C122.412 37.0312 122.991 37.5781 122.991 38.6719L122.709 40.125H129.647V36.4219H119.522C118.491 36.4219 117.975 35.9219 117.975 34.9219ZM123.225 26.9531C123.225 27.6719 123.569 28.0312 124.256 28.0312H134.569C135.287 28.0312 135.647 27.6719 135.647 26.9531V25.875C135.647 25.1875 135.287 24.8438 134.569 24.8438H124.256C123.569 24.8438 123.225 25.1875 123.225 25.875V26.9531ZM134.1 16.9688V14.5312C134.1 13.7187 133.694 13.3125 132.881 13.3125H127.866L127.678 13.7812L126.6 16.9688H134.1ZM152.394 48.9375C150.676 48.9375 149.441 48.5625 148.691 47.8125C147.941 47.0625 147.566 45.8281 147.566 44.1094V13.2188C147.566 11.5 147.941 10.2656 148.691 9.51562C149.472 8.73438 150.707 8.34375 152.394 8.34375H181.926C183.644 8.34375 184.879 8.73438 185.629 9.51562C186.379 10.2656 186.754 11.5 186.754 13.2188V44.1094C186.754 45.8281 186.363 47.0625 185.582 47.8125C184.832 48.5625 183.613 48.9375 181.926 48.9375H152.394ZM151.269 43.0312C151.269 44.6875 152.097 45.5156 153.754 45.5156H180.566C182.222 45.5156 183.051 44.6875 183.051 43.0312V14.2031C183.051 12.5781 182.222 11.7656 180.566 11.7656H153.754C152.097 11.7656 151.269 12.5781 151.269 14.2031V43.0312ZM152.207 39.4219C152.207 38.7969 152.426 38.3594 152.863 38.1094C153.269 37.8594 154.597 37.5781 156.847 37.2656C157.504 37.2031 158.285 37.0781 159.191 36.8906C160.097 36.6719 160.722 36.5312 161.066 36.4688L163.41 35.9531L165.613 35.4844L166.691 35.25C167.129 35.1562 167.457 35.25 167.676 35.5312C167.894 35.8125 168.004 36.2031 168.004 36.7031C168.004 37.0156 167.91 37.2969 167.722 37.5469C167.535 37.7656 167.285 37.9062 166.972 37.9688L166.269 38.2031C165.894 38.3281 165.066 38.5781 163.785 38.9531C163.41 39.0781 162.863 39.2188 162.144 39.375C161.426 39.5312 160.847 39.6719 160.41 39.7969L158.019 40.3125C155.394 40.9062 153.941 41.2031 153.66 41.2031C153.16 41.2031 152.785 41.0625 152.535 40.7812C152.316 40.5 152.207 40.0469 152.207 39.4219ZM152.347 19.5469C152.347 18.9531 152.519 18.5156 152.863 18.2344C153.207 17.9531 153.738 17.8125 154.457 17.8125H167.91V15.3281C167.91 13.9219 168.488 13.2188 169.644 13.2188C170.207 13.2188 170.629 13.4375 170.91 13.875C171.191 14.3125 171.332 14.9375 171.332 15.75V17.8125H179.629C180.347 17.8125 180.879 17.9531 181.222 18.2344C181.566 18.5156 181.738 18.9531 181.738 19.5469C181.738 20.1406 181.566 20.5625 181.222 20.8125C180.879 21.0625 180.347 21.1875 179.629 21.1875H171.519C171.582 24.125 171.754 26.4844 172.035 28.2656C172.347 30.0469 172.785 31.5156 173.347 32.6719C174.254 31.1719 175.285 28.7969 176.441 25.5469C176.816 24.4531 177.379 23.9062 178.129 23.9062C178.785 23.9062 179.269 24.0312 179.582 24.2812C179.894 24.5 180.051 24.8906 180.051 25.4531C180.051 25.8906 179.488 27.3438 178.363 29.8125C177.176 32.5 176.019 34.5938 174.894 36.0938V36.1406C175.488 37.2031 176.066 38.0625 176.629 38.7188C177.222 39.375 177.707 39.7031 178.082 39.7031C178.363 39.7031 178.629 39.4062 178.879 38.8125C179.16 38.2188 179.363 37.4062 179.488 36.375C179.551 35.9375 179.691 35.5938 179.91 35.3438C180.16 35.0938 180.472 34.9688 180.847 34.9688C181.816 34.9688 182.301 35.4844 182.301 36.5156C182.301 38.2344 181.957 39.875 181.269 41.4375C180.551 43.125 179.644 43.9688 178.551 43.9688C176.613 43.9688 174.66 42.3281 172.691 39.0469H172.551C171.957 39.7969 171.332 40.4375 170.676 40.9688C170.019 41.5 169.238 42.0312 168.332 42.5625C167.301 43.1562 166.551 43.5781 166.082 43.8281C165.613 44.0469 165.222 44.1562 164.91 44.1562C163.847 44.1562 163.316 43.5938 163.316 42.4688C163.316 42.1562 163.519 41.8125 163.926 41.4375C164.332 41.0312 164.832 40.6719 165.426 40.3594C167.644 39.2344 169.504 37.8125 171.004 36.0938C169.379 32.1875 168.426 27.2188 168.144 21.1875H154.457C153.738 21.1875 153.207 21.0625 152.863 20.8125C152.519 20.5625 152.347 20.1406 152.347 19.5469ZM153.941 26.625C153.941 24.5 155.051 23.4375 157.269 23.4375H163.035C164.129 23.4375 164.941 23.7031 165.472 24.2344C166.004 24.7344 166.269 25.5312 166.269 26.625V30.6562C166.269 32.8125 165.191 33.8906 163.035 33.8906H157.269C155.051 33.8906 153.941 32.8125 153.941 30.6562V26.625ZM157.222 29.8594C157.222 30.6094 157.597 30.9844 158.347 30.9844H162.004C162.722 30.9844 163.082 30.6094 163.082 29.8594V27.4688C163.082 27.0625 163.004 26.7812 162.847 26.625C162.691 26.4375 162.41 26.3438 162.004 26.3438H158.347C157.597 26.3438 157.222 26.7188 157.222 27.4688V29.8594ZM174.613 13.875C174.613 13.4375 174.754 13.1094 175.035 12.8906C175.316 12.6719 175.691 12.5625 176.16 12.5625C176.629 12.5625 177.238 12.9844 177.988 13.8281C178.738 14.6719 179.113 15.3125 179.113 15.75C179.113 16.6875 178.551 17.1562 177.426 17.1562C177.082 17.1562 176.801 17.0625 176.582 16.875C176.363 16.6562 176.019 16.25 175.551 15.6562C174.926 14.875 174.613 14.2812 174.613 13.875ZM200.314 48.0469C198.751 48.0469 197.611 47.7031 196.892 47.0156C196.173 46.3281 195.861 45.2188 195.954 43.6875V33.3281C195.954 31.7656 196.298 30.625 196.986 29.9062C197.704 29.1875 198.814 28.875 200.314 28.9688H227.079C228.642 28.9688 229.782 29.3125 230.501 30C231.22 30.6875 231.532 31.7969 231.439 33.3281V43.6875C231.439 45.2812 231.095 46.4375 230.407 47.1562C229.72 47.875 228.611 48.1719 227.079 48.0469H200.314ZM192.298 25.875C192.298 24.6875 193.345 23.8906 195.439 23.4844L195.017 12.5156C194.986 11.8594 195.142 11.2969 195.486 10.8281C195.829 10.3594 196.329 10 196.986 9.75L204.767 8.01562L208.095 7.03125C208.595 6.875 209.048 6.79688 209.454 6.79688C210.736 6.79688 211.376 7.45312 211.376 8.76562C211.376 9.35937 211.189 9.78125 210.814 10.0312C210.564 10.2188 208.986 10.6719 206.079 11.3906C202.048 12.1406 199.829 12.6406 199.423 12.8906C199.079 13.1094 198.876 13.6406 198.814 14.4844L199.095 22.6406L207.251 20.3906L205.329 17.4375C204.923 16.7812 204.72 16.3125 204.72 16.0312C204.72 15.0312 205.267 14.5312 206.361 14.5312C206.704 14.5312 207.157 14.8281 207.72 15.4219C208.282 16.0156 209.001 16.9375 209.876 18.1875C211.564 20.625 212.407 22.2188 212.407 22.9688C212.407 24.1562 211.798 24.75 210.579 24.75C209.829 24.75 209.173 24.1875 208.611 23.0625L195.814 27.5625C195.251 27.7812 194.657 27.8906 194.032 27.8906C192.876 27.8906 192.298 27.2188 192.298 25.875ZM199.845 43.0312C199.845 44.125 200.439 44.7031 201.626 44.7656H211.611V39.9844H199.845V43.0312ZM211.611 36.8906V32.25H201.626C200.501 32.25 199.907 32.8438 199.845 34.0312V36.8906H211.611ZM210.954 26.25C210.954 25.4375 211.423 24.8125 212.361 24.375C215.048 23.0938 216.923 21.2344 217.986 18.7969C218.517 17.5469 218.861 15.375 219.017 12.2812H214.611C213.173 12.2812 212.454 11.6875 212.454 10.5C212.454 9.34375 213.173 8.76562 214.611 8.76562H229.892C232.579 8.76562 233.923 9.84375 233.923 12L233.642 16.0312C233.454 18.4375 233.204 20.4375 232.892 22.0312C232.611 23.5938 232.314 24.6562 232.001 25.2188C230.939 27 228.595 27.8906 224.97 27.8906C223.439 27.8906 222.673 27.1562 222.673 25.6875C222.673 24.4375 223.407 23.7969 224.876 23.7656C226.97 23.7031 228.236 23.3125 228.673 22.5938C229.204 21.75 229.626 19.1719 229.939 14.8594L230.032 13.5938C230.064 12.7188 229.548 12.2812 228.486 12.2812H222.814C222.532 19.25 220.126 24.1719 215.595 27.0469C214.439 27.7656 213.486 28.125 212.736 28.125C211.548 28.125 210.954 27.5 210.954 26.25ZM225.814 44.7656C226.97 44.7656 227.548 44.1875 227.548 43.0312V39.9844H215.314V44.7656H225.814ZM227.548 36.8906V34.0312C227.548 32.9062 226.97 32.3125 225.814 32.25H215.314V36.8906H227.548ZM240.733 37.5C240.108 37.5 239.639 37.3438 239.327 37.0312C239.014 36.6875 238.858 36.1719 238.858 35.4844C238.858 35.2031 238.936 34.9375 239.092 34.6875C239.28 34.4062 239.561 34.0781 239.936 33.7031C242.686 30.9844 244.874 28.3906 246.499 25.9219C247.686 24.0781 248.655 22.4688 249.405 21.0938L251.421 16.5H241.577C240.046 16.5 239.28 15.875 239.28 14.625C239.28 13.375 240.046 12.75 241.577 12.75H252.78L253.858 8.71875C254.202 7.375 254.905 6.70312 255.967 6.70312C257.311 6.70312 257.983 7.26562 257.983 8.39062C257.983 8.92188 257.608 10.2188 256.858 12.2812L256.717 12.75H279.03C280.592 12.75 281.374 13.375 281.374 14.625C281.374 15.875 280.592 16.5 279.03 16.5H255.311C254.092 19.7812 252.421 23.125 250.296 26.5312V47.0625C250.296 47.875 250.139 48.4688 249.827 48.8438C249.514 49.2188 249.03 49.4062 248.374 49.4062C247.749 49.4062 247.28 49.2188 246.967 48.8438C246.655 48.4688 246.499 47.875 246.499 47.0625V32.0156C243.592 35.6719 241.671 37.5 240.733 37.5ZM252.264 46.0781C252.264 44.8594 252.983 44.25 254.421 44.25H265.53V32.3438H256.764C255.264 32.3438 254.514 31.7344 254.514 30.5156C254.514 29.3281 255.264 28.7344 256.764 28.7344H265.53V21.2812C265.53 19.75 266.171 18.9844 267.452 18.9844C268.733 18.9844 269.374 19.75 269.374 21.2812V28.7344H277.577C279.108 28.7344 279.874 29.3281 279.874 30.5156C279.874 31.7344 279.108 32.3438 277.577 32.3438H269.374V44.25H279.405C280.905 44.25 281.655 44.8594 281.655 46.0781C281.655 47.2969 280.905 47.9062 279.405 47.9062H254.421C252.983 47.9062 252.264 47.2969 252.264 46.0781ZM292.121 49.2188C290.621 49.2188 289.871 48.5625 289.871 47.25C289.871 45.9062 290.621 45.2344 292.121 45.2344H294.324C295.449 45.2344 296.043 44.6406 296.106 43.4531V35.1562C293.824 35.7812 290.996 36.4219 287.621 37.0781C287.496 37.1094 287.324 37.125 287.106 37.125C286.574 37.125 286.168 36.9531 285.887 36.6094C285.606 36.2344 285.465 35.75 285.465 35.1562C285.465 34.5938 285.652 34.1406 286.027 33.7969C286.402 33.4531 287.012 33.2031 287.856 33.0469C291.231 32.4219 293.981 31.8906 296.106 31.4531V23.4375H287.856C286.356 23.4375 285.606 22.8125 285.606 21.5625C285.606 20.3438 286.356 19.7344 287.856 19.7344H296.106V13.2188C295.606 13.2813 294.731 13.4062 293.481 13.5938C291.637 13.8438 290.168 14.0156 289.074 14.1094C287.731 14.2031 287.059 13.5781 287.059 12.2344C287.059 11.5781 287.309 11.1094 287.809 10.8281C288.184 10.5781 289.184 10.3906 290.809 10.2656C296.027 9.89062 300.074 9.15625 302.949 8.0625C303.762 7.75 304.356 7.59375 304.731 7.59375C306.012 7.59375 306.652 8.23437 306.652 9.51562C306.652 9.82812 306.574 10.0938 306.418 10.3125C306.262 10.5312 306.012 10.75 305.668 10.9688C305.324 11.1875 304.731 11.4063 303.887 11.625C303.074 11.8437 301.746 12.1406 299.902 12.5156V19.7344H310.074C309.793 15.3281 309.652 11.8125 309.652 9.1875C309.652 7.625 310.293 6.84375 311.574 6.84375C312.262 6.84375 312.762 7.04688 313.074 7.45312C313.418 7.85937 313.59 8.48438 313.59 9.32812C313.59 12.3281 313.684 15.7969 313.871 19.7344H325.449C326.981 19.7344 327.746 20.3594 327.746 21.6094C327.746 22.8281 326.981 23.4375 325.449 23.4375H314.199C314.543 26.9375 315.199 30.2031 316.168 33.2344C317.512 31.7344 318.668 30.25 319.637 28.7812C320.637 27.2812 321.496 26.5312 322.215 26.5312C322.902 26.5312 323.402 26.6562 323.715 26.9062C324.027 27.1562 324.184 27.5469 324.184 28.0781C324.184 29.3281 322.012 32.3125 317.668 37.0312C318.731 39.4375 319.684 41.2344 320.527 42.4219C321.402 43.5781 322.199 44.1562 322.918 44.1562C323.606 44.1562 324.168 42.7344 324.606 39.8906C324.699 39.2969 324.887 38.875 325.168 38.625C325.449 38.3438 325.84 38.2031 326.34 38.2031C327.559 38.2031 328.168 38.8594 328.168 40.1719C328.168 42.2969 327.699 44.3125 326.762 46.2188C325.856 48.0938 324.731 49.0312 323.387 49.0312C322.731 49.0312 322.027 48.8125 321.277 48.375C320.527 47.9688 319.777 47.3438 319.027 46.5C317.465 44.75 316.027 42.5625 314.715 39.9375C313.746 40.9062 312.856 41.7188 312.043 42.375C311.262 43.0312 310.199 43.8125 308.856 44.7188C307.574 45.5938 306.59 46.2188 305.902 46.5938C305.246 47 304.762 47.2031 304.449 47.2031C303.231 47.2031 302.621 46.5469 302.621 45.2344C302.621 44.4219 303.293 43.6562 304.637 42.9375C307.074 41.6562 309.934 39.4531 313.215 36.3281C311.84 32.6094 310.887 28.3125 310.356 23.4375H299.902V30.5625C300.34 30.4375 301.371 30.1562 302.996 29.7188C303.309 29.625 303.637 29.5312 303.981 29.4375C304.356 29.3125 304.746 29.2031 305.152 29.1094C305.402 29.0469 305.574 29.0156 305.668 29.0156C306.074 29.0156 306.402 29.1719 306.652 29.4844C306.902 29.7969 307.027 30.25 307.027 30.8438C307.027 31.75 306.309 32.3906 304.871 32.7656L299.902 34.125V44.6719C299.902 46.2969 299.496 47.4844 298.684 48.2344C297.902 48.9844 296.652 49.3125 294.934 49.2188H292.121ZM317.199 10.875C317.199 10.4688 317.356 10.125 317.668 9.84375C318.012 9.5625 318.387 9.42188 318.793 9.42188C319.606 9.42188 320.746 10.25 322.215 11.9062C323.715 13.5938 324.465 14.7344 324.465 15.3281C324.465 16.6094 323.793 17.25 322.449 17.25C322.168 17.25 321.793 17.0312 321.324 16.5938C320.856 16.1562 320.246 15.4688 319.496 14.5312C318.621 13.4375 318.012 12.6406 317.668 12.1406C317.356 11.6406 317.199 11.2188 317.199 10.875ZM358.275 49.4531C357.494 49.4531 356.931 49.3125 356.587 49.0312C356.244 48.75 356.072 48.3125 356.072 47.7188C356.072 46.4375 356.806 45.7969 358.275 45.7969H361.462C362.4 45.7969 363.025 45.6406 363.337 45.3281C363.65 45.0156 363.806 44.375 363.806 43.4062V35.3438C358.525 39.1562 352.728 42.25 346.416 44.625C340.291 46.9062 336.275 48.0469 334.369 48.0469C333.587 48.0469 333.025 47.9062 332.681 47.625C332.369 47.3438 332.212 46.8594 332.212 46.1719C332.212 45.4219 332.509 44.8906 333.103 44.5781C333.728 44.2656 334.931 43.9062 336.712 43.5C336.931 43.4688 337.291 43.3906 337.791 43.2656C341.291 42.4531 344.853 41.375 348.478 40.0312C352.322 38.5938 355.791 36.9375 358.884 35.0625C354.009 35.75 349.744 36.2969 346.087 36.7031C342.431 37.1094 338.525 37.4844 334.369 37.8281C333.556 37.8906 332.978 37.7656 332.634 37.4531C332.291 37.1406 332.119 36.6562 332.119 36C332.119 35.4062 332.369 34.9688 332.869 34.6875C333.369 34.375 334.15 34.1875 335.212 34.125L338.634 33.8438V15.6094C338.634 13.9531 338.994 12.75 339.712 12C340.431 11.25 341.587 10.9375 343.181 11.0625H348.291L348.994 9.28125C349.65 7.5625 350.462 6.70312 351.431 6.70312C352.15 6.70312 352.681 6.875 353.025 7.21875C353.4 7.53125 353.587 7.96875 353.587 8.53125C353.587 8.90625 353.181 9.75 352.369 11.0625H362.962C364.619 11.0625 365.822 11.4219 366.572 12.1406C367.322 12.8594 367.634 14.0156 367.509 15.6094V28.5L370.275 25.5C370.9 24.8438 371.4 24.3594 371.775 24.0469C372.15 23.7344 372.462 23.5781 372.712 23.5781C373.9 23.5781 374.494 24.1719 374.494 25.3594C374.494 26.4219 372.166 28.8281 367.509 32.5781V44.5312C367.509 46.1562 367.025 47.4375 366.056 48.375C365.244 49.1562 364.072 49.5156 362.541 49.4531H358.275ZM346.322 33.1875C354.072 32.5 359.9 31.8906 363.806 31.3594V28.7812H342.384V33.5625L346.322 33.1875ZM363.806 25.5V21.5625H342.384V25.5H363.806ZM363.806 18.2812V16.5C363.806 15.6562 363.666 15.0938 363.384 14.8125C363.103 14.5312 362.541 14.3906 361.697 14.3906H344.494C343.65 14.3906 343.087 14.5312 342.806 14.8125C342.525 15.0938 342.384 15.6562 342.384 16.5V18.2812H363.806ZM418.569 48.1406C412.132 48.1406 407.304 48.125 404.085 48.0938C398.148 48.0312 394.194 47.7188 392.226 47.1562C389.913 46.5 388.007 45.4375 386.507 43.9688L386.413 43.9219C383.382 46.5469 381.398 47.8594 380.46 47.8594C379.241 47.8594 378.632 47.2344 378.632 45.9844C378.632 45.3906 378.804 44.8906 379.148 44.4844C379.491 44.0781 380.023 43.7344 380.741 43.4531L384.116 41.7188V32.8125C384.116 32.3438 383.991 31.9844 383.741 31.7344C383.491 31.4531 383.116 31.3125 382.616 31.3125H380.319C379.694 31.3125 379.241 31.1875 378.96 30.9375C378.679 30.6562 378.538 30.2188 378.538 29.625C378.538 29.0625 378.679 28.6562 378.96 28.4062C379.241 28.125 379.694 27.9844 380.319 27.9844H383.741C385.116 27.9844 386.101 28.2656 386.694 28.8281C387.288 29.3906 387.554 30.2969 387.491 31.5469V40.6406C388.46 41.8281 389.444 42.6406 390.444 43.0781C392.726 44.1094 395.898 44.6406 399.96 44.6719L406.663 44.7188C410.257 44.7188 414.351 44.6719 418.944 44.5781H419.46C420.648 44.5781 421.241 45.1406 421.241 46.2656C421.241 47.5156 420.351 48.1406 418.569 48.1406ZM379.335 18.5156C379.335 17.2969 379.944 16.6875 381.163 16.6875C381.663 16.6875 382.96 17.125 385.054 18C387.085 18.875 388.101 19.7812 388.101 20.7188C388.101 22 387.491 22.6406 386.273 22.6406C385.898 22.6406 385.194 22.3594 384.163 21.7969C382.976 21.1406 381.804 20.6406 380.648 20.2969C380.21 20.1719 379.882 19.9531 379.663 19.6406C379.444 19.2969 379.335 18.9219 379.335 18.5156ZM381.538 9.5625C381.538 8.34375 382.132 7.73438 383.319 7.73438C383.726 7.73438 384.96 8.1875 387.023 9.09375C387.991 9.53125 388.726 10 389.226 10.5C389.726 10.9688 389.976 11.4531 389.976 11.9531C389.976 13.2656 389.366 13.9219 388.148 13.9219C387.804 13.9219 386.991 13.5625 385.71 12.8438L383.273 11.5781C382.116 10.9844 381.538 10.3125 381.538 9.5625ZM390.304 26.5312C390.304 24.4375 391.366 23.3906 393.491 23.3906H403.007V21.8438H396.023C395.023 21.8438 394.241 21.5938 393.679 21.0938C393.148 20.5938 392.882 19.8594 392.882 18.8906V12.0469C392.882 11.0781 393.148 10.3437 393.679 9.84375C394.21 9.34375 394.991 9.09375 396.023 9.09375H401.835L402.163 8.29688C402.632 7.14063 403.273 6.5625 404.085 6.5625C404.616 6.5625 405.023 6.6875 405.304 6.9375C405.616 7.15625 405.757 7.46875 405.726 7.875C405.726 8.0625 405.538 8.46875 405.163 9.09375H414.538C416.632 9.09375 417.679 10.0781 417.679 12.0469V18.8906C417.679 19.8594 417.413 20.5938 416.882 21.0938C416.351 21.5938 415.569 21.8438 414.538 21.8438H406.382V23.3906H417.304C419.398 23.3906 420.444 24.4219 420.444 26.4844V28.4062C420.444 29.4688 419.913 30 418.851 30C417.757 30 417.21 29.4688 417.21 28.4062V26.9531C417.21 26.2344 416.804 25.8438 415.991 25.7812H409.663V27.7969C409.663 27.9844 409.788 28.1406 410.038 28.2656C410.319 28.3594 410.694 28.4062 411.163 28.4062H412.148C412.835 28.4062 413.257 28.0625 413.413 27.375C413.476 27.0312 413.601 26.7969 413.788 26.6719C414.007 26.5156 414.319 26.4375 414.726 26.4375C415.632 26.4375 416.085 26.8281 416.085 27.6094C416.085 28.5156 415.851 29.2188 415.382 29.7188C414.913 30.2188 414.335 30.4844 413.648 30.5156L411.819 30.5625L410.319 30.5156C409.132 30.4531 408.288 30.3281 407.788 30.1406C407.194 29.8906 406.882 29.3906 406.851 28.6406V25.7812H402.538C401.944 29.4062 399.632 31.2188 395.601 31.2188C395.132 31.2188 394.788 31.125 394.569 30.9375C394.351 30.75 394.241 30.4375 394.241 30C394.241 29.375 394.663 28.9844 395.507 28.8281C396.976 28.5469 398.023 28.1719 398.648 27.7031C399.273 27.2031 399.648 26.5625 399.773 25.7812H394.804C394.023 25.7812 393.601 26.2031 393.538 27.0469V28.6875C393.538 29.7188 392.991 30.2344 391.898 30.2344C390.835 30.2344 390.304 29.7188 390.304 28.6875V26.5312ZM391.148 33.3281C391.148 32.5156 391.632 32.1094 392.601 32.1094H402.913V30.1406C402.913 29.2031 403.476 28.7344 404.601 28.7344C405.694 28.7344 406.241 29.2031 406.241 30.1406V32.1094H418.288C419.288 32.1094 419.788 32.5156 419.788 33.3281C419.788 34.1406 419.288 34.5469 418.288 34.5469H403.054L402.726 36.1406H414.351C416.038 36.1406 416.882 36.8594 416.882 38.2969C416.882 40.7031 416.241 42.25 414.96 42.9375C413.679 43.625 411.648 43.9688 408.866 43.9688C407.804 43.9688 407.273 43.5312 407.273 42.6562C407.273 41.7812 407.898 41.3438 409.148 41.3438C411.148 41.3438 412.398 41.2031 412.898 40.9219C413.398 40.6406 413.648 40.0625 413.648 39.1875C413.648 38.7812 413.366 38.5781 412.804 38.5781H401.741C400.866 40.0781 399.616 41.2344 397.991 42.0469C396.273 42.8906 394.757 43.3125 393.444 43.3125C392.476 43.3125 391.991 42.8125 391.991 41.8125C391.991 41.0938 392.429 40.6406 393.304 40.4531C397.116 39.5469 399.288 37.5781 399.819 34.5469H392.601C391.632 34.5469 391.148 34.1406 391.148 33.3281ZM396.163 18.75C396.163 19.0312 396.226 19.25 396.351 19.4062C396.507 19.5312 396.741 19.6094 397.054 19.6406H413.46C414.023 19.6406 414.304 19.3438 414.304 18.75V18.1875H396.163V18.75ZM414.304 16.2188V14.8125H396.163V16.2188H414.304ZM414.304 12.8438V12.1875C414.304 11.875 414.241 11.6562 414.116 11.5312C413.991 11.4063 413.773 11.3281 413.46 11.2969H397.054C396.741 11.2969 396.507 11.375 396.351 11.5312C396.226 11.6562 396.163 11.875 396.163 12.1875V12.8438H414.304Z" fill="#005BAD"/>
<defs>
<clipPath id="clip0_1396_78200">
<rect width="34" height="30" fill="white"/>
</clipPath>
<clipPath id="clip1_1396_78200">
<rect width="34" height="30" fill="white" transform="translate(474 30) rotate(180)"/>
</clipPath>
</defs>
</svg>
