<svg width="304" height="34" viewBox="0 0 304 34" fill="none" xmlns="http://www.w3.org/2000/svg">
<g clip-path="url(#clip0_1470_40604)">
<path d="M205.526 32.8988C199.356 32.8988 194.337 27.73 194.337 21.3762C194.337 15.0223 199.356 9.85352 205.526 9.85352C211.696 9.85352 216.715 15.0223 216.715 21.3762C216.715 27.73 211.696 32.8988 205.526 32.8988ZM205.526 17.3651C203.375 17.3651 201.631 19.1701 201.631 21.3762C201.631 23.5822 203.384 25.3872 205.526 25.3872C207.668 25.3872 209.421 23.5822 209.421 21.3762C209.421 19.1701 207.668 17.3651 205.526 17.3651Z" fill="#3B84F5"/>
<path d="M101.466 32.9358C95.4908 32.9358 90.6219 27.9311 90.6219 21.7686V10.9844H97.9075V21.7686C97.9075 23.7833 99.5009 25.4242 101.457 25.4242C103.414 25.4242 105.007 23.7833 105.007 21.7686V10.9844H112.293V21.7686C112.293 27.9219 107.433 32.9358 101.448 32.9358H101.466Z" fill="#3B84F5"/>
<path d="M293.165 10.1712H282.32V32.5875H289.606V21.3292C289.606 19.3146 291.199 17.6737 293.156 17.6737C295.112 17.6737 296.706 19.3146 296.706 21.3292V32.5875H303.991V21.3292C303.991 15.1759 299.131 10.1621 293.147 10.1621L293.165 10.1712Z" fill="#3B84F5"/>
<path d="M242.662 25.0858V22.9618H254.409V14.9306C254.409 9.52478 250.142 5.13086 244.893 5.13086C239.643 5.13086 235.376 9.52478 235.376 14.9306V32.5883H254.568V25.0858H242.671H242.662ZM244.893 12.6425C246.123 12.6425 247.123 13.6726 247.123 14.9397C247.123 16.2068 246.123 17.2369 244.893 17.2369C243.662 17.2369 242.662 16.2068 242.662 14.9397C242.662 13.6726 243.662 12.6425 244.893 12.6425Z" fill="#3B84F5"/>
<path d="M150.526 10.1992C144.586 10.2721 139.77 15.2677 139.77 21.3937C139.77 27.5197 144.586 32.5244 150.526 32.5882H161.521V10.1992H150.526ZM147.065 21.3937C147.065 19.3608 148.676 17.7017 150.65 17.7017C152.624 17.7017 154.235 19.3608 154.235 21.3937C154.235 23.4266 152.624 25.0857 150.65 25.0857C148.676 25.0857 147.065 23.4266 147.065 21.3937Z" fill="#3B84F5"/>
<path d="M267.749 10.1992C261.81 10.2721 256.994 15.2677 256.994 21.3937C256.994 27.5197 261.81 32.5244 267.749 32.5882H278.744V10.1992H267.749ZM264.279 21.3937C264.279 19.3608 265.89 17.7017 267.865 17.7017C269.839 17.7017 271.45 19.3608 271.45 21.3937C271.45 23.4266 269.839 25.0857 267.865 25.0857C265.89 25.0857 264.279 23.4266 264.279 21.3937Z" fill="#3B84F5"/>
<path d="M185.962 18.6227L194.16 9.87127H184.041L178.243 16.061V0.5H170.957V32.5975H178.243V28.9238C178.243 26.9091 179.836 25.2682 181.793 25.2682C183.749 25.2682 185.343 26.9091 185.343 28.9238V32.5975H192.628V28.9238C192.628 24.2928 189.875 20.3091 185.962 18.6227Z" fill="#3B84F5"/>
<path d="M219.592 10.1719V32.5882H226.878V21.3299C226.878 19.3152 228.471 17.6744 230.428 17.6744H232.88V10.1719H219.592Z" fill="#3B84F5"/>
<path d="M130.263 1.83984V11.0288L129.705 10.81C128.13 10.2448 126.412 10.0078 124.597 10.2448C119.1 10.9832 114.833 15.9059 114.789 21.6125C114.745 28.0211 119.791 33.2445 126.005 33.2445C132.202 33.2445 137.221 28.0758 137.221 21.6945V1.83984H130.263ZM126.005 25.8697C123.774 25.8697 121.959 24.0009 121.959 21.7037C121.959 19.4064 123.774 17.5376 126.005 17.5376C128.236 17.5376 130.051 19.4064 130.051 21.7037C130.051 24.0009 128.236 25.8697 126.005 25.8697Z" fill="#3B84F5"/>
<path d="M80.4151 1.83984V11.0288L79.8574 10.81C78.2817 10.2448 76.5643 10.0078 74.7496 10.2448C69.2523 10.9832 64.9854 15.9059 64.9411 21.6125C64.8969 28.0211 69.9427 33.2445 76.1571 33.2445C82.3538 33.2445 87.3731 28.0758 87.3731 21.6945V1.83984H80.4151ZM76.1571 25.8697C73.9263 25.8697 72.1116 24.0009 72.1116 21.7037C72.1116 19.4064 73.9263 17.5376 76.1571 17.5376C78.3879 17.5376 80.2027 19.4064 80.2027 21.7037C80.2027 24.0009 78.3879 25.8697 76.1571 25.8697Z" fill="#3B84F5"/>
<path d="M50.5295 33.4998C44.1734 33.4998 39.0036 28.1761 39.0036 21.6308C39.0036 15.0855 44.1734 9.76172 50.5295 9.76172C56.8855 9.76172 62.0553 15.0855 62.0553 21.6308C62.0553 28.1761 56.8855 33.4998 50.5295 33.4998ZM50.5295 17.3736C48.2455 17.3736 46.3954 19.288 46.3954 21.6308C46.3954 23.9736 48.2544 25.888 50.5295 25.888C52.8045 25.888 54.6635 23.9736 54.6635 21.6308C54.6635 19.288 52.8045 17.3736 50.5295 17.3736Z" fill="#3B84F5"/>
<path d="M25.2824 4.19271C22.5116 4.19271 19.9798 5.27752 18.0589 7.05514C16.1379 5.28663 13.615 4.19271 10.8353 4.19271C4.85996 4.19271 0 9.19741 0 15.3507V32.6985H7.28552V15.3507C7.28552 13.3361 8.87895 11.6952 10.8353 11.6952C12.7917 11.6952 14.3851 13.3361 14.3851 15.3507V32.6985H21.7238V15.3507C21.7238 13.3361 23.3172 11.6952 25.2736 11.6952C27.23 11.6952 28.8234 13.3361 28.8234 15.3507V32.6985H36.1089V15.3507C36.1089 9.19741 31.2489 4.18359 25.2647 4.18359L25.2824 4.19271Z" fill="#3B84F5"/>
</g>
<defs>
<clipPath id="clip0_1470_40604">
<rect width="304" height="33" fill="white" transform="translate(0 0.5)"/>
</clipPath>
</defs>
</svg>
