<svg width="819" height="86" viewBox="0 0 819 86" fill="none" xmlns="http://www.w3.org/2000/svg">
<g clip-path="url(#clip0_352_96965)">
<path d="M553.527 84.4325C536.925 84.4325 523.419 70.9623 523.419 54.4037C523.419 37.8452 536.925 24.375 553.527 24.375C570.13 24.375 583.636 37.8452 583.636 54.4037C583.636 70.9623 570.13 84.4325 553.527 84.4325ZM553.527 43.9507C547.739 43.9507 543.047 48.6546 543.047 54.4037C543.047 60.1529 547.763 64.8568 553.527 64.8568C559.292 64.8568 564.008 60.1529 564.008 54.4037C564.008 48.6546 559.292 43.9507 553.527 43.9507Z" fill="#3B84F5"/>
<path d="M273.524 84.5269C257.446 84.5269 244.345 71.4844 244.345 55.4247V27.3203H263.949V55.4247C263.949 60.675 268.236 64.9513 273.5 64.9513C278.765 64.9513 283.052 60.675 283.052 55.4247V27.3203H302.656V55.4247C302.656 71.4606 289.579 84.5269 273.476 84.5269H273.524Z" fill="#3B84F5"/>
<path d="M789.344 25.2054H760.165V83.6236H779.769V54.2839C779.769 49.0336 784.056 44.7573 789.321 44.7573C794.585 44.7573 798.872 49.0336 798.872 54.2839V83.6236H818.476V54.2839C818.476 38.2479 805.399 25.1816 789.297 25.1816L789.344 25.2054Z" fill="#3B84F5"/>
<path d="M653.451 64.0722V58.5369H685.06V37.607C685.06 23.5192 673.579 12.0684 659.454 12.0684C645.329 12.0684 633.848 23.5192 633.848 37.607V83.6242H685.489V64.0722H653.475H653.451ZM659.454 31.644C662.765 31.644 665.457 34.3286 665.457 37.6308C665.457 40.933 662.765 43.6175 659.454 43.6175C656.143 43.6175 653.451 40.933 653.451 37.6308C653.451 34.3286 656.143 31.644 659.454 31.644Z" fill="#3B84F5"/>
<path d="M405.534 25.2773C389.551 25.4674 376.593 38.4862 376.593 54.4508C376.593 70.4155 389.551 83.458 405.534 83.6243H435.118V25.2773H405.534ZM396.22 54.4508C396.22 49.153 400.556 44.8293 405.867 44.8293C411.179 44.8293 415.515 49.153 415.515 54.4508C415.515 59.7486 411.179 64.0724 405.867 64.0724C400.556 64.0724 396.22 59.7486 396.22 54.4508Z" fill="#3B84F5"/>
<path d="M720.958 25.2773C704.975 25.4674 692.017 38.4862 692.017 54.4508C692.017 70.4155 704.975 83.458 720.958 83.6243H750.542V25.2773H720.958ZM711.62 54.4508C711.62 49.153 715.956 44.8293 721.267 44.8293C726.579 44.8293 730.915 49.153 730.915 54.4508C730.915 59.7486 726.579 64.0724 721.267 64.0724C715.956 64.0724 711.62 59.7486 711.62 54.4508Z" fill="#3B84F5"/>
<path d="M500.886 47.2287L522.943 24.4221H495.717L480.115 40.553V0H460.511V83.6481H480.115V74.074C480.115 68.8238 484.402 64.5475 489.666 64.5475C494.931 64.5475 499.218 68.8238 499.218 74.074V83.6481H518.822V74.074C518.822 62.0055 511.414 51.6238 500.886 47.2287Z" fill="#3B84F5"/>
<path d="M591.377 25.207V83.6253H610.981V54.2855C610.981 49.0352 615.268 44.759 620.533 44.759H627.131V25.207H591.377Z" fill="#3B84F5"/>
<path d="M351.01 3.49219V27.4391L349.509 26.869C345.269 25.3961 340.648 24.7784 335.765 25.3961C320.973 27.3204 309.492 40.1491 309.373 55.0209C309.254 71.722 322.831 85.3347 339.553 85.3347C356.227 85.3347 369.733 71.8646 369.733 55.2347V3.49219H351.01ZM339.553 66.1154C333.55 66.1154 328.667 61.2452 328.667 55.2585C328.667 49.2717 333.55 44.4016 339.553 44.4016C345.555 44.4016 350.438 49.2717 350.438 55.2585C350.438 61.2452 345.555 66.1154 339.553 66.1154Z" fill="#3B84F5"/>
<path d="M216.88 3.49219V27.4391L215.38 26.869C211.14 25.3961 206.519 24.7784 201.635 25.3961C186.843 27.3204 175.362 40.1491 175.243 55.0209C175.124 71.722 188.701 85.3347 205.423 85.3347C222.097 85.3347 235.603 71.8646 235.603 55.2347V3.49219H216.88ZM205.423 66.1154C199.42 66.1154 194.537 61.2452 194.537 55.2585C194.537 49.2717 199.42 44.4016 205.423 44.4016C211.425 44.4016 216.309 49.2717 216.309 55.2585C216.309 61.2452 211.425 66.1154 205.423 66.1154Z" fill="#3B84F5"/>
<path d="M136.464 85.9997C119.361 85.9997 105.45 72.1257 105.45 55.0682C105.45 38.0108 119.361 24.1367 136.464 24.1367C153.566 24.1367 167.477 38.0108 167.477 55.0682C167.477 72.1257 153.566 85.9997 136.464 85.9997ZM136.464 43.9737C130.318 43.9737 125.34 48.9627 125.34 55.0682C125.34 61.1737 130.342 66.1627 136.464 66.1627C142.585 66.1627 147.588 61.1737 147.588 55.0682C147.588 48.9627 142.585 43.9737 136.464 43.9737Z" fill="#3B84F5"/>
<path d="M68.5297 9.62141C61.0741 9.62141 54.2616 12.4485 49.0926 17.0811C43.9237 12.4722 37.135 9.62141 29.6556 9.62141C13.5771 9.62141 0.5 22.664 0.5 38.6999V83.9093H20.1038V38.6999C20.1038 33.4496 24.3914 29.1733 29.6556 29.1733C34.9198 29.1733 39.2074 33.4496 39.2074 38.6999V83.9093H58.9541V38.6999C58.9541 33.4496 63.2417 29.1733 68.5059 29.1733C73.7701 29.1733 78.0577 33.4496 78.0577 38.6999V83.9093H97.6615V38.6999C97.6615 22.664 84.5843 9.59766 68.4821 9.59766L68.5297 9.62141Z" fill="#3B84F5"/>
</g>
<defs>
<clipPath id="clip0_352_96965">
<rect width="818" height="86" fill="white" transform="translate(0.5)"/>
</clipPath>
</defs>
</svg>
