<svg width="536" height="536" viewBox="0 0 536 536" fill="none" xmlns="http://www.w3.org/2000/svg">
<g clip-path="url(#clip0_172_57020)">
<path d="M389.779 147.166C383.432 146.747 380.419 144.083 375.855 139.746C373.862 137.852 372.178 135.562 371.225 132.986C370.272 130.41 370.738 127.096 371.391 124.399C371.591 123.584 371.713 121.889 370.583 121.625C368.478 121.14 368.013 125.445 365.963 125.533C363.017 125.665 360.414 117.794 356.404 120.095C354.986 120.909 354.665 122.505 354.809 124.036C355.252 128.704 358.054 133.426 360.558 137.291C365.875 145.492 375.822 152.879 384.728 156.964" fill="#3B84F5"/>
<path d="M384.739 159.165C384.428 159.165 384.107 159.099 383.808 158.956C375.677 155.224 364.811 147.881 358.707 138.479C355.816 134.021 353.08 129.221 352.615 124.234C352.36 121.482 353.313 119.335 355.306 118.19C359.217 115.933 362.219 119.357 364.013 121.404C364.501 121.955 365.254 122.814 365.741 123.188C365.918 122.946 366.14 122.593 366.284 122.362C367.037 121.14 368.444 118.872 371.103 119.478C371.956 119.676 372.687 120.193 373.152 120.942C374.038 122.373 373.739 124.19 373.562 124.905C373.063 126.975 372.498 129.98 373.318 132.215C374.104 134.318 375.478 136.311 377.405 138.149C381.847 142.377 384.417 144.6 389.945 144.964C391.163 145.041 392.094 146.098 392.005 147.309C391.928 148.52 390.886 149.444 389.646 149.356C382.257 148.872 378.591 145.371 374.337 141.331C371.922 139.03 370.172 136.476 369.153 133.746C368.278 131.379 368.366 128.747 368.71 126.491C368.056 127.151 367.214 127.68 366.074 127.735C363.725 127.845 362.13 125.962 360.668 124.3C358.818 122.186 358.109 121.669 357.522 122.01C357.001 122.307 356.968 123.166 357.023 123.837C357.4 127.878 359.848 132.127 362.429 136.101C367.026 143.191 376.154 150.6 385.658 154.971C386.766 155.477 387.253 156.787 386.744 157.888C386.367 158.692 385.569 159.165 384.728 159.165H384.739Z" fill="#213E7A"/>
<path d="M436.945 161.928C443.293 161.532 446.627 163.789 451.711 167.51C453.927 169.139 455.898 171.187 457.183 173.631C458.502 176.141 458.424 179.411 458.136 182.163C458.047 182.999 458.136 184.695 459.288 184.805C461.437 185.014 461.348 180.688 463.364 180.335C466.267 179.829 469.878 187.304 473.544 184.508C474.851 183.517 474.951 181.888 474.619 180.401C473.578 175.833 470.188 171.506 467.197 167.994C460.861 160.541 450.05 154.486 440.689 151.569" fill="#3B84F5"/>
<path d="M471.859 187.37C469.444 187.37 467.295 185.477 465.844 184.2C465.29 183.715 464.437 182.956 463.906 182.647C463.762 182.912 463.596 183.286 463.474 183.539C462.887 184.849 461.812 187.271 459.076 187.007C458.201 186.919 457.415 186.5 456.861 185.818C455.797 184.508 455.864 182.669 455.941 181.943C456.174 179.829 456.351 176.769 455.232 174.666C454.18 172.684 452.563 170.879 450.414 169.304C445.462 165.683 442.638 163.8 437.099 164.141C435.892 164.207 434.828 163.294 434.751 162.083C434.673 160.872 435.604 159.826 436.822 159.749C444.222 159.286 448.298 162.292 453.039 165.76C455.742 167.741 457.791 170.042 459.154 172.629C460.328 174.864 460.583 177.484 460.527 179.774C461.092 179.036 461.856 178.398 462.986 178.2C465.257 177.803 467.129 179.455 468.791 180.919C470.895 182.779 471.671 183.198 472.203 182.79C472.679 182.427 472.612 181.568 472.457 180.919C471.56 176.956 468.58 173.059 465.512 169.448C460.029 162.996 450.026 156.82 440.034 153.705C438.871 153.341 438.218 152.108 438.583 150.941C438.949 149.786 440.19 149.136 441.364 149.499C449.915 152.163 461.635 158.053 468.902 166.607C472.347 170.659 475.681 175.073 476.789 179.95C477.398 182.647 476.733 184.904 474.905 186.291C473.864 187.084 472.845 187.392 471.87 187.392L471.859 187.37Z" fill="#213E7A"/>
<path d="M368.677 166.431C368.356 165.132 368.367 163.888 369.331 162.809C371.601 161.719 373.019 163.15 374.603 164.427C375.478 165.143 376.409 166.354 377.86 165.374C379.211 164.46 378.791 163.194 378.436 162.016C373.695 146.274 379.223 132.391 386.323 118.773C386.899 117.672 387.619 116.957 388.904 117.056C390.278 117.166 390.643 118.256 391.042 119.313C391.452 120.425 391.485 121.922 393.136 122.01C394.819 122.098 395.462 120.722 396.082 119.533C400.734 110.527 403.072 101.093 401.521 90.9205C400.989 87.4527 402.285 86.2307 405.387 87.827C418.214 94.3993 430.067 102.139 436.292 115.922C437.533 118.663 438.098 121.536 438.364 124.52C438.796 129.463 439.914 129.958 443.98 126.942C445.952 125.478 447.591 123.518 450.416 123.892C451.546 128.208 453.052 139.305 453.207 140.549C454.337 149.819 454.237 159.055 452.254 168.204C447.502 190.122 432.537 203.025 410.859 203.146C394.72 203.234 382.103 196.475 373.928 182.207C371.092 177.253 370.472 171.66 368.699 166.409L368.677 166.431Z" fill="#3B84F5"/>
<path d="M410.517 205.359C393.325 205.359 380.353 197.939 371.979 183.308C369.974 179.796 369.01 176.064 368.091 172.464C367.615 170.604 367.16 168.853 366.584 167.125C366.562 167.07 366.551 167.004 366.529 166.938C366.33 166.101 365.698 163.558 367.67 161.334C367.869 161.114 368.102 160.938 368.368 160.806C371.735 159.198 374.084 161.125 375.634 162.413L376 162.71C376.144 162.831 376.299 162.963 376.443 163.096C376.41 162.963 376.366 162.831 376.332 162.71C371.126 145.404 377.739 130.432 384.352 117.761C385.438 115.68 387.033 114.7 389.071 114.865C391.829 115.074 392.671 117.375 393.081 118.476C393.214 118.828 393.292 119.115 393.38 119.401C393.402 119.467 393.424 119.555 393.447 119.632C393.668 119.379 393.89 118.939 394.023 118.674L394.1 118.531C398.974 109.097 400.68 100.179 399.318 91.251C398.908 88.5428 399.428 86.6493 400.868 85.6254C402.264 84.6236 404.125 84.7117 406.385 85.8676C419.057 92.3629 431.685 100.388 438.298 115.019C439.517 117.728 440.237 120.689 440.547 124.333C440.635 125.346 440.746 125.973 440.835 126.37C441.2 126.171 441.776 125.819 442.64 125.181C442.984 124.927 443.316 124.652 443.648 124.377C445.343 123.001 447.448 121.272 450.682 121.702C451.58 121.823 452.311 122.461 452.532 123.331C453.707 127.79 455.213 138.865 455.379 140.285C456.631 150.534 456.31 159.826 454.393 168.666C449.364 191.851 433.491 205.227 410.838 205.348C410.727 205.348 410.616 205.348 410.517 205.348V205.359ZM370.805 165.826C371.425 167.675 371.913 169.558 372.378 171.385C373.275 174.864 374.117 178.156 375.834 181.139C383.366 194.295 395.042 200.966 410.528 200.966C410.627 200.966 410.727 200.966 410.816 200.966C431.198 200.856 445.509 188.757 450.062 167.763C451.879 159.408 452.178 150.6 450.982 140.835C450.838 139.679 449.686 131.17 448.666 126.282C448.013 126.557 447.348 127.074 446.451 127.801C446.063 128.109 445.676 128.428 445.288 128.726C443.305 130.201 441.001 131.687 438.874 130.74C436.747 129.793 436.349 127.14 436.138 124.729C435.861 121.592 435.263 119.082 434.255 116.847C428.207 103.438 416.31 95.9298 404.358 89.8088C404.047 89.6437 403.804 89.5446 403.615 89.4786C403.615 89.7318 403.615 90.1061 403.704 90.6125C405.211 100.488 403.361 110.286 398.044 120.568L397.977 120.7C397.313 121.999 396.094 124.399 393.015 124.234C390.112 124.08 389.415 121.658 389.127 120.623C389.071 120.447 389.027 120.271 388.971 120.106C388.861 119.808 388.739 119.467 388.639 119.28C388.628 119.302 388.495 119.434 388.296 119.808C380.586 134.593 376.332 147.32 380.564 161.4C380.94 162.644 381.771 165.407 379.102 167.202C376.443 168.996 374.316 167.125 373.519 166.42C373.408 166.321 373.308 166.233 373.198 166.145L372.799 165.826C371.636 164.868 371.181 164.593 370.761 164.648C370.683 164.879 370.661 165.231 370.805 165.837V165.826Z" fill="#213E7A"/>
<path d="M421.608 159.584C426.912 159.584 431.212 155.31 431.212 150.039C431.212 144.767 426.912 140.494 421.608 140.494C416.304 140.494 412.004 144.767 412.004 150.039C412.004 155.31 416.304 159.584 421.608 159.584Z" fill="white"/>
<path d="M419.88 153.947C422.364 153.947 424.377 151.946 424.377 149.477C424.377 147.009 422.364 145.008 419.88 145.008C417.396 145.008 415.383 147.009 415.383 149.477C415.383 151.946 417.396 153.947 419.88 153.947Z" fill="#213E7A"/>
<path d="M403.409 159.133C408.713 159.133 413.013 154.859 413.013 149.588C413.013 144.316 408.713 140.043 403.409 140.043C398.105 140.043 393.805 144.316 393.805 149.588C393.805 154.859 398.105 159.133 403.409 159.133Z" fill="white"/>
<path d="M405.048 153.276C407.532 153.276 409.545 151.275 409.545 148.806C409.545 146.338 407.532 144.336 405.048 144.336C402.564 144.336 400.551 146.338 400.551 148.806C400.551 151.275 402.564 153.276 405.048 153.276Z" fill="#213E7A"/>
<path d="M437.955 154.046C439.87 154.046 441.423 152.504 441.423 150.601C441.423 148.698 439.87 147.155 437.955 147.155C436.041 147.155 434.488 148.698 434.488 150.601C434.488 152.504 436.041 154.046 437.955 154.046Z" fill="#FFCA3F"/>
<path d="M387.19 154.3C389.105 154.3 390.657 152.757 390.657 150.854C390.657 148.951 389.105 147.408 387.19 147.408C385.275 147.408 383.723 148.951 383.723 150.854C383.723 152.757 385.275 154.3 387.19 154.3Z" fill="#FFCA3F"/>
<path d="M390.879 166.145C394.202 161.83 399.951 164.461 403.563 167.004C411.294 172.101 414.95 167.191 421.862 164.296C425.03 163.283 427.733 163.822 429.716 166.475C431.71 169.151 430.115 172.2 428.22 174.468C426.215 176.868 423.634 178.827 420.765 180.226C418.672 178.222 414.739 176.868 410.22 176.868C405.701 176.868 401.657 178.255 399.586 180.303C396.717 179.015 394.147 177.121 392.076 174.457C390.215 172.046 388.675 168.831 390.89 166.145H390.879Z" fill="#213E7A" stroke="#213E7A" stroke-width="2" stroke-linecap="round" stroke-linejoin="round"/>
<path d="M420.766 180.226C417.298 181.921 413.399 182.791 409.578 182.571C406.055 182.373 402.654 181.679 399.586 180.292C401.657 178.244 405.667 176.241 410.242 176.241C414.817 176.241 418.683 178.211 420.766 180.215V180.226Z" fill="#E13E6B" stroke="#213E7A" stroke-width="2" stroke-linecap="round" stroke-linejoin="round"/>
</g>
<g clip-path="url(#clip1_172_57020)">
<path d="M380.314 283.209C377.813 281.279 374.521 281.381 372.122 283.443C371.771 283.75 371.376 284.087 370.981 284.438C370.396 284.964 369.518 285.739 368.743 286.353C368.772 283.238 369.971 281.557 371.23 279.772C372.254 278.339 373.409 276.701 373.687 274.522C374.185 270.617 372.707 268.716 371.376 267.809C368.874 266.098 365.1 266.61 360.126 269.316C348.247 275.78 348.598 291.209 349.169 296.854C344.561 299.34 336.749 302.938 328.849 306.053C328.454 306.214 328.059 306.36 327.664 306.521V287.991C338.695 255.349 333.618 202.978 333.384 200.755C333.253 199.41 332.214 198.328 330.868 198.152C329.522 197.962 328.235 198.723 327.752 199.98C325.719 205.172 321.14 209.837 317.439 212.982C319.209 192.683 310.929 175.338 310.534 174.519C310.022 173.466 308.939 172.822 307.769 172.881C306.598 172.939 305.574 173.685 305.165 174.782C303.526 179.169 298.114 184.42 293.608 188.164C295.378 160.26 286.571 138.001 286.176 136.992C285.65 135.676 284.26 134.93 282.87 135.222C281.48 135.515 280.5 136.743 280.544 138.162C280.603 140.765 277.194 147.215 273.332 153.401C272.03 118.009 252.632 87.6778 251.725 86.303C251.023 85.2208 249.691 84.7236 248.463 85.0892C247.219 85.4402 246.371 86.5663 246.341 87.8533C245.961 112.35 233.204 139.712 227.47 150.827C220.916 139.273 208.759 132.926 208.159 132.619C207.179 132.122 205.994 132.21 205.102 132.853C204.21 133.497 203.756 134.594 203.932 135.676C206.77 153.606 203.932 168.859 201.62 177.283C192.726 161.561 174.82 156.823 173.957 156.604C173.094 156.384 172.157 156.574 171.441 157.116C170.724 157.671 170.314 158.52 170.299 159.412C170.27 163.638 170.343 167.002 170.402 169.985C170.636 181.89 170.738 186.818 163.79 213.128C155.422 244.834 165.121 282.317 166.613 287.743C166.613 290.697 166.657 292.715 166.671 293.081V306.989L165.867 306.696L165.735 306.652C157.353 303.42 148.883 299.53 143.982 296.898C144.552 291.253 144.903 275.824 133.025 269.36C128.065 266.654 124.276 266.142 121.775 267.853C120.444 268.76 118.966 270.661 119.463 274.566C119.741 276.745 120.897 278.383 121.921 279.816C123.194 281.6 124.393 283.282 124.408 286.397C123.633 285.798 122.755 285.008 122.17 284.482C121.775 284.131 121.395 283.794 121.029 283.487C118.63 281.425 115.338 281.337 112.837 283.253C110.32 285.198 108.814 289.278 111.11 294.017C113.641 299.209 119.829 308.758 132.908 314.374C135.175 315.354 137.984 316.714 141.217 318.294C146.703 320.955 153.315 324.158 161.244 327.449L166.642 329.599V333.094C166.642 336.955 166.92 340.669 167.476 344.238C167.593 343.199 167.754 342.22 168.003 341.386C168.31 340.333 169.349 339.675 170.446 339.85C171.192 339.967 171.806 340.45 172.099 341.093C172.304 341.254 172.64 341.459 173.035 341.678C172.699 338.944 172.508 336.077 172.508 333.094V327.756C172.508 327.756 172.508 327.624 172.494 327.551C172.026 325.255 170.168 324.685 170.168 324.685L169.349 324.363L168.178 323.91H168.164L168.032 323.851L166.671 323.31L165.165 322.71C164.448 322.432 163.746 322.14 163.043 321.847C162.824 321.76 162.648 321.687 162.531 321.628C155.188 318.542 148.985 315.544 143.806 313.029C140.5 311.42 137.633 310.031 135.248 309.007C123.896 304.137 118.571 295.918 116.391 291.472C115.528 289.688 115.792 288.401 116.421 287.904C116.772 287.626 117.02 287.757 117.225 287.948C117.562 288.225 117.913 288.547 118.279 288.869C121.058 291.34 124.203 294.163 127.349 292.774C130.216 291.516 130.26 287.948 130.274 286.778C130.348 281.571 128.241 278.617 126.705 276.453C125.959 275.414 125.374 274.581 125.286 273.864C125.213 273.308 125.227 272.957 125.257 272.738C125.959 272.738 127.685 273.118 130.245 274.522C140.91 280.328 137.999 297.834 137.969 297.995C137.75 299.194 138.32 300.408 139.374 301.037C144.216 303.874 154.471 308.671 164.506 312.488C164.799 312.605 165.077 312.707 165.369 312.809C165.589 312.883 165.823 312.97 166.072 313.073C166.276 313.146 166.481 313.19 166.686 313.219C166.686 313.219 168.573 314.126 170.226 313.731C170.607 313.643 170.972 313.497 171.294 313.234C172.084 312.59 172.421 311.098 172.538 309.665V293.183C172.538 293.183 172.538 293.066 172.538 293.008C172.538 292.964 172.494 291.282 172.479 288.708C172.479 287.348 172.479 285.725 172.523 283.955C172.552 282.478 172.596 280.898 172.669 279.275C172.86 274.99 173.211 270.398 173.884 266.581C176.239 253.214 181.988 241.427 188.761 232.33C197.246 220.923 207.34 213.742 214.348 212.967C215.167 212.879 215.971 212.938 216.732 213.128C218.912 213.669 220.843 215.219 222.511 217.164C226.738 222.137 229.211 229.727 229.24 229.844C229.24 229.873 229.269 229.902 229.284 229.932C229.313 230.005 229.342 230.078 229.372 230.151C229.415 230.239 229.459 230.326 229.503 230.414C229.547 230.487 229.591 230.56 229.635 230.634C229.693 230.707 229.737 230.78 229.796 230.853C229.854 230.926 229.913 230.985 229.971 231.058C230.03 231.116 230.088 231.16 230.147 231.219C230.22 231.277 230.293 231.35 230.381 231.394C230.44 231.438 230.513 231.467 230.571 231.511C230.674 231.57 230.761 231.628 230.878 231.672C231.025 231.73 231.171 231.789 231.317 231.833C231.376 231.847 231.434 231.847 231.507 231.862C231.624 231.891 231.756 231.906 231.873 231.906C231.902 231.906 231.917 231.906 231.946 231.906C231.99 231.906 232.034 231.906 232.078 231.906C232.151 231.906 232.239 231.906 232.312 231.906C232.371 231.906 232.429 231.891 232.473 231.877C232.517 231.877 232.561 231.877 232.59 231.862C232.751 231.833 232.912 231.789 233.058 231.73H233.087C233.57 231.54 233.994 231.233 234.316 230.838C234.463 230.663 234.58 230.473 234.682 230.268C234.682 230.239 234.711 230.209 234.711 230.18C234.77 230.049 234.814 229.917 234.857 229.771C234.872 229.712 234.887 229.654 234.901 229.581C234.931 229.434 234.96 229.273 234.96 229.113C234.96 228.996 235.399 219.928 240.226 214.766C240.782 214.181 241.382 213.64 242.055 213.186C243.401 212.25 244.981 211.592 246.883 211.373C246.883 211.373 246.912 211.373 246.926 211.373C249.004 211.139 250.847 211.885 252.456 213.186C252.456 213.186 252.471 213.201 252.486 213.216C255.675 215.804 257.957 220.586 259.376 224.33C260.488 227.299 261.044 229.61 261.058 229.668C261.161 230.092 261.351 230.458 261.599 230.794C262.141 231.496 262.989 231.95 263.911 231.95H263.94C264.072 231.95 264.189 231.935 264.306 231.906C265.52 231.73 266.515 230.824 266.763 229.595C266.763 229.551 267.056 228.221 267.656 226.334C268.226 224.506 269.089 222.151 270.26 219.928C270.743 219.007 271.284 218.115 271.869 217.281C271.869 217.267 271.898 217.252 271.913 217.223C272.337 216.638 272.776 216.097 273.244 215.599C274.458 214.327 275.863 213.391 277.457 213.069C278.086 212.938 278.745 212.894 279.432 212.967C285.869 213.684 294.895 219.797 302.897 229.61C310.563 239.014 317.307 251.825 319.896 266.581C320.496 270.018 320.847 273.659 321.052 276.964C321.096 277.623 321.125 278.251 321.154 278.88C321.184 279.524 321.213 280.153 321.227 280.752C321.271 282.215 321.301 283.56 321.301 284.716C321.301 285.213 321.301 285.666 321.301 286.09C321.301 287.231 321.271 288.065 321.257 288.518C321.257 288.767 321.257 288.927 321.257 288.942C321.257 289.015 321.257 289.103 321.257 289.176L321.374 292.072L321.608 297.629L321.637 298.214L321.739 300.656L321.842 303.128V309.285C321.944 310.455 322.178 311.654 322.69 312.4C322.807 312.575 322.939 312.722 323.085 312.839C324.168 313.702 325.689 313.497 326.684 313.204C327.284 313.029 327.693 312.839 327.693 312.839C327.693 312.839 327.781 312.795 327.825 312.78C328.118 312.678 328.396 312.575 328.688 312.458C338.724 308.641 348.979 303.845 353.821 301.007C354.874 300.393 355.43 299.179 355.225 297.965C355.196 297.79 352.285 280.299 362.95 274.493C365.51 273.104 367.236 272.709 367.938 272.709C367.967 272.913 367.967 273.279 367.909 273.835C367.821 274.551 367.236 275.385 366.49 276.423C364.954 278.588 362.847 281.542 362.92 286.748C362.935 287.918 362.979 291.487 365.846 292.744C368.991 294.134 372.137 291.326 374.916 288.84C375.282 288.518 375.633 288.196 375.969 287.918C376.174 287.743 376.423 287.611 376.774 287.874C377.418 288.372 377.681 289.673 376.803 291.443C374.638 295.903 369.299 304.108 357.946 308.978C355.547 310.002 352.695 311.391 349.388 313C344.21 315.515 338.022 318.528 330.663 321.599C330.532 321.657 330.356 321.73 330.137 321.818C329.405 322.125 328.674 322.432 327.913 322.74C327.84 322.769 327.781 322.813 327.708 322.842C327.708 322.842 327.679 322.842 327.62 322.857C327.576 322.857 327.518 322.886 327.445 322.915C327.196 322.988 326.786 323.149 326.289 323.368C326.216 323.412 326.128 323.442 326.04 323.485C325.777 323.617 325.499 323.778 325.207 323.953C324.3 324.524 323.334 325.328 322.69 326.454C322.208 327.288 321.871 328.282 321.871 329.496C321.871 329.584 321.871 329.642 321.886 329.716C321.886 329.774 321.871 329.833 321.871 329.891V333.065C321.871 335.931 321.696 338.68 321.388 341.313C322.208 340.903 322.983 340.494 323.714 340.084C324.358 339.719 325.133 339.704 325.792 340.041C326.45 340.377 326.889 341.02 326.977 341.752C327.006 342.044 327.035 342.439 327.064 342.922C327.489 339.748 327.723 336.472 327.723 333.079V329.116L331.936 327.434C339.865 324.144 346.477 320.941 351.963 318.279C355.211 316.7 358.005 315.339 360.272 314.36C373.365 308.744 379.553 299.194 382.07 294.002C384.381 289.264 382.86 285.183 380.343 283.238L380.314 283.209ZM230.893 214.722C230.293 214.854 229.708 214.985 229.123 215.131C229.708 214.985 230.308 214.854 230.893 214.722ZM260.312 214.093C260.063 214.049 259.815 214.005 259.551 213.962C259.8 214.005 260.049 214.049 260.312 214.093ZM327.196 325.913C327.386 325.884 327.547 325.869 327.664 325.855C327.547 325.855 327.386 325.884 327.196 325.913Z" fill="#17386C"/>
<path d="M181.315 340.362C183.495 336.984 186.362 335.331 189.375 335.711C193.94 336.296 201.883 341.737 207.267 345.788C207.633 345.495 208.071 345.32 208.525 345.305C208.949 345.29 218.575 344.896 224.705 349.795C226.226 349.473 228.318 349.517 230.337 350.833C231.507 351.594 232.517 352.72 233.365 354.168C248.331 354.65 263.428 353.963 278.291 352.062C286.425 351.023 294.661 349.619 302.765 347.864C308.661 346.592 315.917 343.989 321.344 341.269C321.651 338.636 321.827 335.887 321.827 333.02V329.847C321.827 329.847 321.827 329.73 321.842 329.671C321.842 329.584 321.827 329.54 321.827 329.452C321.827 328.238 322.163 327.244 322.646 326.41C323.305 325.284 324.255 324.48 325.162 323.909C325.455 323.734 325.733 323.573 325.996 323.441C326.084 323.397 326.157 323.354 326.245 323.324C326.728 323.105 327.152 322.944 327.401 322.871C327.474 322.842 327.532 322.827 327.576 322.812C327.635 322.798 327.664 322.783 327.664 322.783C327.664 322.783 327.796 322.725 327.869 322.695C327.913 322.681 327.957 322.652 328 322.637C328.79 322.315 329.566 321.993 330.107 321.774C330.326 321.686 330.517 321.613 330.634 321.555C337.977 318.469 344.18 315.471 349.359 312.955C352.665 311.347 355.532 309.957 357.917 308.934C369.269 304.064 374.594 295.845 376.774 291.399C377.637 289.614 377.374 288.328 376.744 287.83C376.393 287.552 376.145 287.684 375.94 287.874C375.603 288.152 375.252 288.474 374.887 288.796C372.107 291.267 368.962 294.09 365.817 292.7C362.949 291.443 362.905 287.874 362.891 286.704C362.818 281.498 364.924 278.544 366.46 276.379C367.206 275.341 367.791 274.507 367.879 273.791C367.952 273.235 367.938 272.884 367.909 272.665C367.206 272.665 365.48 273.045 362.92 274.449C352.255 280.255 355.167 297.76 355.196 297.921C355.415 299.121 354.845 300.334 353.791 300.963C348.949 303.8 338.694 308.597 328.659 312.414C328.469 312.487 328.161 312.604 327.796 312.736C327.752 312.751 327.708 312.765 327.664 312.78C327.664 312.78 327.254 312.985 326.655 313.16C325.66 313.438 324.138 313.657 323.056 312.795C322.91 312.678 322.778 312.517 322.661 312.356C322.149 311.61 321.9 310.411 321.812 309.241V303.084L321.71 300.612L321.608 298.17L321.578 297.585L321.344 292.028L321.227 289.132C321.227 289.059 321.227 288.971 321.227 288.898C321.227 288.898 321.227 288.722 321.227 288.474C321.227 288.006 321.256 287.172 321.271 286.046C321.271 285.622 321.271 285.169 321.271 284.671C321.271 283.516 321.242 282.171 321.198 280.708C321.183 280.108 321.154 279.48 321.125 278.836C321.096 278.207 321.066 277.578 321.022 276.92C320.818 273.601 320.481 269.974 319.867 266.537C317.277 251.795 310.533 238.984 302.868 229.566C294.866 219.753 285.839 213.639 279.403 212.923C278.715 212.85 278.057 212.894 277.428 213.025C275.833 213.347 274.429 214.283 273.215 215.555C272.746 216.053 272.293 216.594 271.883 217.179C271.883 217.193 271.854 217.208 271.839 217.237C271.254 218.071 270.713 218.963 270.23 219.884C269.06 222.107 268.197 224.462 267.626 226.29C267.041 228.176 266.749 229.507 266.734 229.551C266.485 230.78 265.49 231.686 264.276 231.862C264.159 231.876 264.028 231.891 263.911 231.906H263.881C262.945 231.906 262.111 231.452 261.57 230.75C261.321 230.429 261.131 230.048 261.029 229.624C261.014 229.551 260.458 227.24 259.346 224.286C257.942 220.542 255.645 215.775 252.456 213.172C252.456 213.172 252.441 213.157 252.427 213.142C250.818 211.841 248.974 211.095 246.897 211.329C246.897 211.329 246.868 211.329 246.853 211.329C244.966 211.548 243.371 212.206 242.025 213.142C241.353 213.61 240.753 214.137 240.197 214.722C235.369 219.87 234.945 228.937 234.93 229.068C234.93 229.229 234.901 229.376 234.872 229.536C234.872 229.595 234.843 229.668 234.828 229.727C234.784 229.873 234.74 230.004 234.682 230.136C234.682 230.165 234.652 230.195 234.652 230.224C234.55 230.429 234.433 230.619 234.287 230.78C233.965 231.189 233.541 231.496 233.058 231.686H233.029C232.882 231.745 232.721 231.789 232.56 231.818C232.517 231.818 232.487 231.833 232.443 231.833C232.385 231.833 232.341 231.862 232.283 231.862C232.209 231.862 232.122 231.862 232.048 231.862C232.005 231.862 231.961 231.862 231.917 231.862C231.888 231.862 231.873 231.862 231.844 231.862C231.712 231.862 231.595 231.833 231.478 231.818C231.419 231.818 231.346 231.803 231.288 231.789C231.141 231.745 230.995 231.701 230.849 231.628C230.746 231.584 230.644 231.525 230.542 231.467C230.483 231.423 230.41 231.394 230.351 231.35C230.264 231.291 230.205 231.233 230.117 231.174C230.059 231.116 230 231.072 229.942 231.014C229.883 230.955 229.825 230.882 229.766 230.809C229.708 230.736 229.649 230.677 229.605 230.589C229.562 230.516 229.518 230.443 229.474 230.37C229.43 230.282 229.386 230.195 229.342 230.107C229.313 230.034 229.284 229.961 229.254 229.887C229.254 229.858 229.225 229.829 229.21 229.8C229.181 229.683 226.709 222.107 222.481 217.12C220.813 215.16 218.868 213.61 216.703 213.084C215.942 212.894 215.137 212.821 214.318 212.923C207.311 213.698 197.231 220.879 188.732 232.286C181.959 241.382 176.209 253.17 173.854 266.537C173.181 270.354 172.815 274.946 172.64 279.231C172.567 280.854 172.523 282.434 172.494 283.911C172.464 285.68 172.45 287.304 172.45 288.664C172.45 291.252 172.508 292.92 172.508 292.964C172.508 293.022 172.508 293.081 172.508 293.139V309.621C172.391 311.054 172.055 312.546 171.265 313.189C170.943 313.453 170.577 313.584 170.197 313.687C168.558 314.096 166.657 313.189 166.657 313.189C166.452 313.146 166.247 313.102 166.042 313.029C165.793 312.941 165.559 312.853 165.34 312.765C164.974 312.634 164.667 312.517 164.477 312.444C154.441 308.627 144.186 303.83 139.344 300.992C138.291 300.378 137.735 299.164 137.94 297.951C137.969 297.775 140.88 280.284 130.216 274.478C127.656 273.089 125.929 272.694 125.227 272.694C125.198 272.899 125.198 273.264 125.256 273.82C125.344 274.536 125.929 275.37 126.675 276.408C128.211 278.573 130.318 281.527 130.245 286.733C130.23 287.903 130.186 291.472 127.319 292.73C124.174 294.119 121.029 291.311 118.249 288.825C117.883 288.503 117.532 288.181 117.196 287.903C116.991 287.728 116.742 287.596 116.391 287.86C115.747 288.357 115.484 289.658 116.362 291.428C118.527 295.888 123.867 304.093 135.219 308.963C137.618 309.987 140.471 311.376 143.777 312.985C148.955 315.5 155.144 318.513 162.502 321.584C162.619 321.642 162.809 321.716 163.014 321.803C163.555 322.023 164.331 322.344 165.135 322.666L166.642 323.266L168.002 323.807L168.134 323.865H168.149L169.319 324.333L170.138 324.655C170.138 324.655 171.996 325.24 172.464 327.522C172.464 327.595 172.479 327.653 172.479 327.726V333.064C172.479 336.062 172.669 338.914 173.006 341.649C174.425 342.439 176.853 343.521 179.238 344.501C179.793 342.994 180.481 341.561 181.256 340.377L181.315 340.362ZM211.963 314.345C207.15 314.345 203.229 311.99 203.229 309.065C203.229 306.14 207.135 303.786 211.963 303.786C216.79 303.786 220.696 306.14 220.696 309.065C220.696 311.99 216.79 314.345 211.963 314.345ZM270.172 309.709C270.128 309.855 265.227 324.567 246.999 324.567C237.534 324.567 231.566 320.604 228.23 317.27C224.675 313.716 223.3 310.206 223.154 309.811C222.7 308.583 223.33 307.223 224.558 306.769C225.144 306.55 225.787 306.579 226.358 306.842C226.928 307.106 227.367 307.574 227.587 308.173C227.762 308.641 232.122 319.829 246.999 319.829C261.877 319.829 265.52 308.744 265.666 308.276C266.061 307.032 267.392 306.345 268.636 306.74C269.865 307.135 270.567 308.466 270.172 309.694V309.709ZM241.674 298.638C241.879 297.702 242.479 296.327 243.576 295.216C244.556 294.221 245.917 293.461 247.775 293.461C249.779 293.461 251.125 294.338 251.988 295.464C252.939 296.707 253.319 298.243 253.363 299.311C253.422 300.641 252.383 301.768 251.052 301.841H250.935C249.633 301.841 248.579 300.832 248.521 299.53C248.506 299.252 248.404 298.302 247.76 298.302C246.736 298.302 246.429 299.545 246.385 299.691C246.078 300.978 244.79 301.797 243.503 301.504C242.216 301.212 241.396 299.925 241.674 298.638ZM189.8 239.861C190.165 239.423 190.56 238.984 190.941 238.545C190.56 238.984 190.18 239.408 189.8 239.861ZM197.29 232.067C197.729 231.672 198.168 231.306 198.606 230.926C198.168 231.306 197.714 231.686 197.29 232.067ZM200.025 229.727C200.479 229.361 200.947 229.01 201.401 228.644C200.932 229.01 200.479 229.361 200.025 229.727ZM208.891 223.496C209.388 223.189 209.915 222.912 210.427 222.619C209.915 222.912 209.403 223.204 208.891 223.496ZM283.265 278.105C283.265 285.022 281.568 291.574 278.686 296.283C278.188 297.102 277.662 297.877 277.091 298.565C274.458 301.768 271.269 303.464 267.89 303.464C263.428 303.464 259.478 300.466 256.684 295.625C254.08 291.106 252.5 284.978 252.5 278.105C252.5 266.551 256.962 257.031 263.267 253.872C264.715 253.141 266.266 252.76 267.875 252.76C268.402 252.76 268.928 252.819 269.44 252.892C270.289 253.024 271.123 253.272 271.913 253.609C276.448 255.554 280.149 260.731 282.021 268.102C282.094 268.409 282.153 268.731 282.226 269.038C282.884 271.948 283.236 274.99 283.236 278.105H283.265ZM282.358 313.116C277.545 313.116 273.624 310.762 273.624 307.837C273.624 304.912 277.53 302.557 282.358 302.557C287.185 302.557 291.091 304.912 291.091 307.837C291.091 310.762 287.185 313.116 282.358 313.116ZM216.937 219.328C216.395 219.577 215.854 219.811 215.313 220.06C215.854 219.811 216.395 219.562 216.937 219.328ZM188.644 241.324C188.278 241.777 187.927 242.231 187.576 242.684C187.927 242.216 188.293 241.777 188.644 241.324ZM186.464 244.205C186.128 244.673 185.791 245.141 185.455 245.624C185.777 245.141 186.128 244.688 186.464 244.205ZM184.431 247.203C184.124 247.686 183.802 248.168 183.495 248.651C183.802 248.154 184.109 247.686 184.431 247.203ZM182.544 250.303C182.251 250.801 181.959 251.283 181.681 251.795C181.959 251.298 182.251 250.801 182.544 250.303ZM180.803 253.492C180.54 254.003 180.262 254.501 180.013 255.027C180.262 254.515 180.54 254.003 180.803 253.492ZM179.208 256.768C178.974 257.294 178.726 257.806 178.491 258.332C178.711 257.806 178.96 257.279 179.208 256.768ZM177.775 260.146C177.57 260.672 177.35 261.199 177.146 261.74C177.35 261.199 177.57 260.687 177.775 260.146ZM176.502 263.612C176.326 264.153 176.122 264.679 175.961 265.221C176.136 264.679 176.326 264.153 176.502 263.612ZM175.405 267.151C175.258 267.692 175.083 268.219 174.951 268.774C175.098 268.233 175.258 267.692 175.405 267.151ZM174.468 270.778C174.351 271.319 174.205 271.846 174.088 272.401C174.205 271.86 174.337 271.319 174.468 270.778ZM173.708 274.493C173.62 275.019 173.503 275.56 173.415 276.087C173.503 275.546 173.605 275.019 173.708 274.493ZM172.742 282.361C172.713 282.799 172.669 283.224 172.64 283.648C172.669 283.209 172.713 282.785 172.742 282.361ZM212.241 277.929C212.241 263.714 218.999 252.57 227.63 252.57C233.95 252.57 239.378 258.449 241.791 267.926C242.596 271.114 243.006 274.478 243.006 277.929C243.006 284.35 241.543 290.463 239.012 295.069C238.354 296.283 237.637 297.409 236.832 298.389C234.199 301.592 231.01 303.289 227.63 303.289C222.847 303.289 218.648 299.852 215.839 294.382C213.587 289.98 212.241 284.277 212.241 277.944V277.929Z" fill="#FD9F28"/>
<path d="M221.912 294.572C223.506 296.795 225.438 298.185 227.617 298.185C227.822 298.185 228.012 298.185 228.217 298.141C227.91 297.936 227.632 297.702 227.339 297.468C227.252 297.395 227.178 297.322 227.091 297.234C226.871 297.029 226.652 296.824 226.447 296.605C226.359 296.517 226.271 296.415 226.184 296.313C225.95 296.049 225.715 295.772 225.496 295.494C225.452 295.435 225.408 295.391 225.364 295.333C225.203 295.113 225.043 294.879 224.882 294.645C224.794 294.514 224.706 294.382 224.618 294.236C224.545 294.134 224.487 294.017 224.413 293.9C224.238 293.607 224.062 293.315 223.901 292.993C223.828 292.861 223.77 292.744 223.697 292.613C223.506 292.232 223.331 291.852 223.155 291.443C223.126 291.384 223.112 291.34 223.082 291.296C222.892 290.843 222.717 290.375 222.556 289.892C222.512 289.761 222.468 289.615 222.424 289.483C222.307 289.117 222.19 288.737 222.087 288.357C222.044 288.211 222 288.05 221.97 287.889C221.853 287.406 221.736 286.909 221.634 286.397C221.634 286.368 221.619 286.324 221.619 286.295C221.517 285.754 221.429 285.198 221.356 284.642C221.341 284.481 221.312 284.32 221.298 284.16C221.254 283.735 221.21 283.311 221.18 282.873C221.18 282.697 221.151 282.536 221.151 282.361C221.122 281.776 221.093 281.191 221.093 280.577C221.093 269.886 226.301 261.521 232.942 261.521C233.118 261.521 233.308 261.521 233.484 261.535C231.757 259.093 229.695 257.674 227.617 257.674C221.575 257.674 217.348 268.336 217.348 277.915C217.348 284.043 219.074 290.609 221.912 294.543V294.572Z" fill="white"/>
<path d="M227.616 303.303C230.996 303.303 234.185 301.607 236.818 298.404C237.623 297.424 238.339 296.298 238.998 295.084C241.529 290.477 242.991 284.364 242.991 277.944C242.991 274.493 242.582 271.129 241.777 267.941C239.363 258.464 233.951 252.585 227.616 252.585C218.985 252.585 212.227 263.729 212.227 277.944C212.227 284.277 213.572 289.995 215.825 294.382C218.619 299.866 222.833 303.289 227.616 303.289V303.303ZM227.616 257.704C229.694 257.704 231.771 259.122 233.483 261.564C233.307 261.564 233.131 261.55 232.941 261.55C226.3 261.55 221.092 269.93 221.092 280.606C221.092 281.205 221.106 281.805 221.15 282.39C221.15 282.565 221.18 282.726 221.18 282.902C221.209 283.341 221.253 283.765 221.297 284.189C221.311 284.35 221.326 284.511 221.355 284.671C221.428 285.227 221.516 285.783 221.618 286.324C221.618 286.353 221.633 286.397 221.633 286.426C221.735 286.938 221.838 287.421 221.97 287.918C222.013 288.079 222.057 288.225 222.087 288.386C222.189 288.766 222.306 289.147 222.423 289.512C222.467 289.644 222.511 289.79 222.555 289.922C222.716 290.404 222.891 290.872 223.081 291.326C223.096 291.384 223.125 291.428 223.154 291.472C223.33 291.867 223.506 292.262 223.696 292.642C223.754 292.773 223.827 292.905 223.901 293.022C224.061 293.329 224.237 293.636 224.413 293.929C224.486 294.046 224.544 294.148 224.617 294.265C224.705 294.397 224.793 294.543 224.881 294.675C225.042 294.909 225.188 295.143 225.363 295.362C225.407 295.421 225.451 295.464 225.495 295.523C225.715 295.815 225.949 296.079 226.183 296.342C226.27 296.444 226.358 296.532 226.446 296.634C226.651 296.854 226.87 297.058 227.09 297.263C227.177 297.336 227.251 297.424 227.338 297.497C227.631 297.746 227.909 297.965 228.216 298.17C228.026 298.199 227.821 298.214 227.616 298.214C225.437 298.214 223.506 296.824 221.911 294.602C219.088 290.668 217.347 284.101 217.347 277.973C217.347 268.394 221.56 257.733 227.616 257.733V257.704Z" fill="#213E7A"/>
<path d="M266.693 296.766C266.605 296.678 266.517 296.591 266.43 296.488C266.254 296.298 266.093 296.093 265.918 295.889C265.845 295.801 265.786 295.728 265.713 295.64C265.669 295.596 265.64 295.552 265.596 295.494C265.333 295.143 265.084 294.777 264.85 294.397C264.791 294.295 264.718 294.192 264.66 294.075C264.484 293.783 264.308 293.476 264.148 293.154C264.089 293.022 264.016 292.905 263.957 292.774C263.767 292.393 263.577 291.999 263.401 291.589C263.387 291.545 263.358 291.501 263.343 291.457C263.153 291.004 262.977 290.521 262.816 290.039C262.772 289.907 262.729 289.776 262.685 289.629C262.568 289.264 262.451 288.884 262.348 288.489C262.304 288.342 262.26 288.196 262.231 288.035C262.114 287.553 261.997 287.055 261.895 286.544C261.895 286.514 261.88 286.485 261.88 286.441C261.778 285.9 261.69 285.344 261.617 284.789C261.602 284.628 261.573 284.467 261.558 284.306C261.514 283.882 261.47 283.458 261.441 283.019C261.441 282.844 261.412 282.683 261.412 282.507C261.383 281.922 261.353 281.337 261.353 280.723C261.353 270.105 266.503 261.769 273.086 261.667C273.13 261.667 273.174 261.667 273.203 261.667C273.378 261.667 273.554 261.667 273.744 261.682C272.135 259.415 270.233 258.04 268.302 257.85C268.156 257.85 268.01 257.806 267.863 257.806C261.822 257.806 257.594 268.468 257.594 278.047C257.594 284.774 259.686 292.028 263.021 295.757C264.426 297.337 266.064 298.287 267.863 298.287C268.068 298.287 268.258 298.287 268.463 298.243C268.156 298.039 267.863 297.805 267.585 297.571C267.498 297.497 267.424 297.424 267.337 297.351C267.117 297.146 266.883 296.942 266.678 296.708L266.693 296.766Z" fill="white"/>
<path d="M271.928 253.609C271.124 253.258 270.305 253.024 269.456 252.892C268.944 252.805 268.417 252.761 267.891 252.761C266.282 252.761 264.731 253.156 263.283 253.872C256.977 257.031 252.516 266.552 252.516 278.105C252.516 284.964 254.096 291.092 256.7 295.626C259.479 300.466 263.444 303.464 267.905 303.464C271.285 303.464 274.474 301.768 277.107 298.565C277.678 297.878 278.204 297.103 278.702 296.284C281.598 291.575 283.281 285.023 283.281 278.105C283.281 274.99 282.929 271.948 282.271 269.038C282.198 268.731 282.139 268.409 282.066 268.102C280.194 260.731 276.493 255.554 271.958 253.609H271.928ZM268.476 298.316C268.286 298.346 268.081 298.36 267.876 298.36C266.077 298.36 264.453 297.395 263.034 295.83C259.698 292.101 257.607 284.847 257.607 278.12C257.607 268.541 261.82 257.879 267.876 257.879C268.022 257.879 268.169 257.909 268.315 257.923C270.246 258.099 272.148 259.473 273.757 261.755C273.581 261.755 273.406 261.74 273.216 261.74C273.172 261.74 273.128 261.74 273.099 261.74C266.516 261.843 261.366 270.179 261.366 280.796C261.366 281.396 261.381 281.995 261.425 282.58C261.425 282.756 261.454 282.917 261.454 283.092C261.483 283.531 261.527 283.955 261.571 284.379C261.586 284.54 261.6 284.701 261.63 284.862C261.703 285.418 261.79 285.973 261.893 286.514C261.893 286.544 261.907 286.573 261.907 286.617C262.01 287.129 262.112 287.626 262.244 288.108C262.288 288.255 262.317 288.416 262.361 288.562C262.463 288.942 262.58 289.322 262.697 289.703C262.741 289.834 262.785 289.98 262.829 290.112C262.99 290.595 263.166 291.063 263.356 291.531C263.37 291.575 263.4 291.618 263.414 291.662C263.59 292.072 263.765 292.467 263.97 292.847C264.029 292.979 264.102 293.095 264.16 293.227C264.321 293.549 264.497 293.841 264.672 294.148C264.731 294.251 264.804 294.368 264.863 294.47C265.097 294.85 265.36 295.216 265.609 295.567C265.653 295.611 265.682 295.655 265.726 295.713C265.784 295.801 265.857 295.874 265.93 295.962C266.091 296.167 266.267 296.371 266.442 296.562C266.53 296.649 266.618 296.752 266.706 296.839C266.925 297.059 267.145 297.278 267.364 297.483C267.452 297.556 267.525 297.629 267.613 297.702C267.905 297.951 268.198 298.17 268.491 298.375L268.476 298.316Z" fill="#213E7A"/>
<path d="M243.488 301.504C244.776 301.797 246.078 300.978 246.37 299.691C246.399 299.545 246.721 298.302 247.745 298.302C248.374 298.302 248.491 299.252 248.506 299.53C248.565 300.817 249.618 301.841 250.92 301.841H251.037C252.368 301.782 253.407 300.642 253.348 299.311C253.304 298.258 252.924 296.708 251.973 295.465C251.11 294.338 249.764 293.461 247.76 293.461C245.902 293.461 244.542 294.221 243.561 295.216C242.479 296.313 241.879 297.687 241.66 298.638C241.382 299.925 242.201 301.212 243.488 301.504Z" fill="#213E7A"/>
<path d="M268.621 306.755C267.378 306.36 266.046 307.047 265.651 308.29C265.505 308.758 261.775 319.844 246.985 319.844C232.195 319.844 227.748 308.656 227.572 308.188C227.353 307.588 226.914 307.121 226.343 306.857C225.773 306.594 225.129 306.565 224.544 306.784C223.315 307.238 222.686 308.598 223.139 309.826C223.286 310.221 224.661 313.731 228.216 317.285C231.551 320.604 237.52 324.582 246.985 324.582C265.227 324.582 270.113 309.87 270.157 309.724C270.552 308.481 269.85 307.15 268.621 306.77V306.755Z" fill="#213E7A"/>
<path d="M211.948 314.36C216.772 314.36 220.682 311.996 220.682 309.08C220.682 306.164 216.772 303.801 211.948 303.801C207.125 303.801 203.215 306.164 203.215 309.08C203.215 311.996 207.125 314.36 211.948 314.36Z" fill="#FF3EA8"/>
<path d="M282.347 302.572C277.534 302.572 273.613 304.927 273.613 307.852C273.613 310.777 277.519 313.131 282.347 313.131C287.174 313.131 291.08 310.777 291.08 307.852C291.08 304.927 287.174 302.572 282.347 302.572Z" fill="#FF3EA8"/>
<path d="M318.553 367.008C319.109 364.712 319.548 362.343 319.87 359.901C318.582 360.354 317.003 360.837 315.071 361.349C310.493 362.563 303.939 363.923 294.503 365.414C277.153 368.164 258.808 369.86 246.637 369.86C243.609 369.86 240.288 369.773 236.777 369.597C236.908 372.771 236.865 376.295 236.645 380.2L236.426 391.329C236.426 391.768 236.25 392.163 236.016 392.514C235.68 392.996 235.182 393.362 234.568 393.45C229.755 394.181 226.317 394.474 223.83 394.474C217.978 394.474 217.525 392.894 217.232 391.914C217.042 391.285 216.925 390.247 216.852 388.96C216.53 383.593 217.013 373.619 217.291 368.573C217.13 368.573 216.969 368.573 216.794 368.573C214.146 368.573 210.313 368.266 207.124 366.774C204.388 366.394 201.667 365.999 198.99 365.575C190.052 364.142 183.82 362.797 179.431 361.583C177.397 361.027 175.774 360.486 174.457 359.989C174.764 362.358 175.188 364.639 175.715 366.862C178.743 379.615 185.385 390.159 195.991 399.314C199.326 402.195 201.17 406.436 202.208 410.063C208.484 412.608 219.412 413.339 223.625 413.398C230.676 413.164 235.314 411.848 237.611 410.999C238.123 409.288 238.957 407.533 240.317 406.1C242.073 404.257 244.442 403.278 247.149 403.278C249.855 403.278 252.313 404.272 254.083 406.144C255.473 407.621 256.307 409.435 256.804 411.189C259.262 412.023 263.753 413.178 270.35 413.398C274.593 413.339 286.004 412.564 292.177 409.844C293.216 406.261 295.059 402.137 298.321 399.314C308.883 390.203 315.51 379.703 318.553 367.023V367.008Z" fill="#3B84F5"/>
<path d="M219.456 427.35C215.448 427.277 211.161 426.911 206.144 426.224V429.383C206.144 430.713 205.368 431.839 204.695 432.849C204.564 433.039 204.447 433.214 204.373 433.346C204.198 433.711 204.052 434.092 203.891 434.472C204.476 435.408 205.061 436.402 205.646 437.382C205.983 437.953 206.334 438.538 206.67 439.108C208.06 438.172 209.45 437.397 210.839 436.724C211.586 435.262 212.712 434.019 214.16 433.097C218.417 430.392 224.093 431.328 227.165 435.115C229.331 435.7 231.935 436.724 234.378 438.45C234.919 437.836 235.548 437.031 236.162 436.037C236.031 435.759 235.914 435.481 235.767 435.218C235.46 434.647 235.08 434.062 234.685 433.448C234.363 432.966 234.056 432.483 233.763 431.986C232.695 430.172 232.812 428.695 232.915 427.511L232.944 427.086C232.944 427.086 232.944 426.94 232.944 426.882C227.56 427.511 219.909 427.379 219.441 427.379L219.456 427.35Z" fill="#FD9F28"/>
<path d="M219.453 427.35C219.921 427.35 227.572 427.496 232.956 426.852C232.956 426.662 232.956 426.472 232.97 426.297C230.162 426.648 227.104 426.794 224.017 426.794C217.42 426.794 210.734 426.15 206.141 425.595V426.224C211.158 426.911 215.445 427.277 219.453 427.35Z" fill="#17386C"/>
<path d="M198.931 432.336C199.794 431.751 200.848 431.693 201.74 432.073C202.237 432.278 202.676 432.629 202.998 433.097C203.291 433.536 203.598 433.989 203.891 434.472C204.051 434.091 204.198 433.711 204.373 433.345C204.446 433.214 204.578 433.038 204.695 432.848C205.368 431.839 206.143 430.713 206.143 429.382V425.609C205.032 425.477 204.051 425.346 203.218 425.229C201.594 424.995 200.54 424.834 200.336 424.79C200.321 424.79 200.306 424.79 200.292 424.775V428.9C200.16 429.119 199.97 429.397 199.853 429.572C199.56 429.996 199.312 430.362 199.136 430.757C198.683 431.678 198.288 432.614 197.922 433.565C198.141 433.082 198.463 432.658 198.931 432.336Z" fill="#1A3A70"/>
<path d="M232.987 426.296C232.987 426.486 232.987 426.677 232.973 426.852C232.973 426.925 232.973 426.998 232.973 427.057L232.943 427.481C232.841 428.666 232.724 430.143 233.792 431.956C234.084 432.453 234.406 432.936 234.713 433.419C235.108 434.033 235.489 434.618 235.796 435.188C235.942 435.451 236.059 435.729 236.191 436.007C236.323 435.788 236.469 435.568 236.601 435.334C237.01 434.603 237.683 434.121 238.444 433.93C239.146 433.755 239.907 433.828 240.594 434.208C241.969 434.983 242.467 436.694 241.75 438.098C241.823 438.245 241.896 438.376 241.955 438.493C242.16 438.888 242.364 439.283 242.511 439.649C243.228 441.389 243.71 442.983 243.974 444.533C244.369 446.873 244.515 450.237 242.92 453.001C241.75 455.019 240.068 456.525 238.722 457.622C234.713 460.869 228.452 463.501 220.889 463.501C215.783 463.501 210.107 462.302 204.139 459.29C199.896 457.14 196.985 453.381 196.356 449.213C195.99 446.785 196.02 444.27 196.458 441.74C196.678 440.512 196.985 439.283 197.38 438.113C197.424 437.967 197.629 437.528 197.877 436.987C197.951 436.826 198.068 436.592 198.17 436.358C197.629 435.554 197.556 434.574 197.863 433.726C196.663 436.855 195.917 440.102 195.668 443.232C195.23 448.891 196.385 453.133 199.223 456.218C204.49 461.951 212.492 463.984 219.806 463.984C222.147 463.984 224.4 463.779 226.492 463.414C229.242 462.946 231.758 462.214 233.953 461.264C237.274 459.831 241.662 457.227 243.71 453.016C244.339 451.699 244.734 450.237 244.866 448.657C245.085 446.01 244.573 443.363 244.091 441.096C243.432 438.098 242.379 435.203 240.96 432.497C240.521 431.664 240.053 430.947 239.6 430.245C239.336 429.836 239.058 429.426 238.81 429.002C238.732 428.865 238.712 428.524 238.751 427.978L238.795 427.481C238.853 426.662 238.853 425.858 238.853 425.083C237.932 425.375 236.952 425.624 235.928 425.828C234.991 426.018 234.011 426.179 232.987 426.311V426.296Z" fill="#1A3A70"/>
<path d="M239.102 450.808C239.819 449.564 240.023 447.546 239.628 445.279C239.467 444.329 239.175 443.334 238.795 442.281C238.678 442.413 238.56 442.545 238.443 442.662C237.273 443.905 236.366 444.592 236.205 444.709C235.064 445.513 233.513 445.396 232.489 444.431C231.436 443.437 230.28 442.662 229.125 442.077C229.095 442.252 229.081 442.413 229.052 442.588C228.554 445.031 227.077 447.122 224.912 448.482C223.258 449.521 221.386 450.003 219.543 450.003C216.397 450.003 213.325 448.57 211.482 445.938L211.38 445.777C211.38 445.777 211.38 445.747 211.35 445.733C211.35 445.733 211.35 445.718 211.336 445.704C210.926 445.075 210.604 444.402 210.37 443.715C209.493 444.285 208.615 444.899 207.737 445.601C207.21 446.011 206.567 446.23 205.923 446.23C205.777 446.23 205.645 446.23 205.499 446.201C204.694 446.084 203.992 445.645 203.524 444.987C202.924 444.139 202.324 443.173 201.725 442.179C201.52 441.843 201.315 441.492 201.11 441.155C200.993 441.609 200.891 442.047 200.803 442.515C200.452 444.577 200.423 446.625 200.715 448.599C201.125 451.349 203.158 453.893 206.142 455.414C214.861 459.831 227.457 461.176 235.971 454.259C237.024 453.411 238.326 452.241 239.131 450.851L239.102 450.808Z" fill="#3B84F5"/>
<path d="M198.156 436.373C198.054 436.607 197.937 436.841 197.864 437.002C197.615 437.528 197.41 437.982 197.366 438.128C196.971 439.298 196.664 440.526 196.445 441.755C196.006 444.285 195.977 446.8 196.342 449.228C196.971 453.381 199.883 457.154 204.125 459.304C210.094 462.317 215.77 463.516 220.875 463.516C228.439 463.516 234.7 460.884 238.708 457.637C240.054 456.54 241.736 455.034 242.907 453.016C244.501 450.266 244.37 446.888 243.96 444.548C243.697 442.998 243.214 441.389 242.497 439.663C242.351 439.298 242.146 438.918 241.941 438.508C241.883 438.391 241.809 438.259 241.736 438.113C242.453 436.724 241.956 434.998 240.581 434.223C239.908 433.843 239.132 433.77 238.43 433.945C237.684 434.135 236.997 434.618 236.587 435.349C236.455 435.583 236.309 435.803 236.177 436.022C235.563 437.016 234.934 437.821 234.393 438.435C231.95 436.695 229.346 435.686 227.18 435.101C224.108 431.327 218.432 430.391 214.175 433.082C212.727 434.004 211.6 435.261 210.854 436.709C209.465 437.367 208.075 438.157 206.685 439.093C206.349 438.523 205.998 437.938 205.661 437.367C205.091 436.388 204.491 435.393 203.906 434.457C203.613 433.974 203.306 433.521 203.013 433.082C202.691 432.614 202.253 432.263 201.755 432.059C200.863 431.678 199.809 431.737 198.946 432.322C198.478 432.644 198.156 433.068 197.937 433.55C197.908 433.609 197.878 433.667 197.864 433.726C197.557 434.574 197.63 435.554 198.171 436.358L198.156 436.373ZM215.653 435.437C216.34 434.998 217.101 434.72 217.876 434.545C218.476 434.413 219.076 434.34 219.676 434.355C220.7 434.384 221.709 434.633 222.631 435.057C223.699 435.554 224.65 436.271 225.323 437.25C225.381 437.338 225.44 437.44 225.483 437.543C225.513 437.601 225.542 437.645 225.571 437.704C225.571 437.704 225.571 437.733 225.571 437.748C225.615 437.835 225.644 437.938 225.659 438.04C225.659 438.084 225.688 438.128 225.703 438.172C225.732 438.303 225.747 438.45 225.747 438.581C225.747 438.596 225.747 438.625 225.747 438.64C225.747 438.801 225.732 438.961 225.703 439.122C225.674 439.239 225.644 439.342 225.6 439.444C225.586 439.488 225.571 439.546 225.557 439.59C225.498 439.722 225.425 439.839 225.352 439.941C225.206 440.175 225.001 440.38 224.781 440.556C224.708 440.614 224.65 440.673 224.562 440.716C223.362 441.477 221.695 441.199 220.802 440.161C220.758 440.102 220.7 440.058 220.656 439.985C220.51 439.78 220.319 439.62 220.144 439.444C220.027 439.327 219.924 439.181 219.807 439.078C219.72 438.991 219.617 438.932 219.515 438.859C219.281 438.684 219.047 438.523 218.783 438.391C218.666 438.333 218.549 438.259 218.418 438.216C218.154 438.099 217.876 437.996 217.598 437.923C217.481 437.894 217.379 437.85 217.262 437.821C217.101 437.791 216.94 437.791 216.779 437.762C216.53 437.733 216.296 437.674 216.062 437.674C215.755 437.674 215.448 437.704 215.141 437.762C215.053 437.777 214.951 437.806 214.863 437.821C214.629 437.865 214.395 437.938 214.175 438.011C214.087 438.04 214 438.069 213.912 438.113C213.619 438.23 213.341 438.362 213.063 438.537C213.458 437.543 214.117 436.665 214.98 435.963C215.199 435.788 215.419 435.612 215.653 435.452V435.437ZM206.1 455.385C203.116 453.879 201.097 451.334 200.673 448.57C200.38 446.61 200.409 444.563 200.76 442.486C200.834 442.018 200.951 441.579 201.068 441.126C201.272 441.477 201.477 441.813 201.682 442.15C202.282 443.144 202.882 444.109 203.481 444.958C203.949 445.616 204.666 446.054 205.456 446.171C205.603 446.186 205.734 446.201 205.881 446.201C206.539 446.201 207.183 445.981 207.695 445.572C208.587 444.87 209.465 444.256 210.328 443.685C210.562 444.373 210.884 445.045 211.293 445.674C211.293 445.674 211.293 445.689 211.308 445.703C211.308 445.718 211.337 445.747 211.337 445.747L211.44 445.908C213.283 448.555 216.355 449.974 219.5 449.974C221.343 449.974 223.216 449.477 224.869 448.453C227.034 447.093 228.512 445.001 229.009 442.559C229.038 442.384 229.068 442.223 229.082 442.047C230.238 442.632 231.394 443.407 232.447 444.402C233.456 445.367 235.022 445.484 236.163 444.68C236.338 444.563 237.231 443.89 238.401 442.632C238.518 442.515 238.635 442.384 238.752 442.252C239.147 443.305 239.425 444.299 239.586 445.25C239.966 447.517 239.776 449.535 239.059 450.778C238.255 452.167 236.938 453.337 235.899 454.186C227.385 461.103 214.79 459.758 206.071 455.341L206.1 455.385ZM226.025 443.071C225.527 444.314 224.635 445.382 223.435 446.142C220.246 448.131 215.814 447.312 213.751 444.358H213.722C213.722 444.358 213.692 444.285 213.663 444.241C213.4 443.817 213.283 443.334 213.312 442.881C213.327 442.559 213.414 442.237 213.561 441.93C213.766 441.521 214.073 441.155 214.497 440.877C214.643 440.775 214.804 440.702 214.965 440.643C214.965 440.643 214.98 440.643 214.994 440.643C214.994 440.643 214.994 440.643 215.009 440.643C215.697 440.38 216.457 440.395 217.13 440.643C217.145 440.643 217.16 440.658 217.189 440.673C217.672 440.863 218.096 441.17 218.403 441.609C219.661 443.378 221.885 444.197 223.962 443.861C223.962 443.861 223.991 443.861 224.006 443.861C224.299 443.817 224.576 443.729 224.854 443.627C224.913 443.612 224.986 443.597 225.045 443.568C225.264 443.48 225.483 443.363 225.703 443.246C225.805 443.188 225.922 443.159 226.025 443.086V443.071ZM226.859 437.148C226.785 436.973 226.683 436.812 226.581 436.651C226.683 436.812 226.785 436.987 226.859 437.148Z" fill="#153668"/>
<path d="M261.585 426.75C261.585 426.75 261.585 426.896 261.585 426.955L261.614 427.379C261.717 428.563 261.834 430.04 260.766 431.854C260.473 432.351 260.151 432.834 259.844 433.316C259.449 433.931 259.069 434.516 258.762 435.086C258.718 435.159 258.688 435.247 258.645 435.32C259.288 436.388 259.932 437.324 260.488 438.084C262.638 436.622 264.877 435.715 266.822 435.13C267.466 434.34 268.227 433.638 269.119 433.068C273.581 430.231 279.608 431.386 282.548 435.642C282.548 435.642 282.548 435.656 282.563 435.671C282.695 435.861 282.812 436.066 282.929 436.271C284.567 436.987 286.206 437.879 287.844 438.976C288.181 438.406 288.532 437.821 288.868 437.25C289.439 436.271 290.024 435.291 290.609 434.355C290.433 433.96 290.287 433.565 290.097 433.185C290.038 433.097 289.921 432.922 289.79 432.731C289.117 431.722 288.342 430.582 288.342 429.265V426.106C283.324 426.794 279.037 427.159 275.029 427.233C274.561 427.233 266.91 427.379 261.526 426.735L261.585 426.75Z" fill="#FD9F28"/>
<path d="M275.089 427.247C279.097 427.174 283.383 426.808 288.401 426.121V425.521C283.807 426.106 276.771 426.808 269.837 426.808C266.999 426.808 264.205 426.677 261.586 426.384C261.586 426.501 261.586 426.633 261.586 426.75C266.969 427.393 274.62 427.247 275.089 427.247Z" fill="#17386C"/>
<path d="M291.328 425.112C290.524 425.229 289.543 425.36 288.402 425.507V429.265C288.402 430.596 289.178 431.737 289.851 432.731C289.982 432.921 290.099 433.097 290.158 433.185C290.348 433.565 290.494 433.96 290.67 434.355C290.962 433.872 291.27 433.419 291.562 432.98C291.884 432.512 292.323 432.161 292.82 431.956C293.713 431.576 294.766 431.634 295.629 432.219C296.097 432.541 296.434 432.965 296.639 433.448C296.273 432.497 295.878 431.561 295.424 430.625C295.293 430.347 295.015 429.909 294.707 429.455C294.59 429.28 294.386 428.987 294.254 428.768V424.512C294.035 424.644 293.786 424.732 293.523 424.775C293.347 424.805 292.557 424.936 291.328 425.112Z" fill="#1A3A70"/>
<path d="M296.39 436.256C296.492 436.49 296.61 436.724 296.683 436.885C296.931 437.411 297.136 437.865 297.18 438.011C297.575 439.181 297.882 440.409 298.102 441.638C298.541 444.168 298.57 446.683 298.204 449.111C297.575 453.265 294.664 457.038 290.421 459.188C284.453 462.2 278.777 463.399 273.671 463.399C266.108 463.399 259.847 460.767 255.838 457.52C254.492 456.423 252.81 454.917 251.64 452.899C250.045 450.135 250.177 446.771 250.587 444.431C250.85 442.881 251.333 441.272 252.049 439.547C252.196 439.181 252.401 438.801 252.605 438.391C252.737 438.128 252.942 437.733 253.073 437.397C253.044 437.353 253.03 437.324 253 437.28C252.21 435.876 252.708 434.092 254.112 433.302C254.873 432.863 255.751 432.834 256.526 433.112C257.17 433.346 257.74 433.785 258.106 434.428C258.281 434.735 258.457 435.042 258.632 435.335C258.676 435.262 258.706 435.174 258.75 435.101C259.057 434.53 259.422 433.945 259.832 433.331C260.154 432.849 260.461 432.366 260.754 431.869C261.822 430.055 261.705 428.578 261.602 427.394L261.573 426.969C261.573 426.969 261.573 426.823 261.573 426.765C261.573 426.648 261.573 426.516 261.573 426.399C260.564 426.282 259.583 426.136 258.632 425.975C257.594 425.785 256.614 425.565 255.692 425.302C255.692 425.975 255.692 426.677 255.751 427.379L255.794 427.876C255.843 428.422 255.824 428.763 255.736 428.9C255.487 429.324 255.224 429.734 254.946 430.143C254.492 430.845 254.01 431.576 253.585 432.395C252.166 435.101 251.113 437.996 250.455 440.994C249.957 443.261 249.445 445.908 249.68 448.555C249.811 450.135 250.206 451.597 250.835 452.914C252.883 457.14 257.272 459.729 260.593 461.177C262.816 462.127 265.318 462.858 268.068 463.326C270.16 463.677 272.428 463.882 274.754 463.882C282.068 463.882 290.07 461.849 295.337 456.116C298.16 453.031 299.331 448.789 298.892 443.13C298.643 439.985 297.897 436.753 296.697 433.609C297.019 434.457 296.931 435.437 296.39 436.256Z" fill="#1A3A70"/>
<path d="M293.871 448.453C294.163 446.493 294.134 444.446 293.783 442.369C293.71 441.916 293.593 441.462 293.476 441.009C293.271 441.36 293.066 441.696 292.861 442.033C292.262 443.027 291.662 443.992 291.062 444.84C290.594 445.499 289.877 445.937 289.087 446.054C288.941 446.069 288.809 446.084 288.663 446.084C288.004 446.084 287.361 445.864 286.849 445.455C285.839 444.65 284.83 443.948 283.835 443.334C283.206 445.455 281.831 447.254 279.885 448.467C278.232 449.506 276.36 449.988 274.517 449.988C271.371 449.988 268.299 448.555 266.456 445.923L266.353 445.762C266.353 445.762 266.353 445.733 266.324 445.718C266.324 445.718 266.324 445.703 266.31 445.689C265.607 444.621 265.169 443.436 264.964 442.223C263.969 442.778 262.974 443.451 262.082 444.314C261.511 444.855 260.736 445.162 259.961 445.118C259.171 445.089 258.425 444.738 257.898 444.153C257.854 444.095 257.24 443.422 256.376 442.281C256.333 442.237 256.274 442.193 256.23 442.135C256.113 442.033 256.011 441.93 255.894 441.828C255.44 443.012 255.133 444.095 254.957 445.133C254.577 447.4 254.767 449.403 255.484 450.661C256.289 452.05 257.605 453.22 258.644 454.069C267.158 460.986 279.754 459.641 288.473 455.224C291.457 453.718 293.476 451.173 293.9 448.409L293.871 448.453Z" fill="#3B84F5"/>
<path d="M295.613 432.22C294.75 431.635 293.697 431.576 292.805 431.956C292.307 432.161 291.868 432.512 291.546 432.98C291.254 433.419 290.947 433.872 290.654 434.355C290.069 435.291 289.484 436.271 288.913 437.251C288.577 437.836 288.226 438.406 287.889 438.976C286.251 437.879 284.612 436.987 282.974 436.271C282.857 436.066 282.74 435.861 282.608 435.671C282.608 435.671 282.608 435.657 282.593 435.642C279.653 431.401 273.626 430.245 269.164 433.068C268.272 433.638 267.496 434.34 266.867 435.13C264.907 435.7 262.669 436.622 260.533 438.084C259.977 437.324 259.333 436.373 258.69 435.32C258.514 435.028 258.338 434.735 258.163 434.413C257.797 433.77 257.227 433.331 256.583 433.097C255.808 432.819 254.945 432.863 254.169 433.287C252.765 434.077 252.267 435.861 253.057 437.265C253.087 437.309 253.101 437.338 253.131 437.382C252.999 437.719 252.794 438.113 252.662 438.377C252.458 438.772 252.253 439.166 252.106 439.532C251.39 441.258 250.907 442.866 250.644 444.417C250.249 446.757 250.102 450.12 251.697 452.884C252.867 454.903 254.55 456.409 255.895 457.506C259.904 460.752 266.165 463.385 273.728 463.385C278.834 463.385 284.51 462.186 290.478 459.173C294.721 457.023 297.632 453.265 298.261 449.097C298.627 446.669 298.598 444.153 298.159 441.623C297.939 440.395 297.632 439.166 297.237 437.996C297.193 437.85 296.988 437.411 296.74 436.87C296.667 436.709 296.55 436.475 296.447 436.241C296.988 435.437 297.062 434.457 296.754 433.594C296.74 433.536 296.71 433.492 296.681 433.434C296.462 432.951 296.125 432.527 295.672 432.205L295.613 432.22ZM258.616 454.113C257.563 453.265 256.261 452.095 255.457 450.705C254.74 449.462 254.535 447.444 254.93 445.177C255.105 444.139 255.413 443.042 255.866 441.872C255.983 441.974 256.086 442.077 256.203 442.179C256.246 442.223 256.305 442.281 256.349 442.325C257.212 443.451 257.826 444.139 257.87 444.197C258.397 444.782 259.143 445.133 259.933 445.163C260.723 445.192 261.484 444.899 262.054 444.358C262.961 443.495 263.941 442.808 264.936 442.267C265.141 443.481 265.58 444.665 266.282 445.733C266.282 445.733 266.282 445.748 266.297 445.762C266.297 445.777 266.326 445.806 266.326 445.806L266.428 445.967C268.272 448.614 271.344 450.033 274.489 450.033C276.332 450.033 278.205 449.535 279.858 448.512C281.803 447.298 283.179 445.484 283.808 443.378C284.802 444.007 285.812 444.695 286.821 445.499C287.348 445.908 287.992 446.128 288.635 446.128C288.782 446.128 288.913 446.128 289.059 446.098C289.864 445.981 290.566 445.543 291.034 444.885C291.634 444.036 292.234 443.071 292.834 442.077C293.039 441.74 293.243 441.389 293.448 441.053C293.565 441.506 293.682 441.945 293.755 442.413C294.106 444.475 294.136 446.523 293.843 448.497C293.434 451.246 291.4 453.791 288.416 455.312C279.697 459.714 267.101 461.074 258.587 454.157L258.616 454.113ZM280.999 443.071C280.501 444.314 279.609 445.382 278.41 446.142C275.22 448.131 270.788 447.312 268.725 444.358H268.696C268.696 444.358 268.667 444.285 268.637 444.241C268.374 443.817 268.257 443.334 268.286 442.881C268.33 442.106 268.74 441.345 269.471 440.878C269.617 440.775 269.778 440.702 269.939 440.644C269.939 440.644 269.954 440.644 269.969 440.644C269.969 440.644 269.969 440.644 269.983 440.644C270.671 440.38 271.431 440.395 272.104 440.644C272.616 440.834 273.055 441.155 273.377 441.609C274.635 443.378 276.859 444.197 278.936 443.861C278.936 443.861 278.965 443.861 278.98 443.861C279.273 443.817 279.551 443.729 279.829 443.627C279.887 443.612 279.96 443.598 280.019 443.583C280.238 443.495 280.458 443.378 280.677 443.261C280.779 443.203 280.896 443.174 280.999 443.1V443.071ZM281.833 437.148C281.76 436.987 281.657 436.826 281.569 436.666C281.672 436.826 281.76 436.987 281.833 437.148ZM278.527 435.525C279.214 435.978 279.829 436.534 280.311 437.236C280.37 437.324 280.428 437.426 280.472 437.528C280.501 437.587 280.531 437.631 280.56 437.689C280.604 437.792 280.633 437.909 280.662 438.011C280.662 438.055 280.692 438.099 280.706 438.143C280.736 438.274 280.75 438.406 280.75 438.538C280.75 438.538 280.75 438.538 280.75 438.552C280.75 438.567 280.75 438.596 280.75 438.611C280.75 438.772 280.736 438.932 280.706 439.093C280.677 439.21 280.648 439.313 280.604 439.415C280.589 439.459 280.575 439.517 280.56 439.561C280.399 439.927 280.136 440.249 279.814 440.512C279.741 440.57 279.653 440.643 279.565 440.702C279.36 440.834 279.141 440.921 278.922 440.995C277.854 441.331 276.625 441.038 275.879 440.234C275.806 440.146 275.718 440.073 275.659 439.971C275.513 439.751 275.308 439.591 275.133 439.4C275.03 439.283 274.928 439.152 274.811 439.049C274.723 438.962 274.621 438.903 274.518 438.83C274.284 438.655 274.05 438.494 273.787 438.362C273.67 438.304 273.553 438.23 273.421 438.187C273.158 438.07 272.88 437.967 272.602 437.894C272.485 437.865 272.382 437.821 272.265 437.792C271.87 437.704 271.461 437.66 271.051 437.66C270.744 437.66 270.437 437.689 270.129 437.748C270.042 437.762 269.939 437.792 269.852 437.806C269.617 437.85 269.383 437.923 269.164 437.996C269.076 438.026 268.988 438.055 268.901 438.099C268.608 438.216 268.33 438.347 268.052 438.523C268.155 438.26 268.286 438.011 268.433 437.762C268.959 436.841 269.705 436.051 270.641 435.452C270.934 435.262 271.256 435.115 271.578 434.984C273.86 433.989 276.522 434.238 278.527 435.554V435.525Z" fill="#153668"/>
<path d="M238.195 415.431C236.395 416.03 233.85 416.703 230.515 417.171C228.51 417.464 226.228 417.683 223.668 417.756C223.273 417.756 219.426 417.683 214.627 417.171C210.224 416.688 205.016 415.826 200.949 414.261C201.052 415.27 201.183 416.264 201.33 417.171C201.505 418.326 201.725 419.35 201.944 420.096C201.944 420.14 201.973 420.169 201.973 420.198C202.017 420.345 202.061 420.491 202.105 420.608C202.88 420.725 204.08 420.9 205.572 421.09C212.184 421.939 224.663 423.167 233.411 421.836C234.889 421.617 236.278 421.31 237.493 420.93C237.493 420.93 237.507 420.93 237.522 420.93C237.58 420.71 237.639 420.432 237.697 420.125C237.844 419.394 238.005 418.429 238.092 417.2C238.136 416.659 238.166 416.089 238.195 415.46V415.431Z" fill="#86B6FF"/>
<path d="M288.973 421.002C290.143 420.841 291.108 420.71 291.767 420.607C291.825 420.447 291.884 420.286 291.942 420.096C291.957 420.037 291.986 419.949 292.001 419.891C292.206 419.16 292.396 418.238 292.557 417.185C292.703 416.278 292.835 415.284 292.937 414.275C288.855 415.84 283.662 416.703 279.273 417.185C274.49 417.712 270.657 417.77 270.32 417.785C267.731 417.697 265.434 417.478 263.416 417.185C260.066 416.703 257.491 416.03 255.691 415.445C255.706 416.074 255.75 416.659 255.794 417.185C255.896 418.414 256.043 419.379 256.189 420.11C256.247 420.432 256.32 420.695 256.379 420.929C256.511 420.973 256.642 421.002 256.774 421.046C258.12 421.441 259.641 421.748 261.294 421.967C270.306 423.152 282.784 421.836 289.002 421.031L288.973 421.002Z" fill="#86B6FF"/>
<path d="M171.749 346.358C171.72 347.338 171.749 348.362 171.837 349.385C171.998 351.228 172.334 353.012 172.832 354.299C173.051 354.548 173.446 354.811 173.988 355.074C174.69 355.44 175.67 355.82 176.855 356.215C178.157 356.654 179.737 357.107 181.551 357.561C180.117 356.625 179.137 355.616 178.61 354.519C178.479 354.241 178.391 353.978 178.318 353.714C178.215 353.305 178.171 352.939 178.171 352.632C178.025 352.076 177.952 351.404 177.967 350.687C177.967 350.087 178.04 349.444 178.142 348.771C177.542 348.523 176.928 348.274 176.314 348.011C175.45 347.645 174.675 347.309 173.973 346.987C173.812 346.914 173.666 346.841 173.519 346.782C172.861 346.475 172.276 346.183 171.749 345.919C171.749 346.066 171.749 346.227 171.749 346.373V346.358Z" fill="#86B6FF"/>
<path d="M278.835 356.435C264.396 358.263 249.752 359.009 235.211 358.629C235.372 359.184 235.518 359.769 235.664 360.369C236.001 361.831 236.25 363.44 236.44 365.18C239.951 365.356 243.374 365.458 246.622 365.458C268.653 365.458 304.772 360.135 317.529 356.142C318.64 355.791 319.577 355.455 320.308 355.133C321.01 354.826 321.552 354.519 321.859 354.241C322.21 353.217 322.429 351.36 322.561 349.357C322.62 348.347 322.663 347.309 322.678 346.329C322.678 346.051 322.678 345.773 322.678 345.51C321.961 345.861 321.215 346.212 320.44 346.549C320.016 346.739 319.577 346.914 319.152 347.104C314.164 349.24 308.488 351.126 303.675 352.164C298.452 353.291 293.171 354.27 287.89 355.119C284.862 355.601 281.834 356.055 278.82 356.435H278.835Z" fill="#86B6FF"/>
<path d="M325.749 340.011C325.09 339.675 324.315 339.689 323.671 340.055C322.954 340.464 322.165 340.874 321.345 341.283C315.918 344.004 308.662 346.607 302.766 347.879C294.662 349.634 286.426 351.038 278.292 352.076C263.414 353.963 248.332 354.665 233.366 354.182C232.503 352.734 231.508 351.608 230.338 350.848C228.319 349.532 226.227 349.488 224.706 349.809C218.591 344.91 208.95 345.29 208.526 345.32C208.058 345.334 207.619 345.51 207.268 345.802C201.884 341.751 193.955 336.311 189.377 335.726C186.363 335.346 183.496 336.998 181.316 340.377C180.555 341.561 179.868 342.994 179.297 344.501C176.913 343.521 174.484 342.439 173.065 341.649C172.67 341.43 172.348 341.225 172.129 341.064C171.822 340.42 171.222 339.938 170.476 339.821C169.393 339.66 168.355 340.303 168.033 341.356C167.784 342.19 167.623 343.17 167.506 344.208C167.184 347.089 167.374 350.497 167.989 353.349C168.911 374.043 176.839 390.554 192.156 403.745C194.175 405.485 195.462 408.133 196.267 410.633C196.267 410.648 196.267 410.663 196.267 410.692C196.369 413.134 196.867 421.309 198.973 423.986C199.31 424.41 199.778 424.688 200.304 424.79C200.319 424.79 200.334 424.79 200.348 424.805C200.553 424.834 201.606 425.009 203.23 425.243C204.064 425.36 205.044 425.492 206.156 425.624C210.75 426.179 217.435 426.823 224.033 426.823C227.12 426.823 230.177 426.677 232.986 426.326C234.01 426.194 234.975 426.033 235.926 425.843C236.965 425.638 237.945 425.39 238.852 425.097C239.262 424.966 239.686 424.834 240.066 424.688C240.622 424.468 241.061 424.044 241.295 423.503C241.397 423.254 242.07 421.587 242.407 418.355C242.582 417.946 242.67 417.507 242.656 417.054C242.597 415.84 242.816 411.979 244.572 410.151C245.23 409.463 246.05 409.142 247.161 409.142C248.273 409.142 249.166 409.463 249.824 410.165C250.57 410.94 251.009 412.125 251.287 413.295C251.14 419.92 252.428 423.152 252.589 423.518C252.823 424.059 253.262 424.483 253.818 424.702C254.417 424.936 255.061 425.141 255.719 425.331C256.641 425.594 257.636 425.814 258.66 426.004C259.596 426.179 260.576 426.311 261.6 426.428C264.219 426.72 267.028 426.852 269.851 426.852C276.785 426.852 283.822 426.135 288.415 425.565C289.556 425.419 290.536 425.287 291.341 425.17C292.57 424.995 293.36 424.863 293.535 424.834C293.799 424.79 294.047 424.702 294.267 424.571C294.516 424.424 294.735 424.249 294.911 424.03C296.637 421.836 297.28 415.942 297.515 412.549C298.305 409.463 299.724 405.895 302.167 403.789C317.015 390.992 324.9 375.052 326.202 355.235C327.124 351.93 327.197 345.919 327.051 342.951C327.021 342.483 326.992 342.088 326.963 341.781C326.875 341.049 326.436 340.406 325.778 340.069L325.749 340.011ZM256.363 420.914C256.304 420.695 256.246 420.417 256.173 420.096C256.027 419.364 255.866 418.399 255.778 417.171C255.734 416.629 255.705 416.059 255.675 415.43C257.475 416.03 260.05 416.703 263.4 417.171C265.418 417.463 267.715 417.682 270.304 417.77C270.641 417.77 274.474 417.697 279.257 417.171C283.646 416.688 288.84 415.825 292.921 414.26C292.819 415.269 292.687 416.264 292.541 417.171C292.38 418.224 292.19 419.145 291.985 419.876C291.97 419.949 291.941 420.022 291.926 420.081C291.868 420.271 291.809 420.446 291.751 420.593C291.092 420.695 290.141 420.827 288.957 420.988C282.739 421.807 270.261 423.108 261.249 421.924C259.611 421.704 258.089 421.412 256.729 421.002C256.597 420.958 256.465 420.929 256.334 420.885L256.363 420.914ZM292.175 409.829C286.001 412.549 274.591 413.324 270.348 413.383C263.751 413.163 259.26 412.008 256.802 411.174C256.304 409.42 255.471 407.606 254.081 406.129C252.311 404.257 249.912 403.263 247.147 403.263C244.382 403.263 242.07 404.242 240.315 406.085C238.954 407.504 238.121 409.273 237.609 410.984C235.312 411.833 230.674 413.149 223.623 413.383C219.41 413.324 208.482 412.593 202.206 410.048C201.168 406.421 199.324 402.18 195.989 399.299C185.383 390.159 178.741 379.6 175.713 366.847C175.186 364.624 174.762 362.328 174.455 359.974C175.772 360.471 177.395 360.997 179.429 361.568C183.818 362.782 190.05 364.127 198.988 365.56C201.665 365.984 204.386 366.394 207.122 366.759C210.325 368.237 214.158 368.558 216.791 368.558C216.967 368.558 217.128 368.558 217.289 368.558C217.011 373.604 216.528 383.578 216.85 388.945C216.923 390.247 217.055 391.285 217.23 391.899C217.523 392.879 217.976 394.459 223.828 394.459C226.3 394.459 229.753 394.181 234.566 393.435C235.18 393.347 235.692 392.981 236.014 392.499C236.248 392.148 236.409 391.753 236.424 391.314L236.643 380.185C236.862 376.28 236.906 372.756 236.775 369.582C240.286 369.758 243.621 369.845 246.635 369.845C258.821 369.845 277.166 368.134 294.501 365.399C303.951 363.908 310.505 362.533 315.069 361.334C317 360.822 318.566 360.339 319.868 359.886C319.546 362.328 319.107 364.697 318.551 366.993C315.494 379.673 308.881 390.174 298.319 399.285C295.042 402.107 293.214 406.246 292.175 409.814V409.829ZM237.521 420.9C237.521 420.9 237.506 420.9 237.492 420.9C236.263 421.295 234.888 421.587 233.41 421.807C224.662 423.137 212.183 421.909 205.571 421.061C204.079 420.871 202.894 420.695 202.104 420.578C202.06 420.461 202.016 420.315 201.972 420.169C201.972 420.125 201.943 420.095 201.943 420.066C201.723 419.32 201.519 418.297 201.329 417.141C201.182 416.235 201.051 415.24 200.948 414.231C205.03 415.796 210.223 416.659 214.626 417.141C219.425 417.668 223.272 417.726 223.667 417.726C226.227 417.639 228.509 417.419 230.513 417.141C233.834 416.659 236.394 415.986 238.194 415.401C238.179 416.03 238.135 416.615 238.091 417.141C237.989 418.37 237.843 419.335 237.696 420.066C237.638 420.373 237.565 420.651 237.521 420.871V420.9ZM183.379 346.109C183.949 344.501 184.783 342.834 185.88 341.576C187.358 339.879 188.455 340.026 188.821 340.069C191.995 340.479 198.812 344.954 204.532 349.239C204.152 349.824 203.757 350.453 203.391 351.14C203.274 351.345 203.172 351.535 203.055 351.755C202.821 352.223 202.601 352.705 202.396 353.202C202.221 353.656 202.045 354.109 201.899 354.577C201.826 354.811 201.753 355.06 201.694 355.308C201.533 355.952 201.402 356.595 201.343 357.253C199.354 356.127 197.174 354.972 194.95 353.919C194.628 353.773 194.292 353.612 193.97 353.466C189.903 351.623 185.749 350.219 182.384 350.102C182.442 349.663 182.516 349.166 182.647 348.61C182.676 348.479 182.706 348.362 182.735 348.215C182.896 347.557 183.101 346.841 183.364 346.124L183.379 346.109ZM212.461 349.868C214.89 350.131 218.035 350.789 220.624 352.325C220.902 352.486 221.195 352.632 221.458 352.822C221.356 353.027 221.253 353.261 221.151 353.48C221.122 353.539 221.107 353.583 221.078 353.627C220.829 354.153 220.566 354.753 220.273 355.411C220.244 355.469 220.229 355.528 220.2 355.586C220.083 355.879 219.951 356.157 219.834 356.464C219.673 356.873 219.512 357.283 219.351 357.721C219.205 358.131 219.059 358.555 218.913 358.979C218.869 359.096 218.839 359.199 218.796 359.316C218.327 360.749 217.932 362.226 217.698 363.674C217.669 363.835 217.625 364.01 217.611 364.171C217.494 364.171 217.362 364.171 217.23 364.171C215.899 364.186 214.304 364.112 212.725 363.864C212.052 363.761 211.379 363.615 210.735 363.425C210.676 363.41 210.618 363.396 210.559 363.381C209.813 363.162 209.111 362.884 208.467 362.533C207.912 362.226 207.414 361.875 206.99 361.451C206.712 361.173 206.463 360.866 206.258 360.515C206.171 360.368 206.112 360.208 206.039 360.047C205.776 359.403 205.673 358.716 205.703 357.985C205.732 357.356 205.849 356.712 206.024 356.069C206.112 355.747 206.229 355.44 206.346 355.133C206.493 354.753 206.653 354.372 206.844 353.992C207.122 353.422 207.429 352.866 207.751 352.34C207.838 352.208 207.912 352.062 207.999 351.93C208.424 351.272 208.862 350.658 209.272 350.146C209.389 349.985 209.521 349.839 209.623 349.707C210.281 349.707 211.291 349.766 212.447 349.897L212.461 349.868ZM319.18 347.119C319.619 346.928 320.058 346.753 320.468 346.563C321.228 346.226 321.989 345.875 322.706 345.524C322.706 345.788 322.706 346.066 322.706 346.343C322.706 347.338 322.662 348.362 322.589 349.371C322.457 351.374 322.238 353.232 321.887 354.255C321.579 354.533 321.038 354.84 320.336 355.147C319.604 355.469 318.668 355.806 317.556 356.157C304.8 360.149 268.681 365.472 246.649 365.472C243.387 365.472 239.964 365.37 236.467 365.195C236.277 363.44 236.014 361.831 235.692 360.383C235.56 359.783 235.4 359.199 235.239 358.643C249.78 359.008 264.424 358.277 278.862 356.449C281.876 356.069 284.904 355.615 287.933 355.133C293.214 354.285 298.495 353.319 303.717 352.179C308.53 351.14 314.206 349.254 319.195 347.119H319.18ZM227.997 354.563C228.407 354.84 228.948 355.352 229.504 356.244C229.68 356.522 229.855 356.844 230.031 357.195C230.221 357.575 230.396 357.999 230.587 358.482C230.777 358.979 230.952 359.549 231.128 360.178C231.479 361.465 231.801 363.045 232.035 364.946C232.123 365.633 232.196 366.365 232.254 367.14C232.313 367.842 232.357 368.573 232.401 369.348C232.532 372.302 232.518 375.827 232.284 380.039L232.093 389.384C227.763 389.954 223.111 390.261 221.326 389.954C220.917 386.693 221.268 376.397 221.707 368.485C221.751 367.769 221.795 367.052 221.824 366.379C221.824 366.35 221.824 366.321 221.824 366.291C221.824 366.291 221.824 366.291 221.824 366.277V366.248C221.824 365.604 221.912 364.888 222.043 364.142C222.307 362.723 222.76 361.187 223.301 359.696C223.492 359.169 223.696 358.643 223.901 358.131C224.077 357.692 224.252 357.268 224.442 356.859C224.574 356.566 224.706 356.274 224.823 355.996C225.159 355.264 225.466 354.621 225.73 354.095C225.876 354.065 226.052 354.051 226.242 354.051C226.403 354.051 226.564 354.065 226.725 354.08C227.12 354.138 227.544 354.285 227.997 354.592V354.563ZM174.001 346.987C174.704 347.309 175.479 347.645 176.342 348.011C176.956 348.274 177.571 348.523 178.171 348.771C178.068 349.444 177.995 350.087 177.995 350.687C177.995 351.418 178.039 352.076 178.2 352.632C178.2 352.939 178.229 353.319 178.346 353.714C178.419 353.963 178.507 354.241 178.639 354.519C179.165 355.615 180.146 356.639 181.579 357.561C179.765 357.093 178.185 356.639 176.883 356.215C175.684 355.82 174.718 355.44 174.016 355.074C173.475 354.797 173.094 354.548 172.86 354.299C172.363 353.012 172.027 351.228 171.866 349.385C171.778 348.376 171.749 347.353 171.778 346.358C171.778 346.212 171.778 346.051 171.778 345.905C172.29 346.168 172.89 346.46 173.548 346.768C173.694 346.841 173.855 346.914 174.001 346.972V346.987Z" fill="#153668"/>
<path d="M182.398 350.087C185.763 350.219 189.918 351.623 193.985 353.451C194.306 353.597 194.643 353.758 194.965 353.904C197.188 354.957 199.368 356.113 201.358 357.239C201.416 356.581 201.548 355.923 201.709 355.294C201.767 355.045 201.84 354.811 201.914 354.563C202.06 354.095 202.221 353.641 202.411 353.188C202.616 352.691 202.835 352.208 203.069 351.74C203.172 351.535 203.289 351.33 203.406 351.126C203.786 350.438 204.166 349.795 204.547 349.225C198.827 344.94 192.01 340.464 188.835 340.055C188.469 340.011 187.372 339.865 185.895 341.561C184.798 342.819 183.964 344.486 183.393 346.095C183.13 346.812 182.925 347.528 182.764 348.186C182.735 348.318 182.706 348.449 182.676 348.581C182.559 349.137 182.472 349.634 182.413 350.073L182.398 350.087Z" fill="#86B6FF"/>
<path d="M225.717 354.065C225.454 354.592 225.132 355.235 224.81 355.967C224.678 356.244 224.561 356.537 224.43 356.829C224.254 357.239 224.078 357.663 223.888 358.102C223.683 358.614 223.479 359.14 223.288 359.667C222.747 361.158 222.279 362.694 222.03 364.112C221.899 364.858 221.811 365.575 221.811 366.218V366.248C221.811 366.248 221.811 366.248 221.811 366.262C221.811 366.292 221.811 366.321 221.811 366.35C221.767 367.023 221.723 367.739 221.694 368.456C221.24 376.368 220.904 386.664 221.314 389.925C223.084 390.232 227.75 389.925 232.081 389.355L232.271 380.009C232.519 375.798 232.534 372.273 232.388 369.319C232.359 368.544 232.3 367.812 232.241 367.11C232.183 366.335 232.11 365.604 232.022 364.917C231.788 363.001 231.481 361.436 231.115 360.149C230.939 359.52 230.764 358.95 230.574 358.453C230.398 357.97 230.208 357.546 230.018 357.166C229.842 356.815 229.667 356.493 229.491 356.215C228.935 355.323 228.394 354.811 227.984 354.533C227.546 354.226 227.107 354.08 226.712 354.021C226.551 354.021 226.39 354.007 226.229 353.992C226.039 353.992 225.863 354.007 225.717 354.036V354.065Z" fill="#86B6FF"/>
<path d="M208.001 351.916C207.913 352.047 207.84 352.194 207.752 352.325C207.43 352.852 207.123 353.407 206.845 353.978C206.67 354.358 206.509 354.738 206.348 355.119C206.231 355.426 206.114 355.747 206.026 356.055C205.836 356.698 205.719 357.342 205.704 357.97C205.675 358.687 205.777 359.389 206.041 360.032C206.099 360.193 206.172 360.354 206.26 360.5C206.45 360.837 206.699 361.144 206.991 361.436C207.401 361.861 207.898 362.212 208.469 362.519C209.098 362.87 209.8 363.148 210.561 363.367C210.619 363.382 210.678 363.396 210.736 363.411C211.38 363.586 212.053 363.732 212.726 363.849C214.306 364.098 215.901 364.186 217.232 364.157C217.363 364.157 217.48 364.157 217.612 364.157C217.641 363.996 217.671 363.82 217.7 363.659C217.934 362.226 218.329 360.734 218.797 359.301C218.841 359.184 218.87 359.082 218.914 358.965C219.06 358.541 219.207 358.117 219.353 357.707C219.514 357.283 219.675 356.859 219.836 356.449C219.953 356.142 220.084 355.864 220.201 355.572C220.231 355.513 220.245 355.455 220.275 355.396C220.553 354.738 220.831 354.139 221.079 353.612C221.108 353.554 221.123 353.51 221.152 353.466C221.255 353.232 221.372 352.998 221.46 352.808C221.196 352.618 220.904 352.472 220.626 352.311C218.036 350.775 214.891 350.117 212.463 349.854C211.307 349.722 210.298 349.678 209.639 349.664C209.522 349.795 209.405 349.956 209.288 350.102C208.879 350.614 208.44 351.228 208.015 351.887L208.001 351.916Z" fill="#86B6FF"/>
<path d="M224.867 443.597C224.589 443.685 224.311 443.773 224.019 443.831C224.019 443.831 223.989 443.831 223.975 443.831C221.883 444.168 219.674 443.363 218.416 441.579C218.108 441.155 217.684 440.833 217.201 440.643C217.187 440.643 217.172 440.628 217.143 440.614C216.47 440.365 215.709 440.351 215.022 440.614C215.022 440.614 215.022 440.614 215.007 440.614C215.007 440.614 214.992 440.614 214.978 440.614C214.817 440.672 214.656 440.76 214.51 440.848C214.085 441.111 213.764 441.491 213.573 441.901C213.427 442.193 213.339 442.53 213.325 442.851C213.295 443.319 213.412 443.787 213.676 444.212C213.705 444.255 213.705 444.299 213.734 444.343H213.764C215.826 447.283 220.274 448.087 223.448 446.113C224.648 445.367 225.54 444.299 226.037 443.042C225.935 443.1 225.818 443.144 225.716 443.202C225.496 443.319 225.291 443.436 225.057 443.524C224.999 443.553 224.926 443.553 224.867 443.583V443.597Z" fill="#E8FDB0"/>
<path d="M213.062 438.508C213.34 438.333 213.618 438.201 213.911 438.084C213.999 438.055 214.087 438.026 214.174 437.982C214.394 437.909 214.628 437.836 214.862 437.792C214.95 437.777 215.037 437.748 215.14 437.733C215.447 437.689 215.754 437.645 216.061 437.645C216.31 437.645 216.544 437.704 216.778 437.733C216.939 437.748 217.1 437.748 217.261 437.792C217.378 437.821 217.48 437.85 217.598 437.894C217.875 437.967 218.153 438.07 218.417 438.187C218.548 438.245 218.665 438.304 218.782 438.362C219.031 438.494 219.28 438.655 219.514 438.83C219.616 438.903 219.719 438.976 219.806 439.049C219.938 439.152 220.026 439.298 220.143 439.415C220.319 439.591 220.509 439.751 220.655 439.956C220.699 440.015 220.757 440.073 220.801 440.132C221.694 441.17 223.361 441.448 224.561 440.687C224.634 440.644 224.707 440.585 224.78 440.527C225.014 440.351 225.205 440.146 225.351 439.912C225.424 439.795 225.497 439.678 225.556 439.561C225.57 439.517 225.585 439.459 225.6 439.415C225.643 439.313 225.687 439.196 225.702 439.093C225.731 438.932 225.746 438.772 225.746 438.611C225.746 438.596 225.746 438.567 225.746 438.552C225.746 438.421 225.731 438.274 225.702 438.143C225.702 438.099 225.673 438.055 225.658 438.011C225.629 437.909 225.6 437.821 225.57 437.719C225.57 437.719 225.57 437.689 225.57 437.675C225.541 437.616 225.512 437.572 225.483 437.514C225.439 437.411 225.38 437.324 225.322 437.221C224.634 436.242 223.698 435.51 222.63 435.028C221.708 434.604 220.699 434.355 219.675 434.326C219.075 434.326 218.475 434.384 217.875 434.516C217.1 434.691 216.339 434.969 215.652 435.408C215.403 435.554 215.184 435.73 214.979 435.92C214.13 436.622 213.472 437.499 213.062 438.494V438.508Z" fill="#F93526"/>
<path d="M279.844 443.597C279.566 443.685 279.288 443.773 278.995 443.831C278.995 443.831 278.966 443.831 278.951 443.831C276.859 444.168 274.65 443.363 273.392 441.579C273.07 441.126 272.631 440.804 272.119 440.614C271.447 440.365 270.686 440.351 269.998 440.614C269.998 440.614 269.998 440.614 269.984 440.614C269.984 440.614 269.969 440.614 269.954 440.614C269.793 440.672 269.633 440.76 269.486 440.848C268.755 441.316 268.331 442.076 268.301 442.851C268.272 443.319 268.389 443.787 268.652 444.212C268.682 444.255 268.682 444.299 268.711 444.343H268.74C270.803 447.283 275.25 448.087 278.425 446.113C279.624 445.367 280.517 444.299 281.014 443.042C280.912 443.1 280.794 443.144 280.692 443.202C280.473 443.319 280.253 443.436 280.034 443.524C279.975 443.553 279.902 443.553 279.844 443.568V443.597Z" fill="#E8FDB0"/>
<path d="M268.419 437.747C268.273 437.996 268.141 438.245 268.039 438.508C268.317 438.332 268.595 438.201 268.888 438.084C268.975 438.055 269.063 438.025 269.151 437.981C269.37 437.908 269.604 437.835 269.838 437.791C269.926 437.777 270.014 437.747 270.116 437.733C270.424 437.689 270.731 437.645 271.038 437.645C271.448 437.645 271.843 437.704 272.252 437.777C272.369 437.806 272.472 437.835 272.589 437.879C272.867 437.952 273.145 438.055 273.408 438.172C273.54 438.23 273.657 438.288 273.774 438.347C274.022 438.479 274.271 438.64 274.505 438.815C274.608 438.888 274.71 438.961 274.798 439.034C274.915 439.137 275.017 439.268 275.12 439.385C275.295 439.575 275.485 439.736 275.646 439.956C275.719 440.043 275.792 440.131 275.866 440.219C276.626 441.023 277.841 441.316 278.908 440.979C279.128 440.906 279.347 440.819 279.552 440.687C279.64 440.628 279.713 440.57 279.801 440.497C280.123 440.234 280.386 439.912 280.547 439.546C280.562 439.502 280.576 439.444 280.591 439.4C280.635 439.298 280.679 439.181 280.693 439.078C280.722 438.917 280.737 438.757 280.737 438.596C280.737 438.581 280.737 438.552 280.737 438.537C280.737 438.537 280.737 438.537 280.737 438.523C280.737 438.391 280.722 438.259 280.693 438.128C280.693 438.084 280.664 438.04 280.649 437.996C280.62 437.879 280.591 437.777 280.547 437.674C280.518 437.616 280.488 437.572 280.459 437.513C280.415 437.411 280.357 437.323 280.298 437.221C279.815 436.534 279.201 435.963 278.513 435.51C276.509 434.194 273.832 433.945 271.565 434.939C271.243 435.086 270.921 435.217 270.628 435.407C269.692 436.007 268.946 436.797 268.419 437.718V437.747Z" fill="#F93526"/>
</g>
<defs>
<clipPath id="clip0_172_57020">
<rect width="124.43" height="120.416" fill="white" transform="translate(352.57 84.9429)"/>
</clipPath>
<clipPath id="clip1_172_57020">
<rect width="273.183" height="379.041" fill="white" transform="translate(110 84.9429)"/>
</clipPath>
</defs>
</svg>
