<svg width="536" height="536" viewBox="0 0 536 536" fill="none" xmlns="http://www.w3.org/2000/svg">
<g clip-path="url(#clip0_186_57310)">
<path d="M246.501 399.296C200.762 399.296 163.677 378.066 163.677 332.816C163.677 311.539 162.927 290.106 165.145 268.908C165.161 268.704 165.192 268.484 165.208 268.28C165.957 261.256 169.019 253.793 172.081 247.443C178.189 234.774 187.702 223.846 199.543 216.116C211.603 208.245 225.74 203.855 240.128 202.961C242.252 202.836 244.377 202.773 246.501 202.789C292.24 202.789 329.325 239.478 329.325 284.728V332.816C329.325 378.066 292.24 399.296 246.501 399.296Z" fill="#FC5230"/>
<path d="M246.501 402.431C193.482 402.431 160.552 375.761 160.552 332.816C160.552 328.52 160.521 324.208 160.49 319.896C160.365 303.057 160.24 285.653 162.036 268.578L162.099 267.936C162.958 259.908 166.597 251.614 169.253 246.079C175.658 232.767 185.546 221.51 197.825 213.482C210.056 205.501 224.615 200.766 239.924 199.825C242.111 199.684 244.345 199.637 246.516 199.653C293.896 199.653 332.449 237.816 332.449 284.728V332.816C332.449 375.761 299.519 402.431 246.501 402.431ZM245.845 205.909C244.001 205.909 242.142 205.971 240.299 206.081C226.068 206.959 212.555 211.349 201.214 218.734C189.873 226.135 180.766 236.53 174.861 248.807C172.409 253.918 169.05 261.538 168.285 268.61L168.222 269.237C166.472 285.951 166.597 303.182 166.722 319.849C166.754 324.177 166.785 328.489 166.785 332.816C166.785 379.524 207.963 396.16 246.485 396.16C285.007 396.16 326.185 379.524 326.185 332.816V284.728C326.185 241.281 290.428 205.924 246.485 205.924C246.266 205.924 246.048 205.924 245.845 205.924V205.909Z" fill="#17386C"/>
<path d="M164.426 276.982C166.082 250.406 173.205 221.259 192.201 201.675C197.184 196.548 204.479 191.045 211.758 190.23C224.349 188.834 231.004 210.534 231.004 210.534" fill="#FC5230"/>
<path d="M164.428 280.118C164.428 280.118 164.303 280.118 164.224 280.118C162.506 280.009 161.194 278.519 161.303 276.794C162.756 253.511 168.911 221.196 189.953 199.496C193.999 195.31 202.184 188.144 211.401 187.125C226.382 185.479 233.677 208.637 233.974 209.625C234.489 211.271 233.552 213.027 231.912 213.545C230.256 214.046 228.522 213.121 228.006 211.475C227.944 211.287 221.805 192.268 212.088 193.366C204.528 194.197 197.217 201.001 194.42 203.871C174.706 224.191 168.911 254.953 167.521 277.186C167.411 278.848 166.037 280.134 164.412 280.134L164.428 280.118Z" fill="#17386C"/>
<path d="M264.516 209.875C264.516 209.875 268.843 188.175 281.434 189.571C297.555 191.358 310.786 209.468 317.831 222.481C329.016 243.162 329.344 266.43 329.141 289.337" fill="#FC5230"/>
<path d="M329.14 292.473H329.109C327.39 292.473 326 291.047 326.016 289.306C326.234 265.004 325.547 243.319 315.081 223.971C311.363 217.104 297.928 194.557 281.089 192.691C271.591 191.625 267.623 210.315 267.576 210.503C267.233 212.196 265.577 213.294 263.89 212.964C262.202 212.619 261.109 210.973 261.437 209.28C261.64 208.276 266.53 184.805 281.76 186.467C301.084 188.615 315.331 211.318 320.564 220.992C331.749 241.657 332.467 264.188 332.249 289.369C332.249 291.094 330.843 292.473 329.124 292.473H329.14Z" fill="#17386C"/>
<path d="M222.493 248.353C214.932 248.353 208.793 259.297 208.793 272.796C208.793 286.296 214.917 297.24 222.493 297.24C225.352 297.24 228.007 295.672 230.21 292.991C233.818 288.585 236.193 281.185 236.193 272.796C236.193 269.206 235.755 265.819 234.974 262.746C232.819 254.264 228.054 248.353 222.509 248.353H222.493Z" fill="white"/>
<path d="M222.492 299.968C213.276 299.968 206.074 288.021 206.074 272.78C206.074 257.54 213.291 245.593 222.492 245.593C229.241 245.593 235.036 251.896 237.614 262.056C238.473 265.474 238.91 269.08 238.91 272.78C238.91 281.467 236.442 289.667 232.318 294.716C229.506 298.149 226.101 299.968 222.492 299.968ZM222.492 251.096C216.041 251.096 211.542 262.526 211.542 272.796C211.542 283.066 216.041 294.496 222.492 294.496C224.914 294.496 226.882 292.724 228.1 291.235C231.459 287.143 233.458 280.244 233.458 272.796C233.458 269.551 233.068 266.399 232.318 263.42C230.444 256.051 226.507 251.096 222.492 251.096Z" fill="#17386C"/>
<path d="M284.197 262.902C282.041 254.42 277.277 248.509 271.731 248.509C264.17 248.509 258.031 259.453 258.031 272.953C258.031 286.452 264.155 297.396 271.731 297.396C274.59 297.396 277.246 295.829 279.448 293.147C283.057 288.742 285.431 281.341 285.431 272.953C285.431 269.362 284.994 265.975 284.213 262.902H284.197Z" fill="white"/>
<path d="M271.731 300.14C262.514 300.14 255.312 288.193 255.312 272.953C255.312 257.713 262.53 245.765 271.731 245.765C278.479 245.765 284.274 252.068 286.852 262.228C287.711 265.646 288.164 269.253 288.164 272.953C288.164 281.639 285.696 289.839 281.572 294.888C278.76 298.322 275.355 300.14 271.746 300.14H271.731ZM271.731 251.253C265.279 251.253 260.78 262.683 260.78 272.953C260.78 283.223 265.279 294.653 271.731 294.653C274.167 294.653 276.12 292.881 277.339 291.391C280.697 287.299 282.697 280.4 282.697 272.953C282.697 269.707 282.306 266.556 281.556 263.577C279.682 256.207 275.745 251.253 271.731 251.253Z" fill="#17386C"/>
<path d="M250.501 297.24C249.752 297.24 249.127 296.644 249.095 295.892C249.08 295.484 248.861 293.446 247.112 293.446C245.128 293.446 244.565 295.594 244.503 295.845C244.331 296.597 243.581 297.083 242.816 296.911C242.066 296.738 241.582 296.002 241.753 295.233C242.097 293.634 243.675 290.608 247.112 290.608C250.548 290.608 251.829 293.979 251.907 295.751C251.939 296.535 251.345 297.193 250.564 297.225C250.548 297.225 250.517 297.225 250.501 297.225V297.24Z" fill="#213E7A"/>
<path d="M250.501 298.008C249.329 298.008 248.36 297.083 248.314 295.907C248.298 295.515 248.142 294.214 247.111 294.214C245.72 294.214 245.314 295.829 245.267 296.001C245.002 297.177 243.815 297.914 242.659 297.648C241.487 297.381 240.737 296.205 241.003 295.045C241.393 293.226 243.19 289.808 247.126 289.808C251.328 289.808 252.609 293.665 252.703 295.703C252.75 296.911 251.813 297.946 250.61 297.993H250.516L250.501 298.008ZM247.111 292.646C249.016 292.646 249.782 294.355 249.876 295.829C249.891 296.174 250.172 296.44 250.501 296.44C250.875 296.425 251.141 296.127 251.125 295.782C251.063 294.261 250.126 291.376 247.111 291.376C244.096 291.376 242.815 293.994 242.518 295.374C242.44 295.703 242.659 296.048 243.002 296.127C243.33 296.19 243.674 295.986 243.752 295.656C243.815 295.343 244.518 292.646 247.111 292.646Z" fill="#213E7A"/>
<path d="M247.157 358.326C247.047 358.326 246.922 358.326 246.813 358.326C246.704 358.326 246.579 358.326 246.469 358.326C201.23 357.996 164.973 349.122 164.973 349.122C167.003 373.644 168.113 381.092 178.469 403.513C181.953 411.039 182.359 420.305 182.359 420.305L231.895 423.598C231.895 423.598 233.097 403.983 246.454 403.983C246.579 403.983 246.688 404.015 246.797 404.015C246.922 404.015 247.016 403.983 247.141 403.983C255.639 403.983 266.386 411.055 266.386 411.055H306.518C306.518 411.055 308.923 412.497 312.954 405.253C325.498 382.66 328.637 373.644 328.637 349.122C328.637 349.122 292.38 357.981 247.141 358.326H247.157Z" fill="#00A0A0"/>
<path d="M231.911 426.75C231.911 426.75 231.771 426.75 231.708 426.75L182.173 423.457C180.595 423.347 179.33 422.062 179.252 420.478C179.252 420.384 178.799 411.698 175.643 404.846C164.927 381.641 163.865 373.629 161.865 349.389C161.787 348.385 162.193 347.398 162.943 346.739C163.708 346.08 164.739 345.83 165.708 346.08C166.067 346.175 202.168 354.861 246.486 355.19H246.642C246.642 355.19 246.829 355.19 246.861 355.19H247.158C291.507 354.861 327.561 346.175 327.92 346.08C328.857 345.845 329.841 346.08 330.591 346.661C331.341 347.256 331.778 348.166 331.778 349.122C331.778 374.272 328.357 384.008 315.704 406.79C313.33 411.055 310.971 413.454 308.487 414.128C307.503 414.395 306.69 414.348 306.066 414.191H266.419C265.809 414.191 265.216 414.018 264.716 413.673C264.622 413.611 254.734 407.182 247.283 407.119C247.095 407.135 246.923 407.151 246.829 407.151C246.783 407.151 246.751 407.151 246.705 407.151C246.58 407.151 246.47 407.151 246.361 407.119C236.238 407.245 235.051 423.63 235.051 423.802C235.004 424.633 234.614 425.417 233.989 425.966C233.411 426.468 232.692 426.75 231.927 426.75H231.911ZM185.25 417.374L229.146 420.29C230.458 412.231 235.16 400.863 246.455 400.863C246.58 400.863 246.689 400.863 246.798 400.863C246.892 400.863 247.017 400.863 247.142 400.863C255.14 400.863 264.497 406.21 267.278 407.935H306.503C306.675 407.935 306.831 407.935 306.987 407.966C307.425 407.684 308.549 406.696 310.205 403.733C321.734 382.989 325.124 374.052 325.467 353.042C314.845 355.3 283.743 361.195 247.158 361.462H246.845H246.439C210.197 361.195 179.33 355.41 168.426 353.105C170.207 373.676 171.628 381.28 181.298 402.196C183.813 407.653 184.844 413.862 185.235 417.358L185.25 417.374Z" fill="#17386C"/>
<path d="M271.541 427.895V440.767C269.979 463.659 289.646 468.864 300.659 468.864C311.672 468.864 325.122 466.669 325.122 454.047C325.122 439.528 309.157 431.908 309.157 431.908" fill="#FFCA3F"/>
<path d="M226.585 427.894V440.767C228.147 463.658 208.48 468.864 197.467 468.864C186.454 468.864 173.004 466.669 173.004 454.047C173.004 439.528 188.532 433.131 188.532 433.131L190.609 424.743" fill="#FFCA3F"/>
<path d="M271.465 431.908C273.293 434.574 284.524 447.18 286.383 449.83C291.382 445.831 295.506 443.088 302.067 443.291C302.067 443.291 311.362 443.448 316.907 448.779L308.581 429.995L309.565 417.452L272.043 421.654L271.449 431.908" fill="#FC5230"/>
<path d="M286.383 452.181C286.273 452.181 286.164 452.181 286.055 452.15C285.414 452.056 284.836 451.695 284.477 451.178C283.649 449.986 280.478 446.286 277.4 442.711C273.87 438.603 270.543 434.73 269.543 433.241C268.809 432.175 269.09 430.701 270.152 429.964C271.23 429.227 272.683 429.509 273.417 430.575C274.276 431.845 277.822 435.985 280.962 439.622C283.196 442.241 285.352 444.749 286.804 446.521C291.163 443.213 295.615 440.704 302.16 440.924C302.41 440.924 306.597 441.033 311.189 442.68L306.722 433.931C306.128 432.77 306.581 431.359 307.737 430.763C308.893 430.168 310.299 430.622 310.893 431.783L319.016 447.697C319.531 448.716 319.25 449.97 318.328 450.66C317.422 451.35 316.141 451.272 315.313 450.472C310.471 445.831 302.129 445.627 302.051 445.627C296.146 445.47 292.428 448.01 287.867 451.648C287.445 451.977 286.929 452.165 286.414 452.165L286.383 452.181Z" fill="#17386C"/>
<path d="M300.585 472C296.742 472 283.573 471.294 275.106 462.184C270.029 456.728 267.764 449.5 268.342 440.657V427.894C268.342 426.169 269.748 424.758 271.466 424.758C273.185 424.758 274.591 426.169 274.591 427.894V440.767C274.591 440.767 274.591 440.908 274.591 440.986C274.106 448.058 275.825 453.765 279.683 457.904C286.432 465.164 297.398 465.728 300.6 465.728C321.939 465.728 321.939 456.932 321.939 454.047C321.939 441.723 307.88 434.809 307.739 434.73C306.193 433.978 305.521 432.112 306.271 430.544C307.021 428.976 308.879 428.317 310.426 429.054C311.145 429.399 328.187 437.709 328.187 454.031C328.187 462.216 323.407 471.984 300.6 471.984L300.585 472Z" fill="#17386C"/>
<path d="M271.464 431.03C269.746 431.03 268.34 429.619 268.34 427.894V417.295C268.34 415.57 269.746 414.159 271.464 414.159C273.182 414.159 274.588 415.57 274.588 417.295V427.894C274.588 429.619 273.182 431.03 271.464 431.03Z" fill="#17386C"/>
<path d="M309.081 435.044C307.363 435.044 305.957 433.633 305.957 431.908V413.626C305.957 411.901 307.363 410.49 309.081 410.49C310.8 410.49 312.206 411.901 312.206 413.626V431.908C312.206 433.633 310.8 435.044 309.081 435.044Z" fill="#17386C"/>
<path d="M228.38 430.215C226.552 432.88 214.758 447.18 212.915 449.83C207.916 445.831 203.792 443.087 197.231 443.291C197.231 443.291 187.936 443.448 182.391 448.779L191.81 427.377" fill="#FC5230"/>
<path d="M212.9 452.181C212.369 452.181 211.853 452.009 211.447 451.664C206.885 448.01 203.183 445.455 197.294 445.643C197.185 445.643 188.796 445.878 184 450.488C183.172 451.287 181.876 451.366 180.954 450.66C180.032 449.955 179.767 448.685 180.314 447.666L188.062 433.288C188.687 432.143 190.092 431.72 191.233 432.347C192.373 432.974 192.795 434.401 192.17 435.53L188.359 442.601C192.857 441.033 196.903 440.939 197.169 440.924C203.699 440.72 208.135 443.213 212.493 446.521C213.946 444.749 216.102 442.241 218.336 439.638C221.476 435.985 225.022 431.845 225.881 430.575C226.615 429.509 228.068 429.227 229.13 429.964C230.192 430.701 230.474 432.159 229.739 433.225C228.724 434.699 225.397 438.587 221.866 442.695C218.805 446.27 215.633 449.955 214.805 451.162C214.431 451.695 213.868 452.04 213.228 452.134C213.118 452.15 213.009 452.165 212.9 452.165V452.181Z" fill="#17386C"/>
<path d="M198.701 472C175.893 472 171.113 462.232 171.113 454.047C171.113 440.297 182.845 433.084 187.078 430.92L188.797 423.99C189.218 422.313 190.921 421.293 192.577 421.701C194.248 422.124 195.28 423.818 194.858 425.495L192.78 433.884C192.546 434.856 191.858 435.656 190.937 436.032C190.812 436.095 177.346 441.849 177.346 454.047C177.346 456.932 177.346 465.728 198.685 465.728C201.887 465.728 212.838 465.164 219.602 457.904C223.46 453.749 225.179 448.058 224.694 440.986C224.694 440.924 224.694 440.845 224.694 440.767V427.894C224.694 426.17 226.1 424.759 227.819 424.759C229.537 424.759 230.943 426.17 230.943 427.894V440.657C231.521 449.485 229.256 456.728 224.179 462.185C215.712 471.294 202.528 472 198.701 472Z" fill="#17386C"/>
<path d="M180.816 413.627C180.816 413.627 180.816 422.47 182.613 425.088C182.613 425.088 208.607 433.476 231.539 427.597C231.539 427.597 233.164 427.314 233.273 419.647C233.273 419.647 222.51 420.917 210.403 420.588C210.403 420.588 187.987 419.146 180.816 413.611V413.627Z" fill="#82CBC4"/>
<path d="M213.496 432.065C196.812 432.065 182.69 427.597 181.894 427.33C181.394 427.173 180.972 426.86 180.675 426.421C178.629 423.442 178.473 415.869 178.473 413.626C178.473 412.733 178.988 411.917 179.785 411.51C180.582 411.118 181.534 411.212 182.253 411.761C187.674 415.947 204.513 417.86 210.559 418.252C222.259 418.565 232.897 417.327 233.007 417.311C233.678 417.233 234.35 417.452 234.85 417.907C235.35 418.361 235.631 419.004 235.631 419.694C235.569 423.755 235.131 429.211 232.069 429.901C225.883 431.485 219.526 432.065 213.496 432.065ZM184.237 423.128C188.923 424.492 210.778 430.215 230.226 425.511C230.382 425.072 230.648 424.116 230.804 422.281C226.821 422.642 218.948 423.206 210.34 422.971C208.231 422.846 192.516 421.717 183.331 417.734C183.518 419.945 183.831 421.999 184.237 423.128ZM231.132 425.292C231.132 425.292 231.085 425.292 231.07 425.292C231.085 425.292 231.117 425.292 231.132 425.292Z" fill="#17386C"/>
<path d="M316.908 399.295C316.908 399.295 318.095 412.215 313.893 415.492C313.893 415.492 279.87 426.656 264.592 419.725C261.249 418.204 262.999 415.335 262.687 413.626C262.39 412.074 258.734 408.875 258.719 406.963C258.719 406.963 273.95 409.205 286.025 408.295C294.07 407.684 309.738 404.83 316.908 399.295Z" fill="#82CBC4"/>
<path d="M277.964 424.335C272.606 424.335 267.576 423.661 263.639 421.873C259.655 420.07 260.093 416.636 260.312 414.99C260.358 414.677 260.405 414.206 260.39 414.065C260.296 413.861 259.577 412.936 259.093 412.325C257.765 410.631 256.406 408.875 256.375 407.025C256.375 406.335 256.656 405.677 257.172 405.222C257.687 404.767 258.375 404.564 259.062 404.658C259.218 404.673 274.183 406.853 285.852 405.975C293.835 405.363 308.925 402.525 315.486 397.461C316.158 396.943 317.064 396.834 317.861 397.163C318.642 397.508 319.173 398.245 319.251 399.107C319.47 401.475 320.298 413.501 315.346 417.373C315.127 417.546 314.893 417.671 314.627 417.75C313.549 418.095 294.241 424.366 277.964 424.366V424.335ZM263.17 409.894C264.061 411.055 264.795 412.105 265.014 413.203C265.17 414.049 265.06 414.865 264.967 415.586C264.764 417.217 264.842 417.248 265.576 417.577C278.917 423.629 308.66 414.677 312.721 413.391C314.158 411.854 314.705 407.449 314.736 403.435C306.113 408.013 292.82 410.13 286.212 410.631C278.073 411.243 268.7 410.49 263.17 409.879V409.894Z" fill="#17386C"/>
<path d="M164.241 341.408C164.21 343.149 179.019 348.652 180.128 348.981C195.312 353.575 211.152 355.911 226.804 356.68C244.55 357.542 262.359 356.852 280.011 354.594C288.837 353.465 297.616 351.96 306.348 350.063C313.347 348.542 322.844 345.108 329.327 341.408C329.608 343.995 329.577 352.587 328.359 355.645C326.344 360.756 273.325 368.972 245.909 368.972C216.869 368.972 167.209 361.195 164.975 355.645C163.491 351.976 163.116 345.187 164.241 341.408Z" fill="#82CBC4"/>
<path d="M245.908 372.108C232.083 372.108 212.541 370.336 194.889 367.483C164.38 362.559 162.771 358.545 162.068 356.821C160.288 352.431 159.913 344.952 161.24 340.514C161.693 339.009 163.178 338.084 164.708 338.319C165.693 338.476 166.505 339.088 166.958 339.903C169.16 341.502 179.018 345.375 181.017 345.986C194.936 350.204 210.385 352.744 226.944 353.544C244.455 354.39 262.17 353.701 279.603 351.474C288.273 350.377 297.037 348.856 305.675 346.99C312.846 345.438 321.937 342.02 327.78 338.68C328.701 338.163 329.81 338.131 330.748 338.617C331.685 339.103 332.325 340.013 332.435 341.063C332.7 343.384 332.841 352.838 331.279 356.805C330.576 358.577 329.139 362.246 297.162 367.326C278.604 370.273 258.968 372.108 245.924 372.108H245.908ZM167.755 354.187C172.441 358.216 215.54 365.836 245.908 365.836C274.152 365.836 320.281 357.918 325.593 354.108C326.046 352.54 326.28 349.342 326.342 346.488C320.406 349.279 313.174 351.803 307.003 353.136C298.193 355.049 289.242 356.586 280.4 357.714C262.607 359.988 244.518 360.694 226.647 359.815C209.589 358.984 193.624 356.35 179.221 351.992C178.549 351.788 174.503 350.314 170.535 348.621C169.051 347.993 167.786 347.429 166.708 346.896C166.708 349.499 167.083 352.305 167.77 354.187H167.755Z" fill="#17386C"/>
<path d="M208.243 351.976C208.243 351.976 191.434 337.943 184.483 337.065C177.515 336.171 173.844 350.408 175.219 352.618C176.578 354.829 207.243 366.197 207.243 366.197L208.258 351.991L208.243 351.976Z" fill="#82CBC4"/>
<path d="M207.229 368.533C206.963 368.533 206.682 368.486 206.416 368.392C175.002 356.758 173.658 354.563 173.205 353.842C171.55 351.145 173.471 343.901 176.158 339.715C178.485 336.093 181.547 334.337 184.765 334.729C192.185 335.685 207.963 348.699 209.728 350.173C210.306 350.659 210.619 351.396 210.572 352.148L209.556 366.354C209.509 367.09 209.103 367.765 208.494 368.157C208.104 368.408 207.666 368.533 207.229 368.533ZM177.267 351.302C179.829 352.995 192.654 358.216 205.12 362.888L205.823 353.026C199.371 347.742 188.546 339.95 184.187 339.401C183.797 339.354 182.625 339.197 181.047 341.016C178.314 344.152 177.158 349.64 177.267 351.317V351.302Z" fill="#17386C"/>
<path d="M221.944 352.446C221.944 352.446 234.972 345.83 232.894 382.268L232.66 394.278C232.66 394.278 217.445 396.614 216.758 394.278C215.633 390.437 217.07 367.42 217.07 367.42L216.039 357.213L221.944 352.446Z" fill="#82CBC4"/>
<path d="M221.553 397.696C215.32 397.696 214.82 396.003 214.507 394.952C213.351 390.985 214.445 371.81 214.71 367.482L213.695 357.463C213.617 356.679 213.945 355.895 214.554 355.394L220.459 350.627C220.584 350.517 220.725 350.439 220.865 350.361C222.271 349.639 225.473 348.965 228.473 350.941C233.925 354.531 236.19 365.115 235.206 382.409L234.971 394.341C234.956 395.485 234.112 396.442 232.987 396.614C227.848 397.398 224.177 397.712 221.521 397.712L221.553 397.696ZM218.866 392.851C220.756 393.181 225.739 392.851 230.363 392.24L230.566 382.221C231.769 361.07 227.739 356.052 225.942 354.876C224.739 354.092 223.583 354.359 223.162 354.5L218.491 358.263L219.397 367.2C219.397 367.326 219.397 367.451 219.397 367.576C218.866 376.216 218.381 389.026 218.866 392.851Z" fill="#17386C"/>
<path d="M205.528 365.538C205.528 365.538 184.174 350.769 175.207 352.603C175.207 352.603 174.02 355.692 183.596 358.796C193.172 361.885 205.528 365.538 205.528 365.538Z" fill="#17386C"/>
<path d="M205.527 367.89C205.308 367.89 205.089 367.859 204.871 367.796C204.746 367.765 192.374 364.096 182.876 361.038C177.565 359.329 174.425 357.307 173.269 354.892C172.519 353.324 172.878 352.101 173.019 351.772C173.3 351.019 173.956 350.471 174.737 350.314C184.422 348.338 204.589 362.057 206.855 363.625C207.807 364.284 208.136 365.538 207.636 366.573C207.245 367.404 206.402 367.906 205.527 367.906V367.89ZM182.595 355.958C182.985 356.099 183.407 356.256 183.876 356.413C183.438 356.256 183.016 356.099 182.595 355.958Z" fill="#17386C"/>
<path d="M221.946 352.446C221.946 352.446 217.041 361.509 217.057 367.42C217.057 367.42 204.31 368.784 200.732 362.434C197.171 356.068 205.325 347.335 205.325 347.335C205.325 347.335 216.182 346.817 221.946 352.446Z" fill="#82CBC4"/>
<path d="M214.04 369.928C209.525 369.928 201.777 369.082 198.7 363.594C194.341 355.817 203.23 346.143 203.62 345.735C204.042 345.281 204.605 345.014 205.214 344.998C205.698 344.983 217.164 344.512 223.569 350.768C224.319 351.505 224.491 352.65 223.991 353.575C222.71 355.958 219.382 363.077 219.398 367.42C219.398 368.627 218.492 369.646 217.305 369.772C216.914 369.819 215.696 369.928 214.04 369.928ZM206.401 349.687C204.277 352.258 200.777 357.714 202.793 361.289C204.714 364.707 211.056 365.319 214.899 365.209C215.524 360.756 217.758 355.66 219.023 353.058C214.883 350.11 208.76 349.734 206.401 349.687Z" fill="#17386C"/>
<path d="M170.176 326.09C158.976 342.349 153.649 358.592 153.649 358.592C161.272 369.474 157.867 376.451 157.164 383.428C156.461 390.406 149.681 391.174 148.307 386.831C146.963 382.613 145.417 374.899 141.371 381.28C137.34 387.646 140.527 391.911 138.871 395.548C135.528 402.949 130.405 394.623 129.139 392.397C121.454 378.897 138.028 358.059 138.028 358.059C138.028 358.059 155.914 316.98 169.38 298.04" fill="#FC5230"/>
<path d="M135.574 401.679C132.434 401.679 129.356 399.076 126.435 393.949C118.359 379.775 132.746 359.815 135.261 356.523C136.917 351.772 149.196 317.168 160.802 299.435C161.755 297.992 163.692 297.585 165.129 298.541C166.567 299.498 166.973 301.442 166.02 302.884C154.226 320.884 141.119 358.686 140.994 359.063C140.885 359.392 140.713 359.721 140.479 359.988C136.245 365.334 126.435 381.296 131.856 390.829C133.418 393.573 134.777 394.89 135.418 395.282C135.558 395.109 135.777 394.78 136.027 394.231C136.355 393.51 136.277 392.428 136.183 391.048C135.996 388.21 135.73 384.306 138.729 379.587C139.401 378.52 141.463 375.291 144.775 375.745C148.415 376.247 149.711 380.59 150.836 384.432C150.992 384.933 151.133 385.419 151.273 385.874C151.367 386.156 151.492 386.423 151.992 386.376C152.867 386.282 153.835 385.247 154.054 383.114C154.194 381.688 154.444 380.292 154.679 378.944C155.632 373.409 156.538 368.172 151.101 360.395C150.539 359.58 150.383 358.561 150.695 357.62C150.914 356.946 156.288 340.749 167.613 324.302C168.597 322.875 170.534 322.515 171.956 323.502C173.377 324.49 173.737 326.434 172.753 327.861C163.817 340.828 158.678 353.904 157.131 358.138C163.036 367.357 161.818 374.334 160.849 379.994C160.63 381.296 160.412 382.534 160.287 383.726C159.724 389.37 156.053 392.24 152.664 392.6C149.305 392.945 146.368 391.017 145.337 387.771C145.181 387.285 145.025 386.768 144.868 386.219C144.619 385.404 144.259 384.165 143.884 383.162C142.135 386.046 142.291 388.273 142.447 390.625C142.572 392.522 142.713 394.67 141.744 396.818C139.995 400.675 137.589 401.569 135.871 401.647C135.777 401.647 135.699 401.647 135.605 401.647L135.574 401.679Z" fill="#17386C"/>
<path d="M262.703 413.626C262.703 413.626 271.389 415.084 278.465 414.771L262.703 413.626Z" fill="#82CBC4"/>
<path d="M276.323 417.17C269.653 417.17 262.639 416.009 262.311 415.947C261.03 415.727 260.171 414.52 260.389 413.234C260.608 411.948 261.827 411.086 263.092 411.306C263.17 411.306 271.606 412.717 278.37 412.419C279.651 412.293 280.76 413.36 280.822 414.661C280.885 415.962 279.885 417.06 278.588 417.123C277.854 417.154 277.089 417.17 276.339 417.17H276.323Z" fill="#17386C"/>
<path d="M276.619 250.814C271.385 250.814 267.011 258.105 265.902 267.857L270.417 271.777C270.698 272.028 270.729 272.608 270.464 272.906L265.934 277.923C267.09 287.582 271.432 294.763 276.619 294.763C282.695 294.763 287.616 284.932 287.616 272.796C287.616 260.66 282.695 250.83 276.619 250.83V250.814Z" fill="#17386C"/>
<path d="M227.224 250.814C221.991 250.814 217.617 258.105 216.508 267.857L221.022 271.777C221.304 272.028 221.335 272.608 221.069 272.906L216.539 277.923C217.695 287.582 222.038 294.763 227.224 294.763C233.301 294.763 238.221 284.932 238.221 272.796C238.221 260.66 233.301 250.83 227.224 250.83V250.814Z" fill="#17386C"/>
<path d="M234.566 255.847C234.566 255.847 229.629 245.169 215.304 240.81C200.98 236.467 196.184 233.378 196.184 233.378L202.292 240.434C202.292 240.434 192.435 235.871 189.498 232.924C186.561 229.976 193.669 247.929 204.307 251.002C214.945 254.075 234.55 255.847 234.55 255.847H234.566Z" fill="#17386C"/>
<path d="M234.566 256.631C234.566 256.631 234.519 256.631 234.504 256.631C234.301 256.615 214.711 254.828 204.104 251.77C194.935 249.121 188.28 235.966 188.061 233.081C187.999 232.297 188.389 231.999 188.624 231.905C189.28 231.607 189.873 232.187 190.061 232.375C191.795 234.116 196.106 236.483 199.199 238.051L195.606 233.896C195.357 233.598 195.357 233.159 195.606 232.877C195.856 232.579 196.294 232.516 196.622 232.736C196.669 232.767 201.543 235.825 215.539 240.074C230.036 244.464 235.082 255.079 235.285 255.533C235.41 255.784 235.378 256.082 235.222 256.317C235.082 256.521 234.832 256.647 234.582 256.647L234.566 256.631ZM190.045 234.429C191.576 238.349 197.122 248.117 204.542 250.265C213.305 252.789 228.396 254.451 233.16 254.938C231.364 252.037 225.99 244.887 215.086 241.579C207.338 239.227 202.371 237.251 199.418 235.903L202.902 239.933C203.152 240.215 203.152 240.622 202.933 240.92C202.714 241.218 202.324 241.312 201.98 241.156C201.605 240.983 193.794 237.361 190.045 234.429Z" fill="#17386C"/>
<path d="M259.734 255.847C259.734 255.847 264.671 245.169 278.995 240.811C293.32 236.467 298.116 233.379 298.116 233.379L292.008 240.434C292.008 240.434 301.865 235.872 304.802 232.924C307.739 229.961 300.631 247.929 289.993 251.002C279.355 254.075 259.75 255.847 259.75 255.847H259.734Z" fill="#17386C"/>
<path d="M259.733 256.631C259.483 256.631 259.249 256.506 259.093 256.302C258.937 256.066 258.905 255.769 259.03 255.518C259.233 255.063 264.279 244.464 278.776 240.058C292.772 235.809 297.646 232.752 297.693 232.72C298.021 232.516 298.459 232.579 298.708 232.861C298.958 233.159 298.958 233.598 298.708 233.88L295.116 238.035C298.209 236.468 302.536 234.1 304.254 232.36C304.441 232.171 305.019 231.591 305.691 231.889C305.926 231.999 306.316 232.297 306.254 233.065C306.035 235.934 299.38 249.105 290.21 251.755C279.619 254.812 260.014 256.6 259.811 256.615C259.78 256.615 259.764 256.615 259.749 256.615L259.733 256.631ZM294.897 235.903C291.944 237.236 286.977 239.227 279.229 241.579C268.325 244.887 262.951 252.037 261.155 254.938C265.919 254.452 281.009 252.805 289.773 250.265C297.193 248.117 302.739 238.365 304.27 234.429C300.521 237.361 292.694 240.983 292.335 241.156C292.007 241.312 291.601 241.218 291.382 240.92C291.163 240.623 291.179 240.215 291.413 239.933L294.912 235.903H294.897Z" fill="#17386C"/>
<path d="M399.655 325.463C398.546 326.748 397.437 328.144 396.469 329.665C393.079 334.902 390.017 341.879 388.158 344.764C386.299 347.633 381.722 346.002 379.426 344.387C377.129 342.773 374.036 339.041 376.083 336.297C378.129 333.537 383.612 328.269 387.346 323.268C388.424 321.825 389.361 320.304 390.173 318.799C390.689 317.858 391.173 316.918 391.61 316.04C392.891 313.484 393.844 311.289 394.735 310.144C396.437 307.98 399.765 308.184 404.107 308.906C406.279 312.763 407.622 315.836 406.185 318.172C405.435 319.395 403.717 321.073 401.78 323.142C401.092 323.863 400.374 324.632 399.671 325.447L399.655 325.463Z" fill="#213E7A"/>
<path d="M411.623 298.103C423.073 312.308 416.262 323.362 405.296 325.635C404.062 324.773 402.89 323.958 401.844 323.205L401.765 323.142C403.703 321.073 405.421 319.395 406.171 318.172C407.608 315.836 406.28 312.763 404.093 308.906C399.75 308.184 396.423 307.981 394.72 310.144C393.83 311.273 392.877 313.468 391.596 316.04L367.664 299.263C369.148 292.38 375.615 278.049 381.52 268.657C387.816 258.622 402.875 251.771 421.495 259.109C417.09 260.771 412.513 262.244 407.905 263.546C384.441 270.131 382.661 302.712 411.638 298.118L411.623 298.103Z" fill="#F93526"/>
<path d="M434.008 265.945C458.252 282.941 458.346 304.923 449.567 316.353C446.943 319.771 443.631 323.534 440.241 327.078C441.022 322.123 442.084 317.121 443.334 312.167C449.38 288.475 422.167 270.648 411.638 298.118C382.661 302.728 384.457 270.147 407.905 263.546C412.513 262.244 417.09 260.77 421.495 259.108C425.526 260.692 429.712 262.934 434.008 265.945Z" fill="#3B84F5"/>
<path d="M440.226 327.078C434.884 332.613 429.307 337.63 425.683 339.935C422.23 337.505 412.53 330.715 405.297 325.651C416.263 323.378 423.074 312.324 411.624 298.118C422.152 270.649 449.365 288.476 443.319 312.167C442.054 317.122 441.007 322.123 440.226 327.078Z" fill="#FFCA3F"/>
<path d="M384.972 349.467C382.238 349.467 379.411 348.213 377.645 346.959C375.552 345.485 372.912 342.631 372.397 339.433C372.1 337.598 372.522 335.874 373.6 334.415C374.568 333.114 376.115 331.421 377.895 329.476C380.192 326.968 382.8 324.114 384.847 321.386C385.737 320.21 386.581 318.877 387.424 317.309C387.471 317.215 387.518 317.121 387.581 317.043L365.883 301.834C364.852 301.113 364.352 299.843 364.617 298.604C366.179 291.36 372.834 276.591 378.88 266.979C388.565 251.535 408.357 250.563 422.651 256.192C427.025 257.917 431.461 260.331 435.804 263.373C451.566 274.427 456.377 286.531 457.627 294.731C458.939 303.355 456.908 311.931 452.05 318.266C449.441 321.653 446.145 325.447 442.49 329.257C436.694 335.278 431.039 340.248 427.368 342.584C426.306 343.258 424.947 343.227 423.9 342.506L402.218 327.297C402.218 327.297 402.093 327.438 402.03 327.501C400.828 328.896 399.875 330.151 399.094 331.358C397.235 334.227 395.469 337.661 393.907 340.703C392.704 343.055 391.658 345.093 390.767 346.457C389.783 347.962 388.315 348.95 386.487 349.311C385.987 349.405 385.472 349.452 384.956 349.452L384.972 349.467ZM371.225 297.93L393.392 313.468C394.657 314.346 395.079 316.024 394.407 317.419C393.954 318.344 393.439 319.332 392.892 320.32C391.908 322.139 390.908 323.722 389.83 325.149C387.612 328.128 384.894 331.091 382.488 333.71C380.879 335.466 379.364 337.112 378.583 338.163C378.536 338.21 378.52 338.241 378.551 338.429C378.692 339.354 379.911 340.907 381.207 341.816C382.504 342.725 384.394 343.337 385.3 343.164C385.472 343.133 385.487 343.102 385.534 343.055C386.253 341.957 387.268 339.966 388.346 337.849C389.971 334.682 391.814 331.091 393.829 327.971C394.766 326.513 395.891 325.024 397.281 323.409C398.016 322.546 398.766 321.747 399.484 320.994C400.624 319.787 402.499 319.693 403.764 320.759L425.681 336.124C428.915 333.71 433.429 329.602 437.959 324.898C441.443 321.261 444.599 317.654 447.067 314.44C450.894 309.47 452.472 302.634 451.425 295.688C450.363 288.695 446.161 278.3 432.195 268.516C428.243 265.756 424.26 263.561 420.339 262.025C408.373 257.305 391.939 257.885 384.144 270.319C379.036 278.441 373.287 290.827 371.209 297.93H371.225Z" fill="#17386C"/>
<path d="M399.655 325.463C398.546 326.748 397.437 328.144 396.469 329.665C393.079 334.902 390.017 341.879 388.158 344.764C386.299 347.633 381.722 346.002 379.426 344.387C377.129 342.773 374.036 339.041 376.083 336.297C378.129 333.537 383.612 328.269 387.346 323.268C388.424 321.825 389.361 320.304 390.173 318.799C390.689 317.858 391.173 316.918 391.61 316.04C392.891 313.484 393.844 311.289 394.735 310.144C396.437 307.98 399.765 308.184 404.107 308.906C406.279 312.763 407.622 315.836 406.185 318.172C405.435 319.395 403.717 321.073 401.78 323.142C401.092 323.863 400.374 324.632 399.671 325.447L399.655 325.463Z" fill="#17386C"/>
<path d="M384.94 347.9C382.581 347.9 380.098 346.771 378.535 345.673C376.692 344.372 374.365 341.895 373.927 339.182C373.708 337.787 374.021 336.454 374.833 335.356C375.755 334.118 377.27 332.456 379.035 330.543C381.363 328.003 384.003 325.118 386.081 322.327C387.018 321.088 387.893 319.693 388.783 318.062C389.299 317.137 389.767 316.212 390.189 315.35C390.501 314.723 390.798 314.127 391.064 313.562C391.985 311.665 392.704 310.176 393.485 309.188C395.813 306.24 399.952 306.648 404.342 307.369C404.811 307.447 405.217 307.73 405.451 308.137C407.654 312.041 409.466 315.804 407.497 319.003C406.826 320.101 405.639 321.339 404.139 322.907C403.733 323.33 403.327 323.769 402.889 324.224C402.217 324.945 401.514 325.682 400.827 326.482C399.577 327.924 398.578 329.226 397.765 330.496C395.86 333.428 394.079 336.909 392.501 339.966C391.314 342.287 390.283 344.294 389.439 345.595C388.689 346.739 387.565 347.492 386.174 347.759C385.768 347.837 385.331 347.884 384.909 347.884L384.94 347.9ZM399.374 309.987C397.765 309.987 396.609 310.301 395.953 311.132C395.391 311.853 394.688 313.28 393.891 314.942C393.61 315.522 393.313 316.118 393.001 316.761C392.563 317.655 392.064 318.611 391.532 319.583C390.58 321.339 389.627 322.86 388.596 324.224C386.424 327.14 383.722 330.088 381.347 332.675C379.645 334.525 378.176 336.14 377.348 337.254C377.036 337.677 376.926 338.132 377.02 338.696C377.27 340.248 378.879 342.098 380.332 343.118C381.785 344.137 384.081 345.015 385.612 344.717C386.174 344.607 386.565 344.356 386.846 343.917C387.596 342.757 388.596 340.813 389.752 338.571C391.361 335.435 393.173 331.891 395.157 328.834C396.047 327.438 397.125 326.012 398.468 324.459C399.187 323.613 399.921 322.829 400.624 322.092C401.061 321.637 401.483 321.182 401.889 320.759C403.202 319.379 404.342 318.188 404.842 317.372C405.748 315.899 404.873 313.594 403.108 310.364C401.671 310.144 400.421 310.003 399.359 310.003L399.374 309.987Z" fill="#17386C"/>
<path d="M321.625 308.419C328.233 318.485 366.693 332.706 366.896 332.691C366.896 332.691 368.302 329.069 373.847 326.074C379.69 322.923 384.251 321.214 386.157 325.494C388.156 329.963 380.424 331.483 380.689 332.675C381.095 334.541 385.735 331.954 390.343 332.957C394.952 333.961 398.06 338.586 396.326 346.112C395.608 349.232 393.03 357.291 386.641 358.797C378.674 360.678 373.55 355.818 367.005 348.856C365.943 348.903 340.277 344.56 321.625 333.177" fill="#FC5230"/>
<path d="M383.346 362.34C375.754 362.34 370.318 356.931 365.46 351.788C359.211 350.832 337.076 346.285 319.986 335.858C318.518 334.964 318.049 333.036 318.939 331.546C319.83 330.072 321.751 329.602 323.235 330.496C340.45 341.001 364.616 345.485 367.069 345.72C367.897 345.736 368.693 346.096 369.271 346.708C376.051 353.936 379.909 357.166 385.908 355.755C391.032 354.548 393.063 346.347 393.266 345.422C393.953 342.428 393.75 339.825 392.672 338.116C391.985 337.034 390.954 336.313 389.673 336.03C387.986 335.67 386.174 335.952 384.549 336.219C382.565 336.532 378.457 337.191 377.629 333.349C377.051 330.668 379.456 329.351 380.878 328.567C381.518 328.207 383.002 327.407 383.331 326.874C383.331 326.858 383.315 326.827 383.284 326.78C383.112 326.403 382.956 326.184 382.784 326.137C382.096 325.902 380.237 326.184 375.301 328.849C370.974 331.186 369.802 333.788 369.756 333.898C369.271 334.996 368.178 335.795 366.991 335.842H366.975C364.679 335.842 332.374 322.374 325.328 311.649C324.376 310.207 324.782 308.263 326.219 307.306C327.656 306.35 329.593 306.757 330.546 308.2C335.264 315.397 357.383 325.557 365.585 328.865C366.834 327.25 368.943 325.165 372.349 323.33C377.519 320.539 381.409 319.034 384.815 320.194C386.096 320.634 387.876 321.684 389.001 324.224C389.97 326.403 389.751 328.191 388.985 329.633C389.642 329.68 390.329 329.759 391.016 329.916C393.922 330.558 396.39 332.283 397.968 334.776C399.374 336.987 400.748 340.891 399.374 346.849C398.671 349.875 395.765 359.894 387.361 361.885C385.955 362.215 384.627 362.371 383.362 362.371L383.346 362.34Z" fill="#17386C"/>
<path d="M191.186 211.318C199.7 220.6 210.229 220.475 221.507 216.492C232.848 212.479 245.377 212.384 256.905 215.677C268.574 219.001 282.712 229.098 295.162 223.611C298.536 222.121 301.785 220.02 305.597 219.973C310.237 219.926 314.657 222.09 319.297 222.294C324.921 222.545 331.482 220.083 333.512 214.344C334.887 210.44 333.731 206.113 332.028 202.334C329.763 197.301 326.561 192.707 322.624 188.85C321.015 187.266 319.844 181.889 321.89 180.462C323.046 179.646 326.717 179.976 328.185 179.772C330.419 179.458 332.638 179.051 334.825 178.455C338.48 177.451 342.354 175.805 345.228 173.296C347.431 171.368 349.134 168.765 349.524 165.849C350.821 156.504 340.167 154.466 333.544 157.68C330.029 159.389 323.015 165.284 319.219 161.27C317.344 159.295 318.188 155.955 318.157 153.525C317.953 140.997 313.72 128.673 306.862 118.262C299.411 106.958 289.226 99.714 278.041 92.5016C270.433 87.6097 266.216 72.8869 254.828 78.3433C250.032 80.6324 246.58 84.8501 241.971 87.4372C235.145 91.2629 227.334 92.7995 220.461 96.7663C214.04 100.467 208.26 105.264 203.34 110.831C193.358 122.12 187.109 136.56 185.813 151.596C180.579 150.17 175.299 148.743 169.879 148.445C166.52 148.257 162.787 148.664 160.49 151.126C155.71 156.253 160.631 163.857 165.411 166.868C169.801 169.627 175.049 170.584 180.033 172.026C180.486 172.152 180.939 172.293 181.298 172.575C185.875 176.009 176.252 185.401 173.987 187.47C169.785 191.296 164.739 195.231 164.239 201.346C163.786 206.912 168.379 211.992 173.737 213.466C179.095 214.94 184.188 213.278 189.171 210.817C190.218 210.299 190.999 211.099 191.186 211.318Z" fill="#FFCA3F"/>
<path d="M287.275 228.346C279.948 228.346 272.606 225.257 265.905 222.435C262.406 220.961 259.109 219.565 256.048 218.703C244.863 215.52 232.959 215.787 222.54 219.471C208.606 224.395 197.796 222.654 189.516 214.14C184.986 216.273 179.175 218.233 172.895 216.508C165.631 214.517 160.57 207.9 161.101 201.111C161.648 194.322 166.428 190.026 170.661 186.231L171.864 185.15C176.691 180.744 179.409 176.463 179.378 175.115C179.3 175.084 179.222 175.068 179.144 175.052C178.097 174.754 177.051 174.472 176.004 174.19C171.864 173.092 167.6 171.963 163.741 169.533C160.117 167.26 156.165 162.65 155.493 157.492C155.071 154.277 156.009 151.33 158.196 148.993C160.742 146.265 164.741 145.027 170.037 145.325C174.536 145.575 178.878 146.548 183.096 147.645C185.08 133.361 191.344 119.673 200.982 108.761C206.216 102.834 212.245 97.8794 218.885 94.0537C222.618 91.9056 226.555 90.4318 230.366 89.0206C233.928 87.7036 237.302 86.4493 240.426 84.6932C242.301 83.6427 244.019 82.2316 245.847 80.742C248.143 78.8605 250.533 76.9163 253.455 75.5052C263.374 70.7544 269.357 78.2177 273.731 83.6584C275.746 86.167 277.652 88.5346 279.698 89.8516C290.399 96.7348 301.506 104.48 309.441 116.522C316.955 127.936 321.048 140.715 321.251 153.462C321.251 154.121 321.22 154.857 321.173 155.61C321.079 156.943 320.986 158.605 321.454 159.107C322.735 160.455 326.859 157.962 329.327 156.457C330.343 155.845 331.296 155.265 332.139 154.857C337.513 152.239 344.215 152.584 348.432 155.657C351.728 158.056 353.197 161.835 352.572 166.272C352.088 169.721 350.198 173.061 347.23 175.648C344.324 178.188 340.403 180.148 335.592 181.465C333.498 182.045 331.264 182.484 328.562 182.86C327.89 182.955 327.125 182.97 326.219 182.986C325.578 182.986 324.547 183.017 323.86 183.096C323.782 184.099 324.235 186.028 324.766 186.623C328.999 190.763 332.389 195.623 334.826 201.048C337.326 206.614 337.841 211.302 336.404 215.395C333.811 222.764 325.813 225.743 319.111 225.429C316.627 225.32 314.3 224.74 312.066 224.191C309.801 223.626 307.676 223.078 305.583 223.125C303.334 223.156 301.1 224.238 298.741 225.382C297.96 225.759 297.163 226.151 296.366 226.496C293.351 227.813 290.305 228.361 287.244 228.361L287.275 228.346ZM240.286 210.205C246.128 210.205 252.017 211.02 257.75 212.651C261.172 213.623 264.655 215.097 268.326 216.633C277.074 220.318 286.134 224.144 293.898 220.726C294.617 220.412 295.335 220.051 296.054 219.706C298.788 218.374 301.896 216.869 305.552 216.822C308.473 216.774 311.05 217.449 313.597 218.076C315.628 218.578 317.549 219.064 319.424 219.142C323.719 219.346 329.031 217.59 330.546 213.278C331.421 210.801 330.968 207.634 329.156 203.604C327.062 198.963 324.047 194.636 320.408 191.076C318.424 189.132 317.455 185.212 317.674 182.547C317.893 179.913 319.095 178.549 320.08 177.874C321.532 176.855 323.516 176.746 326.156 176.714C326.734 176.714 327.453 176.699 327.734 176.652C330.171 176.307 332.155 175.915 333.967 175.413C337.81 174.347 340.997 172.794 343.152 170.897C344.949 169.329 346.136 167.322 346.402 165.394C346.698 163.261 346.167 161.725 344.777 160.721C342.449 159.028 338.107 158.918 334.873 160.486C334.279 160.769 333.451 161.286 332.561 161.819C328.484 164.296 321.673 168.436 316.924 163.418C314.55 160.925 314.768 157.601 314.925 155.187C314.956 154.622 315.003 154.074 314.987 153.556C314.8 142.173 310.972 130.241 304.208 119.971C296.944 108.933 286.853 101.925 276.309 95.1198C273.403 93.254 271.091 90.369 268.857 87.5782C263.687 81.1497 261.109 78.7665 256.126 81.1497C253.876 82.2316 251.892 83.8622 249.768 85.5869C247.815 87.1862 245.8 88.8325 243.441 90.1495C239.895 92.1408 236.131 93.5362 232.506 94.8846C228.773 96.2644 225.258 97.5658 221.978 99.463C215.916 102.959 210.433 107.475 205.638 112.884C196.062 123.734 190.11 137.563 188.892 151.847C188.813 152.772 188.329 153.619 187.564 154.152C186.798 154.685 185.845 154.857 184.955 154.607C179.956 153.243 174.785 151.847 169.662 151.549C166.287 151.361 163.944 151.925 162.726 153.243C161.82 154.215 161.492 155.281 161.664 156.645C162.038 159.593 164.71 162.728 167.022 164.187C170.083 166.115 173.723 167.072 177.566 168.091C178.66 168.389 179.753 168.671 180.831 168.984C181.362 169.141 182.268 169.392 183.112 170.035C184.611 171.164 185.486 172.81 185.564 174.692C185.83 180.195 178.972 187.062 176.02 189.744L174.785 190.857C171.114 194.149 167.647 197.254 167.303 201.55C166.975 205.705 170.786 209.374 174.52 210.393C178.253 211.412 182.206 210.691 187.736 207.947C189.657 206.991 191.906 207.461 193.437 209.139C200.092 216.383 208.418 217.731 220.431 213.482C226.695 211.271 233.428 210.158 240.255 210.158L240.286 210.205Z" fill="#17386C"/>
<path d="M292.319 170.066C291.35 158.276 278.182 163.622 271.761 166.648C262.842 170.85 253.094 171.023 243.658 168.514C241.081 167.824 238.55 166.962 236.098 165.911C234.707 165.316 233.348 164.673 232.021 163.967C228.568 162.148 224.804 158.197 220.804 157.664C213.994 156.755 210.588 162.807 210.166 167.887C209.541 175.46 220.461 181.512 226.366 183.911C226.991 184.162 227.647 184.381 228.287 184.601C234.129 182.547 241.612 180.603 248.939 180.681C257.062 180.76 265.247 184.805 271.199 188.615C278.744 187.533 285.945 184.726 290.179 177.922C291.632 175.57 292.538 172.81 292.319 170.051V170.066Z" fill="#213E7A" stroke="#213E7A" stroke-width="2" stroke-linecap="round" stroke-linejoin="round"/>
<path d="M228.285 184.617C238.626 188.364 250.467 189.274 261.324 189.258C264.527 189.258 267.901 189.101 271.197 188.631C265.261 184.821 257.075 180.776 248.937 180.697C241.61 180.619 234.128 182.563 228.285 184.617Z" fill="#E13E6B" stroke="#213E7A" stroke-width="2" stroke-linecap="round" stroke-linejoin="round"/>
<path d="M238.895 151.565C247.798 151.565 255.016 144.32 255.016 135.384C255.016 126.448 247.798 119.203 238.895 119.203C229.991 119.203 222.773 126.448 222.773 135.384C222.773 144.32 229.991 151.565 238.895 151.565Z" fill="white"/>
<path d="M241.877 142.314C246.044 142.314 249.422 138.923 249.422 134.741C249.422 130.559 246.044 127.168 241.877 127.168C237.71 127.168 234.332 130.559 234.332 134.741C234.332 138.923 237.71 142.314 241.877 142.314Z" fill="#17386C"/>
<path d="M269.356 153.948C278.259 153.948 285.477 146.704 285.477 137.767C285.477 128.831 278.259 121.586 269.356 121.586C260.452 121.586 253.234 128.831 253.234 137.767C253.234 146.704 260.452 153.948 269.356 153.948Z" fill="white"/>
<path d="M266.764 143.757C270.931 143.757 274.309 140.366 274.309 136.184C274.309 132.001 270.931 128.611 266.764 128.611C262.597 128.611 259.219 132.001 259.219 136.184C259.219 140.366 262.597 143.757 266.764 143.757Z" fill="#17386C"/>
<path d="M211.495 139.32C214.704 139.32 217.306 136.708 217.306 133.487C217.306 130.266 214.704 127.654 211.495 127.654C208.285 127.654 205.684 130.266 205.684 133.487C205.684 136.708 208.285 139.32 211.495 139.32Z" fill="#E13E6B"/>
<path d="M296.225 148.554C299.435 148.554 302.036 145.943 302.036 142.722C302.036 139.501 299.435 136.889 296.225 136.889C293.016 136.889 290.414 139.501 290.414 142.722C290.414 145.943 293.016 148.554 296.225 148.554Z" fill="#E13E6B"/>
<path d="M235.536 87.7037C234.458 86.9354 233.302 86.2612 232.131 85.6654C231.006 85.1009 229.865 84.5992 228.725 84.1445C227.397 83.6271 225.96 83.141 224.476 82.7334C219.368 81.3222 213.713 80.8832 209.48 83.2978C205.371 85.634 203.325 90.7611 202.044 95.3237C202.028 95.4021 202.013 95.4805 201.997 95.5589C201.31 98.0676 200.872 100.67 200.7 103.32C200.669 103.822 200.7 104.339 200.685 104.857C200.654 105.75 200.622 106.644 200.654 107.538C200.685 108.322 200.497 110.956 201.903 110.141C212.776 103.806 223.617 97.4248 234.224 90.6043C234.646 90.3221 235.067 90.0399 235.505 89.7733C236.38 89.2089 236.598 88.4249 235.552 87.688L235.536 87.7037Z" fill="#17386C"/>
<path d="M201.404 112.68C200.92 112.68 200.435 112.555 199.998 112.304C198.311 111.332 198.295 109.2 198.295 107.93V107.647C198.264 106.879 198.295 106.111 198.295 105.327V104.794C198.311 104.606 198.311 104.433 198.311 104.245C198.311 103.884 198.311 103.524 198.326 103.179C198.514 100.404 198.967 97.6441 199.701 94.9316C199.701 94.8845 199.732 94.7905 199.764 94.6807C200.998 90.2905 203.216 84.1286 208.293 81.228C212.479 78.8447 218.275 78.5782 225.07 80.444C226.632 80.8674 228.132 81.3691 229.553 81.9179C230.866 82.4353 232.053 82.9527 233.162 83.5328C234.537 84.2227 235.755 84.9596 236.864 85.7436C238.364 86.8098 238.567 88.0955 238.551 88.7697C238.551 89.4439 238.286 90.7296 236.724 91.733C236.427 91.9212 236.161 92.0936 235.896 92.2661L235.443 92.564C224.789 99.4158 214.041 105.75 203.028 112.163C202.482 112.477 201.919 112.633 201.373 112.633L201.404 112.68ZM216.76 83.9562C214.588 83.9562 212.448 84.3325 210.62 85.3673C207.043 87.3899 205.293 92.4072 204.294 95.9821C204.294 96.0134 204.262 96.1075 204.247 96.2173C203.591 98.6005 203.185 101.046 203.028 103.508C203.028 103.759 203.028 104.01 203.028 104.261C203.028 104.496 203.028 104.731 203.028 104.966V105.515C202.997 105.954 202.982 106.393 202.982 106.832C213.104 100.921 223.039 95.0413 232.834 88.7383C232.287 88.409 231.725 88.0955 231.1 87.7819C230.116 87.2801 229.054 86.8098 227.882 86.3551C226.617 85.869 225.273 85.4143 223.867 85.0223C221.79 84.4579 219.275 83.9562 216.775 83.9562H216.76ZM234.193 89.632C234.193 89.632 234.209 89.6634 234.224 89.6634L235.536 87.7192L234.193 89.632Z" fill="#17386C"/>
<path d="M311.346 112.712C311.471 111.457 311.534 110.203 311.534 108.964C311.534 107.522 311.471 106.017 311.331 104.48C310.815 99.1962 309.222 93.7398 305.457 90.6197C301.817 87.6093 296.319 87.5152 291.601 87.9385C291.523 87.9385 291.445 87.9699 291.367 87.9699C288.789 88.2207 286.196 88.7382 283.665 89.5221C283.181 89.6789 282.712 89.8827 282.228 90.0552C281.385 90.3531 280.541 90.6197 279.713 90.9803C278.995 91.2939 276.48 92.0621 277.745 93.0813C287.524 101.015 297.318 108.917 307.457 116.428C307.863 116.725 308.285 117.023 308.691 117.337C309.534 117.948 310.331 117.886 310.659 116.631C310.987 115.346 311.206 114.029 311.331 112.712H311.346Z" fill="#17386C"/>
<path d="M309.66 120.065C309.02 120.065 308.208 119.877 307.333 119.234L306.099 118.325C295.914 110.783 286.197 102.959 276.293 94.916C275.372 94.1634 274.95 93.1442 275.106 92.0781C275.403 90.1495 277.387 89.3812 278.558 88.9109L278.808 88.8168C279.511 88.5189 280.23 88.268 280.948 88.0172L281.464 87.8447C281.636 87.782 281.808 87.7193 281.979 87.6565C282.308 87.5311 282.651 87.39 282.995 87.2959C285.635 86.4806 288.369 85.9318 291.149 85.6496C291.212 85.6496 291.305 85.6182 291.415 85.6182C295.929 85.2106 302.459 85.0852 306.958 88.8325C310.66 91.9056 312.988 97.2522 313.66 104.276C313.816 105.891 313.894 107.475 313.878 108.996C313.878 110.423 313.8 111.708 313.675 112.963C313.519 114.499 313.285 115.895 312.941 117.227C312.488 119.015 311.363 119.673 310.723 119.893C310.457 119.987 310.098 120.081 309.645 120.081L309.66 120.065ZM281.261 92.9091C290.384 100.294 299.382 107.506 308.739 114.452C308.848 113.825 308.942 113.167 309.004 112.492C309.114 111.395 309.176 110.235 309.192 108.965C309.192 107.6 309.129 106.189 308.989 104.731C308.598 100.717 307.411 95.308 303.959 92.4544C300.788 89.8203 295.523 89.9771 291.821 90.3063C291.79 90.3063 291.696 90.3377 291.602 90.3377C289.15 90.5729 286.713 91.0746 284.385 91.7958C284.151 91.8742 283.917 91.9683 283.682 92.0467C283.463 92.1251 283.245 92.2192 283.026 92.2976L282.495 92.4857C282.089 92.6268 281.667 92.7679 281.261 92.9247V92.9091Z" fill="#17386C"/>
<path d="M267.56 304.531L246.971 304.421L226.382 304.531C226.382 304.531 206.652 302.712 206.652 313.876C206.652 325.039 221.664 338.037 246.987 338.037C272.309 338.037 287.321 325.039 287.321 313.876C287.321 302.712 267.591 304.531 267.591 304.531H267.56Z" fill="#17386C"/>
<path d="M228.383 307.243C227.852 307.181 227.337 307.165 226.884 307.196C224.587 307.322 217.245 306.506 218.308 310.834C218.776 312.747 219.838 315.522 222.166 319.144C223.463 321.182 227.04 321.355 228.258 319.426C229.586 317.325 230.789 314.44 231.882 311.069C232.726 308.498 230.461 307.494 228.368 307.243H228.383Z" fill="white" stroke="#17386C" stroke-width="2" stroke-linecap="round" stroke-linejoin="round"/>
<path d="M272.059 307.243C271.528 307.181 271.012 307.165 270.559 307.196C268.263 307.322 260.921 306.506 261.983 310.834C262.452 312.747 263.514 315.522 265.842 319.144C267.138 321.182 270.716 321.355 271.934 319.426C273.262 317.325 274.465 314.44 275.558 311.069C276.402 308.498 274.137 307.494 272.043 307.243H272.059Z" fill="white" stroke="#17386C" stroke-width="2" stroke-linecap="round" stroke-linejoin="round"/>
</g>
<defs>
<clipPath id="clip0_186_57310">
<rect width="334" height="398" fill="white" transform="translate(124 74)"/>
</clipPath>
</defs>
</svg>
