<svg width="644" height="430" viewBox="0 0 644 430" fill="none" xmlns="http://www.w3.org/2000/svg">
<g clip-path="url(#clip0_404_69336)">
<path d="M76.767 185.909C63.4255 185.909 52.5762 175.06 52.5762 161.719C52.5762 148.377 63.4255 137.528 76.767 137.528C90.1085 137.528 100.958 148.377 100.958 161.719C100.958 175.06 90.1085 185.909 76.767 185.909ZM76.767 153.28C72.1212 153.28 68.3286 157.059 68.3286 161.719C68.3286 166.378 72.1076 170.143 76.767 170.143C81.4264 170.143 85.1918 166.364 85.1918 161.719C85.1918 157.073 81.4128 153.28 76.767 153.28Z" fill="#005BAD"/>
<path d="M266.297 138.178H242.852V185.26H258.618V161.624C258.618 157.385 262.058 153.944 266.297 153.944C270.537 153.944 273.977 157.385 273.977 161.624V185.26H289.743V161.624C289.743 148.702 279.233 138.178 266.297 138.178Z" fill="#005BAD"/>
<path d="M157.086 169.494V165.024H182.496V148.161C182.496 136.81 173.259 127.573 161.908 127.573C150.558 127.573 141.32 136.81 141.32 148.161V185.246H182.821V169.48H157.086V169.494ZM161.908 143.352C164.563 143.352 166.73 145.519 166.73 148.174C166.73 150.829 164.563 152.996 161.908 152.996C159.253 152.996 157.086 150.829 157.086 148.174C157.086 145.519 159.253 143.352 161.908 143.352Z" fill="#005BAD"/>
<path d="M211.332 138.219C198.478 138.368 188.076 148.852 188.076 161.733C188.076 174.614 198.492 185.097 211.332 185.233H235.103V138.192H211.332V138.219ZM203.829 161.733C203.829 157.452 207.31 153.985 211.59 153.985C215.87 153.985 219.337 157.466 219.337 161.733C219.337 165.999 215.856 169.494 211.59 169.494C207.323 169.494 203.829 166.013 203.829 161.733Z" fill="#005BAD"/>
<path d="M34.4666 155.922L52.1831 137.541H30.2949L17.766 150.544V117.875H2V185.273H17.766V177.566C17.766 173.326 21.2064 169.886 25.4459 169.886C29.6853 169.886 33.1257 173.326 33.1257 177.566V185.273H48.8917V177.566C48.8917 167.841 42.932 159.47 34.4666 155.935V155.922Z" fill="#005BAD"/>
<path d="M107.188 138.178V185.26H122.954V161.624C122.954 157.385 126.394 153.944 130.633 153.944H135.929V138.178H107.188Z" fill="#005BAD"/>
<path d="M120.434 114.299C107.513 114.299 96.9883 103.788 96.9883 90.8533V68.2065H112.754V90.8533C112.754 95.0927 116.195 98.5331 120.434 98.5331C124.674 98.5331 128.114 95.0927 128.114 90.8533V68.2065H143.88V90.8533C143.88 103.775 133.369 114.299 120.434 114.299Z" fill="#00A0A0"/>
<path d="M226.53 66.5537C213.676 66.7027 203.273 77.1863 203.273 90.0673C203.273 102.948 213.689 113.432 226.53 113.567H250.301V66.5537H226.53ZM219.039 90.0673C219.039 85.7872 222.52 82.3197 226.801 82.3197C231.081 82.3197 234.548 85.8007 234.548 90.0673C234.548 94.3339 231.067 97.8284 226.801 97.8284C222.534 97.8284 219.039 94.3474 219.039 90.0673Z" fill="#00A0A0"/>
<path d="M182.714 49V68.3012L181.495 67.8407C178.095 66.6487 174.37 66.1476 170.456 66.6623C158.564 68.2064 149.34 78.5545 149.245 90.5415C149.15 103.991 160.067 114.963 173.49 114.963C186.885 114.963 197.748 104.1 197.748 90.7041V49H182.714ZM173.49 99.454C168.668 99.454 164.74 95.526 164.74 90.7041C164.74 85.8822 168.668 81.9542 173.49 81.9542C178.312 81.9542 182.24 85.8822 182.24 90.7041C182.24 95.526 178.312 99.454 173.49 99.454Z" fill="#00A0A0"/>
<path d="M74.8973 49V68.3012L73.6782 67.8407C70.2785 66.6487 66.5537 66.1476 62.6393 66.6623C50.7471 68.2064 41.5232 78.5545 41.4283 90.5415C41.3335 103.991 52.2505 114.963 65.6733 114.963C79.069 114.963 89.9319 104.1 89.9319 90.7041V49H74.8973ZM65.6869 99.454C60.865 99.454 56.937 95.526 56.937 90.7041C56.937 85.8822 60.865 81.9542 65.6869 81.9542C70.5088 81.9542 74.4367 85.8822 74.4367 90.7041C74.4367 95.526 70.5088 99.454 65.6869 99.454Z" fill="#00A0A0"/>
<path d="M452.511 180.275C440.646 180.275 430.988 170.618 430.988 158.752C430.988 146.887 440.646 137.23 452.511 137.23C464.376 137.23 474.033 146.887 474.033 158.752C474.033 170.618 464.376 180.275 452.511 180.275ZM452.511 151.249C448.38 151.249 445.007 154.621 445.007 158.752C445.007 162.884 448.38 166.256 452.511 166.256C456.642 166.256 460.015 162.897 460.015 158.752C460.015 154.608 456.655 151.249 452.511 151.249Z" fill="#3B84F5"/>
<path d="M526.437 118.742C514.937 118.742 505.578 109.382 505.578 97.883V77.7285H519.61V97.883C519.61 101.648 522.672 104.723 526.45 104.723C530.229 104.723 533.291 101.662 533.291 97.883V77.7285H547.323V97.883C547.323 109.382 537.963 118.742 526.464 118.742H526.437Z" fill="#3B84F5"/>
<path d="M621.142 137.812H600.283V179.706H614.316V158.671C614.316 154.906 617.377 151.831 621.156 151.831C624.935 151.831 627.996 154.892 627.996 158.671V179.706H642.028V158.671C642.028 147.172 632.669 137.812 621.169 137.812H621.142Z" fill="#3B84F5"/>
<path d="M523.972 165.674V161.705H546.578V146.711C546.578 136.607 538.356 128.399 528.266 128.399C518.175 128.399 509.953 136.621 509.953 146.711V179.706H546.876V165.674H523.972ZM528.266 142.418C530.636 142.418 532.559 144.341 532.559 146.711C532.559 149.082 530.636 151.005 528.266 151.005C525.895 151.005 523.972 149.082 523.972 146.711C523.972 144.341 525.895 142.418 528.266 142.418Z" fill="#3B84F5"/>
<path d="M620.843 76.2518C609.411 76.3873 600.146 85.7196 600.146 97.1784C600.146 108.637 609.411 117.969 620.843 118.091H642V76.2383H620.843V76.2518ZM614.179 97.1784C614.179 93.3723 617.281 90.2841 621.073 90.2841C624.866 90.2841 627.967 93.3723 627.967 97.1784C627.967 100.984 624.879 104.073 621.073 104.073C617.267 104.073 614.179 100.971 614.179 97.1784Z" fill="#3B84F5"/>
<path d="M572.231 137.853C560.8 137.988 551.535 147.321 551.535 158.779C551.535 170.238 560.8 179.571 572.231 179.692H593.388V137.839H572.231V137.853ZM565.567 158.779C565.567 154.973 568.669 151.885 572.462 151.885C576.254 151.885 579.356 154.973 579.356 158.779C579.356 162.586 576.268 165.674 572.462 165.674C568.656 165.674 565.567 162.572 565.567 158.779Z" fill="#3B84F5"/>
<path d="M414.869 153.592L430.635 137.23H411.158L400.011 148.797V118.294H385.979V179.706H400.011V172.852C400.011 169.087 403.072 166.012 406.851 166.012C410.63 166.012 413.691 169.073 413.691 172.852V179.706H427.723V172.852C427.723 164.197 422.414 156.761 414.896 153.605L414.869 153.592Z" fill="#3B84F5"/>
<path d="M479.572 137.812V179.706H493.605V158.671C493.605 154.906 496.666 151.831 500.445 151.831H505.158V137.799H479.586L479.572 137.812Z" fill="#3B84F5"/>
<path d="M581.848 60.6348V77.8094L580.764 77.4031C577.73 76.3466 574.425 75.8996 570.944 76.3466C560.366 77.7146 552.144 86.925 552.077 97.5982C551.995 109.572 561.707 119.337 573.653 119.337C585.573 119.337 595.23 109.68 595.23 97.7607V60.6348H581.848ZM573.653 105.522C569.36 105.522 565.865 102.027 565.865 97.7337C565.865 93.44 569.36 89.9455 573.653 89.9455C577.947 89.9455 581.442 93.44 581.442 97.7337C581.442 102.027 577.947 105.522 573.653 105.522Z" fill="#3B84F5"/>
<path d="M485.924 60.6348V77.8094L484.841 77.4031C481.807 76.3466 478.502 75.8996 475.021 76.3466C464.442 77.7146 456.221 86.925 456.153 97.5982C456.072 109.572 465.783 119.337 477.73 119.337C489.649 119.337 499.306 109.68 499.306 97.7607V60.6348H485.924ZM477.73 105.522C473.436 105.522 469.941 102.027 469.941 97.7337C469.941 93.44 473.436 89.9455 477.73 89.9455C482.023 89.9455 485.518 93.44 485.518 97.7337C485.518 102.027 482.023 105.522 477.73 105.522Z" fill="#3B84F5"/>
<path d="M428.102 119.798C415.871 119.798 405.93 109.856 405.93 97.6253C405.93 85.3944 415.871 75.4526 428.102 75.4526C440.333 75.4526 450.275 85.3944 450.275 97.6253C450.275 109.856 440.333 119.798 428.102 119.798ZM428.102 89.661C423.714 89.661 420.138 93.2368 420.138 97.6253C420.138 102.014 423.714 105.59 428.102 105.59C432.491 105.59 436.067 102.014 436.067 97.6253C436.067 93.2368 432.491 89.661 428.102 89.661Z" fill="#3B84F5"/>
<path d="M379.166 65.0234C373.83 65.0234 368.967 67.0551 365.269 70.3736C361.572 67.0687 356.709 65.0234 351.373 65.0234C339.873 65.0234 330.514 74.3828 330.514 85.8823V118.295H344.546V85.8823C344.546 82.1168 347.607 79.0422 351.386 79.0422C355.165 79.0422 358.226 82.1033 358.226 85.8823V118.295H372.353V85.8823C372.353 82.1168 375.414 79.0422 379.193 79.0422C382.972 79.0422 386.033 82.1033 386.033 85.8823V118.295H400.066V85.8823C400.066 74.3828 390.706 65.0234 379.207 65.0234H379.166Z" fill="#3B84F5"/>
<path d="M145.586 374.56C157.847 374.56 167.786 364.621 167.786 352.36C167.786 340.1 157.847 330.161 145.586 330.161C133.326 330.161 123.387 340.1 123.387 352.36C123.387 364.621 133.326 374.56 145.586 374.56Z" fill="#AFCFEC"/>
<path d="M56.5176 294.633V381.021H85.449V337.651C85.449 329.876 91.7744 323.564 99.5355 323.564H109.247V294.633H56.5176Z" fill="#005BAD"/>
<path d="M476.538 318.553H390.15V347.484H433.52C441.295 347.484 447.607 353.81 447.607 361.571V371.282H476.538V318.553Z" fill="#3B84F5"/>
<path d="M509.641 371.296H596.029V342.364H552.659C544.884 342.364 538.572 336.039 538.572 328.278V318.566H509.641V371.296Z" fill="#3B84F5"/>
<path d="M145.234 353.715H144.895C144.151 353.715 143.541 353.105 143.541 352.36C143.541 351.615 144.151 351.006 144.895 351.006H145.234C145.979 351.006 146.589 351.615 146.589 352.36C146.589 353.105 145.979 353.715 145.234 353.715Z" fill="#3B84F5"/>
<path d="M352.754 353.715H352.09C351.346 353.715 350.736 353.105 350.736 352.36C350.736 351.615 351.346 351.006 352.09 351.006H352.754C353.499 351.006 354.109 351.615 354.109 352.36C354.109 353.105 353.499 353.715 352.754 353.715ZM344.113 353.715H343.449C342.704 353.715 342.094 353.105 342.094 352.36C342.094 351.615 342.704 351.006 343.449 351.006H344.113C344.858 351.006 345.467 351.615 345.467 352.36C345.467 353.105 344.858 353.715 344.113 353.715ZM335.458 353.715H334.794C334.049 353.715 333.439 353.105 333.439 352.36C333.439 351.615 334.049 351.006 334.794 351.006H335.458C336.203 351.006 336.812 351.615 336.812 352.36C336.812 353.105 336.203 353.715 335.458 353.715ZM326.816 353.715H326.152C325.407 353.715 324.798 353.105 324.798 352.36C324.798 351.615 325.407 351.006 326.152 351.006H326.816C327.561 351.006 328.171 351.615 328.171 352.36C328.171 353.105 327.561 353.715 326.816 353.715ZM318.161 353.715H317.497C316.752 353.715 316.143 353.105 316.143 352.36C316.143 351.615 316.752 351.006 317.497 351.006H318.161C318.906 351.006 319.516 351.615 319.516 352.36C319.516 353.105 318.906 353.715 318.161 353.715ZM309.52 353.715H308.856C308.111 353.715 307.501 353.105 307.501 352.36C307.501 351.615 308.111 351.006 308.856 351.006H309.52C310.264 351.006 310.874 351.615 310.874 352.36C310.874 353.105 310.264 353.715 309.52 353.715ZM300.878 353.715H300.214C299.469 353.715 298.86 353.105 298.86 352.36C298.86 351.615 299.469 351.006 300.214 351.006H300.878C301.623 351.006 302.232 351.615 302.232 352.36C302.232 353.105 301.623 353.715 300.878 353.715ZM292.223 353.715H291.559C290.814 353.715 290.205 353.105 290.205 352.36C290.205 351.615 290.814 351.006 291.559 351.006H292.223C292.968 351.006 293.577 351.615 293.577 352.36C293.577 353.105 292.968 353.715 292.223 353.715ZM283.581 353.715H282.918C282.173 353.715 281.563 353.105 281.563 352.36C281.563 351.615 282.173 351.006 282.918 351.006H283.581C284.326 351.006 284.936 351.615 284.936 352.36C284.936 353.105 284.326 353.715 283.581 353.715ZM274.926 353.715H274.263C273.518 353.715 272.908 353.105 272.908 352.36C272.908 351.615 273.518 351.006 274.263 351.006H274.926C275.671 351.006 276.281 351.615 276.281 352.36C276.281 353.105 275.671 353.715 274.926 353.715ZM266.285 353.715H265.621C264.876 353.715 264.267 353.105 264.267 352.36C264.267 351.615 264.876 351.006 265.621 351.006H266.285C267.03 351.006 267.639 351.615 267.639 352.36C267.639 353.105 267.03 353.715 266.285 353.715ZM257.643 353.715H256.98C256.235 353.715 255.625 353.105 255.625 352.36C255.625 351.615 256.235 351.006 256.98 351.006H257.643C258.388 351.006 258.998 351.615 258.998 352.36C258.998 353.105 258.388 353.715 257.643 353.715ZM248.988 353.715H248.325C247.58 353.715 246.97 353.105 246.97 352.36C246.97 351.615 247.58 351.006 248.325 351.006H248.988C249.733 351.006 250.343 351.615 250.343 352.36C250.343 353.105 249.733 353.715 248.988 353.715ZM240.347 353.715H239.683C238.938 353.715 238.329 353.105 238.329 352.36C238.329 351.615 238.938 351.006 239.683 351.006H240.347C241.092 351.006 241.701 351.615 241.701 352.36C241.701 353.105 241.092 353.715 240.347 353.715ZM231.692 353.715H231.028C230.283 353.715 229.674 353.105 229.674 352.36C229.674 351.615 230.283 351.006 231.028 351.006H231.692C232.437 351.006 233.046 351.615 233.046 352.36C233.046 353.105 232.437 353.715 231.692 353.715ZM223.05 353.715H222.387C221.642 353.715 221.032 353.105 221.032 352.36C221.032 351.615 221.642 351.006 222.387 351.006H223.05C223.795 351.006 224.405 351.615 224.405 352.36C224.405 353.105 223.795 353.715 223.05 353.715ZM214.409 353.715H213.745C213 353.715 212.391 353.105 212.391 352.36C212.391 351.615 213 351.006 213.745 351.006H214.409C215.154 351.006 215.763 351.615 215.763 352.36C215.763 353.105 215.154 353.715 214.409 353.715ZM205.754 353.715H205.09C204.345 353.715 203.736 353.105 203.736 352.36C203.736 351.615 204.345 351.006 205.09 351.006H205.754C206.499 351.006 207.108 351.615 207.108 352.36C207.108 353.105 206.499 353.715 205.754 353.715ZM197.112 353.715H196.448C195.704 353.715 195.094 353.105 195.094 352.36C195.094 351.615 195.704 351.006 196.448 351.006H197.112C197.857 351.006 198.467 351.615 198.467 352.36C198.467 353.105 197.857 353.715 197.112 353.715ZM188.457 353.715H187.793C187.048 353.715 186.439 353.105 186.439 352.36C186.439 351.615 187.048 351.006 187.793 351.006H188.457C189.202 351.006 189.812 351.615 189.812 352.36C189.812 353.105 189.202 353.715 188.457 353.715ZM179.816 353.715H179.152C178.407 353.715 177.797 353.105 177.797 352.36C177.797 351.615 178.407 351.006 179.152 351.006H179.816C180.561 351.006 181.17 351.615 181.17 352.36C181.17 353.105 180.561 353.715 179.816 353.715ZM171.174 353.715H170.51C169.765 353.715 169.156 353.105 169.156 352.36C169.156 351.615 169.765 351.006 170.51 351.006H171.174C171.919 351.006 172.529 351.615 172.529 352.36C172.529 353.105 171.919 353.715 171.174 353.715ZM162.519 353.715H161.855C161.11 353.715 160.501 353.105 160.501 352.36C160.501 351.615 161.11 351.006 161.855 351.006H162.519C163.264 351.006 163.874 351.615 163.874 352.36C163.874 353.105 163.264 353.715 162.519 353.715ZM153.878 353.715H153.214C152.469 353.715 151.859 353.105 151.859 352.36C151.859 351.615 152.469 351.006 153.214 351.006H153.878C154.622 351.006 155.232 351.615 155.232 352.36C155.232 353.105 154.622 353.715 153.878 353.715Z" fill="#3B84F5"/>
<path d="M361.07 353.715H360.731C359.986 353.715 359.377 353.105 359.377 352.36C359.377 351.615 359.986 351.006 360.731 351.006H361.07C361.815 351.006 362.425 351.615 362.425 352.36C362.425 353.105 361.815 353.715 361.07 353.715Z" fill="#3B84F5"/>
<path d="M145.153 357.656C148.078 357.656 150.449 355.285 150.449 352.36C150.449 349.436 148.078 347.064 145.153 347.064C142.229 347.064 139.857 349.436 139.857 352.36C139.857 355.285 142.229 357.656 145.153 357.656Z" fill="#3B84F5"/>
<path d="M358.469 361.273L373.896 352.36L358.469 343.448V361.273Z" fill="#3B84F5"/>
<path d="M174.641 278.664H167.868C167.868 258.55 151.506 242.174 131.379 242.174C111.252 242.174 94.8895 258.536 94.8895 278.664H88.1172C88.1172 254.811 107.527 235.402 131.379 235.402C155.231 235.402 174.641 254.811 174.641 278.664Z" fill="#3B84F5"/>
<path d="M171.336 283.31L153.674 267.327L158.211 262.302L171.174 274.031L183.106 262.397L187.834 267.246L171.336 283.31Z" fill="#3B84F5"/>
</g>
<defs>
<clipPath id="clip0_404_69336">
<rect width="640" height="332.021" fill="white" transform="translate(2 49)"/>
</clipPath>
</defs>
</svg>
