<svg width="644" height="430" viewBox="0 0 644 430" fill="none" xmlns="http://www.w3.org/2000/svg">
<g clip-path="url(#clip0_404_69334)">
<path d="M104.549 89.5816V56.9307H39V78.8763H71.9117C77.8133 78.8763 82.6032 83.6662 82.6032 89.5678V106.682H104.549V89.5678V89.5816Z" fill="#3B84F5"/>
<path d="M149.387 74.0452V77.0235V82.1153V106.696H179.046H182.024H214.936V84.7504H182.024C176.122 84.7504 171.332 79.9605 171.332 74.059V56.9443H149.387V74.059V74.0452Z" fill="#3B84F5"/>
<path d="M259.773 83.3643V109.921H313.107V92.0657H286.331C281.527 92.0657 277.629 88.1679 277.629 83.3643C277.629 78.5607 281.527 74.6629 286.331 74.6629H313.107V56.8071H286.331C271.686 56.8071 259.773 68.7201 259.773 83.3643Z" fill="#3B84F5"/>
<path d="M382.542 43H357.947V58.0422H380.497C384.532 58.0422 387.826 61.3224 387.826 65.3711V68.3082H357.947V110.882H402.868V95.8398H380.318C376.668 95.8398 373.662 93.1635 373.113 89.6637C373.607 86.1091 376.626 83.3504 380.318 83.3504H402.868V43H382.542Z" fill="#3B84F5"/>
<path d="M586.187 45.978V51.4953C586.187 54.0207 584.911 56.2441 582.99 57.5891H566.506C564.571 56.2578 563.308 54.0207 563.308 51.4953V45.978H548.102V84.5305H548.115C548.28 99.0924 560.152 110.896 574.755 110.896C589.358 110.896 601.23 99.0924 601.394 84.5305H601.408V45.978H586.201H586.187ZM574.741 93.0261C569.896 93.0261 565.957 89.0871 565.957 84.2423C565.957 79.3975 569.896 75.4585 574.741 75.4585C579.586 75.4585 583.525 79.3975 583.525 84.2423C583.525 89.0871 579.586 93.0261 574.741 93.0261Z" fill="#3B84F5"/>
<path d="M447.691 56.8071V102.304C447.691 107.863 452.193 112.364 457.752 112.364H493.189C498.747 112.364 503.249 107.863 503.249 102.304V56.8071H447.691ZM466.316 93.7401V75.4177H484.638V93.7401H466.316Z" fill="#3B84F5"/>
<path d="M310.706 347.536V316.422H242.879V333.742H256.645V364.856H321.096V347.536H310.706ZM273.965 339.109V333.742H284.959C289.611 333.742 293.399 337.53 293.399 342.183V347.549H282.406C277.753 347.549 273.965 343.761 273.965 339.109Z" fill="#3B84F5"/>
<path d="M385.52 331.286C370.107 331.286 357.576 343.83 357.576 359.229C357.576 374.629 370.12 387.173 385.52 387.173C400.919 387.173 413.463 374.642 413.463 359.229C413.463 343.817 400.932 331.286 385.52 331.286ZM385.52 368.974C380.153 368.974 375.775 364.61 375.775 359.229C375.775 353.849 380.139 349.485 385.52 349.485C390.9 349.485 395.264 353.849 395.264 359.229C395.264 364.61 390.9 368.974 385.52 368.974Z" fill="#3B84F5"/>
<path d="M391.27 311.303C386.755 311.303 383.076 307.625 383.076 303.109V297.455H366.25V303.109C366.25 307.625 362.572 311.303 358.056 311.303H354.543V328.129H416.51V311.303H391.284H391.27Z" fill="#3B84F5"/>
<path d="M484.625 186.065H456.256V203.413H482.278C486.944 203.413 490.732 207.201 490.732 211.868V215.258H456.256V232.606H482.278C486.944 232.606 490.732 236.394 490.732 241.06V246.893H508.08V186.065H484.625Z" fill="#3B84F5"/>
<path d="M183.123 246.907C167.12 246.907 154.096 233.882 154.096 217.879C154.096 201.876 167.12 188.852 183.123 188.852C199.126 188.852 212.151 201.876 212.151 217.879C212.151 233.882 199.126 246.907 183.123 246.907ZM183.123 207.764C177.551 207.764 173.008 212.307 173.008 217.879C173.008 223.451 177.551 227.994 183.123 227.994C188.695 227.994 193.238 223.451 193.238 217.879C193.238 212.307 188.695 207.764 183.123 207.764Z" fill="#3B84F5"/>
<path d="M303.158 206.872H311.653V190.101H249.975V206.872H258.47C263.137 206.872 266.925 210.537 266.925 215.038C266.925 219.54 263.137 223.204 258.47 223.204H249.975V239.976H258.47C268.036 239.976 276.367 234.898 280.828 227.404C285.288 234.898 293.605 239.976 303.185 239.976H311.681V223.204H303.185C298.519 223.204 294.731 219.54 294.731 215.038C294.731 210.537 298.519 206.872 303.185 206.872H303.158Z" fill="#3B84F5"/>
<path d="M406.298 206.872H414.794V190.101H392.821V182.978H375.088V190.101H353.115V206.872H361.611C366.277 206.872 370.065 210.537 370.065 215.038C370.065 219.54 366.277 223.204 361.611 223.204H353.115V239.976H361.611C371.177 239.976 379.508 234.898 383.968 227.404C388.429 234.898 396.746 239.976 406.326 239.976H414.821V223.204H406.326C401.659 223.204 397.871 219.54 397.871 215.038C397.871 210.537 401.659 206.872 406.326 206.872H406.298Z" fill="#3B84F5"/>
<path d="M566.067 201.615H603V186.065H549.543V246.893H603V231.343H566.067C564.215 231.343 562.705 229.641 562.705 227.528C562.705 225.414 564.215 223.712 566.067 223.712H603V209.219H566.067C564.215 209.219 562.705 207.517 562.705 205.403C562.705 203.29 564.215 201.588 566.067 201.588V201.615Z" fill="#3B84F5"/>
<path d="M110.807 214.325C105.317 214.325 100.856 208.382 100.856 201.08C100.856 201.08 100.856 201.08 100.856 201.067V192.502H68.1918V201.067C68.1918 201.067 68.1918 201.067 68.1918 201.08C68.1918 208.382 63.7313 214.325 58.2415 214.325H48.2637V241.499H58.2415C69.4957 241.499 79.2813 233.265 84.5104 221.118C89.7532 233.265 99.5389 241.499 110.779 241.499H120.757V214.325H110.779H110.807Z" fill="#3B84F5"/>
</g>
<defs>
<clipPath id="clip0_404_69334">
<rect width="564" height="344.186" fill="white" transform="translate(39 43)"/>
</clipPath>
</defs>
</svg>
