<svg width="202" height="55" viewBox="0 0 202 55" fill="none" xmlns="http://www.w3.org/2000/svg">
<g clip-path="url(#clip0_20_62275)">
<path d="M67.1977 46.7838C67.1977 46.758 67.1977 46.7321 67.1977 46.7062C67.1977 46.6648 67.1977 46.6286 67.1925 46.5872C67.1925 46.3337 67.1925 46.0854 67.1822 45.8371C67.1563 44.1661 66.1113 42.8313 64.5851 42.3916C64.5851 41.3621 64.5851 40.3274 64.5696 39.303C64.523 36.1886 62.2312 33.8399 59.2358 33.8296L55.6351 33.8192C53.4881 33.814 51.3411 33.8037 49.189 33.8037C46.5712 33.8037 44.3466 33.814 42.2721 33.8399C44.7605 32.0706 46.7109 29.5511 47.8956 26.4057C48.8424 23.8914 49.2924 21.2426 49.2666 18.2886C49.2666 18.2575 49.2097 15.0862 48.9665 13.6118C48.7027 12.0029 47.4455 10.7302 45.8418 10.4405C45.5676 10.3887 45.2934 10.3629 45.0192 10.3525C43.2085 5.86716 39.3595 3.27527 35.8208 1.33524C34.9983 0.885148 34.155 0.652344 33.3272 0.652344C32.127 0.652344 31.0199 1.12313 30.2025 1.97674C29.3333 2.88209 28.8884 4.1651 28.9505 5.57745C28.9816 6.28104 28.8729 6.9691 28.6091 7.68304C28.5522 7.68304 28.4953 7.68304 28.4383 7.68304C26.9484 7.68304 25.6188 8.3711 24.6876 9.62825C22.7165 12.2926 20.8541 15.2259 20.3678 18.749L19.8505 18.9249L19.3072 19.375C16.6688 21.5737 17.4758 25.8573 18.9658 28.8631C19.9746 30.8859 21.3766 32.5517 23.1045 33.8244C21.3456 33.8244 19.5918 33.8244 17.8328 33.8244H8.20506C4.93545 33.8244 2.63845 36.1783 2.6281 39.5359C2.6281 40.1463 2.6281 40.7568 2.6281 41.3724C2.6281 41.7139 2.6281 42.0553 2.6281 42.3968C1.0709 42.8468 0.036214 44.1868 0.0155203 45.9199C-0.00517343 47.4771 -0.00517343 49.0705 0.0155203 50.6535C0.0413874 52.6401 1.44339 54.1456 3.42998 54.3215C3.60071 54.337 3.77143 54.3422 3.94733 54.3422H63.2504C63.4314 54.3422 63.6694 54.3422 63.9384 54.306C65.8319 54.0784 67.1718 52.5988 67.1925 50.7053C67.208 49.2981 67.2132 48.0099 67.2029 46.789L67.1977 46.7838ZM33.2703 37.7821C32.8668 37.3992 32.4581 37.0319 32.0442 36.6698C31.7649 36.4214 31.9356 35.961 32.3081 35.9507C33.1565 35.9351 33.9998 35.9093 34.8379 35.8731C35.2259 35.8575 35.4225 36.3232 35.1328 36.5818C34.6982 36.9698 34.2636 37.363 33.8446 37.7769C33.6842 37.9321 33.4359 37.9321 33.2755 37.7769L33.2703 37.7821Z" fill="#E3EEFF"/>
<path d="M32.7887 34.042C32.468 34.042 32.1369 34.0317 31.811 34.0161C26.9169 33.742 23.311 31.5484 21.3813 27.6683C20.4967 25.8887 19.6224 22.6294 21.0295 21.4551L21.1951 21.3205L21.3968 21.2533C21.5727 21.1912 21.7435 21.155 21.9142 21.1343L22.9023 21.0205L22.9489 20.0272C23.1144 16.711 24.9199 13.8449 26.8496 11.2375C27.3721 10.5288 27.9981 10.3839 28.4327 10.3839C28.5155 10.3839 28.6086 10.3891 28.7017 10.3994C28.8362 10.415 28.9707 10.4512 29.1001 10.4977L30.052 10.8495L30.5331 9.95452C31.3453 8.43871 31.7075 6.96945 31.6402 5.46916C31.604 4.6052 31.8937 4.10855 32.1472 3.84987C32.4525 3.5343 32.8715 3.3584 33.3268 3.3584C33.7044 3.3584 34.0924 3.47221 34.5218 3.71019C37.8535 5.53641 41.1386 7.75064 42.5924 11.5583C42.6803 11.7911 42.7579 12.0342 42.8148 12.2774L43.0942 13.4155L44.2324 13.1362C44.4496 13.0844 44.6566 13.0586 44.8739 13.0586C45.0342 13.0586 45.1946 13.0741 45.355 13.1C45.8413 13.1879 46.219 13.5708 46.3017 14.0571C46.4776 15.1228 46.5501 17.5698 46.5656 18.3407C46.5914 20.9325 46.1983 23.2658 45.3705 25.4593C43.3115 30.9173 38.7278 34.0472 32.7887 34.0472V34.042Z" fill="#3B84F5"/>
<path d="M32.7884 34.5179C32.4573 34.5179 32.121 34.5075 31.7847 34.492C26.7096 34.2074 22.9692 31.9208 20.9567 27.8803C19.9686 25.8937 19.0943 22.4482 20.7291 21.0876L20.8947 20.9531C20.9412 20.9169 20.9878 20.8859 21.0447 20.8703L21.2464 20.8031C21.4534 20.7307 21.6655 20.6841 21.8673 20.6582L22.4519 20.591L22.4829 20.0012C22.6536 16.5609 24.5057 13.6172 26.4768 10.9529C27.1183 10.0889 27.8995 9.90784 28.4427 9.90784C28.5462 9.90784 28.6548 9.91302 28.7686 9.92854C28.9393 9.94923 29.1101 9.99062 29.2704 10.0527L29.8343 10.2596L30.1189 9.72677C30.8897 8.28856 31.2312 6.90208 31.1691 5.48973C31.1225 4.46022 31.4898 3.84976 31.8054 3.51866C32.1986 3.10478 32.7418 2.88232 33.3264 2.88232C33.7868 2.88232 34.2525 3.01683 34.7543 3.29103C38.1687 5.16381 41.5315 7.44012 43.0421 11.3874C43.1404 11.6461 43.2232 11.91 43.2853 12.1635L43.4508 12.836L44.1234 12.6705C44.5631 12.5618 45.008 12.5463 45.4478 12.6291C46.1306 12.7532 46.6635 13.2964 46.7773 13.9793C46.9584 15.0709 47.0308 17.4921 47.0463 18.3302C47.0722 20.9893 46.6687 23.3743 45.8202 25.6247C43.6888 31.2793 38.9396 34.5179 32.7935 34.5179H32.7884ZM21.4327 21.7343L21.3344 21.8171C20.2118 22.7535 20.9516 25.7334 21.8052 27.4561C23.6521 31.1758 27.1235 33.2762 31.8365 33.5401C32.1572 33.5556 32.478 33.5659 32.7884 33.5659C38.5205 33.5659 42.9438 30.5498 44.9252 25.2885C45.7323 23.1467 46.1151 20.8755 46.0893 18.3405C46.0789 17.58 46.0013 15.164 45.8306 14.1294C45.784 13.8397 45.5564 13.612 45.2667 13.5603C44.9563 13.5034 44.6459 13.5137 44.3406 13.5913L43.2025 13.8707C43.0783 13.9017 42.949 13.881 42.8403 13.8138C42.7317 13.7465 42.6541 13.6431 42.6231 13.5189L42.3437 12.3807C42.292 12.1583 42.2195 11.9358 42.1368 11.7134C40.7399 8.05058 37.5376 5.89326 34.2835 4.1136C33.5333 3.69973 32.8867 3.74111 32.478 4.16533C32.2917 4.36193 32.0744 4.73959 32.1055 5.438C32.1727 7.02624 31.7951 8.5731 30.9415 10.1665L30.4603 11.0615C30.3465 11.2685 30.0982 11.3668 29.8757 11.284L28.9238 10.9322C28.8307 10.896 28.7272 10.8753 28.6289 10.8598C28.0443 10.7822 27.5891 11.0098 27.2218 11.5064C25.3386 14.0518 23.5745 16.8454 23.4141 20.0322L23.3624 21.0255C23.352 21.2583 23.171 21.4498 22.9433 21.4756L21.9552 21.5894C21.8207 21.605 21.681 21.636 21.5413 21.6877L21.4223 21.7291L21.4327 21.7343Z" fill="#3B84F5"/>
<path d="M21.4902 23.2194C21.4437 22.8986 21.4902 22.5934 21.7799 22.3502C22.437 22.1226 22.7784 22.4951 23.1716 22.8313C23.3889 23.0176 23.6062 23.328 24.0304 23.1159C24.4287 22.9193 24.3511 22.6037 24.2942 22.3088C23.4872 18.4029 25.4272 15.1229 27.7915 11.9309C27.9829 11.6723 28.2002 11.5119 28.552 11.5584C28.9245 11.605 28.9917 11.8792 29.0641 12.143C29.1417 12.4224 29.1055 12.7845 29.5504 12.8311C30.0109 12.8828 30.2282 12.5569 30.4299 12.2775C31.982 10.1668 32.9132 7.91117 32.8045 5.41241C32.7683 4.55879 33.1563 4.2846 33.9582 4.72434C37.2226 6.51435 40.187 8.55785 41.4855 11.9361C41.7494 12.619 41.8684 13.3485 41.8373 14.0779C41.7804 15.3868 42.0495 15.5575 43.2962 14.8746C43.8808 14.5539 44.393 14.1038 45.1483 14.2383C45.3242 15.304 45.3915 18.0252 45.3967 18.3356C45.4174 20.6068 45.1018 22.852 44.2792 25.0404C42.2978 30.2914 37.8072 33.1782 31.8733 32.8471C27.4604 32.5988 24.2166 30.7467 22.4266 27.146C21.8058 25.894 21.811 24.5231 21.4851 23.2194H21.4902Z" fill="#E8FFB0"/>
<path d="M32.7998 33.8247C32.479 33.8247 32.1531 33.8144 31.822 33.7988C26.9434 33.5246 23.4979 31.4294 21.5786 27.57C21.1078 26.6181 20.9526 25.6559 20.8078 24.7298C20.7353 24.2797 20.6681 23.8555 20.5698 23.4468C20.5646 23.4158 20.5543 23.3847 20.5543 23.3537C20.4249 22.4587 20.8233 21.9155 21.1751 21.6206C21.263 21.5482 21.3665 21.4913 21.4751 21.455C22.2408 21.1912 22.815 21.3981 23.2289 21.6671C22.7426 17.575 24.9206 14.2226 27.0314 11.372C27.5694 10.6426 28.2213 10.5598 28.6765 10.6219C29.3543 10.7098 29.6802 11.1392 29.8406 11.4858C31.2943 9.42164 31.9513 7.45574 31.8634 5.46397C31.822 4.47067 32.2255 4.00506 32.5721 3.78777C32.9239 3.57049 33.5292 3.41011 34.419 3.90159C37.7042 5.70194 40.9427 7.88513 42.3758 11.6048C42.6758 12.386 42.8207 13.2396 42.7948 14.0777C42.8104 14.0674 42.8259 14.0622 42.8414 14.0519C42.9397 14.0001 43.038 13.938 43.1311 13.8811C43.6484 13.5707 44.352 13.1413 45.3246 13.3172C45.7178 13.3897 46.0282 13.7001 46.0955 14.0984C46.2972 15.3193 46.3541 18.3096 46.3541 18.3406C46.38 20.917 45.992 23.2192 45.1746 25.392C43.1363 30.7983 38.6561 33.8351 32.8049 33.8351L32.7998 33.8247ZM22.5305 23.5348C22.5874 23.84 22.634 24.1349 22.6857 24.4298C22.815 25.2523 22.9392 26.0283 23.2806 26.7216C24.8741 29.9239 27.7815 31.6674 31.9306 31.9002C37.3679 32.2106 41.5532 29.5877 43.3898 24.7091C44.1244 22.7639 44.471 20.6842 44.4503 18.3458C44.4503 18.1078 44.4089 16.5506 44.321 15.3763C44.2589 15.4125 44.1917 15.4539 44.1192 15.4952C44.0002 15.5677 43.8812 15.6401 43.7623 15.7074C43.2294 16.0022 42.3344 16.4989 41.5739 16.0281C40.8289 15.5677 40.8703 14.5744 40.8962 14.0415C40.922 13.4466 40.8238 12.8413 40.6065 12.2825C39.4269 9.22505 36.6488 7.30571 33.7724 5.70712C33.7982 8.12311 32.955 10.4615 31.2063 12.8464C30.9632 13.1827 30.451 13.8863 29.4577 13.7828C28.8835 13.7208 28.4903 13.4155 28.2834 12.8827C25.9553 16.0954 24.5688 18.9252 25.231 22.1224C25.4173 23.0071 25.1534 23.6227 24.4602 23.9693C23.5031 24.4453 22.8357 23.8193 22.6185 23.6124L22.5357 23.5348H22.5305Z" fill="#3B84F5"/>
<path d="M30.9947 16.9438H30.9016C30.2559 16.9438 29.7324 17.4673 29.7324 18.113V20.3221C29.7324 20.9678 30.2559 21.4913 30.9016 21.4913H30.9947C31.6405 21.4913 32.1639 20.9678 32.1639 20.3221V18.113C32.1639 17.4673 31.6405 16.9438 30.9947 16.9438Z" fill="#3B84F5"/>
<path d="M37.569 16.9438H37.4758C36.8301 16.9438 36.3066 17.4673 36.3066 18.113V20.3221C36.3066 20.9678 36.8301 21.4913 37.4758 21.4913H37.569C38.2147 21.4913 38.7382 20.9678 38.7382 20.3221V18.113C38.7382 17.4673 38.2147 16.9438 37.569 16.9438Z" fill="#3B84F5"/>
<path d="M33.3527 24.0884H34.9616C35.8876 24.0884 36.6326 24.8385 36.6326 25.7594V25.9249C36.6326 27.2131 35.5876 28.253 34.3046 28.253H34.0097C32.7215 28.253 31.6816 27.208 31.6816 25.9249V25.7594C31.6816 24.8334 32.4318 24.0884 33.3527 24.0884Z" fill="#FF7F15"/>
<path d="M34.2066 28.9668H34.1032C32.3701 28.9668 30.9629 27.5596 30.9629 25.8265C30.9629 24.4711 32.0648 23.3691 33.4203 23.3691H34.8895C36.245 23.3691 37.3469 24.4711 37.3469 25.8265C37.3469 27.5596 35.9397 28.9668 34.2066 28.9668ZM33.4203 24.797C32.8512 24.797 32.3908 25.2574 32.3908 25.8265C32.3908 26.7733 33.1616 27.5389 34.1032 27.5389H34.2066C35.1534 27.5389 35.919 26.7681 35.919 25.8265C35.919 25.2574 35.4586 24.797 34.8895 24.797H33.4203Z" fill="#3B84F5"/>
<path d="M33.6066 41.5693C33.7928 41.4658 33.8342 41.2382 33.9377 41.0674C35.6863 38.2013 38.1799 36.5872 41.4184 36.5459C47.3524 36.4631 53.2915 36.5096 59.2306 36.5252C60.7619 36.5252 61.8535 37.7047 61.8794 39.3395C61.9001 41.0002 61.9001 42.666 61.8794 44.3267C61.8742 44.7923 61.9777 44.9889 62.4484 44.932C62.8106 44.8906 63.1779 44.9113 63.5452 44.932C64.1143 44.9579 64.4868 45.2941 64.4971 45.8787C64.523 47.4773 64.5178 49.0759 64.4971 50.6745C64.4919 51.2487 64.1557 51.5643 63.6176 51.6316C63.4159 51.6574 63.2141 51.6471 63.0072 51.6471C43.4102 51.6471 23.8081 51.6471 4.21113 51.6471C4.03006 51.6471 3.84381 51.6523 3.66274 51.6367C3.05745 51.585 2.71601 51.2487 2.71083 50.6176C2.69014 49.0604 2.69014 47.5084 2.71083 45.9511C2.72118 45.2941 3.08332 44.9578 3.71965 44.9268C3.76104 44.9268 3.80243 44.9268 3.84381 44.9268C4.32494 44.8751 4.9768 45.1596 5.23547 44.8026C5.47344 44.4767 5.32342 43.8249 5.32342 43.3127C5.32859 42.0556 5.32342 40.7984 5.32342 39.5413C5.32859 37.6374 6.39949 36.52 8.20502 36.52C13.8958 36.52 19.5917 36.5148 25.2825 36.52C28.847 36.5252 31.5682 38.1186 33.4048 41.3364C33.4462 41.4089 33.4927 41.4761 33.5393 41.5486C33.5497 41.5589 33.5755 41.5589 33.6066 41.5693ZM33.5341 49.6346C37.2952 49.6346 41.0563 49.6346 44.8174 49.6346C50.5082 49.6346 56.2041 49.6295 61.8949 49.645C62.4122 49.645 62.6554 49.5105 62.5985 48.931C62.5622 48.5948 62.5933 48.2482 62.5933 47.9067C62.5933 47.2721 62.2812 46.9548 61.6569 46.9548C43.1929 46.9548 24.7341 46.9548 6.27015 46.9548C5.15269 46.9548 4.59569 47.5497 4.59914 48.7396C4.59914 49.3363 4.8923 49.6346 5.47862 49.6346C14.8322 49.6346 24.1857 49.6346 33.5393 49.6346H33.5341ZM19.8556 44.9268C23.8598 44.9268 27.8641 44.9268 31.8683 44.9268C32.358 44.9268 32.5443 44.6837 32.427 44.1974C31.6251 40.8346 28.8884 38.5635 25.536 38.5531C19.7625 38.5324 13.9941 38.548 8.22054 38.548C7.46004 38.548 7.25311 38.7704 7.25311 39.5775C7.25311 41.1554 7.2738 42.7281 7.23758 44.306C7.22724 44.8182 7.37209 44.9372 7.84805 44.9372C11.8523 44.9165 15.8565 44.9268 19.8556 44.9268ZM47.2799 44.9268C51.3049 44.9268 55.3298 44.9165 59.3496 44.9372C59.8359 44.9372 59.9652 44.8026 59.9548 44.3008C59.9238 42.7022 59.9497 41.1036 59.9393 39.5102C59.9393 38.7911 59.7117 38.548 59.0288 38.548C53.1983 38.548 47.3627 38.5221 41.5323 38.5583C38.2885 38.579 35.5932 40.8553 34.7809 44.1404C34.6533 44.6612 34.8361 44.9234 35.3293 44.9268C39.3129 44.9268 43.2964 44.9268 47.2799 44.9268Z" fill="#3B84F5"/>
<path d="M3.94726 52.1229C3.83344 52.1229 3.71963 52.1229 3.61098 52.1125C2.75219 52.0349 2.23485 51.4814 2.2245 50.6278C2.20381 49.0654 2.20381 47.4875 2.2245 45.951C2.23485 45.0612 2.78323 44.5024 3.68341 44.461C3.71445 44.461 3.74032 44.461 3.77136 44.461C3.99899 44.4403 4.22145 44.4662 4.42321 44.4921C4.5629 44.5076 4.80087 44.5386 4.86813 44.5076C4.90951 44.4352 4.87847 44.0316 4.86813 43.8144C4.85261 43.6436 4.84226 43.4781 4.84226 43.3229C4.84226 42.671 4.84226 42.0243 4.84226 41.3725C4.84226 40.7672 4.84226 40.1567 4.84226 39.5514C4.85261 37.3941 6.13562 36.0542 8.19982 36.0542H10.2692C15.2719 36.0542 20.2746 36.049 25.2773 36.0542C28.8832 36.0542 31.6768 37.6321 33.591 40.731C35.4793 37.689 38.1126 36.1215 41.4132 36.0801C46.1521 36.018 50.9686 36.0335 55.6298 36.049L59.2305 36.0594C61.0102 36.0594 62.3242 37.4459 62.3501 39.3445C62.3708 41.0104 62.3708 42.6917 62.3501 44.3472C62.3501 44.4041 62.3501 44.4455 62.3501 44.4766C62.3605 44.4766 62.3708 44.4766 62.3863 44.4766C62.7692 44.43 63.1468 44.4507 63.5141 44.4662H63.5659C64.404 44.5076 64.9575 45.0612 64.9679 45.8786C64.9886 47.3789 64.9886 48.9464 64.9679 50.6847C64.9575 51.4814 64.4712 52.0091 63.6693 52.1074C63.4779 52.1281 63.2969 52.1281 63.121 52.1281H63.002H4.08177C4.04038 52.1281 3.99899 52.1281 3.9576 52.1281L3.94726 52.1229ZM3.74549 45.4078C3.32645 45.4285 3.17642 45.5785 3.17124 45.9613C3.15055 47.4927 3.15055 49.0602 3.17124 50.6174C3.17124 50.9899 3.31093 51.1348 3.68859 51.1658C3.81275 51.1761 3.93691 51.1761 4.06107 51.1761H4.19558H62.9916H63.1158C63.2606 51.1761 63.4003 51.1761 63.5452 51.1606C63.8711 51.1244 64.0004 50.9796 64.0056 50.6743C64.0263 48.9464 64.0263 47.384 64.0056 45.8941C64.0056 45.682 63.9435 45.4388 63.509 45.4181H63.4572C63.1158 45.3974 62.795 45.3819 62.4898 45.4181C62.3605 45.4336 61.9673 45.4802 61.6776 45.2215C61.4137 44.9836 61.3827 44.6369 61.3879 44.3317C61.4137 42.6865 61.4137 41.0155 61.3879 39.36C61.3672 37.9839 60.4773 37.0165 59.215 37.0113L55.6091 37.0009C50.953 36.9854 46.1418 36.9699 41.4132 37.032C38.4282 37.0734 36.0432 38.5168 34.3308 41.3259C34.3101 41.3621 34.2946 41.4035 34.2739 41.4398C34.2015 41.6001 34.0928 41.8433 33.8238 41.9933L33.6479 42.0916L33.291 41.9985L33.1409 41.8278C33.084 41.745 33.0271 41.6674 32.9805 41.5794C31.2268 38.5064 28.7021 37.0113 25.267 37.0061C20.2643 36.9958 15.2615 37.0009 10.2588 37.0061H8.18947C6.64261 37.0061 5.789 37.9115 5.77865 39.5566C5.77865 40.1619 5.77865 40.7672 5.77865 41.3725C5.77865 42.0243 5.77865 42.6762 5.77865 43.3281C5.77865 43.4574 5.789 43.6022 5.79935 43.7419C5.83556 44.1972 5.87177 44.7145 5.59758 45.0922C5.26131 45.5526 4.70258 45.4854 4.29905 45.4336C4.14385 45.4129 3.98347 45.3923 3.86966 45.4078C3.82827 45.4078 3.78171 45.4078 3.74032 45.4078H3.74549ZM61.9052 50.1259H61.8949C57.4147 50.1156 52.9396 50.1156 48.4543 50.1156H5.47342C4.34044 50.1156 4.12315 49.8983 4.12315 48.7446C4.12315 47.7151 4.12315 47.1978 4.48012 46.8356C4.83191 46.4838 5.34408 46.4838 6.27013 46.4838H61.6569C62.8571 46.4838 63.0692 46.696 63.0692 47.9117C63.0692 48.0255 63.0692 48.1342 63.064 48.248C63.0589 48.4704 63.0537 48.6877 63.0744 48.8843C63.1158 49.2878 63.0434 49.5879 62.8468 49.8C62.5881 50.0846 62.2104 50.1208 61.9104 50.1208L61.9052 50.1259ZM52.0964 49.1637C55.366 49.1637 58.6304 49.1637 61.9 49.174C62.0242 49.174 62.0966 49.1637 62.1328 49.1585C62.1328 49.1275 62.138 49.0757 62.1328 48.9878C62.107 48.7239 62.1121 48.4704 62.1173 48.2273C62.1173 48.1238 62.1173 48.0204 62.1173 47.9169C62.1173 47.741 62.1173 47.5599 62.107 47.4461C61.9983 47.4358 61.8224 47.4358 61.6517 47.4358H6.27013C5.7683 47.4358 5.24579 47.4358 5.14749 47.5082C5.06989 47.6065 5.06989 48.1859 5.06989 48.7395C5.06989 48.8947 5.06989 49.0499 5.07507 49.1533C5.17853 49.1585 5.32856 49.1585 5.46825 49.1585H48.4543C49.6649 49.1585 50.8806 49.1585 52.0912 49.1585L52.0964 49.1637ZM59.365 45.4181H59.3495C56.2765 45.4026 53.1983 45.4026 50.1201 45.4078H47.2799H35.3293C34.8585 45.4078 34.5481 45.4078 34.336 45.1336C34.1187 44.8542 34.1963 44.5438 34.3205 44.0368C35.1896 40.5034 38.0919 38.1132 41.5322 38.0925C45.8624 38.0667 50.2702 38.0718 54.5279 38.077H59.0339C59.9755 38.077 60.4153 38.5375 60.4204 39.5152C60.4204 40.0843 60.4204 40.6586 60.4204 41.2276C60.4204 42.2365 60.4204 43.2763 60.4359 44.2955C60.4411 44.5852 60.4153 44.9111 60.1773 45.1491C59.9445 45.3819 59.6289 45.4181 59.3702 45.4181H59.365ZM52.9603 44.4559C55.0918 44.4559 57.2232 44.4559 59.3495 44.4714C59.4116 44.4714 59.4426 44.4714 59.4737 44.4714C59.4737 44.4403 59.4737 44.3886 59.4737 44.3214C59.453 43.2918 59.4582 42.2416 59.4582 41.2276C59.4582 40.6586 59.4582 40.0895 59.4582 39.5204C59.4582 39.0341 59.4168 39.0341 59.0184 39.0341H54.5124C50.2546 39.0238 45.852 39.0186 41.5219 39.0445C38.5213 39.06 35.9967 41.1604 35.231 44.2644C35.2155 44.3265 35.2 44.399 35.1844 44.461C35.231 44.461 35.2775 44.461 35.3189 44.461H47.2696H50.1098C51.0565 44.461 52.0033 44.461 52.95 44.461L52.9603 44.4559ZM7.8325 45.4181C7.55831 45.4181 7.24791 45.3819 7.02027 45.1491C6.7823 44.9059 6.75643 44.5697 6.7616 44.3007C6.7823 43.2453 6.7823 42.164 6.77712 41.1242C6.77712 40.612 6.77712 40.0947 6.77712 39.5825C6.77712 38.5116 7.19617 38.077 8.22051 38.077H12.6748C16.9636 38.0718 21.2524 38.0667 25.5412 38.0822C29.085 38.0977 32.039 40.5085 32.8926 44.0937C33.0064 44.5593 33.0788 44.8646 32.8616 45.1388C32.6494 45.4078 32.339 45.4078 31.8683 45.4078H19.8607H17.0412C13.9785 45.4078 10.9159 45.4078 7.8532 45.4181H7.83768H7.8325ZM7.71869 44.461C7.74973 44.461 7.78594 44.461 7.84802 44.461C10.9107 44.4455 13.9785 44.4455 17.0412 44.4507H19.8607H31.8683C31.9096 44.4507 31.9562 44.4507 31.9976 44.4507C31.9872 44.4041 31.9769 44.3576 31.9614 44.311C31.2112 41.1656 28.6245 39.0445 25.5308 39.0289C21.2472 39.0134 16.9584 39.0186 12.6697 39.0186H8.21534C7.73421 39.0186 7.72386 39.0186 7.72386 39.5773C7.72386 40.0895 7.72386 40.6017 7.72386 41.1138C7.72386 42.164 7.72903 43.2453 7.70834 44.311C7.70834 44.3731 7.70834 44.4196 7.70834 44.4507L7.71869 44.461Z" fill="#3B84F5"/>
<path d="M33.5339 49.6344C24.1804 49.6344 14.8268 49.6344 5.47323 49.6344C4.89036 49.6344 4.5972 49.3361 4.59375 48.7394C4.59375 47.5495 5.15076 46.9546 6.26477 46.9546C24.7287 46.9546 43.1875 46.9546 61.6515 46.9546C62.2758 46.9546 62.5879 47.2719 62.5879 47.9065C62.5879 48.2479 62.5569 48.5894 62.5931 48.9308C62.6552 49.5103 62.412 49.6448 61.8895 49.6448C56.1987 49.6293 50.5028 49.6344 44.812 49.6344C41.0509 49.6344 37.2898 49.6344 33.5287 49.6344H33.5339Z" fill="#E8FFB0"/>
<path d="M19.8548 44.9269C15.8506 44.9269 11.8464 44.9166 7.8473 44.9373C7.37135 44.9373 7.22649 44.8183 7.23684 44.3061C7.26788 42.7282 7.24719 41.1555 7.25236 39.5776C7.25236 38.7705 7.4593 38.5481 8.21979 38.5481C13.9933 38.5481 19.7617 38.5325 25.5353 38.5532C28.8876 38.5636 31.6244 40.8347 32.4263 44.1975C32.5435 44.6838 32.3573 44.9269 31.8675 44.9269C27.8633 44.9269 23.8591 44.9269 19.8548 44.9269Z" fill="#E8FFB0"/>
<path d="M47.2803 44.927C43.2967 44.927 39.3132 44.927 35.3297 44.927C34.833 44.927 34.6502 44.6649 34.7813 44.1407C35.5935 40.8555 38.2889 38.5792 41.5326 38.5585C47.3631 38.5223 53.1987 38.543 59.0291 38.5482C59.712 38.5482 59.9397 38.7913 59.9397 39.5104C59.9448 41.109 59.9242 42.7076 59.9552 44.301C59.9655 44.8028 59.8362 44.9425 59.3499 44.9374C55.325 44.9167 51.3 44.927 47.2803 44.927Z" fill="#E8FFB0"/>
<path d="M63.8198 46.0029H3.92186C3.54757 46.0029 3.24414 46.3064 3.24414 46.6806V46.7324C3.24414 47.1067 3.54757 47.4101 3.92186 47.4101H63.8198C64.1941 47.4101 64.4976 47.1067 64.4976 46.7324V46.6806C64.4976 46.3064 64.1941 46.0029 63.8198 46.0029Z" fill="#3B84F5"/>
<path d="M63.7934 47.8859H3.94712C3.29527 47.8859 2.76758 47.3582 2.76758 46.7064C2.76758 46.0545 3.29527 45.5269 3.94712 45.5269H63.7934C64.4452 45.5269 64.9729 46.0545 64.9729 46.7064C64.9729 47.3582 64.4452 47.8859 63.7934 47.8859ZM3.94712 46.4788C3.82296 46.4788 3.71949 46.5822 3.71949 46.7064C3.71949 46.8306 3.82296 46.934 3.94712 46.934H63.7934C63.9175 46.934 64.021 46.8306 64.021 46.7064C64.021 46.5822 63.9175 46.4788 63.7934 46.4788H3.94712Z" fill="#3B84F5"/>
</g>
<g clip-path="url(#clip1_20_62275)">
<path d="M109.14 35.8964C107.744 38.3636 105.835 40.2349 103.409 41.5102C100.984 42.7856 98.2547 43.4271 95.2218 43.4271C92.1889 43.4271 89.4321 42.7894 86.9987 41.5102C84.5653 40.2349 82.6525 38.3636 81.2563 35.8964C79.8602 33.4292 79.1621 30.48 79.1621 27.0449C79.1621 23.6098 79.8602 20.6605 81.2563 18.1933C82.6525 15.7262 84.5614 13.8549 86.9869 12.5795C89.4085 11.3042 92.1534 10.6665 95.2218 10.6665C98.2902 10.6665 100.988 11.3042 103.409 12.5833C105.835 13.8587 107.744 15.7299 109.14 18.1971C110.536 20.6643 111.234 23.6136 111.234 27.0487C111.234 30.4838 110.536 33.433 109.14 35.9002V35.8964ZM100.448 20.3189C99.2367 18.7551 97.4935 17.9732 95.2218 17.9732C92.9501 17.9732 91.1793 18.7551 89.9606 20.3189C88.7419 21.8828 88.1306 24.126 88.1306 27.0449C88.1306 29.9638 88.7419 32.207 89.9606 33.7708C91.1793 35.3347 92.9343 36.1166 95.2218 36.1166C97.5093 36.1166 99.2367 35.3347 100.448 33.7708C101.658 32.207 102.266 29.9676 102.266 27.0449C102.266 24.1222 101.658 21.8828 100.448 20.3189Z" fill="#3B84F5"/>
<path d="M115.486 11.1069H129.578C132.019 11.1069 134.165 11.5738 136.018 12.5037C137.872 13.4337 139.304 14.747 140.317 16.4323C141.331 18.1214 141.84 20.0723 141.84 22.289C141.84 24.5057 141.323 26.4946 140.286 28.1685C139.249 29.8424 137.785 31.1292 135.892 32.0325C134.003 32.9359 131.806 33.3876 129.306 33.3876H124.183V42.9869H115.49V11.1069H115.486ZM127.563 26.8704C129.195 26.8704 130.465 26.4643 131.373 25.6482C132.28 24.8321 132.733 23.7162 132.733 22.2928C132.733 20.8694 132.28 19.8028 131.373 19.002C130.465 18.2011 129.195 17.8025 127.563 17.8025H124.179V26.8742H127.563V26.8704Z" fill="#3B84F5"/>
<path d="M145.27 11.1069H168.921V17.886H153.962V23.6555H167.687V30.4346H153.962V36.204H168.878V42.9831H145.27V11.1069Z" fill="#3B84F5"/>
<path d="M202.001 42.9831H194.728L182.423 25.7659H182.194V42.9831H173.502V11.1069H180.913L193.036 28.2331H193.312V11.1069H202.005V42.9831H202.001Z" fill="#3B84F5"/>
</g>
<defs>
<clipPath id="clip0_20_62275">
<rect width="67.2029" height="53.6847" fill="white" transform="translate(0 0.657715)"/>
</clipPath>
<clipPath id="clip1_20_62275">
<rect width="122.838" height="32.7568" fill="white" transform="translate(79.1621 10.6665)"/>
</clipPath>
</defs>
</svg>
